<?xml version="1.0" encoding="utf-8"?>
<!-- Generator: Adobe Illustrator 22.1.0, SVG Export Plug-In . SVG Version: 6.00 Build 0)  -->
<svg version="1.1" id="Layer_1" xmlns="http://www.w3.org/2000/svg" xmlns:xlink="http://www.w3.org/1999/xlink" x="0px" y="0px"
	 viewBox="0 0 256 256" style="enable-background:new 0 0 256 256;" xml:space="preserve">
<style type="text/css">
	.st0{fill:#F6D67A;}
	.st1{fill:#E77CAE;}
	.st2{fill:#AC6535;}
	.st3{fill:#EB573B;}
	.st4{fill:#464646;}
	.st5{fill:#F5B31F;}
	.st6{fill:#9B592D;}
	.st7{fill:#9B5B2F;}
	.st8{fill:#E8A41A;}
	.st9{fill:#6D6E71;}
	.st10{fill:#E5A21C;}
	.st11{fill:#C66395;}
	.st12{fill:#E09F1E;}
	.st13{fill:#FFFFFF;}
	.st14{fill:#DDB95E;}
	.st15{fill:#EAC771;}
	.st16{fill:#F9F6CD;}
	.st17{fill:#009345;}
	.st18{fill:#008438;}
	.st19{fill:#EAA51B;}
	.st20{opacity:0.1;}
	.st21{fill:#FFD11D;}
	.st22{fill:#FFE37B;}
	.st23{fill:#FFA755;}
	.st24{fill:#FFEC97;}
	.st25{fill:#BC7532;}
	.st26{fill:#EFEFEF;}
	.st27{fill:#60ACF7;}
	.st28{fill:#876C6C;}
	.st29{fill:#1DDCFF;}
	.st30{fill:#BDF3FF;}
	.st31{fill:#EFCA70;}
	.st32{fill:#EFA91D;}
	.st33{fill:#8FAE3C;}
	.st34{fill:#92A5AC;}
	.st35{fill:#E8E3BA;}
	.st36{fill:#F79932;}
	.st37{fill:#F4F4F4;}
	.st38{fill:#FFDF8F;}
	.st39{fill:#EAE5B9;}
	.st40{fill:#7E9E6A;}
	.st41{fill:#94B57F;}
	.st42{fill:#9B5D8C;}
	.st43{fill:#96557A;}
	.st44{fill:#C3755A;}
	.st45{fill:#9BD7DD;}
	.st46{fill:#90CAD3;}
	.st47{fill:#F7F7F7;}
	.st48{fill:#AFE6EF;}
	.st49{fill:#FFFAEB;}
	.st50{fill:#F4EFC3;}
	.st51{fill:#F9F9F9;}
	.st52{fill:#FFE5C4;}
	.st53{fill:#FFB024;}
	.st54{fill:#FFC612;}
	.st55{fill:#FFCE31;}
	.st56{fill:#A05C2D;}
	.st57{fill:#1DCAF2;}
	.st58{fill:#00B0E0;}
	.st59{fill:#F2A355;}
	.st60{fill:#D68032;}
	.st61{fill:#66625D;}
	.st62{fill:#54504D;}
	.st63{fill:#B76955;}
	.st64{fill:#EFE8B4;}
	.st65{fill:#B93226;}
	.st66{fill:#EFEABF;}
	.st67{fill:#90C056;}
	.st68{opacity:0.15;}
	.st69{fill:#E8C56D;}
	.st70{fill:#F7BE4B;}
	.st71{fill:#E0A338;}
	.st72{fill:#F68455;}
	.st73{fill:#E26F47;}
	.st74{fill:#EC754B;}
	.st75{fill:#4AA5BA;}
	.st76{opacity:0.5;}
	.st77{fill:#A0B1B5;}
	.st78{opacity:0.7;}
	.st79{fill:#00ADEE;}
	.st80{fill:#F4D4B3;}
	.st81{fill:#F9D97A;}
	.st82{fill:#EDC96E;}
	.st83{fill:none;}
	.st84{fill:#AF6535;}
	.st85{fill:#F18BB4;}
	.st86{fill:#B3E4FF;}
	.st87{fill:#97DFFF;}
	.st88{fill:#D06E3C;}
	.st89{fill:#B55931;}
	.st90{fill:#DA4F4B;}
	.st91{fill:#EFCAA8;}
	.st92{fill:#EA7CB1;}
	.st93{fill:#EA7DAE;}
	.st94{fill:#BC7646;}
	.st95{fill:#00A1C6;}
	.st96{fill:#FCC230;}
	.st97{fill:#F2EBB1;}
	.st98{fill:#F9D6AF;}
	.st99{fill:#D34735;}
	.st100{fill:#E5A21A;}
	.st101{fill:#849E33;}
	.st102{fill:#EFBB14;}
	.st103{fill:#D8402B;}
	.st104{fill:#829B34;}
	.st105{fill:#F88916;}
	.st106{fill:#E27513;}
	.st107{fill:#FFB41F;}
	.st108{fill:#8AA538;}
	.st109{fill:#BE6BB2;}
	.st110{fill:#AA5BA3;}
	.st111{fill:#FFDF66;}
	.st112{fill:#F4BA00;}
	.st113{fill:#E28529;}
	.st114{fill:#FF9945;}
	.st115{fill:#BA6C45;}
	.st116{fill:#EDBA15;}
	.st117{fill:#E0452F;}
	.st118{fill:#F7F2D5;}
	.st119{fill:#4C4E51;}
	.st120{fill:#EA615D;}
	.st121{fill:#DD4A36;}
	.st122{fill:#F6AF72;}
	.st123{fill:#E8955D;}
	.st124{fill:#E4C074;}
	.st125{fill:#EAE4C3;}
	.st126{fill:#BF3522;}
	.st127{fill:#D13E33;}
	.st128{fill:#AA5EA3;}
	.st129{fill:#DD443C;}
	.st130{fill:#AA5FA3;}
	.st131{fill:#B7C536;}
	.st132{fill:#F2872F;}
	.st133{fill:#AF5FA7;}
	.st134{fill:#E29F17;}
	.st135{fill:#FFC86E;}
	.st136{fill:#A55937;}
	.st137{fill:#D8422E;}
	.st138{fill:#C3556D;}
	.st139{fill:#B24965;}
	.st140{fill:#D1A962;}
	.st141{fill:#A3961A;}
	.st142{fill:#AFA51D;}
	.st143{fill:#968A1C;}
</style>
<g>
	<g>
		<g>
			<g>
				<g>
					<g>
						<path class="st0" d="M223.8,195.9V220c0,1.3-0.6,2.5-1.7,3.3c-0.7,0.5-1.5,0.7-2.3,0.7c-0.4,0-0.9-0.1-1.3-0.2l-78.7-27.5
							c-1.6-0.6-2.7-2.1-2.7-3.8v-19.4c0-1.5,0.8-2.8,2.1-3.5c0.7-0.4,1.4-1,1.9-1.9c1-1.6,2.9-2.3,4.7-1.7l75.3,26.1
							C222.7,192.7,223.8,194.2,223.8,195.9z"/>
					</g>
				</g>
			</g>
		</g>
		<g>
			<g>
				<g>
					<g>
						<path class="st5" d="M223.8,174.7v21.2c0,1.3-0.6,2.5-1.7,3.3c-0.7,0.5-1.5,0.7-2.3,0.7c-0.4,0-0.9-0.1-1.3-0.2l-75.3-26.1
							c-1.1-0.4-2.1-1.3-2.4-2.4c-0.4-1.1-0.3-2.4,0.4-3.4c0.9-1.5,1.4-3.4,1.4-5.4c0-2.1,0.1-7.4,0.1-12.8c0-1.3,0.6-2.5,1.7-3.2
							c1-0.7,2.4-0.9,3.6-0.5l73.2,25.1C222.7,171.4,223.8,173,223.8,174.7z"/>
					</g>
				</g>
			</g>
		</g>
		<g>
			<g>
				<g>
					<g>
						<path class="st0" d="M223.8,151.6v23c0,1.3-0.6,2.5-1.7,3.2c-0.7,0.5-1.5,0.8-2.3,0.8c-0.4,0-0.9-0.1-1.3-0.2l-73.2-25.1
							c-1.6-0.6-2.7-2.1-2.7-3.8c0.1-7.3,0.2-16.1,0.3-22.3c0-1.3,0.6-2.5,1.7-3.2c1-0.7,2.4-0.9,3.6-0.5l72.9,24.3
							C222.7,148.4,223.8,149.9,223.8,151.6z"/>
					</g>
				</g>
			</g>
		</g>
		<g>
			<g>
				<g>
					<g>
						<path class="st5" d="M223.8,130.5v21.2c0,1.3-0.6,2.5-1.7,3.2c-0.7,0.5-1.5,0.8-2.3,0.8c-0.4,0-0.9-0.1-1.3-0.2l-72.9-24.3
							c-1.7-0.6-2.8-2.1-2.7-3.9l0.1-7.4l-4.9-14.6c-0.5-1.4-0.1-3,1-4.1c1.1-1.1,2.7-1.4,4.1-1l77.9,26.4
							C222.7,127.2,223.8,128.8,223.8,130.5z"/>
					</g>
				</g>
			</g>
		</g>
		<g>
			<g>
				<g>
					<g>
						<path class="st0" d="M223.8,106.1v24.4c0,1.3-0.6,2.5-1.7,3.2c-0.7,0.5-1.5,0.8-2.3,0.8c-0.4,0-0.9-0.1-1.3-0.2l-77.9-26.4
							c-1.2-0.4-2.1-1.3-2.5-2.5l-8.9-26.7c-0.5-1.4-0.1-3,1-4.1c1.1-1.1,2.7-1.4,4.1-1l86.8,28.8
							C222.7,102.9,223.8,104.4,223.8,106.1z"/>
					</g>
				</g>
			</g>
		</g>
	</g>
	<g>
		<g>
			<g>
				<g>
					<path class="st1" d="M247.1,147.4v41c0,19.2-24.1,34.4-25.1,35.1c-0.7,0.4-1.4,0.6-2.1,0.6c-0.7,0-1.3-0.2-1.9-0.5
						c-1.3-0.7-2.1-2.1-2.1-3.5v-66.7c0-1.9,1.3-3.6,3.2-3.9c1.9-0.4,3.7,0.6,4.5,2.4c2.1,5,5,5.5,7.7,5.4c1-0.8,2.5-3.8,3.4-5.6
						c1.7-3.5,3.2-6.4,5.9-7.6c0.4-0.2,0.9-0.4,1.5-0.5c1.2-0.3,2.5-0.1,3.5,0.7C246.5,145,247.1,146.1,247.1,147.4z"/>
				</g>
			</g>
		</g>
	</g>
	<g>
		<g>
			<g>
				<g>
					<path class="st1" d="M145.1,173.1v65.8c0,2.2-1.8,4-4,4c-15.3,0-45.3-0.9-73.1-6.7c-40.4-8.5-60.8-24.1-60.8-46.4v-49.2
						c0-2.1,1.6-3.8,3.7-4l0.1,0c0.3,0,0.6,0,0.9-0.1c1.4-0.2,3.1-1.6,4.9-3c3-2.5,6.8-5.6,12.3-5.6c1.8,0,3.7,0.3,5.5,1
						c6.4,2.3,11,9.6,15.5,16.6c3.6,5.7,7.7,12.2,11.1,12.8c0.1,0,0.2,0,0.3,0c3.2,0,9.3-4.5,14.7-8.5C83.5,144.5,91,139,97.8,139
						c1.7,0,3.2,0.3,4.7,1c6,2.8,14.3,10.6,22.3,18.2c4.8,4.5,11.3,10.7,13.5,11.7c0.3,0,0.7-0.1,1-0.3c1.2-0.7,2.7-0.6,4,0.1
						C144.4,170.4,145.1,171.7,145.1,173.1z"/>
				</g>
			</g>
		</g>
	</g>
	<g>
		<g>
			<g>
				<g>
					<path class="st7" d="M236,94.6v66.6c0,2.1-1.6,3.9-3.8,4c-0.4,0-0.9,0.1-1.3,0.1c-6.8,0-12-3.6-14.8-10.4
						c-0.2-0.5-0.3-1-0.3-1.5V109l-84-27.9c-1.2-0.4-2.1-1.3-2.5-2.5l-5-15.1c-0.5-1.4-0.1-3,0.9-4.1c1.1-1.1,2.6-1.5,4-1l104,32.3
						C234.9,91.3,236,92.8,236,94.6z"/>
				</g>
			</g>
		</g>
	</g>
	<g>
		<g>
			<g>
				<g>
					<path class="st7" d="M147,119.2c0,0,0,3.3-0.1,8.1c-0.1,6.2-0.2,15-0.3,22.3c-0.1,5.8-0.1,10.8-0.1,12.7c0,2.8-0.7,5.4-2,7.5
						c-0.9,1.5-2.1,2.6-3.4,3.3c-1,0.5-2.1,0.8-3.2,0.8c-4.9,0-26.6-25.5-37.1-30.3s-30,20.2-40.1,18.7s-16.9-25.8-27.4-29.6
						c-10.5-3.7-14.2,7.1-21,7.9c-0.4,0-0.8,0.1-1.1,0.1c-5.8,0.4-7.1-1.5-7.1-6.1c0-4.9,0-68.3,0-68.3C4,92.8,81.7,118.5,147,119.2
						z"/>
				</g>
			</g>
		</g>
	</g>
	<g>
		<g>
			<g>
				<g>
					<path class="st7" d="M137.9,177.9c-3.6,0-7.8-3.6-18.7-13.9c-6.8-6.5-15.3-14.6-20.1-16.8c-0.4-0.2-0.8-0.3-1.3-0.3
						c-4.1,0-10.8,5-16.7,9.3c-7,5.2-13.6,10.1-19.5,10.1h0c-0.5,0-1,0-1.5-0.1c-7-1-11.7-8.5-16.7-16.4c-3.6-5.6-7.6-12-11.4-13.4
						c-1-0.4-2-0.6-2.9-0.6c-2.7,0-4.8,1.8-7.2,3.8c-2.5,2.1-5.3,4.4-9.1,4.8c-0.4,0-0.7,0.1-1.1,0.1l-0.1,0c-0.7,0-1.2,0.1-1.8,0.1
						c-1.3,0-5.2,0-7.6-2.9c-1.8-2.2-2.1-5-2.1-7.2V66.3c0-2.2,1.8-4,4-4s4,1.8,4,4c0,10.2,17,22.6,44.4,32.4
						c28.2,10,63.5,16.2,94.7,16.6c1.1,0,2.1,0.4,2.8,1.2c0.7,0.8,1.2,1.8,1.1,2.8l-0.1,8.1c-0.1,6.2-0.2,15-0.3,22.3
						c-0.1,5.4-0.1,10.7-0.1,12.7c0,3.5-0.9,6.8-2.6,9.6c-1.3,2.1-3,3.7-4.9,4.7C141.4,177.5,139.7,177.9,137.9,177.9z M97.8,139
						c1.7,0,3.2,0.3,4.7,1c6,2.8,14.3,10.6,22.3,18.2c4.8,4.5,11.3,10.7,13.5,11.7c0.3,0,0.7-0.1,1-0.3c0.7-0.4,1.4-1,1.9-1.9
						c0.9-1.5,1.4-3.4,1.4-5.4c0-2.1,0.1-7.4,0.1-12.8c0.1-7.3,0.2-16.1,0.3-22.3l0.1-4.1c-31-0.8-65.5-7.1-93.3-17
						C37,101.7,18.5,93.7,8,83v51.6c0,1.2,0.1,1.8,0.2,2c0.2,0.1,0.7,0.2,1.5,0.2c0.4,0,0.7,0,1.1,0l0.1,0c0.3,0,0.6,0,0.9-0.1
						c1.4-0.2,3.1-1.6,4.9-3c3-2.5,6.8-5.6,12.3-5.6c1.8,0,3.7,0.3,5.6,1c6.4,2.3,11,9.6,15.5,16.7c3.6,5.7,7.7,12.2,11.1,12.7
						c0.1,0,0.2,0,0.3,0c3.2,0,9.4-4.5,14.7-8.5C83.5,144.5,91,139,97.8,139z"/>
				</g>
			</g>
		</g>
	</g>
	<g>
		<g>
			<g>
				<g>
					<path class="st7" d="M256,62.3v77.5c0,9.1-7.3,10.5-10.4,11.1c-0.6,0.1-1.1,0.2-1.5,0.3c0,0-0.1,0-0.1,0
						c-0.6,0.7-1.6,2.6-2.2,4c-2.1,4.2-4.5,8.9-8.9,9.8c-0.3,0.1-0.5,0.1-0.8,0.1c-0.9,0-1.8-0.3-2.5-0.9c-0.9-0.8-1.5-1.9-1.5-3.1
						V94.6c0-1,0.4-2,1.1-2.8c7.3-7.7,18.9-22.5,18.9-29.5c0-2.2,1.8-4,4-4C254.2,58.3,256,60.1,256,62.3z"/>
				</g>
			</g>
		</g>
	</g>
	<g>
		<g>
			<g>
				<g>
					<path class="st2" d="M256,62.3c0,12.5-18.9,32.8-21.1,35c-1.1,1.1-2.6,1.5-4.1,1.1l-96.6-30l16.5,49.5c0.4,1.2,0.2,2.6-0.6,3.6
						c-0.8,1-1.9,1.6-3.2,1.6h0c-32-0.4-68.3-6.7-97.3-17.1C31.1,99.6,0,85.6,0,66.3c0.3-17.5,14.5-31.7,41-41.1
						c22.1-7.8,52.3-12.1,85-12.1c32.4,0,64.4,4.3,87.7,11.9C241.4,34,256,46.9,256,62.3z"/>
				</g>
			</g>
		</g>
	</g>
</g>
</svg>
