<?xml version="1.0" encoding="utf-8"?>
<!-- Generator: Adobe Illustrator 22.1.0, SVG Export Plug-In . SVG Version: 6.00 Build 0)  -->
<svg version="1.1" id="Layer_1" xmlns="http://www.w3.org/2000/svg" xmlns:xlink="http://www.w3.org/1999/xlink" x="0px" y="0px"
	 viewBox="0 0 256 256" style="enable-background:new 0 0 256 256;" xml:space="preserve">
<style type="text/css">
	.st0{fill:#F6D67A;}
	.st1{fill:#E77CAE;}
	.st2{fill:#AC6535;}
	.st3{fill:#EB573B;}
	.st4{fill:#464646;}
	.st5{fill:#F5B31F;}
	.st6{fill:#9B592D;}
	.st7{fill:#9B5B2F;}
	.st8{fill:#E8A41A;}
	.st9{fill:#6D6E71;}
	.st10{fill:#E5A21C;}
	.st11{fill:#C66395;}
	.st12{fill:#E09F1E;}
	.st13{fill:#FFFFFF;}
	.st14{fill:#DDB95E;}
	.st15{fill:#EAC771;}
	.st16{fill:#F9F6CD;}
	.st17{fill:#009345;}
	.st18{fill:#008438;}
	.st19{fill:#EAA51B;}
	.st20{opacity:0.1;}
	.st21{fill:#FFD11D;}
	.st22{fill:#FFE37B;}
	.st23{fill:#FFA755;}
	.st24{fill:#FFEC97;}
	.st25{fill:#BC7532;}
	.st26{fill:#EFEFEF;}
	.st27{fill:#60ACF7;}
	.st28{fill:#876C6C;}
	.st29{fill:#1DDCFF;}
	.st30{fill:#BDF3FF;}
	.st31{fill:#EFCA70;}
	.st32{fill:#EFA91D;}
	.st33{fill:#8FAE3C;}
	.st34{fill:#92A5AC;}
	.st35{fill:#E8E3BA;}
	.st36{fill:#F79932;}
	.st37{fill:#F4F4F4;}
	.st38{fill:#FFDF8F;}
	.st39{fill:#EAE5B9;}
	.st40{fill:#7E9E6A;}
	.st41{fill:#94B57F;}
	.st42{fill:#9B5D8C;}
	.st43{fill:#96557A;}
	.st44{fill:#C3755A;}
	.st45{fill:#9BD7DD;}
	.st46{fill:#90CAD3;}
	.st47{fill:#F7F7F7;}
	.st48{fill:#AFE6EF;}
	.st49{fill:#FFFAEB;}
	.st50{fill:#F4EFC3;}
	.st51{fill:#F9F9F9;}
	.st52{fill:#FFE5C4;}
	.st53{fill:#FFB024;}
	.st54{fill:#FFC612;}
	.st55{fill:#FFCE31;}
	.st56{fill:#A05C2D;}
	.st57{fill:#1DCAF2;}
	.st58{fill:#00B0E0;}
	.st59{fill:#F2A355;}
	.st60{fill:#D68032;}
	.st61{fill:#66625D;}
	.st62{fill:#54504D;}
	.st63{fill:#B76955;}
	.st64{fill:#EFE8B4;}
	.st65{fill:#B93226;}
	.st66{fill:#EFEABF;}
	.st67{fill:#90C056;}
	.st68{opacity:0.15;}
	.st69{fill:#E8C56D;}
	.st70{fill:#F7BE4B;}
	.st71{fill:#E0A338;}
	.st72{fill:#F68455;}
	.st73{fill:#E26F47;}
	.st74{fill:#EC754B;}
	.st75{fill:#4AA5BA;}
	.st76{opacity:0.5;}
	.st77{fill:#A0B1B5;}
	.st78{opacity:0.7;}
	.st79{fill:#00ADEE;}
	.st80{fill:#F4D4B3;}
	.st81{fill:#F9D97A;}
	.st82{fill:#EDC96E;}
	.st83{fill:none;}
	.st84{fill:#AF6535;}
	.st85{fill:#F18BB4;}
	.st86{fill:#B3E4FF;}
	.st87{fill:#97DFFF;}
	.st88{fill:#D06E3C;}
	.st89{fill:#B55931;}
	.st90{fill:#DA4F4B;}
	.st91{fill:#EFCAA8;}
	.st92{fill:#EA7CB1;}
	.st93{fill:#EA7DAE;}
	.st94{fill:#BC7646;}
	.st95{fill:#00A1C6;}
	.st96{fill:#FCC230;}
	.st97{fill:#F2EBB1;}
	.st98{fill:#F9D6AF;}
	.st99{fill:#D34735;}
	.st100{fill:#E5A21A;}
	.st101{fill:#849E33;}
	.st102{fill:#EFBB14;}
	.st103{fill:#D8402B;}
	.st104{fill:#829B34;}
	.st105{fill:#F88916;}
	.st106{fill:#E27513;}
	.st107{fill:#FFB41F;}
	.st108{fill:#8AA538;}
	.st109{fill:#BE6BB2;}
	.st110{fill:#AA5BA3;}
	.st111{fill:#FFDF66;}
	.st112{fill:#F4BA00;}
	.st113{fill:#E28529;}
	.st114{fill:#FF9945;}
	.st115{fill:#BA6C45;}
	.st116{fill:#EDBA15;}
	.st117{fill:#E0452F;}
	.st118{fill:#F7F2D5;}
	.st119{fill:#4C4E51;}
	.st120{fill:#EA615D;}
	.st121{fill:#DD4A36;}
	.st122{fill:#F6AF72;}
	.st123{fill:#E8955D;}
	.st124{fill:#E4C074;}
	.st125{fill:#EAE4C3;}
	.st126{fill:#BF3522;}
	.st127{fill:#D13E33;}
	.st128{fill:#AA5EA3;}
	.st129{fill:#DD443C;}
	.st130{fill:#AA5FA3;}
	.st131{fill:#B7C536;}
	.st132{fill:#F2872F;}
	.st133{fill:#AF5FA7;}
	.st134{fill:#E29F17;}
	.st135{fill:#FFC86E;}
	.st136{fill:#A55937;}
	.st137{fill:#D8422E;}
	.st138{fill:#C3556D;}
	.st139{fill:#B24965;}
	.st140{fill:#D1A962;}
	.st141{fill:#A3961A;}
	.st142{fill:#AFA51D;}
	.st143{fill:#968A1C;}
</style>
<g>
	<g>
		<g>
			<g>
				<g>
					<g>
						<g>
							<path class="st74" d="M220.1,105.1c0,2.2-0.3,4.4-0.9,6.4c-6.9,2.7-12.2,8.6-14.2,15.8c-2.4,0.9-4.9,1.5-7.5,1.6
								c-0.9-12.4-11.2-22.1-23.8-22.1c-0.4,0-0.9,0-1.3,0c-0.1-0.6-0.1-1.1-0.1-1.7c0-3,0.5-5.8,1.5-8.4c0,0,0,0,0,0
								c0.5-1.2,1-2.4,1.7-3.6v0c4.1-7.1,11.8-11.9,20.7-11.9C209.4,81.2,220.1,91.9,220.1,105.1z"/>
						</g>
					</g>
				</g>
			</g>
		</g>
	</g>
	<g>
		<g>
			<g>
				<g>
					<g>
						<g>
							<path class="st74" d="M252,133.7c0,13.2-10.7,23.9-23.9,23.9c-1.1,0-2.2-0.1-3.3-0.2c-1.1-10.9-9.6-19.6-20.5-21.1
								c-0.1-0.8-0.1-1.7-0.1-2.5c0-2.2,0.3-4.4,0.9-6.4c2-7.2,7.3-13,14.2-15.8c2.7-1.1,5.7-1.7,8.8-1.7
								C241.3,109.8,252,120.5,252,133.7z"/>
						</g>
					</g>
				</g>
			</g>
		</g>
	</g>
	<g>
		<g>
			<g>
				<g>
					<g>
						<g>
							<path class="st74" d="M224.9,159.9c0,13.2-10.7,23.9-23.9,23.9c-13.2,0-23.9-10.7-23.9-23.9c0-2,0.2-3.9,0.7-5.7
								c9.4-1.6,16.9-8.7,19.2-17.8c1.3-0.2,2.7-0.4,4.1-0.4c1.1,0,2.2,0.1,3.3,0.2c10.8,1.5,19.3,10.2,20.5,21.1
								C224.8,158.2,224.9,159,224.9,159.9z"/>
						</g>
					</g>
				</g>
			</g>
		</g>
	</g>
	<g>
		<g>
			<g>
				<g>
					<g>
						<g>
							<path class="st74" d="M129.3,180.9c-3.7,8.4-12.1,14.2-21.9,14.2c-12.6,0-22.9-9.7-23.8-22.1v0c0-0.6-0.1-1.2-0.1-1.8
								c0-4.9,1.5-9.4,4-13.2v0c2.5-3.7,6-6.8,10.2-8.6c3-0.1,5.9-0.9,8.5-2c0.4,0,0.8,0,1.2,0c8.7,0,16.3,4.6,20.5,11.5
								c-1.3,2.9-2,6.2-2,9.6C125.8,173.1,127.1,177.3,129.3,180.9z"/>
						</g>
					</g>
				</g>
			</g>
		</g>
	</g>
	<g>
		<g>
			<g>
				<g>
					<g>
						<g>
							<path class="st74" d="M87.5,158.1c-2.5,3.8-4,8.3-4,13.2c0,0.6,0,1.2,0.1,1.8v0c-4.3,6.4-11.6,10.7-19.9,10.7
								c-10.9,0-20.2-7.3-23-17.3c-0.6-2.1-0.9-4.3-0.9-6.5c0-8.5,4.5-16,11.2-20.2c3.7-2.3,8-3.7,12.7-3.7c5.3,0,10.3,1.8,14.2,4.7
								c0,0,0,0,0,0c1.6,1.2,3.1,2.6,4.3,4.1l0,0C85.2,148.5,87.1,153.1,87.5,158.1L87.5,158.1z"/>
						</g>
					</g>
				</g>
			</g>
		</g>
	</g>
	<g>
		<g>
			<g>
				<g>
					<g>
						<g>
							<path class="st74" d="M39.7,159.9c0,2.3,0.3,4.5,0.9,6.5c-3.7,2.3-8,3.7-12.7,3.7C14.7,170,4,159.4,4,146.2
								c0-13.2,10.7-23.9,23.9-23.9c10.9,0,20.2,7.3,23,17.3C44.2,143.9,39.7,151.3,39.7,159.9z"/>
						</g>
					</g>
				</g>
			</g>
		</g>
	</g>
	<g>
		<g>
			<g>
				<g>
					<g>
						<g>
							<path class="st74" d="M72.5,125.6c0,0.6,0,1.2,0.1,1.8c-4.1,3.1-9.1,5-14.7,5c-13.2,0-23.9-10.7-23.9-23.9
								c0-13.2,10.7-23.9,23.9-23.9c12.6,0,22.9,9.7,23.8,22C76.1,111.1,72.5,118,72.5,125.6z"/>
						</g>
					</g>
				</g>
			</g>
		</g>
	</g>
	<g>
		<g>
			<g>
				<g>
					<g>
						<g>
							<path class="st74" d="M116.9,137.9c-2.5,4.2-6.2,7.5-10.7,9.5c-2.6,1.2-5.5,1.9-8.5,2c-0.4,0-0.8,0-1.2,0
								c-5.3,0-10.2-1.7-14.2-4.7l0,0c-1.3-1.6-2.7-2.9-4.3-4.1c0,0,0,0,0,0c-3-3.7-4.9-8.2-5.3-13.2c-0.1-0.6-0.1-1.2-0.1-1.8
								c0-7.7,3.6-14.5,9.3-18.9c1.4-1.1,2.8-2,4.4-2.7c3.1-1.5,6.6-2.3,10.2-2.3c7,0,13.4,3,17.8,7.9c0.5,0.5,0.9,1,1.3,1.6
								c-2.2,3.6-3.4,7.8-3.4,12.3C112,128.9,113.9,133.9,116.9,137.9z"/>
						</g>
					</g>
				</g>
			</g>
		</g>
	</g>
	<g>
		<g>
			<g>
				<g>
					<g>
						<g>
							<path class="st74" d="M127.9,88.1c0,6.9-3,13.2-7.7,17.5c-0.1,0.1-0.3,0.3-0.4,0.4c-1.7,1.5-3.5,2.7-5.5,3.6
								c-4.4-4.8-10.7-7.9-17.8-7.9c-3.7,0-7.1,0.8-10.2,2.3c-3.8-4.2-6.2-9.8-6.2-16c0-13.2,10.7-23.9,23.9-23.9
								C117.2,64.2,127.9,74.9,127.9,88.1z"/>
						</g>
					</g>
				</g>
			</g>
		</g>
	</g>
	<g>
		<g>
			<g>
				<g>
					<g>
						<g>
							<path class="st74" d="M177.1,84.7c0,3-0.5,5.8-1.5,8.4v0c-0.5,1.2-1,2.4-1.7,3.6c0,0,0,0,0,0c-3.9,6.7-11,11.4-19.2,11.8
								c-4.4-5.4-11.1-8.9-18.6-8.9c-0.5,0-1,0-1.4,0.1c-3.3-4.1-5.3-9.3-5.3-15c0-13.2,10.7-23.9,23.9-23.9
								C166.4,60.9,177.1,71.6,177.1,84.7z"/>
						</g>
					</g>
				</g>
			</g>
		</g>
	</g>
	<g>
		<g>
			<g>
				<g>
					<g>
						<g>
							<path class="st74" d="M149.8,130.7c0,3.7,0.9,7.3,2.4,10.4c-1.7,1.5-3.5,2.8-5.6,3.8c0,0,0,0,0,0c-2.6,0.3-5.2,1.1-7.5,2.3
								c0,0,0,0,0,0c-1,0.1-2.1,0.2-3.2,0.2c-7.8,0-14.7-3.7-19.1-9.5c-3.1-4-4.9-9-4.9-14.4c0-4.5,1.2-8.7,3.4-12.3
								c1.2-1.9,2.6-3.7,4.3-5.2c0.2-0.1,0.3-0.3,0.4-0.4c3.9-3.4,8.9-5.6,14.3-5.9c0.5,0,1-0.1,1.4-0.1c7.5,0,14.2,3.5,18.6,8.9
								c1.1,1.4,2.1,2.9,2.9,4.5C152.7,117.5,149.8,123.7,149.8,130.7z"/>
						</g>
					</g>
				</g>
			</g>
		</g>
	</g>
	<g>
		<g>
			<g>
				<g>
					<g>
						<g>
							<path class="st74" d="M197.6,130.7c0,2-0.2,3.9-0.7,5.7c-2.2,9.2-9.8,16.2-19.2,17.8c-1.3,0.2-2.7,0.4-4.1,0.4
								c-1.7,0-3.4-0.2-5-0.5c-3.4-4.4-8.3-7.6-14-8.8c-1-1.3-1.9-2.7-2.6-4.1c-1.5-3.1-2.4-6.7-2.4-10.4c0-6.9,3-13.2,7.7-17.6
								c4-3.6,9.2-6,14.9-6.3c0.4,0,0.9,0,1.3,0c12.6,0,23,9.8,23.8,22.1C197.6,129.5,197.6,130.1,197.6,130.7z"/>
						</g>
					</g>
				</g>
			</g>
		</g>
	</g>
	<g>
		<g>
			<g>
				<g>
					<g>
						<g>
							<path class="st74" d="M173.7,168.6c0,13.2-10.7,23.9-23.9,23.9c-8.7,0-16.3-4.6-20.5-11.5c-2.2-3.6-3.4-7.8-3.4-12.3
								c0-3.4,0.7-6.7,2-9.6c2.3-5.1,6.3-9.3,11.3-11.8c0,0,0,0,0,0c2.3-1.1,4.8-1.9,7.5-2.3c0,0,0,0,0,0c1-0.1,2.1-0.2,3.2-0.2
								c1.7,0,3.4,0.2,5,0.5c5.7,1.2,10.6,4.4,14,8.8C171.8,158,173.7,163.1,173.7,168.6z"/>
						</g>
					</g>
				</g>
			</g>
		</g>
	</g>
	<g>
		<g>
			<g>
				<g>
					<g>
						<g>
							<g>
								<path class="st73" d="M197.5,132.9c-2.1,0-3.8-1.6-4-3.7c-0.7-10.3-9.5-18.4-19.9-18.4c-0.3,0-0.7,0-1,0
									c-2.2,0.2-4.1-1.4-4.3-3.6c-0.1-0.6-0.1-1.3-0.1-2.1c0-3.4,0.6-6.6,1.8-9.7c0-0.1,0.1-0.2,0.1-0.2c0.5-1.3,1.1-2.6,1.8-3.9
									c0-0.1,0.1-0.1,0.1-0.2c5-8.6,14.2-13.9,24.1-13.9c15.4,0,27.9,12.5,27.9,27.9c0,2.6-0.3,5.1-1,7.5
									c-0.3,1.2-1.2,2.2-2.4,2.6c-5.7,2.3-10.2,7.2-11.8,13.1c-0.3,1.2-1.2,2.2-2.4,2.6c-2.8,1.1-5.8,1.8-8.8,1.9
									C197.6,132.9,197.6,132.9,197.5,132.9z M176.4,102.9c11.9,1.2,21.8,10,24.5,21.5c0.3-0.1,0.7-0.2,1-0.3
									c2.5-6.7,7.5-12.3,14-15.5c0.2-1.2,0.3-2.4,0.3-3.6c0-11-8.9-19.9-19.9-19.9c-7,0-13.6,3.7-17.1,9.8c0,0.1-0.1,0.1-0.1,0.2
									c-0.6,0.9-1,1.9-1.4,2.9c0,0.1-0.1,0.1-0.1,0.2C177,99.8,176.6,101.3,176.4,102.9z"/>
							</g>
						</g>
					</g>
				</g>
			</g>
		</g>
		<g>
			<g>
				<g>
					<g>
						<g>
							<g>
								<path class="st73" d="M228.1,161.6c-1.3,0-2.6-0.1-3.9-0.3c-1.8-0.3-3.2-1.7-3.4-3.5c-1-9.1-8-16.3-17-17.6
									c-1.8-0.3-3.2-1.7-3.4-3.5c-0.1-1-0.2-1.9-0.2-2.9c0-2.6,0.3-5.1,1-7.5c2.3-8.3,8.5-15.2,16.6-18.4c3.2-1.3,6.7-2,10.3-2
									c15.4,0,27.9,12.5,27.9,27.9C256,149.1,243.5,161.6,228.1,161.6z M208.2,132.9c10,2.6,17.7,10.6,20,20.7
									c10.9-0.1,19.8-8.9,19.8-19.9c0-11-8.9-19.9-19.9-19.9c-2.6,0-5,0.5-7.3,1.4c-5.8,2.3-10.2,7.2-11.8,13.1
									C208.5,129.8,208.2,131.4,208.2,132.9z"/>
							</g>
						</g>
					</g>
				</g>
			</g>
		</g>
		<g>
			<g>
				<g>
					<g>
						<g>
							<g>
								<path class="st73" d="M201,187.7c-15.4,0-27.9-12.5-27.9-27.9c0-2.2,0.3-4.5,0.8-6.6c0.4-1.5,1.6-2.7,3.2-3
									c7.8-1.3,14.1-7.2,16-14.8c0.4-1.5,1.6-2.7,3.2-3c2.8-0.5,5.8-0.5,8.7-0.1c12.7,1.8,22.5,11.9,23.9,24.7
									c0.1,1,0.2,1.9,0.2,2.9C228.9,175.2,216.4,187.7,201,187.7z M181.2,157.5c-0.1,0.8-0.1,1.6-0.1,2.4c0,11,8.9,19.9,19.9,19.9
									c11,0,19.9-8.9,19.9-19.9c0-0.7,0-1.4-0.1-2.1c-1-9.1-8-16.3-17-17.6c-1.2-0.2-2.5-0.2-3.8-0.2
									C196.9,148.5,189.9,155.1,181.2,157.5z"/>
							</g>
						</g>
					</g>
				</g>
			</g>
		</g>
		<g>
			<g>
				<g>
					<g>
						<g>
							<g>
								<path class="st73" d="M107.4,199.1c-14.5,0-26.8-11.3-27.8-25.8c0,0,0,0,0,0c-0.1-0.7-0.1-1.4-0.1-2
									c0-5.4,1.6-10.7,4.5-15.2c0-0.1,0.1-0.1,0.1-0.2c2.9-4.4,7-7.9,11.9-10c0.5-0.2,0.9-0.3,1.4-0.3c2.5-0.1,4.9-0.7,7.1-1.7
									c0.4-0.2,0.9-0.3,1.3-0.3c0.5,0,1-0.1,1.5-0.1c9.9,0,18.8,5,23.9,13.5c0.7,1.1,0.8,2.5,0.2,3.7c-1.1,2.5-1.7,5.2-1.7,8
									c0,3.6,1,7.2,2.9,10.3c0.7,1.1,0.8,2.5,0.2,3.7C128.5,192.6,118.4,199.1,107.4,199.1z M87.6,172.8
									c0.8,10.3,9.5,18.3,19.8,18.3c7.2,0,13.9-3.9,17.4-10.1c-1.9-3.8-2.9-8.1-2.9-12.4c0-3.1,0.5-6.2,1.5-9.2
									c-3.7-5.1-9.6-8-16-8c-0.1,0-0.2,0-0.3,0c-2.7,1.1-5.5,1.8-8.5,2c-3.1,1.5-5.8,3.8-7.7,6.7c0,0.1-0.1,0.1-0.1,0.2
									c-2.2,3.2-3.3,7-3.3,11c0,0.5,0,1,0.1,1.5C87.5,172.7,87.6,172.8,87.6,172.8z"/>
							</g>
						</g>
					</g>
				</g>
			</g>
		</g>
		<g>
			<g>
				<g>
					<g>
						<g>
							<g>
								<path class="st73" d="M63.6,187.7c-12.4,0-23.5-8.3-26.8-20.2c-0.7-2.5-1.1-5.1-1.1-7.6c0-9.6,4.9-18.5,13.1-23.6
									c4.4-2.8,9.6-4.3,14.8-4.3c6,0,11.8,1.9,16.6,5.5c0,0,0.1,0,0.1,0.1c1.8,1.4,3.5,2.9,4.9,4.7c0,0,0,0.1,0.1,0.1
									c3.6,4.5,5.7,9.8,6.2,15.5c0,0.1,0,0.2,0,0.3c0,0.8-0.2,1.6-0.7,2.2c-2.2,3.2-3.3,7-3.3,11c0,0.5,0,1,0.1,1.5
									c0,0.1,0,0.2,0,0.3c0,0.8-0.2,1.6-0.7,2.2C81.7,183.1,73,187.7,63.6,187.7z M63.6,140c-3.8,0-7.4,1.1-10.6,3
									c-5.9,3.7-9.3,10-9.3,16.8c0,1.8,0.3,3.7,0.8,5.4c2.4,8.5,10.3,14.4,19.2,14.4c6.3,0,12.1-2.9,15.9-7.9c0-0.2,0-0.4,0-0.6
									c0-5,1.3-9.9,3.9-14.1c-0.5-3.6-1.9-6.9-4.2-9.7c0,0,0,0,0-0.1l0,0c-1-1.3-2.3-2.4-3.6-3.4v0c0,0-0.1,0-0.1-0.1
									C72,141.3,67.9,140,63.6,140z"/>
							</g>
						</g>
					</g>
				</g>
			</g>
		</g>
		<g>
			<g>
				<g>
					<g>
						<g>
							<g>
								<path class="st73" d="M27.9,174C12.5,174,0,161.5,0,146.2c0-15.4,12.5-27.9,27.9-27.9c12.4,0,23.5,8.3,26.8,20.3
									c0.5,1.7-0.2,3.5-1.7,4.5c-5.8,3.7-9.3,9.9-9.3,16.8c0,1.8,0.3,3.7,0.8,5.4c0.5,1.7-0.2,3.5-1.7,4.5
									C38.3,172.6,33.2,174,27.9,174z M27.9,126.3c-11,0-19.9,8.9-19.9,19.9c0,11,8.9,19.9,19.9,19.9c2.8,0,5.6-0.6,8.2-1.7
									c-0.2-1.5-0.4-3-0.4-4.4c0-8.6,3.8-16.5,10.4-21.7C43,131,35.8,126.3,27.9,126.3z"/>
							</g>
						</g>
					</g>
				</g>
			</g>
		</g>
		<g>
			<g>
				<g>
					<g>
						<g>
							<g>
								<path class="st73" d="M57.9,136.5C42.5,136.5,30,124,30,108.6c0-15.4,12.5-27.9,27.9-27.9c14.5,0,26.7,11.3,27.8,25.7
									c0.1,1.3-0.5,2.6-1.5,3.5c-4.9,3.8-7.7,9.5-7.7,15.7c0,0.5,0,1,0.1,1.5c0.1,1.4-0.5,2.7-1.5,3.5
									C70.1,134.5,64.2,136.5,57.9,136.5z M57.9,88.7c-11,0-19.9,8.9-19.9,19.9c0,11,8.9,19.9,19.9,19.9c3.8,0,7.4-1,10.6-3
									c0.1-7.8,3.3-15.1,9-20.3C75.9,95.8,67.6,88.7,57.9,88.7z"/>
							</g>
						</g>
					</g>
				</g>
			</g>
		</g>
		<g>
			<g>
				<g>
					<g>
						<g>
							<g>
								<path class="st73" d="M96.4,153.5c-6,0-11.8-1.9-16.6-5.5h0c-0.3-0.2-0.5-0.4-0.7-0.7l0,0c-1-1.3-2.3-2.4-3.6-3.4v0
									c-0.3-0.2-0.5-0.4-0.7-0.7l0,0c-3.6-4.4-5.7-9.8-6.2-15.5c-0.1-0.6-0.1-1.3-0.1-2.1c0-8.7,3.9-16.7,10.8-22
									c1.6-1.3,3.3-2.3,5.2-3.2c3.7-1.8,7.7-2.7,11.9-2.7c7.9,0,15.5,3.4,20.7,9.2c0.5,0.5,1,1.2,1.5,1.9c1,1.3,1.1,3.1,0.2,4.5
									c-1.9,3.1-2.8,6.6-2.8,10.2c0,4.4,1.4,8.5,4,12c1,1.3,1.1,3.1,0.2,4.5c-3,4.9-7.3,8.8-12.5,11.1c-3.1,1.4-6.5,2.2-10,2.4
									C97.4,153.5,96.9,153.5,96.4,153.5z M85,141.9c3.4,2.4,7.3,3.6,11.5,3.6c0.3,0,0.6,0,1,0c2.5-0.1,4.9-0.7,7.1-1.7
									c3-1.3,5.5-3.3,7.5-5.9c-2.6-4.3-4-9.2-4-14.4c0-4.1,0.9-8.1,2.6-11.8c-3.7-3.8-8.9-6-14.2-6c-3,0-5.9,0.6-8.5,1.9
									c-1.3,0.6-2.5,1.4-3.7,2.2c-4.9,3.8-7.7,9.5-7.7,15.7c0,0.5,0,1,0.1,1.5c0.3,4,1.7,7.6,4.1,10.7
									C82.2,139,83.7,140.4,85,141.9z"/>
							</g>
						</g>
					</g>
				</g>
			</g>
		</g>
		<g>
			<g>
				<g>
					<g>
						<g>
							<g>
								<path class="st73" d="M114.2,113.7c-1.1,0-2.2-0.5-3-1.3c-3.8-4.2-9.2-6.6-14.8-6.6c-3,0-5.9,0.6-8.5,1.9
									c-1.6,0.8-3.5,0.4-4.7-0.9C78.6,101.6,76,95,76,88.1c0-15.4,12.5-27.9,27.9-27.9s27.9,12.5,27.9,27.9
									c0,7.7-3.2,15.2-8.9,20.4c-0.2,0.2-0.3,0.3-0.5,0.5c-2,1.8-4.2,3.2-6.5,4.3C115.3,113.5,114.8,113.7,114.2,113.7z
									 M96.4,97.8c6.8,0,13.4,2.5,18.4,6.9c0.8-0.5,1.5-1.1,2.2-1.7c0.1-0.1,0.2-0.2,0.3-0.2c0,0,0.1-0.1,0.1-0.1
									c4.1-3.7,6.4-9.1,6.4-14.6c0-11-8.9-19.9-19.9-19.9S84,77.1,84,88.1c0,4,1.2,7.9,3.4,11.2C90.3,98.3,93.3,97.8,96.4,97.8z"
									/>
							</g>
						</g>
					</g>
				</g>
			</g>
		</g>
		<g>
			<g>
				<g>
					<g>
						<g>
							<g>
								<path class="st73" d="M154.6,112.6c-1.2,0-2.4-0.5-3.1-1.5c-3.8-4.7-9.5-7.4-15.5-7.4c-0.4,0-0.8,0-1.2,0
									c-1.3,0.1-2.6-0.5-3.4-1.5c-4-4.9-6.2-11.1-6.2-17.5c0-15.4,12.5-27.9,27.9-27.9s27.9,12.5,27.9,27.9c0,3.3-0.6,6.6-1.7,9.7
									c0,0,0,0.1,0,0.1c-0.5,1.5-1.2,2.9-2,4.2c0,0-0.1,0.1-0.1,0.1c-4.7,8-13.1,13.2-22.4,13.7
									C154.7,112.6,154.7,112.6,154.6,112.6z M136.5,95.7c7.5,0.1,14.6,3.3,19.7,8.7c5.9-0.9,11.1-4.4,14.1-9.7c0,0,0-0.1,0.1-0.1
									c0.5-0.9,0.9-1.8,1.3-2.7c0-0.1,0-0.1,0.1-0.2c0.8-2.2,1.3-4.5,1.3-7c0-11-8.9-19.9-19.9-19.9c-11,0-19.9,8.9-19.9,19.9
									C133.2,88.6,134.4,92.4,136.5,95.7z"/>
							</g>
						</g>
					</g>
				</g>
			</g>
		</g>
		<g>
			<g>
				<g>
					<g>
						<g>
							<g>
								<path class="st73" d="M136,151.4c-8.8,0-16.9-4-22.2-11c-3.7-4.8-5.7-10.7-5.7-16.8c0-5.1,1.4-10.1,4-14.4
									c1.4-2.3,3-4.3,5-6.1c0.2-0.1,0.2-0.2,0.3-0.3c0.1-0.1,0.1-0.1,0.2-0.2c4.6-4.1,10.6-6.5,16.7-6.9c0.5,0,1.1-0.1,1.7-0.1
									c8.5,0,16.4,3.8,21.7,10.4c1.3,1.6,2.5,3.4,3.4,5.3c0.8,1.6,0.4,3.5-0.9,4.7c-4.1,3.8-6.4,9.1-6.4,14.6c0,3,0.7,6,2,8.7
									c0.8,1.6,0.4,3.5-0.9,4.7c-2,1.8-4.1,3.3-6.5,4.4c-0.4,0.2-0.8,0.3-1.3,0.4c-2.2,0.3-4.2,0.9-6.2,1.9
									c-0.4,0.2-0.9,0.3-1.3,0.4C138.4,151.3,137.2,151.4,136,151.4z M122.9,108.5c-0.2,0.2-0.3,0.3-0.5,0.4
									c-1.4,1.2-2.5,2.7-3.5,4.3c-1.9,3.1-2.9,6.6-2.9,10.2c0,4.4,1.4,8.5,4,12c3.8,5,9.6,7.9,15.9,7.9c0.7,0,1.4,0,2-0.1
									c2.3-1.1,4.8-1.8,7.4-2.2c0.7-0.4,1.3-0.7,1.9-1.2c-1-2.9-1.6-6-1.6-9.2c0-6.7,2.4-13.2,6.8-18.2c-0.3-0.5-0.7-0.9-1-1.4
									c-3.8-4.7-9.5-7.4-15.5-7.4c-0.4,0-0.8,0-1.2,0C130.3,103.9,126.2,105.6,122.9,108.5z"/>
							</g>
						</g>
					</g>
				</g>
			</g>
		</g>
		<g>
			<g>
				<g>
					<g>
						<g>
							<g>
								<path class="st73" d="M173.7,158.5c-1.9,0-3.9-0.2-5.8-0.6c-0.9-0.2-1.8-0.7-2.4-1.5c-2.9-3.8-7-6.4-11.6-7.3
									c-0.9-0.2-1.8-0.7-2.3-1.5c-1.2-1.5-2.2-3.1-3-4.8c-1.9-3.8-2.8-7.9-2.8-12.2c0-7.8,3.3-15.2,9-20.5
									c4.8-4.4,10.9-7,17.3-7.3c0.5,0,1-0.1,1.6-0.1c14.6,0,26.8,11.4,27.8,25.9c0.1,0.6,0.1,1.2,0.1,2c0,2.2-0.3,4.5-0.8,6.6
									c-2.6,10.8-11.4,19-22.4,20.8C176.9,158.4,175.3,158.5,173.7,158.5z M170.9,150.3c2.1,0.3,4.2,0.3,6.2-0.1
									c7.8-1.3,14.1-7.2,16-14.9c0.4-1.5,0.6-3.1,0.6-4.7c0-0.5,0-1-0.1-1.4c-0.7-10.4-9.5-18.5-19.9-18.5c-0.3,0-0.7,0-1,0
									c0,0-0.1,0-0.1,0c-4.6,0.2-9,2.1-12.4,5.2c-4.1,3.8-6.4,9.1-6.4,14.6c0,3,0.7,6,2,8.7c0.4,0.8,0.8,1.6,1.3,2.3
									C162.4,143.1,167.2,146.1,170.9,150.3z"/>
							</g>
						</g>
					</g>
				</g>
			</g>
		</g>
		<g>
			<g>
				<g>
					<g>
						<g>
							<g>
								<path class="st73" d="M149.8,196.4c-9.9,0-18.8-5-23.9-13.5c-2.6-4.3-4-9.3-4-14.4c0-3.9,0.8-7.7,2.4-11.3
									c2.6-5.9,7.3-10.8,13.1-13.7c0.1,0,0.1-0.1,0.2-0.1c2.6-1.3,5.4-2.1,8.4-2.5c0.1,0,0.1,0,0.2,0v0c3.1-0.4,6.3-0.3,9.5,0.4
									c6.5,1.4,12.3,5,16.3,10.3c3.8,4.9,5.8,10.8,5.8,17C177.7,183.9,165.1,196.4,149.8,196.4z M140.8,150.8
									c-4.1,2.1-7.4,5.5-9.2,9.7c-1.1,2.5-1.7,5.2-1.7,8c0,3.6,1,7.2,2.9,10.3c3.6,6,10,9.6,17.1,9.6c11,0,19.9-8.9,19.9-19.9
									c0-4.4-1.4-8.6-4.1-12.1c-2.9-3.8-7-6.4-11.6-7.3c-2.2-0.5-4.4-0.5-6.6-0.3c-0.1,0-0.1,0-0.2,0c-2.2,0.3-4.2,0.9-6.2,1.9
									C140.9,150.8,140.8,150.8,140.8,150.8z"/>
							</g>
						</g>
					</g>
				</g>
			</g>
		</g>
	</g>
</g>
</svg>
