<?xml version="1.0" encoding="utf-8"?>
<!-- Generator: Adobe Illustrator 22.1.0, SVG Export Plug-In . SVG Version: 6.00 Build 0)  -->
<svg version="1.1" id="Layer_1" xmlns="http://www.w3.org/2000/svg" xmlns:xlink="http://www.w3.org/1999/xlink" x="0px" y="0px"
	 viewBox="0 0 256 256" style="enable-background:new 0 0 256 256;" xml:space="preserve">
<style type="text/css">
	.st0{fill:#F6D67A;}
	.st1{fill:#E77CAE;}
	.st2{fill:#AC6535;}
	.st3{fill:#EB573B;}
	.st4{fill:#464646;}
	.st5{fill:#F5B31F;}
	.st6{fill:#9B592D;}
	.st7{fill:#9B5B2F;}
	.st8{fill:#E8A41A;}
	.st9{fill:#6D6E71;}
	.st10{fill:#E5A21C;}
	.st11{fill:#C66395;}
	.st12{fill:#E09F1E;}
	.st13{fill:#FFFFFF;}
	.st14{fill:#DDB95E;}
	.st15{fill:#EAC771;}
	.st16{fill:#F9F6CD;}
	.st17{fill:#009345;}
	.st18{fill:#008438;}
	.st19{fill:#EAA51B;}
	.st20{opacity:0.1;}
	.st21{fill:#FFD11D;}
	.st22{fill:#FFE37B;}
	.st23{fill:#FFA755;}
	.st24{fill:#FFEC97;}
	.st25{fill:#BC7532;}
	.st26{fill:#EFEFEF;}
	.st27{fill:#60ACF7;}
	.st28{fill:#876C6C;}
	.st29{fill:#1DDCFF;}
	.st30{fill:#BDF3FF;}
	.st31{fill:#EFCA70;}
	.st32{fill:#EFA91D;}
	.st33{fill:#8FAE3C;}
	.st34{fill:#92A5AC;}
	.st35{fill:#E8E3BA;}
	.st36{fill:#F79932;}
	.st37{fill:#F4F4F4;}
	.st38{fill:#FFDF8F;}
	.st39{fill:#EAE5B9;}
	.st40{fill:#7E9E6A;}
	.st41{fill:#94B57F;}
	.st42{fill:#9B5D8C;}
	.st43{fill:#96557A;}
	.st44{fill:#C3755A;}
	.st45{fill:#9BD7DD;}
	.st46{fill:#90CAD3;}
	.st47{fill:#F7F7F7;}
	.st48{fill:#AFE6EF;}
	.st49{fill:#FFFAEB;}
	.st50{fill:#F4EFC3;}
	.st51{fill:#F9F9F9;}
	.st52{fill:#FFE5C4;}
	.st53{fill:#FFB024;}
	.st54{fill:#FFC612;}
	.st55{fill:#FFCE31;}
	.st56{fill:#A05C2D;}
	.st57{fill:#1DCAF2;}
	.st58{fill:#00B0E0;}
	.st59{fill:#F2A355;}
	.st60{fill:#D68032;}
	.st61{fill:#66625D;}
	.st62{fill:#54504D;}
	.st63{fill:#B76955;}
	.st64{fill:#EFE8B4;}
	.st65{fill:#B93226;}
	.st66{fill:#EFEABF;}
	.st67{fill:#90C056;}
	.st68{opacity:0.15;}
	.st69{fill:#E8C56D;}
	.st70{fill:#F7BE4B;}
	.st71{fill:#E0A338;}
	.st72{fill:#F68455;}
	.st73{fill:#E26F47;}
	.st74{fill:#EC754B;}
	.st75{fill:#4AA5BA;}
	.st76{opacity:0.5;}
	.st77{fill:#A0B1B5;}
	.st78{opacity:0.7;}
	.st79{fill:#00ADEE;}
	.st80{fill:#F4D4B3;}
	.st81{fill:#F9D97A;}
	.st82{fill:#EDC96E;}
	.st83{fill:none;}
	.st84{fill:#AF6535;}
	.st85{fill:#F18BB4;}
	.st86{fill:#B3E4FF;}
	.st87{fill:#97DFFF;}
	.st88{fill:#D06E3C;}
	.st89{fill:#B55931;}
	.st90{fill:#DA4F4B;}
	.st91{fill:#EFCAA8;}
	.st92{fill:#EA7CB1;}
	.st93{fill:#EA7DAE;}
	.st94{fill:#BC7646;}
	.st95{fill:#00A1C6;}
	.st96{fill:#FCC230;}
	.st97{fill:#F2EBB1;}
	.st98{fill:#F9D6AF;}
	.st99{fill:#D34735;}
	.st100{fill:#E5A21A;}
	.st101{fill:#849E33;}
	.st102{fill:#EFBB14;}
	.st103{fill:#D8402B;}
	.st104{fill:#829B34;}
	.st105{fill:#F88916;}
	.st106{fill:#E27513;}
	.st107{fill:#FFB41F;}
	.st108{fill:#8AA538;}
	.st109{fill:#BE6BB2;}
	.st110{fill:#AA5BA3;}
	.st111{fill:#FFDF66;}
	.st112{fill:#F4BA00;}
	.st113{fill:#E28529;}
	.st114{fill:#FF9945;}
	.st115{fill:#BA6C45;}
	.st116{fill:#EDBA15;}
	.st117{fill:#E0452F;}
	.st118{fill:#F7F2D5;}
	.st119{fill:#4C4E51;}
	.st120{fill:#EA615D;}
	.st121{fill:#DD4A36;}
	.st122{fill:#F6AF72;}
	.st123{fill:#E8955D;}
	.st124{fill:#E4C074;}
	.st125{fill:#EAE4C3;}
	.st126{fill:#BF3522;}
	.st127{fill:#D13E33;}
	.st128{fill:#AA5EA3;}
	.st129{fill:#DD443C;}
	.st130{fill:#AA5FA3;}
	.st131{fill:#B7C536;}
	.st132{fill:#F2872F;}
	.st133{fill:#AF5FA7;}
	.st134{fill:#E29F17;}
	.st135{fill:#FFC86E;}
	.st136{fill:#A55937;}
	.st137{fill:#D8422E;}
	.st138{fill:#C3556D;}
	.st139{fill:#B24965;}
	.st140{fill:#D1A962;}
	.st141{fill:#A3961A;}
	.st142{fill:#AFA51D;}
	.st143{fill:#968A1C;}
</style>
<g>
	<g>
		<g>
			<g>
				<g>
					<path class="st28" d="M92.2,135.2c0-0.1,0-0.2,0-0.2L92.2,135.2z"/>
				</g>
			</g>
		</g>
	</g>
	<g>
		<g>
			<g>
				<g>
					<path class="st26" d="M150.9,63.1c0,2.2-1.8,4-4,4c0,0,0,0,0,0h-37.7c-1.3,0-2.5-0.6-3.2-1.7c-0.8-1-1-2.4-0.5-3.6
						c2.6-7.6,4.9-15.3,4.9-19.3V18c0-2.2,1.8-4,4-4h27.4c2.2,0,4,1.8,4,4v24.5c0,4,2.3,11.4,4.8,18.9
						C150.7,62,150.9,62.5,150.9,63.1z"/>
				</g>
			</g>
		</g>
	</g>
	<g>
		<g>
			<g>
				<g>
					<path class="st28" d="M167.9,233.1c0,11.9-1.3,22.9-10.5,22.9H98.7c-9.2,0-10.5-11-10.5-22.9c0-7.1,1.1-11.5,2.2-16.1
						c1.4-5.6,3-11.9,3-25.4c0-11.7-1.1-18.1-2.3-24.8c-1.3-7.3-2.7-15.6-2.9-31.5c0-2,1.5-3.8,3.5-4c1.6-0.2,3.1,0.6,3.9,1.9
						c2.6,1.4,13.8,3.1,32.4,3.1c18.3,0,29.5-1.7,32.3-3.1c0.7-1.4,2.1-2.3,3.7-2.2c2.2,0.1,3.9,1.9,3.9,4.1
						c-0.2,15.8-1.5,23.4-2.9,30.8c-1.2,6.8-2.3,13.1-2.3,25.7c0,14.5,1.6,20.7,3,26.1C166.8,222,167.9,226.1,167.9,233.1z"/>
				</g>
			</g>
		</g>
	</g>
	<g>
		<g>
			<g>
				<g>
					<path class="st3" d="M150.7,18c0,2.2-1.8,4-4,4c0,0,0,0,0,0h-37.5c-1.3,0-2.4-0.6-3.2-1.6c-0.8-1-1-2.3-0.6-3.5l4.1-14
						c0.5-1.7,2.1-2.9,3.8-2.9h29.3c1.8,0,3.3,1.2,3.8,2.9l4,13.6C150.6,17,150.7,17.5,150.7,18z"/>
				</g>
			</g>
		</g>
	</g>
	<g>
		<g>
			<g>
				<g>
					<path class="st28" d="M160.5,96.1c-0.6,1-1.5,1.6-2.6,1.9c-6.8,1.4-17.6,2.1-29.9,2.1c-12.2,0-23.1-0.8-29.9-2.1
						c-1.1-0.2-2.1-0.9-2.6-1.9c-0.6-1-0.7-2.1-0.4-3.2c2.4-8.2,5.2-16.3,7.7-23.5c0.9-2.6,1.8-5.2,2.6-7.6c0.6-1.6,2.1-2.7,3.8-2.7
						h37.7c1.7,0,3.2,1.1,3.8,2.7c0.8,2.4,1.7,4.9,2.6,7.6c2.5,7.2,5.3,15.3,7.7,23.5C161.2,94,161.1,95.1,160.5,96.1z"/>
				</g>
			</g>
		</g>
	</g>
	<g>
		<g>
			<g>
				<g>
					<path class="st3" d="M167.9,131.9c0,1.1,0,2.1,0,3.2v0.2c-0.2,4.9-6.1,6.6-14.8,7.8c-6.7,0.9-15.6,1.4-25.1,1.4
						c-37.7,0-39.1-5.7-39.7-8.2c-0.1-0.3-0.1-0.6-0.1-0.9c0-1.1,0-2.2,0-3.4c0-10.6,2.2-23,6.9-39c0.6-2,2.6-3.2,4.6-2.8
						c6.2,1.2,16.8,2,28.3,2c11.5,0,22.1-0.7,28.3-2c2-0.4,4,0.8,4.6,2.8C165.7,108.9,167.9,121.3,167.9,131.9z"/>
				</g>
			</g>
		</g>
	</g>
</g>
</svg>
