<?xml version="1.0" encoding="utf-8"?>
<!-- Generator: Adobe Illustrator 22.1.0, SVG Export Plug-In . SVG Version: 6.00 Build 0)  -->
<svg version="1.1" id="Layer_1" xmlns="http://www.w3.org/2000/svg" xmlns:xlink="http://www.w3.org/1999/xlink" x="0px" y="0px"
	 viewBox="0 0 256 256" style="enable-background:new 0 0 256 256;" xml:space="preserve">
<style type="text/css">
	.st0{fill:#F6D67A;}
	.st1{fill:#E77CAE;}
	.st2{fill:#AC6535;}
	.st3{fill:#EB573B;}
	.st4{fill:#464646;}
	.st5{fill:#F5B31F;}
	.st6{fill:#9B592D;}
	.st7{fill:#9B5B2F;}
	.st8{fill:#E8A41A;}
	.st9{fill:#6D6E71;}
	.st10{fill:#E5A21C;}
	.st11{fill:#C66395;}
	.st12{fill:#E09F1E;}
	.st13{fill:#FFFFFF;}
	.st14{fill:#DDB95E;}
	.st15{fill:#EAC771;}
	.st16{fill:#F9F6CD;}
	.st17{fill:#009345;}
	.st18{fill:#008438;}
	.st19{fill:#EAA51B;}
	.st20{opacity:0.1;}
	.st21{fill:#FFD11D;}
	.st22{fill:#FFE37B;}
	.st23{fill:#FFA755;}
	.st24{fill:#FFEC97;}
	.st25{fill:#BC7532;}
	.st26{fill:#EFEFEF;}
	.st27{fill:#60ACF7;}
	.st28{fill:#876C6C;}
	.st29{fill:#1DDCFF;}
	.st30{fill:#BDF3FF;}
	.st31{fill:#EFCA70;}
	.st32{fill:#EFA91D;}
	.st33{fill:#8FAE3C;}
	.st34{fill:#92A5AC;}
	.st35{fill:#E8E3BA;}
	.st36{fill:#F79932;}
	.st37{fill:#F4F4F4;}
	.st38{fill:#FFDF8F;}
	.st39{fill:#EAE5B9;}
	.st40{fill:#7E9E6A;}
	.st41{fill:#94B57F;}
	.st42{fill:#9B5D8C;}
	.st43{fill:#96557A;}
	.st44{fill:#C3755A;}
	.st45{fill:#9BD7DD;}
	.st46{fill:#90CAD3;}
	.st47{fill:#F7F7F7;}
	.st48{fill:#AFE6EF;}
	.st49{fill:#FFFAEB;}
	.st50{fill:#F4EFC3;}
	.st51{fill:#F9F9F9;}
	.st52{fill:#FFE5C4;}
	.st53{fill:#FFB024;}
	.st54{fill:#FFC612;}
	.st55{fill:#FFCE31;}
	.st56{fill:#A05C2D;}
	.st57{fill:#1DCAF2;}
	.st58{fill:#00B0E0;}
	.st59{fill:#F2A355;}
	.st60{fill:#D68032;}
	.st61{fill:#66625D;}
	.st62{fill:#54504D;}
	.st63{fill:#B76955;}
	.st64{fill:#EFE8B4;}
	.st65{fill:#B93226;}
	.st66{fill:#EFEABF;}
	.st67{fill:#90C056;}
	.st68{opacity:0.15;}
	.st69{fill:#E8C56D;}
	.st70{fill:#F7BE4B;}
	.st71{fill:#E0A338;}
	.st72{fill:#F68455;}
	.st73{fill:#E26F47;}
	.st74{fill:#EC754B;}
	.st75{fill:#4AA5BA;}
	.st76{opacity:0.5;}
	.st77{fill:#A0B1B5;}
	.st78{opacity:0.7;}
	.st79{fill:#00ADEE;}
	.st80{fill:#F4D4B3;}
	.st81{fill:#F9D97A;}
	.st82{fill:#EDC96E;}
	.st83{fill:none;}
	.st84{fill:#AF6535;}
	.st85{fill:#F18BB4;}
	.st86{fill:#B3E4FF;}
	.st87{fill:#97DFFF;}
	.st88{fill:#D06E3C;}
	.st89{fill:#B55931;}
	.st90{fill:#DA4F4B;}
	.st91{fill:#EFCAA8;}
	.st92{fill:#EA7CB1;}
	.st93{fill:#EA7DAE;}
	.st94{fill:#BC7646;}
	.st95{fill:#00A1C6;}
	.st96{fill:#FCC230;}
	.st97{fill:#F2EBB1;}
	.st98{fill:#F9D6AF;}
	.st99{fill:#D34735;}
	.st100{fill:#E5A21A;}
	.st101{fill:#849E33;}
	.st102{fill:#EFBB14;}
	.st103{fill:#D8402B;}
	.st104{fill:#829B34;}
	.st105{fill:#F88916;}
	.st106{fill:#E27513;}
	.st107{fill:#FFB41F;}
	.st108{fill:#8AA538;}
	.st109{fill:#BE6BB2;}
	.st110{fill:#AA5BA3;}
	.st111{fill:#FFDF66;}
	.st112{fill:#F4BA00;}
	.st113{fill:#E28529;}
	.st114{fill:#FF9945;}
	.st115{fill:#BA6C45;}
	.st116{fill:#EDBA15;}
	.st117{fill:#E0452F;}
	.st118{fill:#F7F2D5;}
	.st119{fill:#4C4E51;}
	.st120{fill:#EA615D;}
	.st121{fill:#DD4A36;}
	.st122{fill:#F6AF72;}
	.st123{fill:#E8955D;}
	.st124{fill:#E4C074;}
	.st125{fill:#EAE4C3;}
	.st126{fill:#BF3522;}
	.st127{fill:#D13E33;}
	.st128{fill:#AA5EA3;}
	.st129{fill:#DD443C;}
	.st130{fill:#AA5FA3;}
	.st131{fill:#B7C536;}
	.st132{fill:#F2872F;}
	.st133{fill:#AF5FA7;}
	.st134{fill:#E29F17;}
	.st135{fill:#FFC86E;}
	.st136{fill:#A55937;}
	.st137{fill:#D8422E;}
	.st138{fill:#C3556D;}
	.st139{fill:#B24965;}
	.st140{fill:#D1A962;}
	.st141{fill:#A3961A;}
	.st142{fill:#AFA51D;}
	.st143{fill:#968A1C;}
</style>
<g>
	<g>
		<g>
			<g>
				<g>
					<g>
						<g>
							<path class="st73" d="M50.6,207.9c-1.8,5.3-4.6,13.3-4.1,18.3c0.1,0.3,0.1,0.6,0.1,0.9c0,2.2-1.8,4-4,4c0,0,0,0,0,0
								c-0.9,0-1.8-0.3-2.6-0.9c-5.6-4.7-10.8-7.1-15.4-7.1c-3.4,0-6.6,1.3-9.8,4c-0.8,0.7-1.9,1-2.9,0.9c-1.1-0.1-2-0.6-2.7-1.4
								c-6.1-7.4-8.4-15.9-7-25.8c0.3-1.8,1.7-3.2,3.5-3.4c1.7-0.2,3.4,0.8,4.1,2.3c3.4-1.4,10.8-5.9,14.6-8.2c2.7-1.6,5-3,6.5-3.8
								c0.6-0.4,3.1-3.2,7-11.1c0.4-0.8,1-1.4,1.7-1.8c3.6-2,6-2.8,8-2.8c2.3,0,4.2,1.3,4.9,3.3c1,2.8,0,8-2.8,19.4
								c-0.1,0.2-0.1,0.5-0.2,0.7c0.5,0.2,1,0.4,1.4,0.7C53.9,198.4,52.8,201.6,50.6,207.9z"/>
						</g>
					</g>
				</g>
			</g>
		</g>
	</g>
	<g>
		<g>
			<g>
				<g>
					<g>
						<g>
							<path class="st74" d="M53.2,157.4c-0.8,5.8-4.8,15.8-8.2,22.6c-6,12.3-9.3,14.1-10.4,14.7c-1.3,0.7-3.5,2.1-6.1,3.6
								c-11.4,6.9-16.6,9.8-19.9,9.8c-0.8,0-1.5-0.2-2.2-0.5c-1.7-0.8-3-2.4-4-4.8c-5.8-14.7-0.1-72.3,4.9-92.3c0.5-1.8,2.1-3.1,4-3
								c1.9,0,3.4,1.4,3.8,3.2c2.1,10.2,4.1,15.5,5.2,17c2.6,3.5,14.3,12.1,23.6,18.3c0.2-1.1,0.5-2.2,0.8-3.4
								c0.4-1.9,2.1-3.2,4.1-3.1c1.9,0.1,3.5,1.6,3.8,3.4C53.4,149.6,53.7,154.4,53.2,157.4z"/>
						</g>
					</g>
				</g>
			</g>
		</g>
	</g>
	<g>
		<g>
			<g>
				<g>
					<g>
						<g>
							<path class="st73" d="M66.3,110.6c-3.4,8.8-6.1,14.5-8.1,17.4c-1.8,2.6-3.8,8.4-5.7,16.4c-1.2,4.9-1.9,8.9-1.9,8.9
								c-0.2,1.3-1.1,2.4-2.3,3c-0.5,0.2-1,0.3-1.6,0.3c-0.8,0-1.5-0.2-2.2-0.7c-2.6-1.7-25.7-16.9-30.6-23.6
								c-2.8-3.8-5.1-13-6.5-20.1c-1.6-7.9-4.1-21.5-2.1-24.9c0.8-1.4,2.5-3.1,6-3.1c0.1,0,0.2,0,0.3,0c-0.2-0.6-0.3-1.1-0.5-1.6
								c-1.7-6-3.5-12.2,1.6-14.1c0.6-0.2,1.2-0.3,1.9-0.3c3.3,0,5.5,2.9,7.1,5.2c0.1,0.2,0.3,0.4,0.5,0.6c1.6-0.9,4.5-2.8,10.1-6.5
								c1.1-0.7,2.5-0.9,3.7-0.4c1.2,0.5,2.1,1.5,2.4,2.8c0.4,1.7,0.9,2.2,0.9,2.2l1.4,1.4c6.1,5.8,12.3,11.9,14.5,15.7
								c1,1.8,2,4.4,3.2,7.6c0.8,2.3,2.3,6.1,3.4,8.2c0.8-0.2,1.7-0.1,2.5,0.3C66.2,106.4,67.1,108.6,66.3,110.6z"/>
						</g>
					</g>
				</g>
			</g>
		</g>
	</g>
	<g>
		<g>
			<g>
				<g>
					<g>
						<g>
							<path class="st73" d="M253.7,114.4c-12.8,17-31.1,26-53,26c-18.2,0-38.2-6.3-57.6-18.3c-1.3-0.8-2-2.2-1.9-3.7
								c0,0,0-0.2,0-0.4c-0.2-0.1-0.5-0.3-0.7-0.4c-1.3-0.8-3.6-2.2-4.1-5.2c-0.5-3.1,1.5-6.1,3.8-8.3c-0.2-0.9-0.3-1.9-0.1-3
								c0.2-1.2,0.6-3.9,10.8-10.1c0.2-0.1,0.5-0.2,0.7-0.3l10.2-3.7c1.8-0.6,3.8,0.1,4.8,1.7l3.1,5.1l7.2,3.6c1,0.5,1.7,1.4,2,2.4
								c2,6.6,16.1,10.4,38.6,10.4c16.8,0,32.4-2.1,32.6-2.1c1.6-0.2,3.2,0.5,4,1.9C254.8,111.4,254.7,113.1,253.7,114.4z"/>
						</g>
					</g>
				</g>
			</g>
		</g>
	</g>
	<g>
		<g>
			<g>
				<g>
					<g>
						<g>
							<path class="st74" d="M256,95.6c0,2.2-1.8,4-4,4c-0.8,0-1.5-0.2-2.2-0.6c-5.2-3.4-11.8-7.1-14-7.8c-0.1,0.1-0.2,0.2-0.3,0.3
								c-0.8,0.9-2.3,2.4-4.8,2.4c-0.5,0-1-0.1-1.5-0.2c-1.4-0.4-5.5-0.8-7.8-1.1c-1-0.1-1.8-0.2-2.2-0.3c-3.2-0.4-4.5-3.4-5.2-5
								c-0.1-0.2-0.2-0.5-0.3-0.7c-1.2-0.6-4.1-1.6-6.1-1.8c-0.1,0.5-0.3,1.1-0.4,1.5c-0.6,2.5-1.2,5.5-4,6.9
								c-0.9,0.4-1.9,0.6-3,0.6c-1.9,0-4.2-0.6-6.6-1.2c-1.7-0.4-3.6-0.9-4.7-0.9c-0.2,0.2-0.6,0.6-0.8,0.8
								c-1.2,1.3-3.3,3.6-7.1,3.2c-2.6-0.3-4.1-1.8-5-3.3c-0.6,0.8-1.3,1.8-1.9,2.7c-0.6,0.9-1.5,1.6-2.6,1.8
								c-1.1,0.2-2.2,0-3.1-0.7l-2.9-2.1L154.7,98c-2.4,1.5-4.8,3.2-6.1,4.3c0.5,0.6,0.8,1.4,0.8,2.2c0.1,1.3-0.5,2.6-1.5,3.4
								c-1.1,0.9-2.2,2-2.9,2.9c1.5,1,4.4,2.9,4.3,7c0,0.3-0.1,1.1-0.1,1.1c-0.5,4.6-3.1,12.5-3.4,13.4c-0.6,1.6-2.1,2.7-3.8,2.7
								h-0.2c-24.2,0-54.2-2.9-75.6-24.2c0,0.1-0.1,0.1-0.1,0.2c-1,2-2.8,3.1-4.9,3.1c-0.4,0-0.8,0-1.2-0.1c-4.1-0.9-6.2-6-9.2-14.2
								c-0.9-2.5-1.9-5.1-2.5-6.3c-1.9-3.2-9.5-10.5-13.2-14l-1.4-1.4c-1.4-1.4-2.5-3.4-3.1-6.1C29,65.4,30,54.7,32.9,46.6
								c0.4-1.2,1.4-2.1,2.5-2.5c38.2-12.4,78.2-19.3,112.7-19.3c67.7,0,107,25.6,107.9,70.2C256,95.3,256,95.4,256,95.6z"/>
						</g>
					</g>
				</g>
			</g>
		</g>
	</g>
	<g>
		<g>
			<g>
				<g>
					<g>
						<path class="st73" d="M111.5,109.9c-0.3,0-0.7,0-1-0.1c-19.9-5.2-33.9-12.2-42.7-21.5c-1.5-1.6-1.4-4.1,0.2-5.7
							c1.6-1.5,4.1-1.4,5.7,0.2c7.6,8.1,20.7,14.6,38.9,19.3c2.1,0.6,3.4,2.7,2.9,4.9C114.9,108.7,113.3,109.9,111.5,109.9z"/>
					</g>
				</g>
			</g>
		</g>
	</g>
</g>
</svg>
