<?xml version="1.0" encoding="utf-8"?>
<!-- Generator: Adobe Illustrator 22.1.0, SVG Export Plug-In . SVG Version: 6.00 Build 0)  -->
<svg version="1.1" id="Layer_1" xmlns="http://www.w3.org/2000/svg" xmlns:xlink="http://www.w3.org/1999/xlink" x="0px" y="0px"
	 viewBox="0 0 256 256" style="enable-background:new 0 0 256 256;" xml:space="preserve">
<style type="text/css">
	.st0{fill:#F6D67A;}
	.st1{fill:#E77CAE;}
	.st2{fill:#AC6535;}
	.st3{fill:#EB573B;}
	.st4{fill:#464646;}
	.st5{fill:#F5B31F;}
	.st6{fill:#9B592D;}
	.st7{fill:#9B5B2F;}
	.st8{fill:#E8A41A;}
	.st9{fill:#6D6E71;}
	.st10{fill:#E5A21C;}
	.st11{fill:#C66395;}
	.st12{fill:#E09F1E;}
	.st13{fill:#FFFFFF;}
	.st14{fill:#DDB95E;}
	.st15{fill:#EAC771;}
	.st16{fill:#F9F6CD;}
	.st17{fill:#009345;}
	.st18{fill:#008438;}
	.st19{fill:#EAA51B;}
	.st20{opacity:0.1;}
	.st21{fill:#FFD11D;}
	.st22{fill:#FFE37B;}
	.st23{fill:#FFA755;}
	.st24{fill:#FFEC97;}
	.st25{fill:#BC7532;}
	.st26{fill:#EFEFEF;}
	.st27{fill:#60ACF7;}
	.st28{fill:#876C6C;}
	.st29{fill:#1DDCFF;}
	.st30{fill:#BDF3FF;}
	.st31{fill:#EFCA70;}
	.st32{fill:#EFA91D;}
	.st33{fill:#8FAE3C;}
	.st34{fill:#92A5AC;}
	.st35{fill:#E8E3BA;}
	.st36{fill:#F79932;}
	.st37{fill:#F4F4F4;}
	.st38{fill:#FFDF8F;}
	.st39{fill:#EAE5B9;}
	.st40{fill:#7E9E6A;}
	.st41{fill:#94B57F;}
	.st42{fill:#9B5D8C;}
	.st43{fill:#96557A;}
	.st44{fill:#C3755A;}
	.st45{fill:#9BD7DD;}
	.st46{fill:#90CAD3;}
	.st47{fill:#F7F7F7;}
	.st48{fill:#AFE6EF;}
	.st49{fill:#FFFAEB;}
	.st50{fill:#F4EFC3;}
	.st51{fill:#F9F9F9;}
	.st52{fill:#FFE5C4;}
	.st53{fill:#FFB024;}
	.st54{fill:#FFC612;}
	.st55{fill:#FFCE31;}
	.st56{fill:#A05C2D;}
	.st57{fill:#1DCAF2;}
	.st58{fill:#00B0E0;}
	.st59{fill:#F2A355;}
	.st60{fill:#D68032;}
	.st61{fill:#66625D;}
	.st62{fill:#54504D;}
	.st63{fill:#B76955;}
	.st64{fill:#EFE8B4;}
	.st65{fill:#B93226;}
	.st66{fill:#EFEABF;}
	.st67{fill:#90C056;}
	.st68{opacity:0.15;}
	.st69{fill:#E8C56D;}
	.st70{fill:#F7BE4B;}
	.st71{fill:#E0A338;}
	.st72{fill:#F68455;}
	.st73{fill:#E26F47;}
	.st74{fill:#EC754B;}
	.st75{fill:#4AA5BA;}
	.st76{opacity:0.5;}
	.st77{fill:#A0B1B5;}
	.st78{opacity:0.7;}
	.st79{fill:#00ADEE;}
	.st80{fill:#F4D4B3;}
	.st81{fill:#F9D97A;}
	.st82{fill:#EDC96E;}
	.st83{fill:none;}
	.st84{fill:#AF6535;}
	.st85{fill:#F18BB4;}
	.st86{fill:#B3E4FF;}
	.st87{fill:#97DFFF;}
	.st88{fill:#D06E3C;}
	.st89{fill:#B55931;}
	.st90{fill:#DA4F4B;}
	.st91{fill:#EFCAA8;}
	.st92{fill:#EA7CB1;}
	.st93{fill:#EA7DAE;}
	.st94{fill:#BC7646;}
	.st95{fill:#00A1C6;}
	.st96{fill:#FCC230;}
	.st97{fill:#F2EBB1;}
	.st98{fill:#F9D6AF;}
	.st99{fill:#D34735;}
	.st100{fill:#E5A21A;}
	.st101{fill:#849E33;}
	.st102{fill:#EFBB14;}
	.st103{fill:#D8402B;}
	.st104{fill:#829B34;}
	.st105{fill:#F88916;}
	.st106{fill:#E27513;}
	.st107{fill:#FFB41F;}
	.st108{fill:#8AA538;}
	.st109{fill:#BE6BB2;}
	.st110{fill:#AA5BA3;}
	.st111{fill:#FFDF66;}
	.st112{fill:#F4BA00;}
	.st113{fill:#E28529;}
	.st114{fill:#FF9945;}
	.st115{fill:#BA6C45;}
	.st116{fill:#EDBA15;}
	.st117{fill:#E0452F;}
	.st118{fill:#F7F2D5;}
	.st119{fill:#4C4E51;}
	.st120{fill:#EA615D;}
	.st121{fill:#DD4A36;}
	.st122{fill:#F6AF72;}
	.st123{fill:#E8955D;}
	.st124{fill:#E4C074;}
	.st125{fill:#EAE4C3;}
	.st126{fill:#BF3522;}
	.st127{fill:#D13E33;}
	.st128{fill:#AA5EA3;}
	.st129{fill:#DD443C;}
	.st130{fill:#AA5FA3;}
	.st131{fill:#B7C536;}
	.st132{fill:#F2872F;}
	.st133{fill:#AF5FA7;}
	.st134{fill:#E29F17;}
	.st135{fill:#FFC86E;}
	.st136{fill:#A55937;}
	.st137{fill:#D8422E;}
	.st138{fill:#C3556D;}
	.st139{fill:#B24965;}
	.st140{fill:#D1A962;}
	.st141{fill:#A3961A;}
	.st142{fill:#AFA51D;}
	.st143{fill:#968A1C;}
</style>
<g>
	<g>
		<g>
			<g>
				<g>
					<path class="st16" d="M45.4,149.5c0,36.9,5.9,55.1,8.9,56.4h18c2.2,0,4,1.8,4,4v17.3c0,2.2-1.8,4-4,4H50.9
						c-22.6,0-32.7-40.8-32.7-81.3c0-20.7,2.6-40,7.4-54.4C33,73.2,43.4,68.6,50.9,68.6h21.3c2.2,0,4,1.8,4,4v16.6c0,2.2-1.8,4-4,4
						h-18C51.3,94.4,45.4,112.7,45.4,149.5z"/>
				</g>
			</g>
		</g>
	</g>
	<g>
		<g>
			<g>
				<g>
					<g>
						<path class="st21" d="M210.2,85.2c-4.8-0.5-9-3.8-10.6-8.4c-0.5-1.3-0.7-2.8-0.7-4.2c0-0.2,0-0.5,0-0.7c0.2-1.7-0.8-3.4-2.4-4
							c-1.6-0.7-3.5-0.2-4.6,1.1c-2,2.4-5,3.8-8.2,3.8c-3.8,0-7.4-2.1-9.3-5.4c-0.8-1.5-2.6-2.3-4.3-2c-0.1,0-0.3,0-0.5,0
							c-0.9,0-1.8-0.4-2.4-1.2c-1.4-1.7-3.9-2-5.6-0.6c-1,0.8-2.3,1.2-3.6,1.2c-3.2,0-5.8-2.6-5.8-5.8c0-0.4,0-0.8,0.1-1.2
							c0.2-1.1,0-2.2-0.7-3.1c-0.6-0.9-1.6-1.5-2.7-1.7c-2.4-0.3-4.4-2.2-4.9-4.6c-0.4-1.9-2-3.2-3.9-3.2h-0.5
							c-0.4,0-0.9,0.1-1.3,0.2c-4,1.4-8.6,1.4-12.6,0c-0.4-0.1-0.9-0.2-1.3-0.2H80.9c-4.5,0-7.8,1.3-10,3.9c-0.9,1-1.1,2.4-0.8,3.7
							c0.2,0.5,0.2,1,0.2,1.6c0,0.6-0.1,1.1-0.2,1.6c-0.2,0.7-0.5,1.3-0.9,1.8c-0.6,0.7-0.9,1.6-0.9,2.5v177
							c0,11.8,6.8,18.5,18.5,18.5h108.4c6.8,0,11.9-2.1,15-6.3c0.7-0.9,1.3-2,1.8-3c0.1-0.3,0.2-0.6,0.3-0.8
							c0.2-0.6,0.4-1.1,0.6-1.7c0.2-0.8,0.4-1.7,0.6-2.8c0.1-0.7,0.2-1.3,0.2-1.9c0-0.6,0.1-1.3,0.1-1.9V89.2
							C213.7,87.1,212.2,85.4,210.2,85.2z M186.6,108.5v100.5c0,0.2,0,0.5,0,0.7c0,0.2-0.1,0.5-0.1,0.7c0,0.1-0.1,0.2-0.1,0.4
							c-0.1,0.2-0.2,0.4-0.2,0.7c0,0.1-0.1,0.2-0.1,0.3c-0.3,0.6-0.6,1.1-1,1.6c-0.3,0.3-0.6,0.6-0.9,0.8c-0.1,0.1-0.1,0.1-0.2,0.2
							c-0.1,0.1-0.3,0.2-0.4,0.3c-0.1,0-0.2,0.1-0.3,0.1c-0.1,0.1-0.2,0.1-0.3,0.1c-0.2,0.1-0.4,0.2-0.6,0.2c-0.1,0-0.1,0.1-0.2,0.1
							c-0.1,0-0.1,0-0.2,0.1c-0.1,0-0.2,0-0.2,0.1c-0.1,0-0.2,0-0.2,0.1c-0.4,0.1-0.8,0.1-1.2,0.1h-4.8c-3.5,0-6.4-2.9-6.4-6.4
							V108.5c0-3.6,2.9-6.5,6.4-6.5h4.8c0.4,0,0.8,0,1.2,0.1c0.1,0,0.1,0,0.2,0.1c0.1,0,0.1,0,0.2,0.1c0.1,0,0.1,0,0.2,0.1
							c0.1,0,0.1,0,0.2,0.1c0.2,0.1,0.4,0.1,0.6,0.2c0.1,0.1,0.2,0.1,0.3,0.1c0.1,0.1,0.2,0.1,0.3,0.2c0.1,0.1,0.3,0.2,0.4,0.2
							c0.1,0.1,0.2,0.1,0.2,0.2c0.3,0.2,0.6,0.5,0.9,0.8c0.3,0.3,0.6,0.7,0.8,1.1c0.1,0.1,0.1,0.3,0.2,0.4c0.1,0.1,0.1,0.2,0.1,0.3
							c0.1,0.2,0.2,0.4,0.2,0.7c0,0.1,0.1,0.2,0.1,0.3c0.1,0.2,0.1,0.5,0.1,0.7C186.6,108,186.6,108.2,186.6,108.5z M133.9,104.1
							c1.2-1.3,2.9-2.1,4.8-2.1h4.8c3.5,0,6.4,2.9,6.4,6.5v100.5c0,3.5-2.9,6.4-6.4,6.4h-4.8c-1.9,0-3.6-0.8-4.8-2.1
							c-0.4-0.5-0.8-1-1-1.6c-0.4-0.8-0.6-1.8-0.6-2.8V108.5c0-1,0.2-2,0.6-2.8C133.1,105.1,133.4,104.6,133.9,104.1z M113.1,108.5
							v100.5c0,1.8-0.7,3.4-1.9,4.6c-1.2,1.2-2.8,1.9-4.6,1.9h-4.8c-3.5,0-6.4-2.9-6.4-6.4V108.5c0-3.6,2.9-6.5,6.4-6.5h4.8
							c1.8,0,3.4,0.7,4.6,1.9C112.3,105.1,113.1,106.7,113.1,108.5z"/>
					</g>
				</g>
			</g>
		</g>
	</g>
	<g>
		<g>
			<g>
				<g>
					<path class="st22" d="M149.8,108.5v100.5c0,3.5-2.9,6.4-6.4,6.4h-4.8c-3.5,0-6.4-2.9-6.4-6.4V108.5c0-3.5,2.9-6.4,6.4-6.4h4.8
						C146.9,102,149.8,104.9,149.8,108.5z"/>
				</g>
			</g>
		</g>
	</g>
	<g>
		<g>
			<g>
				<g>
					<path class="st22" d="M113.1,108.5v100.5c0,3.5-2.9,6.4-6.4,6.4h-4.8c-3.5,0-6.4-2.9-6.4-6.4V108.5c0-3.5,2.9-6.4,6.4-6.4h4.8
						C110.2,102,113.1,104.9,113.1,108.5z"/>
				</g>
			</g>
		</g>
	</g>
	<g>
		<g>
			<g>
				<g>
					<path class="st22" d="M186.6,108.5v100.5c0,3.5-2.9,6.4-6.4,6.4h-4.8c-3.5,0-6.4-2.9-6.4-6.4V108.5c0-3.5,2.9-6.4,6.4-6.4h4.8
						C183.7,102,186.6,104.9,186.6,108.5z"/>
				</g>
			</g>
		</g>
	</g>
	<g>
		<g>
			<g>
				<g>
					<path class="st16" d="M237.7,52.6c0,4.7-1.6,9.3-4.5,12.9c0,0,0,0.1-0.1,0.1c0,0-0.1,0.1-0.1,0.1c-0.5,0.6-1,1.2-1.6,1.7
						c0.1,0.2,0.1,0.5,0.2,0.7c0.3,1.4,0.5,3,0.5,4.5c0,0.4,0,0.7,0,1.1c-0.2,4.4-1.8,8.4-4.5,11.8c0,0.1-0.1,0.2-0.2,0.2
						c-3.9,4.8-9.7,7.5-15.9,7.5c-0.8,0-1.5,0-2.2-0.1c-7.8-0.8-14.6-6.2-17.3-13.7c-0.1-0.2-0.1-0.4-0.2-0.6
						c-2.5,1.2-5.3,1.9-8.2,1.9c-5.9,0-11.4-2.8-14.9-7.4c-1.8-0.1-3.6-0.7-5.1-1.7c-1.8,0.8-3.7,1.2-5.6,1.2
						c-7.3,0-13.3-5.7-13.8-12.9c-2.8-1.2-5.1-3.4-6.5-6c-4.6,1-9.4,0.7-13.9-0.7H80.9c-0.7,0-1.7,0-2.6,0.3c0,0.3,0,0.6,0,0.9
						c0,1.3-0.2,2.6-0.6,3.9c-0.5,1.7-1.3,3.2-2.4,4.6c-2.6,3.2-6.4,5.1-10.6,5.1c-7.5,0-13.6-6.1-13.6-13.6c0-1.2,0.2-2.5,0.5-3.7
						c0.4-1.3,0.9-2.6,1.7-3.7c-0.1-0.2-0.2-0.4-0.4-0.6L53,46.3c0,0-0.1-0.2-0.1-0.2c-1.1-2-1.6-4.2-1.6-6.5
						c0-7.1,5.5-12.9,12.4-13.5c1.8-6.7,7.9-11.6,15-11.6c1.8,0,3.6,0.3,5.2,0.9c3.9-6,10.5-9.7,17.9-9.7c3.7,0,7.3,1,10.5,2.8
						c5.1-5.4,12.2-8.5,19.8-8.5c7.2,0,13.9,2.8,18.9,7.7c2.8-1.4,5.9-2.2,9.1-2.2c4.1,0,8,1.2,11.4,3.5c4.2-4.2,9.9-6.6,15.9-6.6
						c5.6,0,10.9,2.1,15,5.7c1.7-0.4,3.4-0.6,5.1-0.6c12.4,0,22.5,10.1,22.5,22.5c0,2-0.2,4-0.8,5.8
						C234.6,39.8,237.7,45.9,237.7,52.6z"/>
				</g>
			</g>
		</g>
	</g>
</g>
</svg>
