<?xml version="1.0" encoding="utf-8"?>
<!-- Generator: Adobe Illustrator 22.1.0, SVG Export Plug-In . SVG Version: 6.00 Build 0)  -->
<svg version="1.1" id="Layer_1" xmlns="http://www.w3.org/2000/svg" xmlns:xlink="http://www.w3.org/1999/xlink" x="0px" y="0px"
	 viewBox="0 0 256 256" style="enable-background:new 0 0 256 256;" xml:space="preserve">
<style type="text/css">
	.st0{fill:#F6D67A;}
	.st1{fill:#E77CAE;}
	.st2{fill:#AC6535;}
	.st3{fill:#EB573B;}
	.st4{fill:#464646;}
	.st5{fill:#F5B31F;}
	.st6{fill:#9B592D;}
	.st7{fill:#9B5B2F;}
	.st8{fill:#E8A41A;}
	.st9{fill:#6D6E71;}
	.st10{fill:#E5A21C;}
	.st11{fill:#C66395;}
	.st12{fill:#E09F1E;}
	.st13{fill:#FFFFFF;}
	.st14{fill:#DDB95E;}
	.st15{fill:#EAC771;}
	.st16{fill:#F9F6CD;}
	.st17{fill:#009345;}
	.st18{fill:#008438;}
	.st19{fill:#EAA51B;}
	.st20{opacity:0.1;}
	.st21{fill:#FFD11D;}
	.st22{fill:#FFE37B;}
	.st23{fill:#FFA755;}
	.st24{fill:#FFEC97;}
	.st25{fill:#BC7532;}
	.st26{fill:#EFEFEF;}
	.st27{fill:#60ACF7;}
	.st28{fill:#876C6C;}
	.st29{fill:#1DDCFF;}
	.st30{fill:#BDF3FF;}
	.st31{fill:#EFCA70;}
	.st32{fill:#EFA91D;}
	.st33{fill:#8FAE3C;}
	.st34{fill:#92A5AC;}
	.st35{fill:#E8E3BA;}
	.st36{fill:#F79932;}
	.st37{fill:#F4F4F4;}
	.st38{fill:#FFDF8F;}
	.st39{fill:#EAE5B9;}
	.st40{fill:#7E9E6A;}
	.st41{fill:#94B57F;}
	.st42{fill:#9B5D8C;}
	.st43{fill:#96557A;}
	.st44{fill:#C3755A;}
	.st45{fill:#9BD7DD;}
	.st46{fill:#90CAD3;}
	.st47{fill:#F7F7F7;}
	.st48{fill:#AFE6EF;}
	.st49{fill:#FFFAEB;}
	.st50{fill:#F4EFC3;}
	.st51{fill:#F9F9F9;}
	.st52{fill:#FFE5C4;}
	.st53{fill:#FFB024;}
	.st54{fill:#FFC612;}
	.st55{fill:#FFCE31;}
	.st56{fill:#A05C2D;}
	.st57{fill:#1DCAF2;}
	.st58{fill:#00B0E0;}
	.st59{fill:#F2A355;}
	.st60{fill:#D68032;}
	.st61{fill:#66625D;}
	.st62{fill:#54504D;}
	.st63{fill:#B76955;}
	.st64{fill:#EFE8B4;}
	.st65{fill:#B93226;}
	.st66{fill:#EFEABF;}
	.st67{fill:#90C056;}
	.st68{opacity:0.15;}
	.st69{fill:#E8C56D;}
	.st70{fill:#F7BE4B;}
	.st71{fill:#E0A338;}
	.st72{fill:#F68455;}
	.st73{fill:#E26F47;}
	.st74{fill:#EC754B;}
	.st75{fill:#4AA5BA;}
	.st76{opacity:0.5;}
	.st77{fill:#A0B1B5;}
	.st78{opacity:0.7;}
	.st79{fill:#00ADEE;}
	.st80{fill:#F4D4B3;}
	.st81{fill:#F9D97A;}
	.st82{fill:#EDC96E;}
	.st83{fill:none;}
	.st84{fill:#AF6535;}
	.st85{fill:#F18BB4;}
	.st86{fill:#B3E4FF;}
	.st87{fill:#97DFFF;}
	.st88{fill:#D06E3C;}
	.st89{fill:#B55931;}
	.st90{fill:#DA4F4B;}
	.st91{fill:#EFCAA8;}
	.st92{fill:#EA7CB1;}
	.st93{fill:#EA7DAE;}
	.st94{fill:#BC7646;}
	.st95{fill:#00A1C6;}
	.st96{fill:#FCC230;}
	.st97{fill:#F2EBB1;}
	.st98{fill:#F9D6AF;}
	.st99{fill:#D34735;}
	.st100{fill:#E5A21A;}
	.st101{fill:#849E33;}
	.st102{fill:#EFBB14;}
	.st103{fill:#D8402B;}
	.st104{fill:#829B34;}
	.st105{fill:#F88916;}
	.st106{fill:#E27513;}
	.st107{fill:#FFB41F;}
	.st108{fill:#8AA538;}
	.st109{fill:#BE6BB2;}
	.st110{fill:#AA5BA3;}
	.st111{fill:#FFDF66;}
	.st112{fill:#F4BA00;}
	.st113{fill:#E28529;}
	.st114{fill:#FF9945;}
	.st115{fill:#BA6C45;}
	.st116{fill:#EDBA15;}
	.st117{fill:#E0452F;}
	.st118{fill:#F7F2D5;}
	.st119{fill:#4C4E51;}
	.st120{fill:#EA615D;}
	.st121{fill:#DD4A36;}
	.st122{fill:#F6AF72;}
	.st123{fill:#E8955D;}
	.st124{fill:#E4C074;}
	.st125{fill:#EAE4C3;}
	.st126{fill:#BF3522;}
	.st127{fill:#D13E33;}
	.st128{fill:#AA5EA3;}
	.st129{fill:#DD443C;}
	.st130{fill:#AA5FA3;}
	.st131{fill:#B7C536;}
	.st132{fill:#F2872F;}
	.st133{fill:#AF5FA7;}
	.st134{fill:#E29F17;}
	.st135{fill:#FFC86E;}
	.st136{fill:#A55937;}
	.st137{fill:#D8422E;}
	.st138{fill:#C3556D;}
	.st139{fill:#B24965;}
	.st140{fill:#D1A962;}
	.st141{fill:#A3961A;}
	.st142{fill:#AFA51D;}
	.st143{fill:#968A1C;}
</style>
<g>
	<g>
		<g>
			<g>
				<g>
					<g>
						<g>
							<path class="st21" d="M36.8,103.5l-5.5,61C25.4,144.2,27.2,123.9,36.8,103.5z"/>
						</g>
					</g>
				</g>
			</g>
		</g>
		<g>
			<g>
				<g>
					<g>
						<g>
							<path class="st21" d="M36.8,103.5l-5.5,61C25.4,144.2,27.2,123.9,36.8,103.5z"/>
						</g>
					</g>
				</g>
			</g>
		</g>
	</g>
	<g>
		<g>
			<g>
				<g>
					<g>
						<path class="st21" d="M250.3,143.8c-0.5,1.6-2,2.7-3.7,2.8c-1.7,0-3.2-1-3.9-2.6c-11.3-29.2-39.9-48.8-71.2-48.8
							c-42.1,0-76.3,34.3-76.3,76.4c0,31.3,19.6,59.9,48.7,71.3c1.6,0.6,2.6,2.2,2.6,3.9c-0.1,1.7-1.2,3.2-2.8,3.7
							c-11.7,3.7-23.4,5.6-34.8,5.6c-21,0-40.6-6.6-53.1-17.8c-4.4,1.7-13.6,4.9-22.6,4.9c-7.1,0-12.7-2-16.6-5.9
							c-10.8-10.8-3.9-31.9-1-39.2C3.6,184.2-2,159.9,0.9,133.5C4.4,101.3,20.1,69.8,45,44.9C73.5,16.4,110.7,0,147,0
							c20.9,0,39.7,5.8,50.9,15.5c4.3-1.7,13.6-4.9,22.6-4.9c7.1,0,12.7,2,16.6,5.9c10.8,10.8,3.9,31.9,1,39.2
							C253.1,72.6,262.4,105.5,250.3,143.8z"/>
					</g>
				</g>
			</g>
		</g>
	</g>
	<g>
		<g>
			<g>
				<g>
					<g>
						<path class="st112" d="M31.3,168.6c-1.7,0-3.3-1.1-3.8-2.9c-6.1-21.2-4.2-42.7,5.7-63.9c0.9-2,3.3-2.9,5.3-1.9
							c2,0.9,2.9,3.3,1.9,5.3c-9.1,19.4-10.8,39-5.2,58.2c0.6,2.1-0.6,4.3-2.7,5C32,168.5,31.7,168.6,31.3,168.6z"/>
					</g>
				</g>
			</g>
		</g>
	</g>
	<g>
		<g>
			<g>
				<g>
					<g>
						<g>
							<path class="st24" d="M246.5,142.6c-11.6-30.1-40.8-51.4-74.9-51.4c-44.4,0-80.3,36-80.3,80.4c0,34.1,21.3,63.3,51.3,75
								c9,3.5,18.8,5.4,29,5.4c44.4,0,80.3-36,80.3-80.4C251.9,161.4,250,151.6,246.5,142.6z M231.7,173.9
								c-0.6,15.7-7.2,29.9-17.6,40.3c-10.4,10.4-24.5,17-40.2,17.6c-0.8,0-1.6,0-2.3,0c-16.6,0-31.7-6.8-42.6-17.7
								c-10.9-10.9-17.6-26-17.6-42.6c0-16.7,6.7-31.7,17.6-42.6c10.9-10.9,26-17.7,42.6-17.7s31.7,6.8,42.6,17.7v0
								c10.9,10.9,17.6,26,17.6,42.6C231.8,172.4,231.8,173.2,231.7,173.9z"/>
						</g>
					</g>
				</g>
			</g>
			<g>
				<g>
					<g>
						<g>
							<path class="st24" d="M171.6,256c-10.5,0-20.8-1.9-30.5-5.7c-15.7-6.1-29.1-16.6-38.7-30.5c-9.9-14.2-15.1-30.9-15.1-48.2
								c0-46.5,37.8-84.4,84.3-84.4c17.3,0,34,5.2,48.2,15.1c13.8,9.7,24.4,23.1,30.5,38.8c3.8,9.7,5.7,20,5.7,30.5
								C255.9,218.1,218,256,171.6,256z M171.6,95.2c-42.1,0-76.3,34.3-76.3,76.4c0,31.3,19.6,59.9,48.7,71.3
								c8.8,3.4,18.1,5.1,27.6,5.1c42.1,0,76.3-34.3,76.3-76.4c0-9.5-1.7-18.8-5.1-27.6C231.3,114.4,203.3,95.2,171.6,95.2z
								 M171.6,235.9c-17.2,0-33.3-6.7-45.4-18.8c-12.1-12.1-18.8-28.3-18.8-45.5c0-17.2,6.7-33.3,18.8-45.5
								c12.1-12.1,28.3-18.8,45.4-18.8c17.2,0,33.3,6.7,45.4,18.8c0.1,0.1,0.1,0.1,0.2,0.2c12,12.1,18.6,28.2,18.6,45.3
								c0,0.8,0,1.7-0.1,2.5c-0.6,16.2-7.3,31.5-18.8,43c-11.5,11.5-26.7,18.2-42.9,18.8C173.2,235.9,172.4,235.9,171.6,235.9z
								 M171.6,115.3c-15,0-29.1,5.9-39.8,16.5c-10.6,10.6-16.5,24.8-16.5,39.8c0,15,5.9,29.2,16.5,39.8
								c10.6,10.6,24.7,16.5,39.8,16.5c0.7,0,1.5,0,2.2,0c14.2-0.5,27.5-6.4,37.6-16.4c10.1-10.1,15.9-23.4,16.4-37.6
								c0-0.7,0-1.5,0-2.2c0-15-5.9-29.2-16.5-39.8c-0.1-0.1-0.1-0.1-0.2-0.2C200.6,121.1,186.5,115.3,171.6,115.3z"/>
						</g>
					</g>
				</g>
			</g>
		</g>
		<g>
			<g>
				<g>
					<g>
						<g>
							<path class="st111" d="M231.8,171.6h-60.2l42.6-42.6C225,139.9,231.8,155,231.8,171.6z"/>
						</g>
					</g>
				</g>
			</g>
		</g>
		<g>
			<g>
				<g>
					<g>
						<g>
							<path class="st111" d="M214.1,214.2c-10.4,10.4-24.5,17-40.2,17.6c-0.8,0-1.6,0-2.3,0v-60.3L214.1,214.2z"/>
						</g>
					</g>
				</g>
			</g>
			<g>
				<g>
					<g>
						<g>
							<path class="st112" d="M171.6,235.9c-2.2,0-4-1.8-4-4v-60.3c0-1.6,1-3.1,2.5-3.7c1.5-0.6,3.2-0.3,4.4,0.9l42.6,42.6
								c1.6,1.6,1.6,4.1,0,5.7c-11.5,11.5-26.7,18.2-42.9,18.8C173.2,235.9,172.4,235.9,171.6,235.9z M175.6,181.3v46.5
								c12.2-0.9,23.6-5.6,32.8-13.6L175.6,181.3z"/>
						</g>
					</g>
				</g>
			</g>
		</g>
		<g>
			<g>
				<g>
					<g>
						<g>
							<path class="st111" d="M231.8,171.6c0,0.8,0,1.6,0,2.3c-0.6,15.7-7.2,29.9-17.6,40.3l-42.6-42.6H231.8z"/>
						</g>
					</g>
				</g>
			</g>
			<g>
				<g>
					<g>
						<g>
							<path class="st112" d="M214.1,218.2c-1.1,0-2.1-0.4-2.8-1.2l-42.6-42.6c-1.1-1.1-1.5-2.9-0.9-4.4c0.6-1.5,2.1-2.5,3.7-2.5
								h60.2c2.2,0,4,1.8,4,4c0,0.8,0,1.7-0.1,2.5c-0.6,16.2-7.3,31.5-18.8,43C216.2,217.8,215.2,218.2,214.1,218.2z M181.2,175.6
								l32.8,32.9c8-9.2,12.7-20.7,13.6-32.9H181.2z"/>
						</g>
					</g>
				</g>
			</g>
		</g>
		<g>
			<g>
				<g>
					<g>
						<g>
							<path class="st111" d="M214.1,129L214.1,129l-42.6,42.6v-60.3C188.2,111.3,203.2,118.1,214.1,129z"/>
						</g>
					</g>
				</g>
			</g>
			<g>
				<g>
					<g>
						<g>
							<path class="st112" d="M171.6,175.6c-0.5,0-1-0.1-1.5-0.3c-1.5-0.6-2.5-2.1-2.5-3.7v-60.3c0-2.2,1.8-4,4-4
								c17.2,0,33.3,6.7,45.4,18.8c0.7,0.8,1.2,1.8,1.2,2.8c0,1.1-0.4,2.1-1.2,2.8l-42.6,42.6C173.6,175.2,172.6,175.6,171.6,175.6z
								 M175.6,115.4v46.5l32.8-32.9C199.2,121,187.7,116.3,175.6,115.4z"/>
						</g>
					</g>
				</g>
			</g>
		</g>
		<g>
			<g>
				<g>
					<g>
						<g>
							<path class="st111" d="M171.6,111.3v60.3L129,129C139.9,118.1,154.9,111.3,171.6,111.3z"/>
						</g>
					</g>
				</g>
			</g>
			<g>
				<g>
					<g>
						<g>
							<path class="st112" d="M171.6,175.6c-1,0-2.1-0.4-2.8-1.2l-42.6-42.6c-1.6-1.6-1.6-4.1,0-5.7c12.1-12.1,28.3-18.8,45.4-18.8
								c2.2,0,4,1.8,4,4v60.3c0,1.6-1,3.1-2.5,3.7C172.6,175.5,172.1,175.6,171.6,175.6z M134.7,129.1l32.8,32.9v-46.5
								C155.4,116.3,143.9,121,134.7,129.1z"/>
						</g>
					</g>
				</g>
			</g>
		</g>
		<g>
			<g>
				<g>
					<g>
						<g>
							<path class="st111" d="M171.6,171.6h-60.2c0-16.7,6.7-31.7,17.6-42.6L171.6,171.6z"/>
						</g>
					</g>
				</g>
			</g>
			<g>
				<g>
					<g>
						<g>
							<path class="st112" d="M171.6,175.6C171.6,175.6,171.6,175.6,171.6,175.6h-60.3c-2.2,0-4-1.8-4-4c0-17.2,6.7-33.3,18.8-45.5
								c0.8-0.8,1.8-1.2,2.8-1.2l0,0c1.1,0,2.1,0.4,2.8,1.2l42.4,42.4c0.9,0.7,1.4,1.8,1.4,3.1C175.6,173.8,173.8,175.6,171.6,175.6
								z M115.5,167.6h46.4l-32.8-32.9C121,144,116.3,155.4,115.5,167.6z"/>
						</g>
					</g>
				</g>
			</g>
		</g>
		<g>
			<g>
				<g>
					<g>
						<g>
							<path class="st111" d="M171.6,171.6L129,214.2c-10.9-10.9-17.6-26-17.6-42.6H171.6z"/>
						</g>
					</g>
				</g>
			</g>
			<g>
				<g>
					<g>
						<g>
							<path class="st112" d="M129,218.2c-1.1,0-2.1-0.4-2.8-1.2c-12.1-12.1-18.8-28.3-18.8-45.5c0-2.2,1.8-4,4-4h60.2
								c1.6,0,3.1,1,3.7,2.5c0.6,1.5,0.3,3.2-0.9,4.4l-42.6,42.6C131,217.8,130,218.2,129,218.2z M115.5,175.6
								c0.9,12.2,5.6,23.6,13.6,32.9l32.8-32.9H115.5z"/>
						</g>
					</g>
				</g>
			</g>
		</g>
		<g>
			<g>
				<g>
					<g>
						<g>
							<path class="st111" d="M171.6,171.6v60.3c-16.6,0-31.7-6.8-42.6-17.7L171.6,171.6z"/>
						</g>
					</g>
				</g>
			</g>
			<g>
				<g>
					<g>
						<g>
							<path class="st112" d="M171.6,235.9c-17.2,0-33.3-6.7-45.4-18.8c-1.6-1.6-1.6-4.1,0-5.7l42.6-42.6c1.1-1.1,2.9-1.5,4.4-0.9
								c1.5,0.6,2.5,2.1,2.5,3.7v60.3C175.6,234.1,173.8,235.9,171.6,235.9z M134.7,214.1c9.2,8,20.6,12.8,32.8,13.6v-46.5
								L134.7,214.1z"/>
						</g>
					</g>
				</g>
			</g>
		</g>
		<g>
			<g>
				<g>
					<g>
						<g>
							<path class="st111" d="M231.8,171.6h-60.2l42.6-42.6C225,139.9,231.8,155,231.8,171.6z"/>
						</g>
					</g>
				</g>
			</g>
			<g>
				<g>
					<g>
						<g>
							<path class="st112" d="M231.8,175.6C231.8,175.6,231.8,175.6,231.8,175.6h-60.3c-1.6,0-3.1-1-3.7-2.5
								c-0.6-1.5-0.3-3.2,0.9-4.4l42.6-42.6c0.8-0.8,1.8-1.2,2.8-1.2c1.1,0,2.1,0.4,2.8,1.2c12,12,18.7,28,18.8,45
								c0,0.1,0,0.3,0,0.4C235.8,173.8,234,175.6,231.8,175.6z M181.2,167.6h46.4c-0.9-12.2-5.6-23.6-13.6-32.9L181.2,167.6z"/>
						</g>
					</g>
				</g>
			</g>
		</g>
		<g>
			<g>
				<g>
					<g>
						<g>
							<path class="st111" d="M214.2,129L214.2,129L214.2,129z"/>
						</g>
					</g>
				</g>
			</g>
		</g>
	</g>
</g>
</svg>
