<?xml version="1.0" encoding="utf-8"?>
<!-- Generator: Adobe Illustrator 22.1.0, SVG Export Plug-In . SVG Version: 6.00 Build 0)  -->
<svg version="1.1" id="Layer_1" xmlns="http://www.w3.org/2000/svg" xmlns:xlink="http://www.w3.org/1999/xlink" x="0px" y="0px"
	 viewBox="0 0 256 256" style="enable-background:new 0 0 256 256;" xml:space="preserve">
<style type="text/css">
	.st0{fill:#F6D67A;}
	.st1{fill:#E77CAE;}
	.st2{fill:#AC6535;}
	.st3{fill:#EB573B;}
	.st4{fill:#464646;}
	.st5{fill:#F5B31F;}
	.st6{fill:#9B592D;}
	.st7{fill:#9B5B2F;}
	.st8{fill:#E8A41A;}
	.st9{fill:#6D6E71;}
	.st10{fill:#E5A21C;}
	.st11{fill:#C66395;}
	.st12{fill:#E09F1E;}
	.st13{fill:#FFFFFF;}
	.st14{fill:#DDB95E;}
	.st15{fill:#EAC771;}
	.st16{fill:#F9F6CD;}
	.st17{fill:#009345;}
	.st18{fill:#008438;}
	.st19{fill:#EAA51B;}
	.st20{opacity:0.1;}
	.st21{fill:#FFD11D;}
	.st22{fill:#FFE37B;}
	.st23{fill:#FFA755;}
	.st24{fill:#FFEC97;}
	.st25{fill:#BC7532;}
	.st26{fill:#EFEFEF;}
	.st27{fill:#60ACF7;}
	.st28{fill:#876C6C;}
	.st29{fill:#1DDCFF;}
	.st30{fill:#BDF3FF;}
	.st31{fill:#EFCA70;}
	.st32{fill:#EFA91D;}
	.st33{fill:#8FAE3C;}
	.st34{fill:#92A5AC;}
	.st35{fill:#E8E3BA;}
	.st36{fill:#F79932;}
	.st37{fill:#F4F4F4;}
	.st38{fill:#FFDF8F;}
	.st39{fill:#EAE5B9;}
	.st40{fill:#7E9E6A;}
	.st41{fill:#94B57F;}
	.st42{fill:#9B5D8C;}
	.st43{fill:#96557A;}
	.st44{fill:#C3755A;}
	.st45{fill:#9BD7DD;}
	.st46{fill:#90CAD3;}
	.st47{fill:#F7F7F7;}
	.st48{fill:#AFE6EF;}
	.st49{fill:#FFFAEB;}
	.st50{fill:#F4EFC3;}
	.st51{fill:#F9F9F9;}
	.st52{fill:#FFE5C4;}
	.st53{fill:#FFB024;}
	.st54{fill:#FFC612;}
	.st55{fill:#FFCE31;}
	.st56{fill:#A05C2D;}
	.st57{fill:#1DCAF2;}
	.st58{fill:#00B0E0;}
	.st59{fill:#F2A355;}
	.st60{fill:#D68032;}
	.st61{fill:#66625D;}
	.st62{fill:#54504D;}
	.st63{fill:#B76955;}
	.st64{fill:#EFE8B4;}
	.st65{fill:#B93226;}
	.st66{fill:#EFEABF;}
	.st67{fill:#90C056;}
	.st68{opacity:0.15;}
	.st69{fill:#E8C56D;}
	.st70{fill:#F7BE4B;}
	.st71{fill:#E0A338;}
	.st72{fill:#F68455;}
	.st73{fill:#E26F47;}
	.st74{fill:#EC754B;}
	.st75{fill:#4AA5BA;}
	.st76{opacity:0.5;}
	.st77{fill:#A0B1B5;}
	.st78{opacity:0.7;}
	.st79{fill:#00ADEE;}
	.st80{fill:#F4D4B3;}
	.st81{fill:#F9D97A;}
	.st82{fill:#EDC96E;}
	.st83{fill:none;}
	.st84{fill:#AF6535;}
	.st85{fill:#F18BB4;}
	.st86{fill:#B3E4FF;}
	.st87{fill:#97DFFF;}
	.st88{fill:#D06E3C;}
	.st89{fill:#B55931;}
	.st90{fill:#DA4F4B;}
	.st91{fill:#EFCAA8;}
	.st92{fill:#EA7CB1;}
	.st93{fill:#EA7DAE;}
	.st94{fill:#BC7646;}
	.st95{fill:#00A1C6;}
	.st96{fill:#FCC230;}
	.st97{fill:#F2EBB1;}
	.st98{fill:#F9D6AF;}
	.st99{fill:#D34735;}
	.st100{fill:#E5A21A;}
	.st101{fill:#849E33;}
	.st102{fill:#EFBB14;}
	.st103{fill:#D8402B;}
	.st104{fill:#829B34;}
	.st105{fill:#F88916;}
	.st106{fill:#E27513;}
	.st107{fill:#FFB41F;}
	.st108{fill:#8AA538;}
	.st109{fill:#BE6BB2;}
	.st110{fill:#AA5BA3;}
	.st111{fill:#FFDF66;}
	.st112{fill:#F4BA00;}
	.st113{fill:#E28529;}
	.st114{fill:#FF9945;}
	.st115{fill:#BA6C45;}
	.st116{fill:#EDBA15;}
	.st117{fill:#E0452F;}
	.st118{fill:#F7F2D5;}
	.st119{fill:#4C4E51;}
	.st120{fill:#EA615D;}
	.st121{fill:#DD4A36;}
	.st122{fill:#F6AF72;}
	.st123{fill:#E8955D;}
	.st124{fill:#E4C074;}
	.st125{fill:#EAE4C3;}
	.st126{fill:#BF3522;}
	.st127{fill:#D13E33;}
	.st128{fill:#AA5EA3;}
	.st129{fill:#DD443C;}
	.st130{fill:#AA5FA3;}
	.st131{fill:#B7C536;}
	.st132{fill:#F2872F;}
	.st133{fill:#AF5FA7;}
	.st134{fill:#E29F17;}
	.st135{fill:#FFC86E;}
	.st136{fill:#A55937;}
	.st137{fill:#D8422E;}
	.st138{fill:#C3556D;}
	.st139{fill:#B24965;}
	.st140{fill:#D1A962;}
	.st141{fill:#A3961A;}
	.st142{fill:#AFA51D;}
	.st143{fill:#968A1C;}
</style>
<g>
	<g>
		<g>
			<g>
				<g>
					<path class="st5" d="M249,105.1L107,247.2c-5.6,5.6-12.8,8.5-21.4,8.5c-30.2,0-68.2-35-80.7-65c-7.1-17.2-5.7-31.9,4-41.6
						l142-142.1c4.5-4.5,10.5-6.9,17.6-6.9c28.9,0,70.6,38.7,83.2,69.2C258.1,84.5,257.1,96.9,249,105.1z"/>
				</g>
			</g>
		</g>
	</g>
	<g>
		<g>
			<g>
				<g>
					<path class="st2" d="M247.9,47.4L45.4,250.1c-3.8,3.9-8.7,5.9-14.1,5.9c-11.3,0-24.1-9.4-29.1-21.5c-3.7-9-2.3-17.7,3.8-23.8
						L208.5,8c4.2-4.2,9.4-6.3,15.1-6.3c11.4,0,23.7,9,28.6,20.8C256,31.7,254.5,40.8,247.9,47.4z"/>
				</g>
			</g>
		</g>
	</g>
	<g>
		<g>
			<g>
				<g>
					<path class="st0" d="M59,203.6c-1,0-2-0.4-2.8-1.2c-3.2-3.2-4.4-7.3-3.3-11.4c1.1-4.3,4.6-7.8,8.9-8.9
						c4.1-1.1,8.2,0.1,11.4,3.3c0.9,0.9,1.9,1.2,3.1,0.9c1.7-0.5,3.4-2.1,3.9-3.9c0.3-1.2,0-2.2-0.9-3.1c-5.6-5.6-4.2-12.8,0-17
						c4.2-4.2,11.4-5.6,17,0c0.4,0.4,0.9,0.7,2,0.4c2-0.5,4.1-2.7,4.7-4.7c0.3-1.1,0-1.6-0.4-2c-2.6-2.6-3.8-5.8-3.7-9.1
						c0.2-2.9,1.5-5.7,3.7-7.9c2.2-2.2,5-3.5,7.9-3.6c3.3-0.2,6.6,1.1,9.1,3.7c0.8,0.8,1.6,1.1,2.6,1c1-0.1,2.1-0.7,3-1.6
						c0.5-0.5,2.9-3.2,0.6-5.6c-5.6-5.6-4.2-12.8,0-17c2.2-2.2,5-3.5,7.9-3.6c3.3-0.2,6.6,1.1,9.1,3.7c1.4,1.4,4-0.5,4.9-1.4
						c0.9-0.9,2.8-3.5,1.4-4.9c-3.2-3.2-4.4-7.3-3.3-11.4c1.1-4.3,4.6-7.8,8.9-8.9c4.1-1.1,8.2,0.1,11.4,3.3c2.4,2.4,5,0,5.5-0.5
						c0.5-0.5,2.9-3.2,0.6-5.6c-3.2-3.2-4.4-7.3-3.3-11.4c1.1-4.3,4.6-7.8,8.9-8.9c4.1-1.1,8.2,0.1,11.4,3.3c0.4,0.4,0.9,0.7,2,0.4
						c2-0.5,4.1-2.7,4.7-4.7c0.3-1.1,0-1.6-0.4-2c-1.6-1.6-1.6-4.1,0-5.7c1.6-1.6,4.1-1.6,5.7,0c2.6,2.6,3.5,6.1,2.5,9.7
						c-1.3,4.7-5.6,9.1-10.3,10.3c-3.6,1-7.2,0.1-9.7-2.5c-1.1-1.1-2.4-1.6-3.7-1.2c-1.5,0.4-2.8,1.7-3.2,3.2
						c-0.3,1.3,0.1,2.5,1.2,3.7c5.4,5.4,3.8,12.5-0.6,16.9c-4.3,4.3-11.5,5.9-16.8,0.5c-1.1-1.1-2.4-1.6-3.7-1.2
						c-1.5,0.4-2.8,1.7-3.2,3.2c-0.3,1.3,0.1,2.5,1.2,3.7c4.3,4.3,3.7,11.1-1.4,16.2c-5.1,5.1-11.9,5.7-16.2,1.4
						c-2.7-2.7-5.2-0.5-5.7,0c-0.5,0.5-2.7,3,0,5.7c5.4,5.4,3.8,12.5-0.6,16.9c-2.2,2.2-4.9,3.5-7.8,3.8c-3.4,0.4-6.6-0.8-9.1-3.3
						c-2.7-2.7-5.2-0.5-5.7,0c-0.8,0.8-1.3,1.8-1.3,2.7c-0.1,1,0.4,2,1.3,3c2.6,2.6,3.5,6.1,2.5,9.8c-1.3,4.7-5.6,9.1-10.3,10.3
						c-3.6,1-7.2,0.1-9.7-2.5c-2.7-2.7-5.2-0.5-5.7,0c-0.5,0.5-2.7,3,0,5.7c2.9,3,4,6.9,3,10.9c-1.2,4.5-5,8.3-9.5,9.5
						c-4,1.1-7.9,0-10.9-3c-1.1-1.1-2.4-1.6-3.7-1.2c-1.5,0.4-2.8,1.7-3.2,3.2c-0.3,1.3,0.1,2.5,1.2,3.7c1.6,1.6,1.6,4.1,0,5.7
						C61,203.2,60,203.6,59,203.6z"/>
				</g>
			</g>
		</g>
	</g>
</g>
</svg>
