<?xml version="1.0" encoding="utf-8"?>
<!-- Generator: Adobe Illustrator 22.1.0, SVG Export Plug-In . SVG Version: 6.00 Build 0)  -->
<svg version="1.1" id="Layer_1" xmlns="http://www.w3.org/2000/svg" xmlns:xlink="http://www.w3.org/1999/xlink" x="0px" y="0px"
	 viewBox="0 0 256 256" style="enable-background:new 0 0 256 256;" xml:space="preserve">
<style type="text/css">
	.st0{fill:#F6D67A;}
	.st1{fill:#E77CAE;}
	.st2{fill:#AC6535;}
	.st3{fill:#EB573B;}
	.st4{fill:#464646;}
	.st5{fill:#F5B31F;}
	.st6{fill:#9B592D;}
	.st7{fill:#9B5B2F;}
	.st8{fill:#E8A41A;}
	.st9{fill:#6D6E71;}
	.st10{fill:#E5A21C;}
	.st11{fill:#C66395;}
	.st12{fill:#E09F1E;}
	.st13{fill:#FFFFFF;}
	.st14{fill:#DDB95E;}
	.st15{fill:#EAC771;}
	.st16{fill:#F9F6CD;}
	.st17{fill:#009345;}
	.st18{fill:#008438;}
	.st19{fill:#EAA51B;}
	.st20{opacity:0.1;}
	.st21{fill:#FFD11D;}
	.st22{fill:#FFE37B;}
	.st23{fill:#FFA755;}
	.st24{fill:#FFEC97;}
	.st25{fill:#BC7532;}
	.st26{fill:#EFEFEF;}
	.st27{fill:#60ACF7;}
	.st28{fill:#876C6C;}
	.st29{fill:#1DDCFF;}
	.st30{fill:#BDF3FF;}
	.st31{fill:#EFCA70;}
	.st32{fill:#EFA91D;}
	.st33{fill:#8FAE3C;}
	.st34{fill:#92A5AC;}
	.st35{fill:#E8E3BA;}
	.st36{fill:#F79932;}
	.st37{fill:#F4F4F4;}
	.st38{fill:#FFDF8F;}
	.st39{fill:#EAE5B9;}
	.st40{fill:#7E9E6A;}
	.st41{fill:#94B57F;}
	.st42{fill:#9B5D8C;}
	.st43{fill:#96557A;}
	.st44{fill:#C3755A;}
	.st45{fill:#9BD7DD;}
	.st46{fill:#90CAD3;}
	.st47{fill:#F7F7F7;}
	.st48{fill:#AFE6EF;}
	.st49{fill:#FFFAEB;}
	.st50{fill:#F4EFC3;}
	.st51{fill:#F9F9F9;}
	.st52{fill:#FFE5C4;}
	.st53{fill:#FFB024;}
	.st54{fill:#FFC612;}
	.st55{fill:#FFCE31;}
	.st56{fill:#A05C2D;}
	.st57{fill:#1DCAF2;}
	.st58{fill:#00B0E0;}
	.st59{fill:#F2A355;}
	.st60{fill:#D68032;}
	.st61{fill:#66625D;}
	.st62{fill:#54504D;}
	.st63{fill:#B76955;}
	.st64{fill:#EFE8B4;}
	.st65{fill:#B93226;}
	.st66{fill:#EFEABF;}
	.st67{fill:#90C056;}
	.st68{opacity:0.15;}
	.st69{fill:#E8C56D;}
	.st70{fill:#F7BE4B;}
	.st71{fill:#E0A338;}
	.st72{fill:#F68455;}
	.st73{fill:#E26F47;}
	.st74{fill:#EC754B;}
	.st75{fill:#4AA5BA;}
	.st76{opacity:0.5;}
	.st77{fill:#A0B1B5;}
	.st78{opacity:0.7;}
	.st79{fill:#00ADEE;}
	.st80{fill:#F4D4B3;}
	.st81{fill:#F9D97A;}
	.st82{fill:#EDC96E;}
	.st83{fill:none;}
	.st84{fill:#AF6535;}
	.st85{fill:#F18BB4;}
	.st86{fill:#B3E4FF;}
	.st87{fill:#97DFFF;}
	.st88{fill:#D06E3C;}
	.st89{fill:#B55931;}
	.st90{fill:#DA4F4B;}
	.st91{fill:#EFCAA8;}
	.st92{fill:#EA7CB1;}
	.st93{fill:#EA7DAE;}
	.st94{fill:#BC7646;}
	.st95{fill:#00A1C6;}
	.st96{fill:#FCC230;}
	.st97{fill:#F2EBB1;}
	.st98{fill:#F9D6AF;}
	.st99{fill:#D34735;}
	.st100{fill:#E5A21A;}
	.st101{fill:#849E33;}
	.st102{fill:#EFBB14;}
	.st103{fill:#D8402B;}
	.st104{fill:#829B34;}
	.st105{fill:#F88916;}
	.st106{fill:#E27513;}
	.st107{fill:#FFB41F;}
	.st108{fill:#8AA538;}
	.st109{fill:#BE6BB2;}
	.st110{fill:#AA5BA3;}
	.st111{fill:#FFDF66;}
	.st112{fill:#F4BA00;}
	.st113{fill:#E28529;}
	.st114{fill:#FF9945;}
	.st115{fill:#BA6C45;}
	.st116{fill:#EDBA15;}
	.st117{fill:#E0452F;}
	.st118{fill:#F7F2D5;}
	.st119{fill:#4C4E51;}
	.st120{fill:#EA615D;}
	.st121{fill:#DD4A36;}
	.st122{fill:#F6AF72;}
	.st123{fill:#E8955D;}
	.st124{fill:#E4C074;}
	.st125{fill:#EAE4C3;}
	.st126{fill:#BF3522;}
	.st127{fill:#D13E33;}
	.st128{fill:#AA5EA3;}
	.st129{fill:#DD443C;}
	.st130{fill:#AA5FA3;}
	.st131{fill:#B7C536;}
	.st132{fill:#F2872F;}
	.st133{fill:#AF5FA7;}
	.st134{fill:#E29F17;}
	.st135{fill:#FFC86E;}
	.st136{fill:#A55937;}
	.st137{fill:#D8422E;}
	.st138{fill:#C3556D;}
	.st139{fill:#B24965;}
	.st140{fill:#D1A962;}
	.st141{fill:#A3961A;}
	.st142{fill:#AFA51D;}
	.st143{fill:#968A1C;}
</style>
<g>
	<g>
		<g>
			<g>
				<g>
					<g>
						<path class="st36" d="M221.4,145.2c0,47.6-30.9,88-73.7,102.3c-0.1-1.6-1.2-3-2.7-3.5c-31-10.5-51.8-39.6-51.8-72.4
							c0-42.1,34.2-76.4,76.3-76.4c15.1,0,29.6,4.4,42.2,12.7c1,0.7,2.2,0.8,3.3,0.5C219.1,119.9,221.4,132.3,221.4,145.2z"/>
					</g>
				</g>
			</g>
		</g>
	</g>
	<g>
		<g>
			<g>
				<g>
					<g>
						<path class="st36" d="M216.4,107.7c-0.4,0.4-0.9,0.6-1.4,0.7c-1.1,0.3-2.3,0.2-3.3-0.5c-12.5-8.3-27.1-12.7-42.2-12.7
							c-42.1,0-76.3,34.3-76.3,76.4c0,32.8,20.8,61.9,51.8,72.4c1.5,0.5,2.6,1.9,2.7,3.5c0,0.1,0,0.2,0,0.4c0,1.7-1.2,3.3-2.9,3.8
							c-10,2.9-20.5,4.4-31,4.4C52.3,256,2.2,205.9,2.2,144.3c0-48.5,30.9-91.2,76.9-106.2c4.8-1.6,9.7-2.8,14.6-3.7
							c1-0.2,2,0,2.8,0.6c15.6,9.9,31.3,14.9,46.6,14.9c7.3,0,14.7-1.1,22-3.4c1.1-0.3,2.2-0.2,3.1,0.3
							c22.3,12.5,39.8,32.5,49.2,56.3C218.2,104.7,217.7,106.6,216.4,107.7z"/>
					</g>
				</g>
			</g>
		</g>
	</g>
	<g>
		<g>
			<g>
				<g>
					<g>
						<path class="st33" d="M232.8,6.6c-21.4,24.8-43.3,40.8-65.2,47.5c-8.1,2.5-16.2,3.7-24.3,3.7c-16.9,0-34-5.4-50.9-16.1
							c-2.9-1.9-5.9-3.9-8.8-6.1c0.4,1.9,0.7,3.8,0.9,5.8c0.6,5.1,0.7,10.8,0.3,18.1c-0.1,2.1-1.9,3.8-4,3.8h-0.2
							c-2.2-0.1-3.9-2-3.8-4.2c0.3-6.8,0.2-12.2-0.3-16.9c-0.7-6.2-2.1-11.4-4.5-16.6c0,0,0,0,0-0.1c0,0,0,0,0,0
							c-0.4-1-0.9-1.9-1.4-2.7c0,0,0,0,0,0c0,0,0,0,0,0c-2-3.8-4.7-7.9-8.8-13.3c-1.3-1.8-1-4.3,0.8-5.6c1.8-1.3,4.3-1,5.6,0.8
							c3.1,4.1,5.4,7.5,7.3,10.7C88.9,7.7,103.4,0.2,126,0.2c2.6,0,5.2,0.1,7.9,0.3c4.4,0.3,8.6,0.7,12.7,1
							c11.6,1,22.5,1.9,35.7,1.9c14.2,0,29.2-1.1,46.9-3.4c1.6-0.2,3.2,0.6,4,2.1C234,3.6,233.8,5.4,232.8,6.6z"/>
					</g>
				</g>
			</g>
		</g>
	</g>
	<g>
		<g>
			<g>
				<g>
					<g>
						<path class="st113" d="M62.4,214.7c-0.8,0-1.5-0.2-2.2-0.7c-19.8-13-30.7-36.6-32.7-54.2c-0.3-2.2,1.3-4.2,3.5-4.4
							c2.2-0.3,4.2,1.3,4.4,3.5c1.8,15.8,11.6,36.9,29.2,48.5c1.8,1.2,2.4,3.7,1.1,5.5C65,214.1,63.7,214.7,62.4,214.7z"/>
					</g>
				</g>
			</g>
		</g>
	</g>
	<g>
		<g>
			<g>
				<g>
					<g>
						<g>
							<path class="st23" d="M169.5,111.3v60.3h0l42.6-42.6C201.2,118.1,186.1,111.3,169.5,111.3z"/>
						</g>
					</g>
				</g>
			</g>
		</g>
		<g>
			<g>
				<g>
					<g>
						<g>
							<path class="st21" d="M224.8,138.9c-2.7-4.6-6-8.9-9.9-12.8c-12.1-12.1-28.3-18.8-45.4-18.8s-33.3,6.7-45.4,18.8
								c-12.1,12.2-18.8,28.3-18.8,45.5c0,17.2,6.7,33.3,18.8,45.5c12.1,12.1,28.3,18.8,45.4,18.8c2.7,0,5.4-0.2,8-0.5
								c14-1.8,27.3-8.2,37.4-18.3c12.1-12.1,18.8-28.3,18.8-45.5C233.7,160.1,230.6,148.7,224.8,138.9z M212.1,214.2
								c-9.2,9.2-21.4,15.5-35.1,17.2c-2.5,0.3-5,0.5-7.5,0.5c-16.6,0-31.7-6.8-42.6-17.7c-10.9-10.9-17.6-26-17.6-42.6
								c0-16.7,6.7-31.7,17.6-42.6c10.9-10.9,26-17.7,42.6-17.7c16.6,0,31.7,6.8,42.6,17.7c3.6,3.6,6.7,7.6,9.3,11.9
								c5.3,9,8.4,19.5,8.4,30.7C229.7,188.3,223,203.3,212.1,214.2z"/>
						</g>
					</g>
				</g>
			</g>
			<g>
				<g>
					<g>
						<g>
							<path class="st21" d="M224.8,138.9c-2.7-4.6-6-8.9-9.9-12.8c-12.1-12.1-28.3-18.8-45.4-18.8s-33.3,6.7-45.4,18.8
								c-12.1,12.2-18.8,28.3-18.8,45.5c0,17.2,6.7,33.3,18.8,45.5c12.1,12.1,28.3,18.8,45.4,18.8c2.7,0,5.4-0.2,8-0.5
								c14-1.8,27.3-8.2,37.4-18.3c12.1-12.1,18.8-28.3,18.8-45.5C233.7,160.1,230.6,148.7,224.8,138.9z M169.5,227.9
								c-15,0-29.1-5.9-39.8-16.5c-10.6-10.6-16.5-24.8-16.5-39.8c0-15,5.8-29.2,16.5-39.8c10.6-10.6,24.8-16.5,39.8-16.5
								c15,0,29.1,5.8,39.8,16.5c3.4,3.4,6.3,7.1,8.6,11.2c5.1,8.6,7.8,18.6,7.8,28.7c0,15-5.9,29.2-16.5,39.8
								c-8.8,8.8-20.4,14.5-32.7,16.1C174.2,227.7,171.9,227.9,169.5,227.9z M224.8,138.9c-2.7-4.6-6-8.9-9.9-12.8
								c-12.1-12.1-28.3-18.8-45.4-18.8s-33.3,6.7-45.4,18.8c-12.1,12.2-18.8,28.3-18.8,45.5c0,17.2,6.7,33.3,18.8,45.5
								c12.1,12.1,28.3,18.8,45.4,18.8c2.7,0,5.4-0.2,8-0.5c14-1.8,27.3-8.2,37.4-18.3c12.1-12.1,18.8-28.3,18.8-45.5
								C233.7,160.1,230.6,148.7,224.8,138.9z M169.5,227.9c-15,0-29.1-5.9-39.8-16.5c-10.6-10.6-16.5-24.8-16.5-39.8
								c0-15,5.8-29.2,16.5-39.8c10.6-10.6,24.8-16.5,39.8-16.5c15,0,29.1,5.8,39.8,16.5c3.4,3.4,6.3,7.1,8.6,11.2
								c5.1,8.6,7.8,18.6,7.8,28.7c0,15-5.9,29.2-16.5,39.8c-8.8,8.8-20.4,14.5-32.7,16.1C174.2,227.7,171.9,227.9,169.5,227.9z
								 M224.8,138.9c-2.7-4.6-6-8.9-9.9-12.8c-12.1-12.1-28.3-18.8-45.4-18.8s-33.3,6.7-45.4,18.8c-12.1,12.2-18.8,28.3-18.8,45.5
								c0,17.2,6.7,33.3,18.8,45.5c12.1,12.1,28.3,18.8,45.4,18.8c2.7,0,5.4-0.2,8-0.5c14-1.8,27.3-8.2,37.4-18.3
								c12.1-12.1,18.8-28.3,18.8-45.5C233.7,160.1,230.6,148.7,224.8,138.9z M169.5,227.9c-15,0-29.1-5.9-39.8-16.5
								c-10.6-10.6-16.5-24.8-16.5-39.8c0-15,5.8-29.2,16.5-39.8c10.6-10.6,24.8-16.5,39.8-16.5c15,0,29.1,5.8,39.8,16.5
								c3.4,3.4,6.3,7.1,8.6,11.2c5.1,8.6,7.8,18.6,7.8,28.7c0,15-5.9,29.2-16.5,39.8c-8.8,8.8-20.4,14.5-32.7,16.1
								C174.2,227.7,171.9,227.9,169.5,227.9z"/>
						</g>
					</g>
				</g>
				<g>
					<g>
						<g>
							<path class="st21" d="M216.1,101.2c-13.8-9.2-29.9-14-46.6-14c-46.5,0-84.3,37.9-84.3,84.4c0,36.2,23,68.4,57.3,80
								c8.7,2.9,17.8,4.4,27,4.4c46.5,0,84.3-37.9,84.3-84.4C253.8,143.2,239.7,116.9,216.1,101.2z M177.5,235.4
								c-2.6,0.3-5.3,0.5-8,0.5c-17.1,0-33.3-6.7-45.4-18.8c-12.1-12.2-18.8-28.3-18.8-45.5c0-17.2,6.7-33.3,18.8-45.5
								c12.1-12.1,28.3-18.8,45.4-18.8s33.3,6.7,45.4,18.8c3.8,3.9,7.2,8.2,9.9,12.8c5.8,9.9,8.9,21.2,8.9,32.7
								c0,17.2-6.7,33.3-18.8,45.5C204.8,227.1,191.6,233.6,177.5,235.4z"/>
						</g>
					</g>
				</g>
			</g>
		</g>
		<g>
			<g>
				<g>
					<g>
						<g>
							<path class="st23" d="M229.7,171.6c0,16.7-6.7,31.7-17.6,42.6l-9.3-9.3l-33.3-33.3H229.7z"/>
						</g>
					</g>
				</g>
			</g>
			<g>
				<g>
					<g>
						<g>
							<path class="st114" d="M212.1,218.2L212.1,218.2c-1.1,0-2.1-0.4-2.8-1.2l-42.6-42.6c-1.1-1.1-1.5-2.9-0.9-4.4
								c0.6-1.5,2.1-2.5,3.7-2.5h60.2c2.2,0,4,1.8,4,4c0,17.2-6.7,33.3-18.8,45.5C214.2,217.8,213.1,218.2,212.1,218.2z
								 M179.1,175.6l32.8,32.9c8-9.2,12.8-20.7,13.6-32.9H179.1z"/>
						</g>
					</g>
				</g>
			</g>
		</g>
		<g>
			<g>
				<g>
					<g>
						<g>
							<path class="st23" d="M229.7,171.6h-60.2l42.6-42.6c3.6,3.6,6.7,7.6,9.3,12C226.7,149.9,229.7,160.4,229.7,171.6z"/>
						</g>
					</g>
				</g>
			</g>
			<g>
				<g>
					<g>
						<g>
							<path class="st114" d="M229.7,175.6C229.7,175.6,229.7,175.6,229.7,175.6h-60.3c-1.6,0-3.1-1-3.7-2.5
								c-0.6-1.5-0.3-3.2,0.9-4.4l42.6-42.6c0.8-0.8,1.8-1.2,2.8-1.2h0c1.1,0,2.1,0.4,2.8,1.2c3.8,3.9,7.2,8.1,9.9,12.7
								c5.8,9.8,8.9,20.9,8.9,32.3c0,0.1,0,0.3,0,0.4C233.7,173.8,232,175.6,229.7,175.6z M179.1,167.6h46.4
								c-0.6-8.7-3.2-17.2-7.7-24.7c-1.7-2.9-3.7-5.7-5.9-8.2L179.1,167.6z"/>
						</g>
					</g>
				</g>
			</g>
		</g>
		<g>
			<g>
				<g>
					<g>
						<g>
							<path class="st23" d="M212.1,214.2c-9.2,9.2-21.4,15.5-35.1,17.2c-2.5,0.3-5,0.5-7.5,0.5v-60.3h0l33.3,33.3L212.1,214.2z"/>
						</g>
					</g>
				</g>
			</g>
			<g>
				<g>
					<g>
						<g>
							<path class="st114" d="M169.5,235.9c-2.2,0-4-1.8-4-4v-60.3c0-2.2,1.8-4,4-4c1.1,0,2.1,0.4,2.8,1.2l42.6,42.6
								c1.6,1.6,1.6,4.1,0,5.7c-10.1,10.1-23.3,16.6-37.4,18.3C174.9,235.7,172.2,235.9,169.5,235.9z M173.5,181.3v46.5
								c1-0.1,2-0.2,3-0.3c11-1.4,21.4-6.1,29.8-13.3L173.5,181.3z"/>
						</g>
					</g>
				</g>
			</g>
		</g>
		<g>
			<g>
				<g>
					<g>
						<g>
							<path class="st23" d="M169.5,111.3v60.3L126.9,129C137.8,118.1,152.9,111.3,169.5,111.3z"/>
						</g>
					</g>
				</g>
			</g>
			<g>
				<g>
					<g>
						<g>
							<path class="st114" d="M169.5,175.6c-1,0-2.1-0.4-2.8-1.2l-42.6-42.6c-1.6-1.6-1.6-4.1,0-5.7c12.1-12.1,28.3-18.8,45.4-18.8
								c2.2,0,4,1.8,4,4v60.3c0,1.6-1,3.1-2.5,3.7C170.5,175.5,170,175.6,169.5,175.6z M132.6,129.1l32.8,32.9v-46.5
								C153.3,116.3,141.9,121,132.6,129.1z"/>
						</g>
					</g>
				</g>
			</g>
		</g>
		<g>
			<g>
				<g>
					<g>
						<g>
							<path class="st23" d="M169.5,171.6L169.5,171.6l-60.2,0c0-16.7,6.7-31.7,17.6-42.6L169.5,171.6z"/>
						</g>
					</g>
				</g>
			</g>
			<g>
				<g>
					<g>
						<g>
							<path class="st114" d="M169.5,175.6h-60.2c-2.2,0-4-1.8-4-4c0-17.2,6.7-33.3,18.8-45.5c0.8-0.8,1.8-1.2,2.8-1.2h0
								c1.1,0,2.1,0.4,2.8,1.2l42.6,42.6c0.7,0.8,1.2,1.8,1.2,2.8C173.5,173.8,171.7,175.6,169.5,175.6z M113.4,167.6h46.5
								L127,134.7C119,144,114.2,155.4,113.4,167.6z"/>
						</g>
					</g>
				</g>
			</g>
		</g>
		<g>
			<g>
				<g>
					<g>
						<g>
							<path class="st23" d="M169.5,171.6l-42.6,42.6c-10.9-10.9-17.6-26-17.6-42.6H169.5z"/>
						</g>
					</g>
				</g>
			</g>
			<g>
				<g>
					<g>
						<g>
							<path class="st114" d="M126.9,218.2c-1.1,0-2.1-0.4-2.8-1.2c-12.1-12.1-18.8-28.3-18.8-45.5c0-2.2,1.8-4,4-4h60.2
								c1.6,0,3.1,1,3.7,2.5c0.6,1.5,0.3,3.2-0.9,4.4l-42.6,42.6C129,217.8,128,218.2,126.9,218.2z M113.4,175.6
								c0.9,12.2,5.6,23.6,13.6,32.9l32.8-32.9H113.4z"/>
						</g>
					</g>
				</g>
			</g>
		</g>
		<g>
			<g>
				<g>
					<g>
						<g>
							<path class="st23" d="M169.5,171.6v60.3c-16.6,0-31.7-6.8-42.6-17.7L169.5,171.6z"/>
						</g>
					</g>
				</g>
			</g>
			<g>
				<g>
					<g>
						<g>
							<path class="st114" d="M169.5,235.9c-17.1,0-33.3-6.7-45.4-18.8c-1.6-1.6-1.6-4.1,0-5.7l42.6-42.6c1.1-1.1,2.9-1.5,4.4-0.9
								c1.5,0.6,2.5,2.1,2.5,3.7v60.3C173.5,234.1,171.7,235.9,169.5,235.9z M132.6,214.1c9.2,8,20.7,12.8,32.8,13.6v-46.5
								L132.6,214.1z"/>
						</g>
					</g>
				</g>
			</g>
		</g>
		<g>
			<g>
				<g>
					<g>
						<g>
							<path class="st114" d="M169.5,175.6L169.5,175.6c-2.2,0-4-1.8-4-4v-60.3c0-2.2,1.8-4,4-4c17.2,0,33.3,6.7,45.4,18.8
								c1.6,1.6,1.6,4.1,0,5.7l-42.6,42.6C171.6,175.2,170.6,175.6,169.5,175.6z M173.5,115.4v46.5l32.8-32.9
								C197.1,121,185.7,116.3,173.5,115.4z"/>
						</g>
					</g>
				</g>
			</g>
		</g>
	</g>
</g>
</svg>
