<?xml version="1.0" encoding="utf-8"?>
<!-- Generator: Adobe Illustrator 22.1.0, SVG Export Plug-In . SVG Version: 6.00 Build 0)  -->
<svg version="1.1" id="Layer_1" xmlns="http://www.w3.org/2000/svg" xmlns:xlink="http://www.w3.org/1999/xlink" x="0px" y="0px"
	 viewBox="0 0 256 256" style="enable-background:new 0 0 256 256;" xml:space="preserve">
<style type="text/css">
	.st0{fill:#F6D67A;}
	.st1{fill:#E77CAE;}
	.st2{fill:#AC6535;}
	.st3{fill:#EB573B;}
	.st4{fill:#464646;}
	.st5{fill:#F5B31F;}
	.st6{fill:#9B592D;}
	.st7{fill:#9B5B2F;}
	.st8{fill:#E8A41A;}
	.st9{fill:#6D6E71;}
	.st10{fill:#E5A21C;}
	.st11{fill:#C66395;}
	.st12{fill:#E09F1E;}
	.st13{fill:#FFFFFF;}
	.st14{fill:#DDB95E;}
	.st15{fill:#EAC771;}
	.st16{fill:#F9F6CD;}
	.st17{fill:#009345;}
	.st18{fill:#008438;}
	.st19{fill:#EAA51B;}
	.st20{opacity:0.1;}
	.st21{fill:#FFD11D;}
	.st22{fill:#FFE37B;}
	.st23{fill:#FFA755;}
	.st24{fill:#FFEC97;}
	.st25{fill:#BC7532;}
	.st26{fill:#EFEFEF;}
	.st27{fill:#60ACF7;}
	.st28{fill:#876C6C;}
	.st29{fill:#1DDCFF;}
	.st30{fill:#BDF3FF;}
	.st31{fill:#EFCA70;}
	.st32{fill:#EFA91D;}
	.st33{fill:#8FAE3C;}
	.st34{fill:#92A5AC;}
	.st35{fill:#E8E3BA;}
	.st36{fill:#F79932;}
	.st37{fill:#F4F4F4;}
	.st38{fill:#FFDF8F;}
	.st39{fill:#EAE5B9;}
	.st40{fill:#7E9E6A;}
	.st41{fill:#94B57F;}
	.st42{fill:#9B5D8C;}
	.st43{fill:#96557A;}
	.st44{fill:#C3755A;}
	.st45{fill:#9BD7DD;}
	.st46{fill:#90CAD3;}
	.st47{fill:#F7F7F7;}
	.st48{fill:#AFE6EF;}
	.st49{fill:#FFFAEB;}
	.st50{fill:#F4EFC3;}
	.st51{fill:#F9F9F9;}
	.st52{fill:#FFE5C4;}
	.st53{fill:#FFB024;}
	.st54{fill:#FFC612;}
	.st55{fill:#FFCE31;}
	.st56{fill:#A05C2D;}
	.st57{fill:#1DCAF2;}
	.st58{fill:#00B0E0;}
	.st59{fill:#F2A355;}
	.st60{fill:#D68032;}
	.st61{fill:#66625D;}
	.st62{fill:#54504D;}
	.st63{fill:#B76955;}
	.st64{fill:#EFE8B4;}
	.st65{fill:#B93226;}
	.st66{fill:#EFEABF;}
	.st67{fill:#90C056;}
	.st68{opacity:0.15;}
	.st69{fill:#E8C56D;}
	.st70{fill:#F7BE4B;}
	.st71{fill:#E0A338;}
	.st72{fill:#F68455;}
	.st73{fill:#E26F47;}
	.st74{fill:#EC754B;}
	.st75{fill:#4AA5BA;}
	.st76{opacity:0.5;}
	.st77{fill:#A0B1B5;}
	.st78{opacity:0.7;}
	.st79{fill:#00ADEE;}
	.st80{fill:#F4D4B3;}
	.st81{fill:#F9D97A;}
	.st82{fill:#EDC96E;}
	.st83{fill:none;}
	.st84{fill:#AF6535;}
	.st85{fill:#F18BB4;}
	.st86{fill:#B3E4FF;}
	.st87{fill:#97DFFF;}
	.st88{fill:#D06E3C;}
	.st89{fill:#B55931;}
	.st90{fill:#DA4F4B;}
	.st91{fill:#EFCAA8;}
	.st92{fill:#EA7CB1;}
	.st93{fill:#EA7DAE;}
	.st94{fill:#BC7646;}
	.st95{fill:#00A1C6;}
	.st96{fill:#FCC230;}
	.st97{fill:#F2EBB1;}
	.st98{fill:#F9D6AF;}
	.st99{fill:#D34735;}
	.st100{fill:#E5A21A;}
	.st101{fill:#849E33;}
	.st102{fill:#EFBB14;}
	.st103{fill:#D8402B;}
	.st104{fill:#829B34;}
	.st105{fill:#F88916;}
	.st106{fill:#E27513;}
	.st107{fill:#FFB41F;}
	.st108{fill:#8AA538;}
	.st109{fill:#BE6BB2;}
	.st110{fill:#AA5BA3;}
	.st111{fill:#FFDF66;}
	.st112{fill:#F4BA00;}
	.st113{fill:#E28529;}
	.st114{fill:#FF9945;}
	.st115{fill:#BA6C45;}
	.st116{fill:#EDBA15;}
	.st117{fill:#E0452F;}
	.st118{fill:#F7F2D5;}
	.st119{fill:#4C4E51;}
	.st120{fill:#EA615D;}
	.st121{fill:#DD4A36;}
	.st122{fill:#F6AF72;}
	.st123{fill:#E8955D;}
	.st124{fill:#E4C074;}
	.st125{fill:#EAE4C3;}
	.st126{fill:#BF3522;}
	.st127{fill:#D13E33;}
	.st128{fill:#AA5EA3;}
	.st129{fill:#DD443C;}
	.st130{fill:#AA5FA3;}
	.st131{fill:#B7C536;}
	.st132{fill:#F2872F;}
	.st133{fill:#AF5FA7;}
	.st134{fill:#E29F17;}
	.st135{fill:#FFC86E;}
	.st136{fill:#A55937;}
	.st137{fill:#D8422E;}
	.st138{fill:#C3556D;}
	.st139{fill:#B24965;}
	.st140{fill:#D1A962;}
	.st141{fill:#A3961A;}
	.st142{fill:#AFA51D;}
	.st143{fill:#968A1C;}
</style>
<g>
	<g>
		<g>
			<g>
				<g>
					<path class="st83" d="M112.7,178.6l8.5,8.5L112.7,178.6z"/>
				</g>
			</g>
		</g>
	</g>
	<g>
		<g>
			<g>
				<g>
					<path class="st83" d="M136.1,178.6l8.5,8.5L136.1,178.6z"/>
				</g>
			</g>
		</g>
	</g>
	<g>
		<g>
			<g>
				<g>
					<path class="st82" d="M167.3,158.1l-7,49.1c-0.3,2-2,3.4-4,3.4h-54.8c-2,0-3.7-1.5-4-3.4l-7-49.1c-0.2-1.2,0.2-2.3,0.9-3.2
						c0.8-0.9,1.9-1.4,3-1.4h68.8c1.2,0,2.3,0.5,3,1.4C167.1,155.8,167.4,156.9,167.3,158.1z"/>
				</g>
			</g>
		</g>
	</g>
	<g>
		<g>
			<g>
				<g>
					<path class="st81" d="M160.3,207.2l-6.4,45.4c-0.3,2-2,3.4-4,3.4h-42c-2,0-3.7-1.5-4-3.4l-6.4-45.4c-0.2-1.2,0.2-2.3,0.9-3.2
						c0.8-0.9,1.9-1.4,3-1.4h54.8c1.2,0,2.3,0.5,3,1.4C160.1,204.9,160.5,206,160.3,207.2z"/>
				</g>
			</g>
		</g>
	</g>
	<g>
		<g>
			<g>
				<g>
					<path class="st81" d="M121.1,191.1c-1,0-2.1-0.4-2.8-1.2l-8.5-8.5c-1.6-1.6-1.6-4.1,0-5.7c1.6-1.6,4.1-1.6,5.7,0l8.5,8.5
						c1.6,1.6,1.6,4.1,0,5.7C123.2,190.7,122.2,191.1,121.1,191.1z"/>
				</g>
			</g>
		</g>
	</g>
	<g>
		<g>
			<g>
				<g>
					<path class="st81" d="M144.6,191.1c-1,0-2.1-0.4-2.8-1.2l-8.5-8.5c-1.6-1.6-1.6-4.1,0-5.7c1.6-1.6,4.1-1.6,5.7,0l8.5,8.5
						c1.6,1.6,1.6,4.1,0,5.7C146.7,190.7,145.6,191.1,144.6,191.1z"/>
				</g>
			</g>
		</g>
	</g>
	<g>
		<g>
			<g>
				<g>
					<path class="st47" d="M186.4,112.9c0,12.2-6.8,23.2-17.7,28.7c-0.6,0.3-1.2,0.4-1.8,0.4H89.1c-0.6,0-1.2-0.2-1.8-0.4
						c-10.9-5.5-17.7-16.5-17.7-28.7c0-5.2,1.2-10.3,3.6-14.9c0.7-1.4,2.2-2.2,3.7-2.1s2.9,1,3.5,2.5c0.1,0.3,3.8,8.5,20.9,9.7
						c1.1,0.1,2.1,0.1,3.1,0.1c6.9,0,10.6-1.9,14.2-3.7c3.3-1.7,6.7-3.4,11.6-3.4c2.2,0,4.5,0.3,7.1,1.1c2.9,0.8,6.8,1.2,11.4,1.2
						c14.1,0,30.7-3.9,30.9-3.9c2-0.5,4,0.6,4.7,2.5C185.7,105.4,186.4,109.1,186.4,112.9z"/>
				</g>
			</g>
		</g>
	</g>
	<g>
		<g>
			<g>
				<g>
					<path class="st81" d="M175.4,138v19.5c0,2.2-1.8,4-4,4h-88c-2.2,0-4-1.8-4-4V138c0-2.2,1.8-4,4-4h88
						C173.6,134,175.4,135.8,175.4,138z"/>
				</g>
			</g>
		</g>
	</g>
	<g>
		<g>
			<g>
				<g>
					<path class="st84" d="M184.2,105.2c-0.5,1-1.5,1.7-2.6,2c-0.7,0.2-17.6,4.1-32.7,4.1c-5.4,0-9.9-0.5-13.5-1.5
						c-1.9-0.5-3.5-0.8-5-0.8c-3,0-5.1,1.1-8,2.5c-4,2-9.1,4.6-17.8,4.6c-1.2,0-2.4-0.1-3.7-0.1c-21.7-1.6-27.2-13.3-27.7-14.6
						c-0.2-0.5-0.3-1-0.3-1.5c0-0.6,0.2-1.3,0.4-1.9c2.7-5.2,6.9-9.6,11.8-12.6c-2.5-4.7-3.9-9.9-3.9-15.3
						c0-17.3,13.8-31.5,30.9-32.1c6.3-4,8.5-8.1,7.9-10.4c-0.6-2.1-4.5-4.7-13.5-4.7c-0.8,0-1.6,0-2.4,0.1c-1.5,0.1-2.9-0.7-3.7-2
						c-0.7-1.3-0.7-2.9,0.2-4.2C101.1,16,111.9,0,128.7,0c4.4,0,8.7,1.1,13,3.3c6.4,3.3,10.7,8.1,12.6,14.4c2.5,8.2,0.2,16.8-1.8,22
						c12.8,4.4,21.7,16.4,21.7,30.4c0,5.3-1.3,10.4-3.7,15c6.5,3.8,11.5,9.7,14.1,16.8C184.9,103,184.8,104.2,184.2,105.2z"/>
				</g>
			</g>
		</g>
	</g>
</g>
</svg>
