<?xml version="1.0" encoding="utf-8"?>
<!-- Generator: Adobe Illustrator 22.1.0, SVG Export Plug-In . SVG Version: 6.00 Build 0)  -->
<svg version="1.1" id="Layer_1" xmlns="http://www.w3.org/2000/svg" xmlns:xlink="http://www.w3.org/1999/xlink" x="0px" y="0px"
	 viewBox="0 0 256 256" style="enable-background:new 0 0 256 256;" xml:space="preserve">
<style type="text/css">
	.st0{fill:#F6D67A;}
	.st1{fill:#E77CAE;}
	.st2{fill:#AC6535;}
	.st3{fill:#EB573B;}
	.st4{fill:#464646;}
	.st5{fill:#F5B31F;}
	.st6{fill:#9B592D;}
	.st7{fill:#9B5B2F;}
	.st8{fill:#E8A41A;}
	.st9{fill:#6D6E71;}
	.st10{fill:#E5A21C;}
	.st11{fill:#C66395;}
	.st12{fill:#E09F1E;}
	.st13{fill:#FFFFFF;}
	.st14{fill:#DDB95E;}
	.st15{fill:#EAC771;}
	.st16{fill:#F9F6CD;}
	.st17{fill:#009345;}
	.st18{fill:#008438;}
	.st19{fill:#EAA51B;}
	.st20{opacity:0.1;}
	.st21{fill:#FFD11D;}
	.st22{fill:#FFE37B;}
	.st23{fill:#FFA755;}
	.st24{fill:#FFEC97;}
	.st25{fill:#BC7532;}
	.st26{fill:#EFEFEF;}
	.st27{fill:#60ACF7;}
	.st28{fill:#876C6C;}
	.st29{fill:#1DDCFF;}
	.st30{fill:#BDF3FF;}
	.st31{fill:#EFCA70;}
	.st32{fill:#EFA91D;}
	.st33{fill:#8FAE3C;}
	.st34{fill:#92A5AC;}
	.st35{fill:#E8E3BA;}
	.st36{fill:#F79932;}
	.st37{fill:#F4F4F4;}
	.st38{fill:#FFDF8F;}
	.st39{fill:#EAE5B9;}
	.st40{fill:#7E9E6A;}
	.st41{fill:#94B57F;}
	.st42{fill:#9B5D8C;}
	.st43{fill:#96557A;}
	.st44{fill:#C3755A;}
	.st45{fill:#9BD7DD;}
	.st46{fill:#90CAD3;}
	.st47{fill:#F7F7F7;}
	.st48{fill:#AFE6EF;}
	.st49{fill:#FFFAEB;}
	.st50{fill:#F4EFC3;}
	.st51{fill:#F9F9F9;}
	.st52{fill:#FFE5C4;}
	.st53{fill:#FFB024;}
	.st54{fill:#FFC612;}
	.st55{fill:#FFCE31;}
	.st56{fill:#A05C2D;}
	.st57{fill:#1DCAF2;}
	.st58{fill:#00B0E0;}
	.st59{fill:#F2A355;}
	.st60{fill:#D68032;}
	.st61{fill:#66625D;}
	.st62{fill:#54504D;}
	.st63{fill:#B76955;}
	.st64{fill:#EFE8B4;}
	.st65{fill:#B93226;}
	.st66{fill:#EFEABF;}
	.st67{fill:#90C056;}
	.st68{opacity:0.15;}
	.st69{fill:#E8C56D;}
	.st70{fill:#F7BE4B;}
	.st71{fill:#E0A338;}
	.st72{fill:#F68455;}
	.st73{fill:#E26F47;}
	.st74{fill:#EC754B;}
	.st75{fill:#4AA5BA;}
	.st76{opacity:0.5;}
	.st77{fill:#A0B1B5;}
	.st78{opacity:0.7;}
	.st79{fill:#00ADEE;}
	.st80{fill:#F4D4B3;}
	.st81{fill:#F9D97A;}
	.st82{fill:#EDC96E;}
	.st83{fill:none;}
	.st84{fill:#AF6535;}
	.st85{fill:#F18BB4;}
	.st86{fill:#B3E4FF;}
	.st87{fill:#97DFFF;}
	.st88{fill:#D06E3C;}
	.st89{fill:#B55931;}
	.st90{fill:#DA4F4B;}
	.st91{fill:#EFCAA8;}
	.st92{fill:#EA7CB1;}
	.st93{fill:#EA7DAE;}
	.st94{fill:#BC7646;}
	.st95{fill:#00A1C6;}
	.st96{fill:#FCC230;}
	.st97{fill:#F2EBB1;}
	.st98{fill:#F9D6AF;}
	.st99{fill:#D34735;}
	.st100{fill:#E5A21A;}
	.st101{fill:#849E33;}
	.st102{fill:#EFBB14;}
	.st103{fill:#D8402B;}
	.st104{fill:#829B34;}
	.st105{fill:#F88916;}
	.st106{fill:#E27513;}
	.st107{fill:#FFB41F;}
	.st108{fill:#8AA538;}
	.st109{fill:#BE6BB2;}
	.st110{fill:#AA5BA3;}
	.st111{fill:#FFDF66;}
	.st112{fill:#F4BA00;}
	.st113{fill:#E28529;}
	.st114{fill:#FF9945;}
	.st115{fill:#BA6C45;}
	.st116{fill:#EDBA15;}
	.st117{fill:#E0452F;}
	.st118{fill:#F7F2D5;}
	.st119{fill:#4C4E51;}
	.st120{fill:#EA615D;}
	.st121{fill:#DD4A36;}
	.st122{fill:#F6AF72;}
	.st123{fill:#E8955D;}
	.st124{fill:#E4C074;}
	.st125{fill:#EAE4C3;}
	.st126{fill:#BF3522;}
	.st127{fill:#D13E33;}
	.st128{fill:#AA5EA3;}
	.st129{fill:#DD443C;}
	.st130{fill:#AA5FA3;}
	.st131{fill:#B7C536;}
	.st132{fill:#F2872F;}
	.st133{fill:#AF5FA7;}
	.st134{fill:#E29F17;}
	.st135{fill:#FFC86E;}
	.st136{fill:#A55937;}
	.st137{fill:#D8422E;}
	.st138{fill:#C3556D;}
	.st139{fill:#B24965;}
	.st140{fill:#D1A962;}
	.st141{fill:#A3961A;}
	.st142{fill:#AFA51D;}
	.st143{fill:#968A1C;}
</style>
<g>
	<g>
		<g>
			<g>
				<g>
					<g>
						<path class="st21" d="M255.9,128c0,70.6-57.4,128-127.9,128S0.1,198.6,0.1,128S57.5,0,128,0S255.9,57.4,255.9,128z"/>
					</g>
				</g>
			</g>
		</g>
	</g>
	<g>
		<g>
			<g>
				<g>
					<g>
						<path class="st23" d="M135.3,143.3v85.7c23.4,1.1,43.9-6.7,60.5-26.1L135.3,143.3z"/>
					</g>
				</g>
			</g>
		</g>
	</g>
	<g>
		<g>
			<g>
				<g>
					<g>
						<path class="st23" d="M122,113.6V27.9C98.6,26.8,78.1,34.6,61.5,54L122,113.6z"/>
					</g>
				</g>
			</g>
		</g>
	</g>
	<g>
		<g>
			<g>
				<g>
					<g>
						<path class="st23" d="M143.8,134.2l60.5,60.6c17.4-15.8,26.3-35.8,24.3-61.3L143.8,134.2z"/>
					</g>
				</g>
			</g>
		</g>
	</g>
	<g>
		<g>
			<g>
				<g>
					<g>
						<path class="st23" d="M113.4,122.6L52.9,62c-17.4,15.8-26.3,35.8-24.3,61.3L113.4,122.6z"/>
					</g>
				</g>
			</g>
		</g>
	</g>
	<g>
		<g>
			<g>
				<g>
					<g>
						<path class="st23" d="M143.5,121.7h85.6c1.1-23.4-6.7-43.9-26.1-60.5L143.5,121.7z"/>
					</g>
				</g>
			</g>
		</g>
	</g>
	<g>
		<g>
			<g>
				<g>
					<g>
						<path class="st23" d="M113.8,135.1H28.2c-1.1,23.4,6.7,43.9,26.1,60.5L113.8,135.1z"/>
					</g>
				</g>
			</g>
		</g>
	</g>
	<g>
		<g>
			<g>
				<g>
					<g>
						<path class="st23" d="M134.4,113.2l60.5-60.6c-15.8-17.4-35.8-26.3-61.2-24.3L134.4,113.2z"/>
					</g>
				</g>
			</g>
		</g>
	</g>
	<g>
		<g>
			<g>
				<g>
					<g>
						<path class="st23" d="M122.9,143.6l-60.5,60.6c15.8,17.4,35.8,26.3,61.2,24.3L122.9,143.6z"/>
					</g>
				</g>
			</g>
		</g>
	</g>
	<g>
		<g>
			<g>
				<g>
					<g>
						<path class="st114" d="M139.6,233L139.6,233c-1.5,0-3,0-4.5-0.1c-2.1-0.1-3.8-1.9-3.8-4v-85.7c0-1.6,1-3.1,2.5-3.7
							c1.5-0.6,3.2-0.3,4.4,0.8l60.5,59.5c1.5,1.5,1.6,3.9,0.2,5.4C183.1,223.7,163.2,233,139.6,233z M139.3,225c0.1,0,0.2,0,0.3,0
							h0c20.2,0,36.8-7.2,50.6-22.1l-50.9-50.2V225z"/>
					</g>
				</g>
			</g>
		</g>
	</g>
	<g>
		<g>
			<g>
				<g>
					<g>
						<path class="st114" d="M122,117.6c-1,0-2-0.4-2.8-1.1L58.7,56.9c-1.5-1.5-1.6-3.9-0.2-5.4c16.6-19.5,38.1-28.8,63.7-27.5
							c2.1,0.1,3.8,1.9,3.8,4v85.7c0,1.6-1,3.1-2.5,3.7C123,117.5,122.5,117.6,122,117.6z M67,53.9L118,104V31.8c-0.1,0-0.2,0-0.3,0
							C97.4,31.8,80.8,39,67,53.9z"/>
					</g>
				</g>
			</g>
		</g>
	</g>
	<g>
		<g>
			<g>
				<g>
					<g>
						<path class="st114" d="M204.4,198.8c-1,0-2.1-0.4-2.8-1.2L141,137c-1.1-1.1-1.5-2.9-0.9-4.3c0.6-1.5,2.1-2.5,3.7-2.5l84.8-0.7
							c0,0,0,0,0,0c2.1,0,3.8,1.6,4,3.7c2,25.6-6.6,47.3-25.6,64.6C206.3,198.4,205.3,198.8,204.4,198.8z M153.4,138.1l51,51.1
							c14.5-14.3,21.2-31.3,20.4-51.7L153.4,138.1z"/>
					</g>
				</g>
			</g>
		</g>
	</g>
	<g>
		<g>
			<g>
				<g>
					<g>
						<path class="st114" d="M28.6,127.3c-2.1,0-3.8-1.6-4-3.7c-2-25.6,6.6-47.3,25.6-64.6c1.6-1.4,4-1.4,5.5,0.1l60.5,60.6
							c1.1,1.1,1.5,2.9,0.9,4.3c-0.6,1.5-2.1,2.5-3.7,2.5L28.6,127.3C28.7,127.3,28.6,127.3,28.6,127.3z M52.8,67.6
							C38.4,82,31.7,98.9,32.4,119.3l71.5-0.6L52.8,67.6z"/>
					</g>
				</g>
			</g>
		</g>
	</g>
	<g>
		<g>
			<g>
				<g>
					<g>
						<path class="st114" d="M229.1,125.7h-85.6c-1.6,0-3.1-1-3.7-2.5c-0.6-1.5-0.3-3.2,0.8-4.4l59.5-60.5c1.5-1.5,3.9-1.6,5.5-0.2
							c19.5,16.7,28.7,38.1,27.5,63.8C233,124.1,231.2,125.7,229.1,125.7z M153,117.7h72.2c0.1-20.4-7.1-37.1-22-51L153,117.7z"/>
					</g>
				</g>
			</g>
		</g>
	</g>
	<g>
		<g>
			<g>
				<g>
					<g>
						<path class="st114" d="M54.3,199.6c-0.9,0-1.8-0.3-2.6-1C32.2,182,23,160.5,24.2,134.9c0.1-2.1,1.9-3.8,4-3.8h85.6
							c1.6,0,3.1,1,3.7,2.5c0.6,1.5,0.3,3.2-0.8,4.4l-59.5,60.5C56.4,199.2,55.4,199.6,54.3,199.6z M32.1,139.1
							c-0.1,20.4,7.1,37.1,22,51l50.1-51H32.1z"/>
					</g>
				</g>
			</g>
		</g>
	</g>
	<g>
		<g>
			<g>
				<g>
					<g>
						<path class="st114" d="M134.4,117.2c-0.5,0-1-0.1-1.5-0.3c-1.5-0.6-2.5-2.1-2.5-3.7l-0.7-84.9c0-2.1,1.6-3.9,3.7-4
							c25.6-2,47.3,6.6,64.5,25.6c1.4,1.6,1.4,4-0.1,5.5L137.3,116C136.5,116.8,135.5,117.2,134.4,117.2z M137.7,32.1l0.6,71.5
							l51-51.1C175.7,38.8,159.7,32,140.6,32C139.7,32,138.7,32.1,137.7,32.1z"/>
					</g>
				</g>
			</g>
		</g>
	</g>
	<g>
		<g>
			<g>
				<g>
					<g>
						<path class="st114" d="M116.6,232.8L116.6,232.8c-22.4,0-41.7-8.7-57.3-25.9c-1.4-1.6-1.4-4,0.1-5.5l60.5-60.6
							c1.1-1.1,2.9-1.5,4.3-0.9c1.5,0.6,2.5,2.1,2.5,3.7l0.7,84.9c0,2.1-1.6,3.9-3.7,4C121.4,232.7,119,232.8,116.6,232.8z
							 M67.9,204.3c13.6,13.8,29.6,20.5,48.7,20.5h0c1,0,1.9,0,2.9-0.1l-0.6-71.5L67.9,204.3z"/>
					</g>
				</g>
			</g>
		</g>
	</g>
</g>
</svg>
