<?xml version="1.0" encoding="utf-8"?>
<!-- Generator: Adobe Illustrator 22.1.0, SVG Export Plug-In . SVG Version: 6.00 Build 0)  -->
<svg version="1.1" id="Layer_1" xmlns="http://www.w3.org/2000/svg" xmlns:xlink="http://www.w3.org/1999/xlink" x="0px" y="0px"
	 viewBox="0 0 256 256" style="enable-background:new 0 0 256 256;" xml:space="preserve">
<style type="text/css">
	.st0{fill:#F6D67A;}
	.st1{fill:#E77CAE;}
	.st2{fill:#AC6535;}
	.st3{fill:#EB573B;}
	.st4{fill:#464646;}
	.st5{fill:#F5B31F;}
	.st6{fill:#9B592D;}
	.st7{fill:#9B5B2F;}
	.st8{fill:#E8A41A;}
	.st9{fill:#6D6E71;}
	.st10{fill:#E5A21C;}
	.st11{fill:#C66395;}
	.st12{fill:#E09F1E;}
	.st13{fill:#FFFFFF;}
	.st14{fill:#DDB95E;}
	.st15{fill:#EAC771;}
	.st16{fill:#F9F6CD;}
	.st17{fill:#009345;}
	.st18{fill:#008438;}
	.st19{fill:#EAA51B;}
	.st20{opacity:0.1;}
	.st21{fill:#FFD11D;}
	.st22{fill:#FFE37B;}
	.st23{fill:#FFA755;}
	.st24{fill:#FFEC97;}
	.st25{fill:#BC7532;}
	.st26{fill:#EFEFEF;}
	.st27{fill:#60ACF7;}
	.st28{fill:#876C6C;}
	.st29{fill:#1DDCFF;}
	.st30{fill:#BDF3FF;}
	.st31{fill:#EFCA70;}
	.st32{fill:#EFA91D;}
	.st33{fill:#8FAE3C;}
	.st34{fill:#92A5AC;}
	.st35{fill:#E8E3BA;}
	.st36{fill:#F79932;}
	.st37{fill:#F4F4F4;}
	.st38{fill:#FFDF8F;}
	.st39{fill:#EAE5B9;}
	.st40{fill:#7E9E6A;}
	.st41{fill:#94B57F;}
	.st42{fill:#9B5D8C;}
	.st43{fill:#96557A;}
	.st44{fill:#C3755A;}
	.st45{fill:#9BD7DD;}
	.st46{fill:#90CAD3;}
	.st47{fill:#F7F7F7;}
	.st48{fill:#AFE6EF;}
	.st49{fill:#FFFAEB;}
	.st50{fill:#F4EFC3;}
	.st51{fill:#F9F9F9;}
	.st52{fill:#FFE5C4;}
	.st53{fill:#FFB024;}
	.st54{fill:#FFC612;}
	.st55{fill:#FFCE31;}
	.st56{fill:#A05C2D;}
	.st57{fill:#1DCAF2;}
	.st58{fill:#00B0E0;}
	.st59{fill:#F2A355;}
	.st60{fill:#D68032;}
	.st61{fill:#66625D;}
	.st62{fill:#54504D;}
	.st63{fill:#B76955;}
	.st64{fill:#EFE8B4;}
	.st65{fill:#B93226;}
	.st66{fill:#EFEABF;}
	.st67{fill:#90C056;}
	.st68{opacity:0.15;}
	.st69{fill:#E8C56D;}
	.st70{fill:#F7BE4B;}
	.st71{fill:#E0A338;}
	.st72{fill:#F68455;}
	.st73{fill:#E26F47;}
	.st74{fill:#EC754B;}
	.st75{fill:#4AA5BA;}
	.st76{opacity:0.5;}
	.st77{fill:#A0B1B5;}
	.st78{opacity:0.7;}
	.st79{fill:#00ADEE;}
	.st80{fill:#F4D4B3;}
	.st81{fill:#F9D97A;}
	.st82{fill:#EDC96E;}
	.st83{fill:none;}
	.st84{fill:#AF6535;}
	.st85{fill:#F18BB4;}
	.st86{fill:#B3E4FF;}
	.st87{fill:#97DFFF;}
	.st88{fill:#D06E3C;}
	.st89{fill:#B55931;}
	.st90{fill:#DA4F4B;}
	.st91{fill:#EFCAA8;}
	.st92{fill:#EA7CB1;}
	.st93{fill:#EA7DAE;}
	.st94{fill:#BC7646;}
	.st95{fill:#00A1C6;}
	.st96{fill:#FCC230;}
	.st97{fill:#F2EBB1;}
	.st98{fill:#F9D6AF;}
	.st99{fill:#D34735;}
	.st100{fill:#E5A21A;}
	.st101{fill:#849E33;}
	.st102{fill:#EFBB14;}
	.st103{fill:#D8402B;}
	.st104{fill:#829B34;}
	.st105{fill:#F88916;}
	.st106{fill:#E27513;}
	.st107{fill:#FFB41F;}
	.st108{fill:#8AA538;}
	.st109{fill:#BE6BB2;}
	.st110{fill:#AA5BA3;}
	.st111{fill:#FFDF66;}
	.st112{fill:#F4BA00;}
	.st113{fill:#E28529;}
	.st114{fill:#FF9945;}
	.st115{fill:#BA6C45;}
	.st116{fill:#EDBA15;}
	.st117{fill:#E0452F;}
	.st118{fill:#F7F2D5;}
	.st119{fill:#4C4E51;}
	.st120{fill:#EA615D;}
	.st121{fill:#DD4A36;}
	.st122{fill:#F6AF72;}
	.st123{fill:#E8955D;}
	.st124{fill:#E4C074;}
	.st125{fill:#EAE4C3;}
	.st126{fill:#BF3522;}
	.st127{fill:#D13E33;}
	.st128{fill:#AA5EA3;}
	.st129{fill:#DD443C;}
	.st130{fill:#AA5FA3;}
	.st131{fill:#B7C536;}
	.st132{fill:#F2872F;}
	.st133{fill:#AF5FA7;}
	.st134{fill:#E29F17;}
	.st135{fill:#FFC86E;}
	.st136{fill:#A55937;}
	.st137{fill:#D8422E;}
	.st138{fill:#C3556D;}
	.st139{fill:#B24965;}
	.st140{fill:#D1A962;}
	.st141{fill:#A3961A;}
	.st142{fill:#AFA51D;}
	.st143{fill:#968A1C;}
</style>
<g>
	<g>
		<g>
			<g>
				<g>
					<g>
						<path class="st67" d="M123.5,219.4L111,233c-2.2,3.4-5.8,5.3-9.9,5.3c-5.6,0-11.4-3.4-14.2-8.3c-1-1.7-1.5-3.4-1.6-5.2
							c-5.6-0.5-10.1-4.6-11.2-10.3c-0.6-3.5,0.3-7.6,3.2-10.7c-2-2.6-2.9-6.2-2.3-10.2c0.8-6.5,5.4-13.1,12.5-13.1
							c1,0,1.9,0.1,2.9,0.4l20.7,4.9c1.6,0.4,2.8,1.7,3,3.3c1.3,8.7,4.9,18.1,9.8,25.1C124.9,215.9,124.8,218,123.5,219.4z"/>
					</g>
				</g>
			</g>
		</g>
		<g>
			<g>
				<g>
					<g>
						<path class="st67" d="M252.4,163.5c2,2.7,2.8,6.4,2.1,10.4c-1.1,6.4-5.9,12.9-13.1,12.9c-1.1,0-2.3-0.2-3.4-0.5l-18.1-2.2
							c-1.8-0.2-3.2-1.6-3.5-3.4c-1.1-8.5-4.5-18.2-9.1-25.9c-0.8-1.4-0.7-3.1,0.2-4.4l12.5-17c2.1-3,5.4-4.7,9.2-4.7
							c5.6,0,11.5,3.7,14.2,8.8c0.8,1.6,1.3,3.3,1.4,4.9c5.5,0.6,9.9,4.6,10.9,10.3C256.4,156.2,255.5,160.3,252.4,163.5z"/>
					</g>
				</g>
			</g>
		</g>
		<g>
			<g>
				<g>
					<g>
						<path class="st47" d="M223.9,195.2c-0.3,1.3-1.3,2.3-2.6,2.8c-0.4,0.1-0.8,0.2-1.2,0.2c-0.9,0-1.8-0.3-2.5-0.9L160.6,151
							c-1.1-0.9-1.7-2.3-1.4-3.8c0.2-1.4,1.2-2.6,2.6-3.1l25.9-9.5c1.6-0.6,3.2-0.9,4.9-0.9c7.5,0,15.3,6,21.8,17
							c5.1,8.6,8.9,19.4,10.1,28.9C225.2,185.6,225,190.9,223.9,195.2z"/>
					</g>
				</g>
			</g>
		</g>
		<g>
			<g>
				<g>
					<g>
						<path class="st67" d="M170.7,220.6c-0.2,1.4-1.2,2.6-2.6,3.1l-23.3,8.6c-1.9,0.7-3.9,1.1-6,1.1c-7.6,0-15.2-5.1-21.6-14.4
							c-5.6-8.1-9.6-18.5-11.1-28.5c-1.1-7.2-0.7-13.6,1.1-18.7c0.4-1.2,1.4-2.2,2.7-2.5c1.3-0.3,2.6,0,3.6,0.8l55.6,46.9
							C170.4,217.8,170.9,219.2,170.7,220.6z"/>
					</g>
				</g>
			</g>
		</g>
		<g>
			<g>
				<g>
					<g>
						<path class="st47" d="M200,209.8c-0.2,1.4-1.2,2.6-2.6,3l-29.4,10.8c-0.4,0.2-0.9,0.2-1.4,0.2c-0.9,0-1.9-0.3-2.6-0.9
							l-55.6-46.9c-1.3-1.1-1.8-2.8-1.2-4.4c2-5.7,5.8-9.7,10.9-11.6l16.6-6.1c1.4-0.5,2.9-0.2,4,0.7l59.9,51.4
							C199.8,207,200.3,208.4,200,209.8z"/>
					</g>
				</g>
			</g>
		</g>
		<g>
			<g>
				<g>
					<g>
						<path class="st67" d="M223.9,195.2c-1.6,5.8-4.9,9.8-9.7,11.6l-16.7,6.1c-0.4,0.2-0.9,0.2-1.4,0.2c-0.9,0-1.9-0.3-2.6-1
							l-59.9-51.4c-1.1-0.9-1.6-2.4-1.3-3.7c0.2-1.4,1.2-2.6,2.6-3l26.9-9.9c1.3-0.5,2.8-0.2,3.9,0.7l56.9,46.3
							C223.7,192.1,224.3,193.7,223.9,195.2z"/>
					</g>
				</g>
			</g>
		</g>
	</g>
	<g>
		<g>
			<g>
				<g>
					<path class="st4" d="M76.3,133L76.3,133c-2.2,0-4-1.8-4-4s1.8-4,4-4c2.2,0,4,1.8,4,4S78.5,133,76.3,133z"/>
				</g>
			</g>
		</g>
	</g>
	<g>
		<g>
			<g>
				<g>
					<g>
						<path class="st3" d="M82.2,50.4L71.3,65.1c-0.8,1-2,1.6-3.2,1.6c-0.5,0-1-0.1-1.5-0.3c-7.9-3.2-18.1-5-27-4.9h-0.1
							c-1.6,0-3-0.9-3.6-2.4l-8.7-19.2c-1.7-3.5-1.4-7.4,0.8-10.8c2.8-4.4,8.5-7.5,13.9-7.5c2,0,3.9,0.4,5.5,1.2
							c2.5-3.5,6.5-5.2,10.1-5.2c3.7,0,7.2,1.6,9.6,4.4c1.1,1.3,2,2.9,2.5,4.6c0.4,0,0.9-0.1,1.3-0.1c5.9,0,11.8,4.5,14.2,10.6
							C86.7,42.2,85.7,47.1,82.2,50.4z"/>
					</g>
				</g>
			</g>
		</g>
		<g>
			<g>
				<g>
					<g>
						<path class="st47" d="M84,70.8c-0.3,1.3-1.2,2.4-2.5,2.9l-68.4,26.6c-0.5,0.2-1,0.3-1.4,0.3c-0.9,0-1.8-0.3-2.5-0.9
							c-1.1-0.9-1.7-2.3-1.4-3.8l4.5-27.2c1.5-9.4,11.5-15,27.2-15.3c0.4,0,0.9,0,1.3,0c9.8,0,20.3,2,28.9,5.5
							c5.7,2.3,10.1,5,13.3,8.2C83.9,68.1,84.3,69.5,84,70.8z"/>
					</g>
				</g>
			</g>
		</g>
		<g>
			<g>
				<g>
					<g>
						<path class="st3" d="M88.2,81.3l-2.9,17.5c-0.2,1.4-1.2,2.6-2.6,3.1L8.4,128.6c-0.4,0.2-0.9,0.2-1.3,0.2
							c-0.9,0-1.8-0.3-2.6-0.9c-1.1-0.9-1.6-2.3-1.4-3.7L7.8,96c0.2-1.4,1.2-2.6,2.5-3.1l68.4-26.6c1.5-0.6,3.1-0.2,4.3,0.9
							C88.3,72.5,88.8,77.8,88.2,81.3z"/>
					</g>
				</g>
			</g>
		</g>
		<g>
			<g>
				<g>
					<g>
						<path class="st47" d="M85.3,98.8l-5.1,30.8c-0.2,1.4-1.2,2.6-2.6,3.1L9.4,157.9c-0.4,0.2-0.9,0.2-1.4,0.2
							c-1.1,0-2.2-0.5-3-1.4c-4-4.6-5.6-9.8-4.7-15.2l2.9-17.4c0.2-1.4,1.2-2.6,2.6-3.1L80,94.4c1.3-0.5,2.8-0.2,3.9,0.7
							C85,96,85.5,97.4,85.3,98.8z"/>
					</g>
				</g>
			</g>
		</g>
		<g>
			<g>
				<g>
					<g>
						<path class="st3" d="M59.8,195.3c-2.8,4.8-8.6,8.1-14.2,8.1c-1.9,0-3.7-0.4-5.3-1.1c-2.5,3.6-6.5,5.3-10.2,5.3
							c-3.7,0-7.2-1.6-9.6-4.4c-1.1-1.3-1.9-2.8-2.4-4.4c-0.5,0.1-1,0.1-1.5,0.1c-5.6,0-11.7-4.3-14.1-10.1c-2-4.6-1.2-9.3,2.1-12.7
							l14.5-15.6c1.1-1.2,2.8-1.6,4.4-1c8.1,3.2,18.3,4.7,26.7,3.9c1.9-0.2,3.6,1,4.2,2.8l5.7,17.6C62,187.5,61.9,191.6,59.8,195.3z
							"/>
					</g>
				</g>
			</g>
		</g>
		<g>
			<g>
				<g>
					<g>
						<path class="st3" d="M80.2,129.7l-4,24.5c-1.6,9.8-10.8,16.1-25.2,17.4c-1.7,0.1-3.4,0.2-5.1,0.2c-8.5,0-17.4-1.6-25.1-4.6
							c-6.8-2.6-12.2-6.2-15.8-10.2c-0.9-1-1.2-2.4-0.9-3.6s1.3-2.3,2.5-2.8l68.3-25.2c1.3-0.5,2.8-0.2,3.9,0.7
							C79.9,126.8,80.4,128.3,80.2,129.7z"/>
					</g>
				</g>
			</g>
		</g>
	</g>
</g>
</svg>
