<?xml version="1.0" encoding="utf-8"?>
<!-- Generator: Adobe Illustrator 22.1.0, SVG Export Plug-In . SVG Version: 6.00 Build 0)  -->
<svg version="1.1" id="Layer_1" xmlns="http://www.w3.org/2000/svg" xmlns:xlink="http://www.w3.org/1999/xlink" x="0px" y="0px"
	 viewBox="0 0 256 256" style="enable-background:new 0 0 256 256;" xml:space="preserve">
<style type="text/css">
	.st0{fill:#F6D67A;}
	.st1{fill:#E77CAE;}
	.st2{fill:#AC6535;}
	.st3{fill:#EB573B;}
	.st4{fill:#464646;}
	.st5{fill:#F5B31F;}
	.st6{fill:#9B592D;}
	.st7{fill:#9B5B2F;}
	.st8{fill:#E8A41A;}
	.st9{fill:#6D6E71;}
	.st10{fill:#E5A21C;}
	.st11{fill:#C66395;}
	.st12{fill:#E09F1E;}
	.st13{fill:#FFFFFF;}
	.st14{fill:#DDB95E;}
	.st15{fill:#EAC771;}
	.st16{fill:#F9F6CD;}
	.st17{fill:#009345;}
	.st18{fill:#008438;}
	.st19{fill:#EAA51B;}
	.st20{opacity:0.1;}
	.st21{fill:#FFD11D;}
	.st22{fill:#FFE37B;}
	.st23{fill:#FFA755;}
	.st24{fill:#FFEC97;}
	.st25{fill:#BC7532;}
	.st26{fill:#EFEFEF;}
	.st27{fill:#60ACF7;}
	.st28{fill:#876C6C;}
	.st29{fill:#1DDCFF;}
	.st30{fill:#BDF3FF;}
	.st31{fill:#EFCA70;}
	.st32{fill:#EFA91D;}
	.st33{fill:#8FAE3C;}
	.st34{fill:#92A5AC;}
	.st35{fill:#E8E3BA;}
	.st36{fill:#F79932;}
	.st37{fill:#F4F4F4;}
	.st38{fill:#FFDF8F;}
	.st39{fill:#EAE5B9;}
	.st40{fill:#7E9E6A;}
	.st41{fill:#94B57F;}
	.st42{fill:#9B5D8C;}
	.st43{fill:#96557A;}
	.st44{fill:#C3755A;}
	.st45{fill:#9BD7DD;}
	.st46{fill:#90CAD3;}
	.st47{fill:#F7F7F7;}
	.st48{fill:#AFE6EF;}
	.st49{fill:#FFFAEB;}
	.st50{fill:#F4EFC3;}
	.st51{fill:#F9F9F9;}
	.st52{fill:#FFE5C4;}
	.st53{fill:#FFB024;}
	.st54{fill:#FFC612;}
	.st55{fill:#FFCE31;}
	.st56{fill:#A05C2D;}
	.st57{fill:#1DCAF2;}
	.st58{fill:#00B0E0;}
	.st59{fill:#F2A355;}
	.st60{fill:#D68032;}
	.st61{fill:#66625D;}
	.st62{fill:#54504D;}
	.st63{fill:#B76955;}
	.st64{fill:#EFE8B4;}
	.st65{fill:#B93226;}
	.st66{fill:#EFEABF;}
	.st67{fill:#90C056;}
	.st68{opacity:0.15;}
	.st69{fill:#E8C56D;}
	.st70{fill:#F7BE4B;}
	.st71{fill:#E0A338;}
	.st72{fill:#F68455;}
	.st73{fill:#E26F47;}
	.st74{fill:#EC754B;}
	.st75{fill:#4AA5BA;}
	.st76{opacity:0.5;}
	.st77{fill:#A0B1B5;}
	.st78{opacity:0.7;}
	.st79{fill:#00ADEE;}
	.st80{fill:#F4D4B3;}
	.st81{fill:#F9D97A;}
	.st82{fill:#EDC96E;}
	.st83{fill:none;}
	.st84{fill:#AF6535;}
	.st85{fill:#F18BB4;}
	.st86{fill:#B3E4FF;}
	.st87{fill:#97DFFF;}
	.st88{fill:#D06E3C;}
	.st89{fill:#B55931;}
	.st90{fill:#DA4F4B;}
	.st91{fill:#EFCAA8;}
	.st92{fill:#EA7CB1;}
	.st93{fill:#EA7DAE;}
	.st94{fill:#BC7646;}
	.st95{fill:#00A1C6;}
	.st96{fill:#FCC230;}
	.st97{fill:#F2EBB1;}
	.st98{fill:#F9D6AF;}
	.st99{fill:#D34735;}
	.st100{fill:#E5A21A;}
	.st101{fill:#849E33;}
	.st102{fill:#EFBB14;}
	.st103{fill:#D8402B;}
	.st104{fill:#829B34;}
	.st105{fill:#F88916;}
	.st106{fill:#E27513;}
	.st107{fill:#FFB41F;}
	.st108{fill:#8AA538;}
	.st109{fill:#BE6BB2;}
	.st110{fill:#AA5BA3;}
	.st111{fill:#FFDF66;}
	.st112{fill:#F4BA00;}
	.st113{fill:#E28529;}
	.st114{fill:#FF9945;}
	.st115{fill:#BA6C45;}
	.st116{fill:#EDBA15;}
	.st117{fill:#E0452F;}
	.st118{fill:#F7F2D5;}
	.st119{fill:#4C4E51;}
	.st120{fill:#EA615D;}
	.st121{fill:#DD4A36;}
	.st122{fill:#F6AF72;}
	.st123{fill:#E8955D;}
	.st124{fill:#E4C074;}
	.st125{fill:#EAE4C3;}
	.st126{fill:#BF3522;}
	.st127{fill:#D13E33;}
	.st128{fill:#AA5EA3;}
	.st129{fill:#DD443C;}
	.st130{fill:#AA5FA3;}
	.st131{fill:#B7C536;}
	.st132{fill:#F2872F;}
	.st133{fill:#AF5FA7;}
	.st134{fill:#E29F17;}
	.st135{fill:#FFC86E;}
	.st136{fill:#A55937;}
	.st137{fill:#D8422E;}
	.st138{fill:#C3556D;}
	.st139{fill:#B24965;}
	.st140{fill:#D1A962;}
	.st141{fill:#A3961A;}
	.st142{fill:#AFA51D;}
	.st143{fill:#968A1C;}
</style>
<g>
	<g>
		<g>
			<g>
				<g>
					<path class="st5" d="M187.3,9.5L186.9,59l-0.3,29.2c-1,2.7-2.4,5.5-4.2,8.4c-0.7,1.2-1.5,2.3-2.4,3.5
						c-3.5,4.9-8.1,9.8-13.4,14.2c-0.6,0.5-1.1,0.9-1.7,1.4c-0.7,0.6-1.5,1.1-2.2,1.7l-1.6,0l0.4-42.4l0.2-19.4l0.2-15.8l0.3-30.6
						C162.2,2.1,187.4,2.3,187.3,9.5z"/>
				</g>
			</g>
		</g>
	</g>
	<g>
		<g>
			<g>
				<g>
					<path class="st10" d="M162.8,121.4C162.8,121.4,162.8,121.4,162.8,121.4l-1.7,0c-1.1,0-2.1-0.4-2.8-1.2
						c-0.7-0.8-1.2-1.8-1.1-2.8l1-108.2c0.1-5.7,6.3-9.2,16.3-9.2c3.1,0,10.8,0.4,14.7,4.3c1.4,1.5,2.2,3.2,2.2,5.2l-0.7,78.8
						c0,0.5-0.1,0.9-0.2,1.3c-1.1,2.9-2.6,6-4.5,9.1c-0.7,1.2-1.5,2.4-2.5,3.7c-3.9,5.4-8.7,10.6-14.1,15c-0.6,0.5-1.2,1-1.8,1.4
						c-0.7,0.6-1.5,1.2-2.4,1.8C164.4,121.1,163.6,121.4,162.8,121.4z M166.1,9.7l-0.9,100.7c4.4-3.8,8.4-8.1,11.6-12.6
						c0.9-1.2,1.6-2.3,2.2-3.3c1.5-2.4,2.7-4.8,3.6-7l0.7-77.6c-0.9-0.7-4.1-1.8-8.9-1.8C169.9,8,167,9,166.1,9.7z"/>
				</g>
			</g>
		</g>
	</g>
	<g>
		<g>
			<g>
				<g>
					<path class="st5" d="M216.7,33.1l-7.8,47.1c-7.5,0-20.7,0-20.7,0c0,2.4-0.6,5.1-1.6,8c-1,2.7-2.4,5.5-4.2,8.4
						c-0.7,1.2-1.5,2.3-2.4,3.5l2.4-14.9l4.3-26.2l4.9-30C193,22,217.9,26.1,216.7,33.1z"/>
				</g>
			</g>
		</g>
	</g>
	<g>
		<g>
			<g>
				<g>
					<path class="st10" d="M180.1,104.1c-0.5,0-1-0.1-1.5-0.3c-1.7-0.7-2.7-2.5-2.4-4.3l11.7-71.2c0.3-2.1,2.2-7,12.2-7
						c6.6,0,15.1,2.2,18.7,6.4c1.5,1.8,2.1,3.9,1.8,6l-7.8,47.1c-0.3,1.9-2,3.3-3.9,3.3h-17.1c-0.3,1.7-0.8,3.5-1.5,5.4
						c-1.1,2.9-2.6,6-4.5,9.1c-0.7,1.2-1.5,2.4-2.5,3.7C182.6,103.5,181.4,104.1,180.1,104.1z M195.7,30.1l-7.6,46.2
						c0,0,0.1,0,0.1,0h17.3l7.1-43.4c-1.1-1.3-6.6-3.5-12.5-3.5C197.6,29.3,196.2,29.8,195.7,30.1z"/>
				</g>
			</g>
		</g>
	</g>
	<g>
		<g>
			<g>
				<g>
					<path class="st5" d="M167.4,44.4l-0.1,10.2l-0.5,59.8c-0.6,0.5-1.1,0.9-1.7,1.4c-0.7,0.6-1.5,1.1-2.2,1.7
						c-1.8,1.3-3.8,2.6-5.7,3.8c-4.9,2.9-10.1,5.2-15.6,6.7l0-3.2l0.5-48.9l0.3-31.7c0-2.3,2.7-3.9,6.3-4.6
						c4.1-0.9,9.4-0.8,13.4,0.3C165.1,40.7,167.4,42.2,167.4,44.4z"/>
				</g>
			</g>
		</g>
	</g>
	<g>
		<g>
			<g>
				<g>
					<path class="st10" d="M141.5,131.9c-0.9,0-1.7-0.3-2.4-0.8c-1-0.8-1.6-1.9-1.6-3.2l0-3.2l0.7-80.6c0-1.9,1-6.7,9.5-8.5
						c2.1-0.4,4.5-0.7,6.9-0.7c3,0,5.9,0.4,8.4,1c7.4,2,8.5,6.2,8.5,8.5l-0.6,69.9c0,1.2-0.5,2.3-1.5,3.1c-0.6,0.5-1.2,1-1.8,1.4
						c-0.7,0.6-1.5,1.1-2.4,1.8c-2,1.4-4,2.8-6,4c-5.4,3.2-11,5.6-16.6,7.1C142.2,131.9,141.8,131.9,141.5,131.9z M146.2,44.6
						l-0.7,77.8c3.2-1.2,6.4-2.8,9.5-4.6c1.8-1.1,3.7-2.3,5.4-3.6c0.8-0.6,1.5-1.1,2.1-1.6c0,0,0.1,0,0.1-0.1c0.1,0,0.1-0.1,0.2-0.1
						l0.6-67.6c-0.3-0.3-1.1-0.7-2.6-1.1c-3.2-0.9-8-1-11.5-0.2C147.5,43.8,146.6,44.3,146.2,44.6z"/>
				</g>
			</g>
		</g>
	</g>
	<g>
		<g>
			<g>
				<g>
					<path class="st5" d="M148.7,16.6c0.1-7.1-25.1-7.3-25.2-0.2l-1,108.2l25.2,0.2L148.7,16.6z"/>
				</g>
			</g>
		</g>
	</g>
	<g>
		<g>
			<g>
				<g>
					<path class="st10" d="M147.7,128.8C147.7,128.8,147.7,128.8,147.7,128.8l-25.2-0.2c-2.2,0-4-1.8-4-4l1-108.2
						c0.1-5.7,6.3-9.2,16.3-9.2c3.1,0,10.8,0.4,14.7,4.3c1.4,1.5,2.2,3.2,2.2,5.2l-1,108.2c0,1.1-0.4,2.1-1.2,2.8
						C149.8,128.4,148.8,128.8,147.7,128.8z M126.6,120.6l17.2,0.2L144.7,17c-0.9-0.7-4.1-1.8-8.8-1.8c-4.6,0-7.5,1-8.3,1.7
						L126.6,120.6z"/>
				</g>
			</g>
		</g>
	</g>
	<g>
		<g>
			<g>
				<g>
					<path class="st5" d="M135.6,38.5v90.7c-2.5,0.4-5.1,0.6-7.6,0.6c-6,0-12-1.2-17.6-3.2V38.5c0-3.3,6.5-4.9,12.9-4.9
						C129.6,33.7,135.6,35.3,135.6,38.5z"/>
				</g>
			</g>
		</g>
	</g>
	<g>
		<g>
			<g>
				<g>
					<path class="st10" d="M128,133.8c-6.2,0-12.6-1.1-18.9-3.4c-1.6-0.6-2.7-2.1-2.7-3.8V38.5c0-5.5,6.4-8.9,16.6-8.9l0.3,0
						c10.2,0.1,16.2,3.4,16.2,8.9v90.7c0,2-1.4,3.6-3.4,3.9C133.5,133.6,130.8,133.8,128,133.8z M114.4,123.7
						c5.8,1.7,11.5,2.4,17.2,1.9V39.2c-1-0.6-3.7-1.5-8.3-1.5l-0.3,0c-4.5,0-7.6,0.9-8.6,1.5V123.7z"/>
				</g>
			</g>
		</g>
	</g>
	<g>
		<g>
			<g>
				<g>
					<path class="st5" d="M110.4,22.2v104.5c-2.8-1-5.6-2.2-8.2-3.6c-6.3-3.3-12-7.5-17-12.2V22.2C85.3,15,110.4,15,110.4,22.2z"/>
				</g>
			</g>
		</g>
	</g>
	<g>
		<g>
			<g>
				<g>
					<path class="st10" d="M110.4,130.6c-0.5,0-0.9-0.1-1.3-0.2c-3-1.1-5.9-2.4-8.8-3.9c-6.4-3.3-12.4-7.7-17.9-12.9
						c-0.8-0.8-1.2-1.8-1.2-2.9V22.2c0-5.7,6.5-9.3,16.6-9.3c10.1,0,16.6,3.7,16.6,9.3v104.5c0,1.3-0.6,2.5-1.7,3.3
						C112.1,130.4,111.3,130.6,110.4,130.6z M89.3,109.1c4.5,4.1,9.6,7.7,14.8,10.4c0.8,0.4,1.6,0.8,2.4,1.2V22.6
						c-0.9-0.7-3.9-1.8-8.6-1.8s-7.7,1.1-8.6,1.8V109.1z"/>
				</g>
			</g>
		</g>
	</g>
	<g>
		<g>
			<g>
				<g>
					<path class="st5" d="M102.2,123c-6.3-3.3-12-7.5-17-12.2c-1.2-1.1-2.3-2.2-3.4-3.4c-3-3.2-5.7-6.6-7.8-10l-4.8-43.8
						c-0.3-2.4,2.4-4.3,6.1-5.5c3-1,6.6-1.4,9.9-1.4c4.7,0.1,8.7,1.3,9,4.1L102.2,123z"/>
				</g>
			</g>
		</g>
	</g>
	<g>
		<g>
			<g>
				<g>
					<path class="st10" d="M102.2,127c-0.6,0-1.3-0.2-1.9-0.5c-6.4-3.3-12.4-7.7-17.9-12.9c-1.2-1.2-2.4-2.4-3.5-3.5
						c-3.1-3.3-5.9-6.9-8.3-10.5c-0.3-0.5-0.5-1.1-0.6-1.7L65.3,54c-0.2-2,0.2-6.9,8.9-9.7c3.4-1.1,7.4-1.7,11.2-1.6
						c10.9,0.2,12.7,5.4,12.9,7.7l7.9,71.7c0.1,0.3,0.1,0.6,0.1,0.8C106.2,125.2,104.4,127,102.2,127C102.2,127,102.2,127,102.2,127
						z M77.9,96.1c2,3,4.3,5.9,6.9,8.6c1,1.1,2.1,2.1,3.2,3.2c2.9,2.8,6.1,5.3,9.4,7.5l-7-63.7c-0.5-0.3-2.1-0.9-5.2-1
						c-3-0.1-6.1,0.4-8.6,1.2c-2,0.6-3,1.3-3.3,1.7L77.9,96.1z"/>
				</g>
			</g>
		</g>
	</g>
	<g>
		<g>
			<g>
				<g>
					<path class="st5" d="M81.9,107.4c-3-3.2-5.7-6.6-7.8-10c-0.5-0.8-0.9-1.5-1.4-2.3c-3.1-5.4-4.9-10.7-4.9-15c0,0-7.4,0-14.2,0
						l-5-45.8l-1.8-16.4C45.9,11,71,8.2,71.8,15.3l3.6,32.8L81.9,107.4z"/>
				</g>
			</g>
		</g>
	</g>
	<g>
		<g>
			<g>
				<g>
					<path class="st10" d="M81.9,111.4c-1.1,0-2.1-0.4-2.9-1.3c-3.2-3.4-5.9-6.9-8.3-10.6c-0.4-0.7-0.9-1.4-1.5-2.4
						c-2.7-4.6-4.4-9-5.1-13H53.5c-2,0-3.8-1.5-4-3.6l-6.8-62.2c-0.2-1.4,0.1-3.6,1.9-5.7C48.2,8.9,56,7.2,62.2,7.2
						c11.5,0,13.3,5.4,13.6,7.7l10.1,91.7c0.1,0.3,0.1,0.6,0.1,0.8C85.9,109.6,84.1,111.4,81.9,111.4
						C81.9,111.4,81.9,111.4,81.9,111.4z M57.1,76.2h10.6c2.2,0,4,1.8,4,4c0,3.5,1.6,8.1,4.4,13c0.1,0.1,0.1,0.2,0.2,0.3l-8.5-77.4
						c-0.6-0.4-2.5-1-5.7-1c-5.6,0-10.4,1.8-11.4,2.9L57.1,76.2z"/>
				</g>
			</g>
		</g>
	</g>
	<g>
		<g>
			<g>
				<g>
					<path class="st5" d="M72.7,95.2c-3.1-5.4-4.9-10.7-4.9-15c0,0-7.4,0-14.2,0H43.4L34.9,43c-0.9-3.9,6.7-7.5,13.6-8.5
						c5.3-0.8,10.2-0.1,10.9,2.9L72.7,95.2z"/>
				</g>
			</g>
		</g>
	</g>
	<g>
		<g>
			<g>
				<g>
					<path class="st10" d="M72.7,99.2c-1.4,0-2.7-0.7-3.5-2c-2.6-4.6-4.4-9-5.1-13H43.4c-1.9,0-3.5-1.3-3.9-3.1L31,43.9
						c-0.3-1.4-0.4-3.5,1.2-5.8c3-4.3,10.3-6.8,15.8-7.6c1.6-0.2,3-0.3,4.4-0.3c8.3,0,10.4,3.9,11,6.3l13.2,57.5
						c0.1,0.4,0.2,0.8,0.2,1.3c0,2.2-1.7,3.9-3.9,4C72.8,99.2,72.7,99.2,72.7,99.2z M46.6,76.2h17.6l-8.6-37.6
						c-0.4-0.2-1.4-0.5-3.3-0.5c-1,0-2.1,0.1-3.3,0.3c-5.5,0.8-9.4,3-10.2,4.1L46.6,76.2z"/>
				</g>
			</g>
		</g>
	</g>
	<g>
		<g>
			<g>
				<g>
					<path class="st5" d="M182.8,59.9l-0.2,25.4l-0.1,11.4c-0.7,1.2-1.5,2.3-2.4,3.5c-3.5,4.9-8.1,9.8-13.4,14.2
						c-0.6,0.5-1.1,0.9-1.7,1.4c-0.7,0.6-1.5,1.1-2.2,1.7c-1.8,1.3-3.8,2.6-5.7,3.8l0.4-47.3l0.1-14.2c0-1.8,1.7-3.2,4.1-4
						c1.6-0.6,3.5-0.9,5.6-1.1C174.4,54,182.8,55.8,182.8,59.9z"/>
				</g>
			</g>
		</g>
	</g>
	<g>
		<g>
			<g>
				<g>
					<path class="st10" d="M157,125.2c-0.7,0-1.4-0.2-2-0.5c-1.3-0.7-2-2.1-2-3.5l0.6-61.5c0-2,0.9-5.7,6.8-7.8
						c1.9-0.7,4.2-1.1,6.6-1.3c1-0.1,1.9-0.1,2.9-0.1c3.1,0,10.8,0.4,14.7,4.3c1.4,1.5,2.2,3.2,2.2,5.2l-0.3,36.7
						c0,0.7-0.2,1.4-0.6,2.1c-0.7,1.2-1.5,2.4-2.5,3.7c-3.9,5.4-8.7,10.6-14.1,15c-0.6,0.5-1.2,1-1.8,1.4c-0.7,0.6-1.5,1.1-2.4,1.8
						c-2,1.4-4,2.8-6,4C158.5,125,157.7,125.2,157,125.2z M161.6,60.1l-0.5,53.6c0.5-0.4,1-0.7,1.4-1.1c0,0,0.1,0,0.1-0.1
						c0.5-0.4,1.1-0.8,1.6-1.3c4.8-4,9.2-8.6,12.7-13.5c0.6-0.8,1.1-1.6,1.6-2.4l0.3-35.2c-0.9-0.7-4.1-1.8-8.9-1.8
						c-0.8,0-1.5,0-2.3,0.1c-1.8,0.1-3.4,0.4-4.6,0.9C162.2,59.7,161.8,60,161.6,60.1z"/>
				</g>
			</g>
		</g>
	</g>
	<g>
		<g>
			<g>
				<g>
					<path class="st5" d="M165.4,79l-0.3,36.7c-0.7,0.6-1.5,1.1-2.2,1.7c-1.8,1.3-3.8,2.6-5.7,3.8c-4.9,2.9-10.1,5.2-15.6,6.7
						c-0.6,0.2-1.1,0.3-1.7,0.5l0-3.6l0.4-46c0-1.2,0.7-2.1,1.8-2.9c1.5-1,3.7-1.7,6.3-2.1c3-0.4,6.3-0.4,9.3,0.1
						c1.5,0.2,2.9,0.6,4.1,1.1C163.9,75.9,165.4,77.2,165.4,79z"/>
				</g>
			</g>
		</g>
	</g>
	<g>
		<g>
			<g>
				<g>
					<path class="st10" d="M139.7,132.4c-0.9,0-1.8-0.3-2.5-0.9c-1-0.8-1.5-1.9-1.5-3.2l0-3.6l0.4-46c0-1.7,0.6-4.1,3.5-6.1
						c2-1.4,4.7-2.3,8-2.8c3.4-0.5,7.2-0.4,10.5,0.1c1.9,0.3,3.5,0.8,4.9,1.3c5.5,2.2,6.3,5.8,6.3,7.7l-0.3,36.7
						c0,1.2-0.6,2.3-1.5,3.1c-0.7,0.6-1.5,1.2-2.4,1.8c-2,1.4-4,2.8-6,4c-5.4,3.2-11,5.6-16.6,7.1c-0.6,0.2-1.2,0.3-1.8,0.5
						C140.4,132.3,140,132.4,139.7,132.4z M144.2,79.2l-0.4,43.8c3.8-1.3,7.6-3.1,11.2-5.3c1.8-1.1,3.7-2.3,5.4-3.6
						c0.2-0.2,0.4-0.3,0.6-0.4l0.3-34.4c-0.2-0.2-0.6-0.4-1.3-0.7c-0.9-0.4-2-0.6-3.3-0.8c-2.5-0.4-5.5-0.4-8.1-0.1
						C146.8,78.1,145.1,78.6,144.2,79.2C144.2,79.2,144.2,79.2,144.2,79.2z"/>
				</g>
			</g>
		</g>
	</g>
	<g>
		<g>
			<g>
				<g>
					<path class="st3" d="M225.1,88.3c-0.2,1.5-21.6,151.3-22.7,155.8c-1.3,5.7-7.2,11.9-14.3,11.9c-0.8,0-1.6-0.1-2.4-0.2
						c-1.5-0.3-4.1-1-7.7-2c-11.6-3.2-33.2-9.2-50.1-9.2c-16.9,0-38.5,6-50.1,9.2c-3.6,1-6.1,1.7-7.7,2c-0.8,0.1-1.6,0.2-2.4,0.2
						c-7.1,0-13-6.2-14.3-11.9c-0.6-2.6-7.4-49-21.3-146.1c-0.8-5.7-1.3-9.2-1.4-9.6c-0.4-2.4,0.6-5,2.7-7.4c2-2.3,5.3-4.7,8.8-4.7
						h25.4c2.2,0,4,1.8,4,4c0,3.5,1.6,8.1,4.4,13c0.5,0.8,0.9,1.5,1.3,2.1c2.1,3.3,4.6,6.4,7.4,9.4c1,1.1,2.1,2.1,3.2,3.2
						c4.9,4.6,10.4,8.6,16.1,11.6c2.5,1.3,5.1,2.5,7.7,3.4c7.8,2.8,15.7,3.6,23.2,2.4c1.3-0.2,2.6-0.5,3.8-0.8
						c0.5-0.1,1-0.2,1.6-0.4c5-1.4,9.9-3.5,14.7-6.3c1.8-1.1,3.7-2.3,5.4-3.6c0.8-0.6,1.5-1.1,2.1-1.6c0,0,0.1,0,0.1-0.1
						c0.6-0.4,1.1-0.9,1.6-1.3c4.8-4,9.2-8.6,12.7-13.4c0.9-1.2,1.6-2.3,2.2-3.3c1.6-2.7,2.9-5.2,3.8-7.7c0.9-2.4,1.4-4.7,1.4-6.6
						c0-1.1,0.4-2.1,1.2-2.8s1.8-1.2,2.8-1.2h25.4c3.5,0,6.9,2.4,8.8,4.7C224.5,83.3,225.5,85.9,225.1,88.3z"/>
				</g>
			</g>
		</g>
	</g>
</g>
</svg>
