<?xml version="1.0" encoding="utf-8"?>
<!-- Generator: Adobe Illustrator 22.1.0, SVG Export Plug-In . SVG Version: 6.00 Build 0)  -->
<svg version="1.1" id="Layer_1" xmlns="http://www.w3.org/2000/svg" xmlns:xlink="http://www.w3.org/1999/xlink" x="0px" y="0px"
	 viewBox="0 0 256 256" style="enable-background:new 0 0 256 256;" xml:space="preserve">
<style type="text/css">
	.st0{fill:#F6D67A;}
	.st1{fill:#E77CAE;}
	.st2{fill:#AC6535;}
	.st3{fill:#EB573B;}
	.st4{fill:#464646;}
	.st5{fill:#F5B31F;}
	.st6{fill:#9B592D;}
	.st7{fill:#9B5B2F;}
	.st8{fill:#E8A41A;}
	.st9{fill:#6D6E71;}
	.st10{fill:#E5A21C;}
	.st11{fill:#C66395;}
	.st12{fill:#E09F1E;}
	.st13{fill:#FFFFFF;}
	.st14{fill:#DDB95E;}
	.st15{fill:#EAC771;}
	.st16{fill:#F9F6CD;}
	.st17{fill:#009345;}
	.st18{fill:#008438;}
	.st19{fill:#EAA51B;}
	.st20{opacity:0.1;}
	.st21{fill:#FFD11D;}
	.st22{fill:#FFE37B;}
	.st23{fill:#FFA755;}
	.st24{fill:#FFEC97;}
	.st25{fill:#BC7532;}
	.st26{fill:#EFEFEF;}
	.st27{fill:#60ACF7;}
	.st28{fill:#876C6C;}
	.st29{fill:#1DDCFF;}
	.st30{fill:#BDF3FF;}
	.st31{fill:#EFCA70;}
	.st32{fill:#EFA91D;}
	.st33{fill:#8FAE3C;}
	.st34{fill:#92A5AC;}
	.st35{fill:#E8E3BA;}
	.st36{fill:#F79932;}
	.st37{fill:#F4F4F4;}
	.st38{fill:#FFDF8F;}
	.st39{fill:#EAE5B9;}
	.st40{fill:#7E9E6A;}
	.st41{fill:#94B57F;}
	.st42{fill:#9B5D8C;}
	.st43{fill:#96557A;}
	.st44{fill:#C3755A;}
	.st45{fill:#9BD7DD;}
	.st46{fill:#90CAD3;}
	.st47{fill:#F7F7F7;}
	.st48{fill:#AFE6EF;}
	.st49{fill:#FFFAEB;}
	.st50{fill:#F4EFC3;}
	.st51{fill:#F9F9F9;}
	.st52{fill:#FFE5C4;}
	.st53{fill:#FFB024;}
	.st54{fill:#FFC612;}
	.st55{fill:#FFCE31;}
	.st56{fill:#A05C2D;}
	.st57{fill:#1DCAF2;}
	.st58{fill:#00B0E0;}
	.st59{fill:#F2A355;}
	.st60{fill:#D68032;}
	.st61{fill:#66625D;}
	.st62{fill:#54504D;}
	.st63{fill:#B76955;}
	.st64{fill:#EFE8B4;}
	.st65{fill:#B93226;}
	.st66{fill:#EFEABF;}
	.st67{fill:#90C056;}
	.st68{opacity:0.15;}
	.st69{fill:#E8C56D;}
	.st70{fill:#F7BE4B;}
	.st71{fill:#E0A338;}
	.st72{fill:#F68455;}
	.st73{fill:#E26F47;}
	.st74{fill:#EC754B;}
	.st75{fill:#4AA5BA;}
	.st76{opacity:0.5;}
	.st77{fill:#A0B1B5;}
	.st78{opacity:0.7;}
	.st79{fill:#00ADEE;}
	.st80{fill:#F4D4B3;}
	.st81{fill:#F9D97A;}
	.st82{fill:#EDC96E;}
	.st83{fill:none;}
	.st84{fill:#AF6535;}
	.st85{fill:#F18BB4;}
	.st86{fill:#B3E4FF;}
	.st87{fill:#97DFFF;}
	.st88{fill:#D06E3C;}
	.st89{fill:#B55931;}
	.st90{fill:#DA4F4B;}
	.st91{fill:#EFCAA8;}
	.st92{fill:#EA7CB1;}
	.st93{fill:#EA7DAE;}
	.st94{fill:#BC7646;}
	.st95{fill:#00A1C6;}
	.st96{fill:#FCC230;}
	.st97{fill:#F2EBB1;}
	.st98{fill:#F9D6AF;}
	.st99{fill:#D34735;}
	.st100{fill:#E5A21A;}
	.st101{fill:#849E33;}
	.st102{fill:#EFBB14;}
	.st103{fill:#D8402B;}
	.st104{fill:#829B34;}
	.st105{fill:#F88916;}
	.st106{fill:#E27513;}
	.st107{fill:#FFB41F;}
	.st108{fill:#8AA538;}
	.st109{fill:#BE6BB2;}
	.st110{fill:#AA5BA3;}
	.st111{fill:#FFDF66;}
	.st112{fill:#F4BA00;}
	.st113{fill:#E28529;}
	.st114{fill:#FF9945;}
	.st115{fill:#BA6C45;}
	.st116{fill:#EDBA15;}
	.st117{fill:#E0452F;}
	.st118{fill:#F7F2D5;}
	.st119{fill:#4C4E51;}
	.st120{fill:#EA615D;}
	.st121{fill:#DD4A36;}
	.st122{fill:#F6AF72;}
	.st123{fill:#E8955D;}
	.st124{fill:#E4C074;}
	.st125{fill:#EAE4C3;}
	.st126{fill:#BF3522;}
	.st127{fill:#D13E33;}
	.st128{fill:#AA5EA3;}
	.st129{fill:#DD443C;}
	.st130{fill:#AA5FA3;}
	.st131{fill:#B7C536;}
	.st132{fill:#F2872F;}
	.st133{fill:#AF5FA7;}
	.st134{fill:#E29F17;}
	.st135{fill:#FFC86E;}
	.st136{fill:#A55937;}
	.st137{fill:#D8422E;}
	.st138{fill:#C3556D;}
	.st139{fill:#B24965;}
	.st140{fill:#D1A962;}
	.st141{fill:#A3961A;}
	.st142{fill:#AFA51D;}
	.st143{fill:#968A1C;}
</style>
<g>
	<g>
		<g>
			<g>
				<g>
					<path class="st37" d="M197.5,66.6C175.1,56.5,141,55.9,115.1,64c-28.1-8.1-56.7,5.4-56.7,5.4c0-38.7,12-65.4,12-65.4h115.1
						C185.5,4,197,29.4,197.5,66.6z"/>
				</g>
			</g>
		</g>
	</g>
	<g>
		<g>
			<g>
				<g>
					<path class="st37" d="M58.4,73.4c-0.7,0-1.5-0.2-2.1-0.6c-1.2-0.7-1.9-2-1.9-3.4c0-39.1,11.9-65.9,12.4-67
						C67.5,0.9,68.9,0,70.5,0h115.1c1.6,0,3,0.9,3.6,2.4c0.5,1.1,11.7,26.4,12.3,63.7c0,0.2,0,0.3,0,0.5c0,2.2-1.8,4-4,4
						c0,0,0,0,0,0c-0.6,0-1.1-0.1-1.6-0.4c-11.2-5-26.1-7.8-42.1-7.8c-13.2,0-26.2,1.9-37.5,5.4c-0.7,0.2-1.5,0.2-2.3,0
						c-5.6-1.6-11.6-2.4-18-2.4c-19.5,0-35.7,7.5-35.9,7.6C59.6,73.3,59,73.4,58.4,73.4z M73.1,8c-2.6,6.8-9.7,27.6-10.6,55.5
						c6.9-2.5,19.3-6,33.5-6c6.7,0,13.1,0.8,19.1,2.4c11.8-3.5,25.2-5.4,38.7-5.4c14.4,0,28.2,2.2,39.5,6.2
						c-1.3-26.4-8-46-10.5-52.6H73.1z"/>
				</g>
			</g>
		</g>
	</g>
	<g>
		<g>
			<g>
				<g>
					<path class="st42" d="M201.6,69.4c0,1.6-0.9,3-2.3,3.6c-0.7,0.3-18,8.4-39.3,8.4c-12.7,0-24.1-2.9-34-8.5
						c-3.7-2.1-7.8-3.8-12-5c-1.7-0.5-2.9-2-2.9-3.8c0-1.8,1.1-3.3,2.8-3.9c12.1-3.8,25.9-5.8,39.9-5.8c17,0,33.1,3,45.3,8.5
						c1.4,0.6,2.4,2,2.4,3.6C201.6,67.5,201.6,68.4,201.6,69.4z"/>
				</g>
			</g>
		</g>
	</g>
	<g>
		<g>
			<g>
				<g>
					<path class="st37" d="M128,256c-2.2,0-4-1.8-4-4v-89.6c0-2.2,1.8-4,4-4c2.2,0,4,1.8,4,4V252C132,254.2,130.2,256,128,256z"/>
				</g>
			</g>
		</g>
	</g>
	<g>
		<g>
			<g>
				<g>
					<path class="st37" d="M168.3,256H87.7c-2.2,0-4-1.8-4-4s1.8-4,4-4h80.6c2.2,0,4,1.8,4,4S170.5,256,168.3,256z"/>
				</g>
			</g>
		</g>
	</g>
	<g>
		<g>
			<g>
				<g>
					<path class="st43" d="M201.6,69.4c0,39.1-23.4,97.1-73.6,97.1c-50.2,0-73.6-57.9-73.6-97.1c0-1.5,0.9-3,2.3-3.6
						c0.7-0.3,18-8.4,39.3-8.4c7.1,0,13.9,0.9,20.2,2.7c4.8,1.4,9.5,3.3,13.7,5.8c8.7,5,18.8,7.5,30,7.5c19.4,0,35.7-7.5,35.9-7.6
						c1.2-0.6,2.7-0.5,3.8,0.2C200.9,66.8,201.6,68,201.6,69.4z"/>
				</g>
			</g>
		</g>
	</g>
</g>
</svg>
