<?xml version="1.0" encoding="utf-8"?>
<!-- Generator: Adobe Illustrator 22.1.0, SVG Export Plug-In . SVG Version: 6.00 Build 0)  -->
<svg version="1.1" id="Layer_1" xmlns="http://www.w3.org/2000/svg" xmlns:xlink="http://www.w3.org/1999/xlink" x="0px" y="0px"
	 viewBox="0 0 256 256" style="enable-background:new 0 0 256 256;" xml:space="preserve">
<style type="text/css">
	.st0{fill:#F6D67A;}
	.st1{fill:#E77CAE;}
	.st2{fill:#AC6535;}
	.st3{fill:#EB573B;}
	.st4{fill:#464646;}
	.st5{fill:#F5B31F;}
	.st6{fill:#9B592D;}
	.st7{fill:#9B5B2F;}
	.st8{fill:#E8A41A;}
	.st9{fill:#6D6E71;}
	.st10{fill:#E5A21C;}
	.st11{fill:#C66395;}
	.st12{fill:#E09F1E;}
	.st13{fill:#FFFFFF;}
	.st14{fill:#DDB95E;}
	.st15{fill:#EAC771;}
	.st16{fill:#F9F6CD;}
	.st17{fill:#009345;}
	.st18{fill:#008438;}
	.st19{fill:#EAA51B;}
	.st20{opacity:0.1;}
	.st21{fill:#FFD11D;}
	.st22{fill:#FFE37B;}
	.st23{fill:#FFA755;}
	.st24{fill:#FFEC97;}
	.st25{fill:#BC7532;}
	.st26{fill:#EFEFEF;}
	.st27{fill:#60ACF7;}
	.st28{fill:#876C6C;}
	.st29{fill:#1DDCFF;}
	.st30{fill:#BDF3FF;}
	.st31{fill:#EFCA70;}
	.st32{fill:#EFA91D;}
	.st33{fill:#8FAE3C;}
	.st34{fill:#92A5AC;}
	.st35{fill:#E8E3BA;}
	.st36{fill:#F79932;}
	.st37{fill:#F4F4F4;}
	.st38{fill:#FFDF8F;}
	.st39{fill:#EAE5B9;}
	.st40{fill:#7E9E6A;}
	.st41{fill:#94B57F;}
	.st42{fill:#9B5D8C;}
	.st43{fill:#96557A;}
	.st44{fill:#C3755A;}
	.st45{fill:#9BD7DD;}
	.st46{fill:#90CAD3;}
	.st47{fill:#F7F7F7;}
	.st48{fill:#AFE6EF;}
	.st49{fill:#FFFAEB;}
	.st50{fill:#F4EFC3;}
	.st51{fill:#F9F9F9;}
	.st52{fill:#FFE5C4;}
	.st53{fill:#FFB024;}
	.st54{fill:#FFC612;}
	.st55{fill:#FFCE31;}
	.st56{fill:#A05C2D;}
	.st57{fill:#1DCAF2;}
	.st58{fill:#00B0E0;}
	.st59{fill:#F2A355;}
	.st60{fill:#D68032;}
	.st61{fill:#66625D;}
	.st62{fill:#54504D;}
	.st63{fill:#B76955;}
	.st64{fill:#EFE8B4;}
	.st65{fill:#B93226;}
	.st66{fill:#EFEABF;}
	.st67{fill:#90C056;}
	.st68{opacity:0.15;}
	.st69{fill:#E8C56D;}
	.st70{fill:#F7BE4B;}
	.st71{fill:#E0A338;}
	.st72{fill:#F68455;}
	.st73{fill:#E26F47;}
	.st74{fill:#EC754B;}
	.st75{fill:#4AA5BA;}
	.st76{opacity:0.5;}
	.st77{fill:#A0B1B5;}
	.st78{opacity:0.7;}
	.st79{fill:#00ADEE;}
	.st80{fill:#F4D4B3;}
	.st81{fill:#F9D97A;}
	.st82{fill:#EDC96E;}
	.st83{fill:none;}
	.st84{fill:#AF6535;}
	.st85{fill:#F18BB4;}
	.st86{fill:#B3E4FF;}
	.st87{fill:#97DFFF;}
	.st88{fill:#D06E3C;}
	.st89{fill:#B55931;}
	.st90{fill:#DA4F4B;}
	.st91{fill:#EFCAA8;}
	.st92{fill:#EA7CB1;}
	.st93{fill:#EA7DAE;}
	.st94{fill:#BC7646;}
	.st95{fill:#00A1C6;}
	.st96{fill:#FCC230;}
	.st97{fill:#F2EBB1;}
	.st98{fill:#F9D6AF;}
	.st99{fill:#D34735;}
	.st100{fill:#E5A21A;}
	.st101{fill:#849E33;}
	.st102{fill:#EFBB14;}
	.st103{fill:#D8402B;}
	.st104{fill:#829B34;}
	.st105{fill:#F88916;}
	.st106{fill:#E27513;}
	.st107{fill:#FFB41F;}
	.st108{fill:#8AA538;}
	.st109{fill:#BE6BB2;}
	.st110{fill:#AA5BA3;}
	.st111{fill:#FFDF66;}
	.st112{fill:#F4BA00;}
	.st113{fill:#E28529;}
	.st114{fill:#FF9945;}
	.st115{fill:#BA6C45;}
	.st116{fill:#EDBA15;}
	.st117{fill:#E0452F;}
	.st118{fill:#F7F2D5;}
	.st119{fill:#4C4E51;}
	.st120{fill:#EA615D;}
	.st121{fill:#DD4A36;}
	.st122{fill:#F6AF72;}
	.st123{fill:#E8955D;}
	.st124{fill:#E4C074;}
	.st125{fill:#EAE4C3;}
	.st126{fill:#BF3522;}
	.st127{fill:#D13E33;}
	.st128{fill:#AA5EA3;}
	.st129{fill:#DD443C;}
	.st130{fill:#AA5FA3;}
	.st131{fill:#B7C536;}
	.st132{fill:#F2872F;}
	.st133{fill:#AF5FA7;}
	.st134{fill:#E29F17;}
	.st135{fill:#FFC86E;}
	.st136{fill:#A55937;}
	.st137{fill:#D8422E;}
	.st138{fill:#C3556D;}
	.st139{fill:#B24965;}
	.st140{fill:#D1A962;}
	.st141{fill:#A3961A;}
	.st142{fill:#AFA51D;}
	.st143{fill:#968A1C;}
</style>
<g>
	<g>
		<g>
			<g>
				<g>
					<g>
						<g>
							<path class="st111" d="M141.8,152.4v74.7c-19.1,0-38.2-7.3-52.7-21.9L141.8,152.4z"/>
						</g>
					</g>
				</g>
			</g>
		</g>
		<g>
			<g>
				<g>
					<g>
						<g>
							<path class="st111" d="M194.6,205.2c-14.6,14.6-33.6,21.9-52.7,21.9v-74.7L194.6,205.2z"/>
						</g>
					</g>
				</g>
			</g>
		</g>
		<g>
			<g>
				<g>
					<g>
						<g>
							<path class="st111" d="M216.4,152.4c0,19.1-7.3,38.2-21.8,52.8l-52.7-52.8H216.4z"/>
						</g>
					</g>
				</g>
			</g>
		</g>
		<g>
			<g>
				<g>
					<g>
						<g>
							<path class="st111" d="M216.4,152.4h-74.6l52.7-52.8C209.1,114.2,216.4,133.3,216.4,152.4z"/>
						</g>
					</g>
				</g>
			</g>
		</g>
	</g>
	<g>
		<g>
			<g>
				<g>
					<g>
						<path class="st21" d="M244.8,157.9c-0.8,1.8-2.7,2.7-4.6,2.3c-1.9-0.4-3.2-2.1-3.1-4c1-25.2-8.1-49.9-25.1-68.4l-11.9,12
							c13.1,14.5,20.3,33.1,20.3,52.7c0,21-8.2,40.8-23,55.6c-14.8,14.9-34.6,23-55.5,23c-19.7,0-38.2-7.2-52.7-20.3l-11.9,12
							c13.7,12.6,30.5,20.9,49,23.9c1.9,0.3,3.3,2,3.3,4c0,2-1.4,3.6-3.4,3.9c-5.8,0.9-11.6,1.4-17.2,1.4c-21,0-40.6-6.6-53.1-17.8
							c-4.3,1.7-13.6,4.9-22.6,4.9c-7.1,0-12.7-2-16.6-5.9c-10.8-10.8-3.9-31.9-1-39.2C3.6,184.2-2,159.9,0.9,133.5
							C4.4,101.3,20,69.8,45,44.9C73.5,16.4,110.6,0,147,0c20.9,0,39.7,5.8,50.9,15.5c4.3-1.7,13.6-4.9,22.6-4.9
							c7.1,0,12.7,2,16.6,5.9c10.8,10.8,3.9,31.9,1,39.2C255.3,75,264.5,114.2,244.8,157.9z"/>
					</g>
				</g>
			</g>
		</g>
	</g>
	<g>
		<g>
			<g>
				<g>
					<g>
						<path class="st112" d="M31.3,168.6c-1.7,0-3.3-1.1-3.8-2.9c-6.1-21.2-4.2-42.7,5.7-63.9c0.9-2,3.3-2.9,5.3-1.9
							c2,0.9,2.9,3.3,1.9,5.3c-9.1,19.4-10.8,39-5.2,58.2c0.6,2.1-0.6,4.3-2.7,5C32,168.5,31.7,168.6,31.3,168.6z"/>
					</g>
				</g>
			</g>
		</g>
	</g>
	<g>
		<g>
			<g>
				<g>
					<g>
						<path class="st24" d="M245.2,156.4c-1,26.1-11.7,50.7-30.2,69.2c-19.5,19.6-45.5,30.3-73.1,30.3c-5.7,0-11.4-0.5-17-1.4
							c-21.4-3.5-40.8-13.5-56.2-28.9c-1.6-1.6-1.6-4.1,0-5.6l17.6-17.6c0.8-0.8,1.8-1.2,2.8-1.2c1.1,0,2.1,0.4,2.8,1.2
							c13.3,13.3,31,20.7,49.9,20.7c18.9,0,36.6-7.3,50-20.7c13.3-13.4,20.7-31.1,20.7-50c0-18.9-7.3-36.6-20.7-50
							c-1.6-1.6-1.6-4.1,0-5.7l17.6-17.6c0.8-0.8,1.8-1.2,2.8-1.2c1.1,0,2.1,0.4,2.8,1.2C235.3,99.6,246.3,127.7,245.2,156.4z"/>
					</g>
				</g>
			</g>
		</g>
	</g>
	<g>
		<g>
			<g>
				<g>
					<g>
						<g>
							<path class="st112" d="M141.8,231.1L141.8,231.1c-21,0-40.7-8.2-55.6-23c-1.6-1.6-1.6-4.1,0-5.7l52.7-52.8
								c1.1-1.1,2.9-1.5,4.4-0.9c1.5,0.6,2.5,2.1,2.5,3.7v74.7C145.8,229.3,144,231.1,141.8,231.1z M94.8,205.2
								c12,10.7,27,17,43,17.8v-60.9L94.8,205.2z"/>
						</g>
					</g>
				</g>
			</g>
		</g>
		<g>
			<g>
				<g>
					<g>
						<g>
							<path class="st112" d="M141.8,231.1L141.8,231.1c-2.2,0-4-1.8-4-4v-74.7c0-1.6,1-3.1,2.5-3.7c1.5-0.6,3.2-0.3,4.4,0.9
								l52.7,52.8c1.6,1.6,1.6,4.1,0,5.7C182.5,222.9,162.8,231.1,141.8,231.1z M145.8,162.1V223c16-0.9,31-7.1,43-17.8L145.8,162.1
								z"/>
						</g>
					</g>
				</g>
			</g>
		</g>
		<g>
			<g>
				<g>
					<g>
						<g>
							<path class="st112" d="M194.6,209.2c-1.1,0-2.1-0.4-2.8-1.2L139,155.3c-1.1-1.1-1.5-2.9-0.9-4.4c0.6-1.5,2.1-2.5,3.7-2.5
								h74.6c2.2,0,4,1.8,4,4c0,21-8.2,40.8-23,55.6C196.6,208.8,195.6,209.2,194.6,209.2z M151.5,156.4l43,43.1
								c10.7-12,16.9-27,17.8-43.1H151.5z"/>
						</g>
					</g>
				</g>
			</g>
		</g>
		<g>
			<g>
				<g>
					<g>
						<g>
							<path class="st112" d="M216.4,156.4h-74.6c-1.6,0-3.1-1-3.7-2.5c-0.6-1.5-0.3-3.2,0.9-4.4l52.7-52.8c0.8-0.8,1.8-1.2,2.8-1.2
								h0c1.1,0,2.1,0.4,2.8,1.2c14.9,14.9,23,34.6,23,55.6C220.4,154.7,218.6,156.4,216.4,156.4z M151.5,148.4h60.8
								c-0.9-16-7.1-31.1-17.8-43.1L151.5,148.4z"/>
						</g>
					</g>
				</g>
			</g>
		</g>
	</g>
</g>
</svg>
