<?xml version="1.0" encoding="utf-8"?>
<!-- Generator: Adobe Illustrator 22.1.0, SVG Export Plug-In . SVG Version: 6.00 Build 0)  -->
<svg version="1.1" id="Layer_1" xmlns="http://www.w3.org/2000/svg" xmlns:xlink="http://www.w3.org/1999/xlink" x="0px" y="0px"
	 viewBox="0 0 256 256" style="enable-background:new 0 0 256 256;" xml:space="preserve">
<style type="text/css">
	.st0{fill:#F6D67A;}
	.st1{fill:#E77CAE;}
	.st2{fill:#AC6535;}
	.st3{fill:#EB573B;}
	.st4{fill:#464646;}
	.st5{fill:#F5B31F;}
	.st6{fill:#9B592D;}
	.st7{fill:#9B5B2F;}
	.st8{fill:#E8A41A;}
	.st9{fill:#6D6E71;}
	.st10{fill:#E5A21C;}
	.st11{fill:#C66395;}
	.st12{fill:#E09F1E;}
	.st13{fill:#FFFFFF;}
	.st14{fill:#DDB95E;}
	.st15{fill:#EAC771;}
	.st16{fill:#F9F6CD;}
	.st17{fill:#009345;}
	.st18{fill:#008438;}
	.st19{fill:#EAA51B;}
	.st20{opacity:0.1;}
	.st21{fill:#FFD11D;}
	.st22{fill:#FFE37B;}
	.st23{fill:#FFA755;}
	.st24{fill:#FFEC97;}
	.st25{fill:#BC7532;}
	.st26{fill:#EFEFEF;}
	.st27{fill:#60ACF7;}
	.st28{fill:#876C6C;}
	.st29{fill:#1DDCFF;}
	.st30{fill:#BDF3FF;}
	.st31{fill:#EFCA70;}
	.st32{fill:#EFA91D;}
	.st33{fill:#8FAE3C;}
	.st34{fill:#92A5AC;}
	.st35{fill:#E8E3BA;}
	.st36{fill:#F79932;}
	.st37{fill:#F4F4F4;}
	.st38{fill:#FFDF8F;}
	.st39{fill:#EAE5B9;}
	.st40{fill:#7E9E6A;}
	.st41{fill:#94B57F;}
	.st42{fill:#9B5D8C;}
	.st43{fill:#96557A;}
	.st44{fill:#C3755A;}
	.st45{fill:#9BD7DD;}
	.st46{fill:#90CAD3;}
	.st47{fill:#F7F7F7;}
	.st48{fill:#AFE6EF;}
	.st49{fill:#FFFAEB;}
	.st50{fill:#F4EFC3;}
	.st51{fill:#F9F9F9;}
	.st52{fill:#FFE5C4;}
	.st53{fill:#FFB024;}
	.st54{fill:#FFC612;}
	.st55{fill:#FFCE31;}
	.st56{fill:#A05C2D;}
	.st57{fill:#1DCAF2;}
	.st58{fill:#00B0E0;}
	.st59{fill:#F2A355;}
	.st60{fill:#D68032;}
	.st61{fill:#66625D;}
	.st62{fill:#54504D;}
	.st63{fill:#B76955;}
	.st64{fill:#EFE8B4;}
	.st65{fill:#B93226;}
	.st66{fill:#EFEABF;}
	.st67{fill:#90C056;}
	.st68{opacity:0.15;}
	.st69{fill:#E8C56D;}
	.st70{fill:#F7BE4B;}
	.st71{fill:#E0A338;}
	.st72{fill:#F68455;}
	.st73{fill:#E26F47;}
	.st74{fill:#EC754B;}
	.st75{fill:#4AA5BA;}
	.st76{opacity:0.5;}
	.st77{fill:#A0B1B5;}
	.st78{opacity:0.7;}
	.st79{fill:#00ADEE;}
	.st80{fill:#F4D4B3;}
	.st81{fill:#F9D97A;}
	.st82{fill:#EDC96E;}
	.st83{fill:none;}
	.st84{fill:#AF6535;}
	.st85{fill:#F18BB4;}
	.st86{fill:#B3E4FF;}
	.st87{fill:#97DFFF;}
	.st88{fill:#D06E3C;}
	.st89{fill:#B55931;}
	.st90{fill:#DA4F4B;}
	.st91{fill:#EFCAA8;}
	.st92{fill:#EA7CB1;}
	.st93{fill:#EA7DAE;}
	.st94{fill:#BC7646;}
	.st95{fill:#00A1C6;}
	.st96{fill:#FCC230;}
	.st97{fill:#F2EBB1;}
	.st98{fill:#F9D6AF;}
	.st99{fill:#D34735;}
	.st100{fill:#E5A21A;}
	.st101{fill:#849E33;}
	.st102{fill:#EFBB14;}
	.st103{fill:#D8402B;}
	.st104{fill:#829B34;}
	.st105{fill:#F88916;}
	.st106{fill:#E27513;}
	.st107{fill:#FFB41F;}
	.st108{fill:#8AA538;}
	.st109{fill:#BE6BB2;}
	.st110{fill:#AA5BA3;}
	.st111{fill:#FFDF66;}
	.st112{fill:#F4BA00;}
	.st113{fill:#E28529;}
	.st114{fill:#FF9945;}
	.st115{fill:#BA6C45;}
	.st116{fill:#EDBA15;}
	.st117{fill:#E0452F;}
	.st118{fill:#F7F2D5;}
	.st119{fill:#4C4E51;}
	.st120{fill:#EA615D;}
	.st121{fill:#DD4A36;}
	.st122{fill:#F6AF72;}
	.st123{fill:#E8955D;}
	.st124{fill:#E4C074;}
	.st125{fill:#EAE4C3;}
	.st126{fill:#BF3522;}
	.st127{fill:#D13E33;}
	.st128{fill:#AA5EA3;}
	.st129{fill:#DD443C;}
	.st130{fill:#AA5FA3;}
	.st131{fill:#B7C536;}
	.st132{fill:#F2872F;}
	.st133{fill:#AF5FA7;}
	.st134{fill:#E29F17;}
	.st135{fill:#FFC86E;}
	.st136{fill:#A55937;}
	.st137{fill:#D8422E;}
	.st138{fill:#C3556D;}
	.st139{fill:#B24965;}
	.st140{fill:#D1A962;}
	.st141{fill:#A3961A;}
	.st142{fill:#AFA51D;}
	.st143{fill:#968A1C;}
</style>
<g>
	<g>
		<g>
			<g>
				<g>
					<g>
						<path class="st3" d="M207.2,207.5C181.9,239,118.1,256,71,256c-25.8,0-45.2-5.2-54.6-14.6c-10.7-10.7-15.9-34.8-14.2-66
							c2.4-43.4,18.4-101,48.2-125c15.1-12.1,31.8-18.3,49.8-18.3c6.3,0,12.8,0.8,19.3,2.3c1.3,0.3,2.3,1.2,2.8,2.4
							c6,15,25.6,26.9,59.7,36.1c1.2,0.3,2.1,1.1,2.6,2.2c1.2,2.7,2.4,5.4,3.7,8.1c10.7,23.7,21.8,48.2,33.6,55.1
							c1,0.6,1.7,1.5,1.9,2.7C228.7,165.3,223.1,187.6,207.2,207.5z"/>
					</g>
				</g>
			</g>
		</g>
	</g>
	<g>
		<g>
			<g>
				<g>
					<g>
						<g>
							<path class="st137" d="M111.7,77.1c-1,0-2-0.4-2.8-1.2c-1.6-1.6-1.6-4.1,0-5.7l5-5c1.6-1.6,4.1-1.6,5.7,0
								c1.6,1.6,1.6,4.1,0,5.7l-5,5C113.7,76.7,112.7,77.1,111.7,77.1z"/>
						</g>
					</g>
				</g>
			</g>
		</g>
		<g>
			<g>
				<g>
					<g>
						<g>
							<path class="st137" d="M177.3,142.8c-1,0-2-0.4-2.8-1.2c-1.6-1.6-1.6-4.1,0-5.7l5-5c1.6-1.6,4.1-1.6,5.7,0
								c1.6,1.6,1.6,4.1,0,5.7l-5,5C179.3,142.4,178.3,142.8,177.3,142.8z"/>
						</g>
					</g>
				</g>
			</g>
		</g>
		<g>
			<g>
				<g>
					<g>
						<g>
							<path class="st137" d="M68.2,87.8c-1,0-2-0.4-2.8-1.2c-1.6-1.6-1.6-4.1,0-5.7l5-5c1.6-1.6,4.1-1.6,5.7,0
								c1.6,1.6,1.6,4.1,0,5.7l-5,5C70.3,87.4,69.2,87.8,68.2,87.8z"/>
						</g>
					</g>
				</g>
			</g>
		</g>
		<g>
			<g>
				<g>
					<g>
						<g>
							<path class="st137" d="M101,120.7c-1,0-2-0.4-2.8-1.2c-1.6-1.6-1.6-4.1,0-5.7l5-5c1.6-1.6,4.1-1.6,5.7,0s1.6,4.1,0,5.7l-5,5
								C103.1,120.3,102,120.7,101,120.7z"/>
						</g>
					</g>
				</g>
			</g>
		</g>
		<g>
			<g>
				<g>
					<g>
						<g>
							<path class="st137" d="M166.6,186.3c-1,0-2-0.4-2.8-1.2c-1.6-1.6-1.6-4.1,0-5.7l5-5c1.6-1.6,4.1-1.6,5.7,0
								c1.6,1.6,1.6,4.1,0,5.7l-5,5C168.7,185.9,167.6,186.3,166.6,186.3z"/>
						</g>
					</g>
				</g>
			</g>
		</g>
		<g>
			<g>
				<g>
					<g>
						<g>
							<path class="st137" d="M133.8,153.5c-1,0-2-0.4-2.8-1.2c-1.6-1.6-1.6-4.1,0-5.7l5-5c1.6-1.6,4.1-1.6,5.7,0
								c1.6,1.6,1.6,4.1,0,5.7l-5,5C135.9,153.1,134.8,153.5,133.8,153.5z"/>
						</g>
					</g>
				</g>
			</g>
		</g>
		<g>
			<g>
				<g>
					<g>
						<g>
							<path class="st137" d="M57.5,131.4c-1,0-2-0.4-2.8-1.2c-1.6-1.6-1.6-4.1,0-5.7l5-5c1.6-1.6,4.1-1.6,5.7,0
								c1.6,1.6,1.6,4.1,0,5.7l-5,5C59.6,131,58.6,131.4,57.5,131.4z"/>
						</g>
					</g>
				</g>
			</g>
		</g>
		<g>
			<g>
				<g>
					<g>
						<g>
							<path class="st137" d="M90.3,164.2c-1,0-2-0.4-2.8-1.2c-1.6-1.6-1.6-4.1,0-5.7l5-5c1.6-1.6,4.1-1.6,5.7,0
								c1.6,1.6,1.6,4.1,0,5.7l-5,5C92.4,163.8,91.4,164.2,90.3,164.2z"/>
						</g>
					</g>
				</g>
			</g>
		</g>
		<g>
			<g>
				<g>
					<g>
						<g>
							<path class="st137" d="M123.1,197c-1,0-2-0.4-2.8-1.2c-1.6-1.6-1.6-4.1,0-5.7l5-5c1.6-1.6,4.1-1.6,5.7,0
								c1.6,1.6,1.6,4.1,0,5.7l-5,5C125.2,196.6,124.2,197,123.1,197z"/>
						</g>
					</g>
				</g>
			</g>
		</g>
		<g>
			<g>
				<g>
					<g>
						<g>
							<path class="st137" d="M46.8,174.9c-1,0-2-0.4-2.8-1.2c-1.6-1.6-1.6-4.1,0-5.7l5-5c1.6-1.6,4.1-1.6,5.7,0
								c1.6,1.6,1.6,4.1,0,5.7l-5,5C48.9,174.5,47.9,174.9,46.8,174.9z"/>
						</g>
					</g>
				</g>
			</g>
		</g>
		<g>
			<g>
				<g>
					<g>
						<g>
							<path class="st137" d="M79.6,207.7c-1,0-2-0.4-2.8-1.2c-1.6-1.6-1.6-4.1,0-5.7l5-5c1.6-1.6,4.1-1.6,5.7,0
								c1.6,1.6,1.6,4.1,0,5.7l-5,5C81.7,207.3,80.7,207.7,79.6,207.7z"/>
						</g>
					</g>
				</g>
			</g>
		</g>
		<g>
			<g>
				<g>
					<g>
						<g>
							<path class="st137" d="M36.2,218.4c-1,0-2-0.4-2.8-1.2c-1.6-1.6-1.6-4.1,0-5.7l5-5c1.6-1.6,4.1-1.6,5.7,0
								c1.6,1.6,1.6,4.1,0,5.7l-5,5C38.2,218,37.2,218.4,36.2,218.4z"/>
						</g>
					</g>
				</g>
			</g>
		</g>
		<g>
			<g>
				<g>
					<g>
						<g>
							<path class="st137" d="M144.5,110c-1,0-2-0.4-2.8-1.2c-1.6-1.6-1.6-4.1,0-5.7l5-5c1.6-1.6,4.1-1.6,5.7,0
								c1.6,1.6,1.6,4.1,0,5.7l-5,5C146.5,109.6,145.5,110,144.5,110z"/>
						</g>
					</g>
				</g>
			</g>
		</g>
	</g>
	<g>
		<g>
			<g>
				<g>
					<g>
						<path class="st33" d="M253.7,82.7c-0.2,1-0.8,1.8-1.6,2.4c-5.2,3.6-14.1,5.5-26.3,5.5c-4.7,0-9.1-0.3-12.7-0.6
							c12.4,22.4,15.8,39.9,10.5,53.3c-0.5,1.3-1.6,2.2-3,2.5c-0.2,0.1-0.5,0.1-0.8,0.1c-0.6,0-1.3-0.2-1.8-0.5
							c-0.1,0-0.1-0.1-0.2-0.1c-7-4.1-13.3-12.2-19.3-22.6c-6-10.4-11.7-23-17.6-36c-1-2.1-1.9-4.2-2.9-6.4
							c-36.1-10-56.2-22.9-63.2-40.3c-0.9-2.4-1.7-4.8-2.1-7.3c-0.3-1.9,0.8-3.8,2.6-4.4c3.6-1.3,7.4-2,11.3-2
							c11.2,0,23.4,5.1,37.9,16c-0.8-12.4,3.3-25.7,12.4-40.3c0.6-1,1.7-1.7,2.9-1.8c1.2-0.2,2.4,0.2,3.2,1
							c20.2,18.6,21.8,37,18.3,52.6c16-11,30.4-14.3,43.8-10c2.1,0.7,3.3,2.9,2.6,5c-0.7,2.1-2.9,3.3-5,2.6
							c-10.8-3.4-22.5-0.8-36,8.3c17.4,0.4,37.3,3,44.5,11.9C253.8,74.7,254.6,78.6,253.7,82.7z"/>
					</g>
				</g>
			</g>
		</g>
	</g>
</g>
</svg>
