<?xml version="1.0" encoding="utf-8"?>
<!-- Generator: Adobe Illustrator 22.1.0, SVG Export Plug-In . SVG Version: 6.00 Build 0)  -->
<svg version="1.1" id="Layer_1" xmlns="http://www.w3.org/2000/svg" xmlns:xlink="http://www.w3.org/1999/xlink" x="0px" y="0px"
	 viewBox="0 0 256 256" style="enable-background:new 0 0 256 256;" xml:space="preserve">
<style type="text/css">
	.st0{fill:#F6D67A;}
	.st1{fill:#E77CAE;}
	.st2{fill:#AC6535;}
	.st3{fill:#EB573B;}
	.st4{fill:#464646;}
	.st5{fill:#F5B31F;}
	.st6{fill:#9B592D;}
	.st7{fill:#9B5B2F;}
	.st8{fill:#E8A41A;}
	.st9{fill:#6D6E71;}
	.st10{fill:#E5A21C;}
	.st11{fill:#C66395;}
	.st12{fill:#E09F1E;}
	.st13{fill:#FFFFFF;}
	.st14{fill:#DDB95E;}
	.st15{fill:#EAC771;}
	.st16{fill:#F9F6CD;}
	.st17{fill:#009345;}
	.st18{fill:#008438;}
	.st19{fill:#EAA51B;}
	.st20{opacity:0.1;}
	.st21{fill:#FFD11D;}
	.st22{fill:#FFE37B;}
	.st23{fill:#FFA755;}
	.st24{fill:#FFEC97;}
	.st25{fill:#BC7532;}
	.st26{fill:#EFEFEF;}
	.st27{fill:#60ACF7;}
	.st28{fill:#876C6C;}
	.st29{fill:#1DDCFF;}
	.st30{fill:#BDF3FF;}
	.st31{fill:#EFCA70;}
	.st32{fill:#EFA91D;}
	.st33{fill:#8FAE3C;}
	.st34{fill:#92A5AC;}
	.st35{fill:#E8E3BA;}
	.st36{fill:#F79932;}
	.st37{fill:#F4F4F4;}
	.st38{fill:#FFDF8F;}
	.st39{fill:#EAE5B9;}
	.st40{fill:#7E9E6A;}
	.st41{fill:#94B57F;}
	.st42{fill:#9B5D8C;}
	.st43{fill:#96557A;}
	.st44{fill:#C3755A;}
	.st45{fill:#9BD7DD;}
	.st46{fill:#90CAD3;}
	.st47{fill:#F7F7F7;}
	.st48{fill:#AFE6EF;}
	.st49{fill:#FFFAEB;}
	.st50{fill:#F4EFC3;}
	.st51{fill:#F9F9F9;}
	.st52{fill:#FFE5C4;}
	.st53{fill:#FFB024;}
	.st54{fill:#FFC612;}
	.st55{fill:#FFCE31;}
	.st56{fill:#A05C2D;}
	.st57{fill:#1DCAF2;}
	.st58{fill:#00B0E0;}
	.st59{fill:#F2A355;}
	.st60{fill:#D68032;}
	.st61{fill:#66625D;}
	.st62{fill:#54504D;}
	.st63{fill:#B76955;}
	.st64{fill:#EFE8B4;}
	.st65{fill:#B93226;}
	.st66{fill:#EFEABF;}
	.st67{fill:#90C056;}
	.st68{opacity:0.15;}
	.st69{fill:#E8C56D;}
	.st70{fill:#F7BE4B;}
	.st71{fill:#E0A338;}
	.st72{fill:#F68455;}
	.st73{fill:#E26F47;}
	.st74{fill:#EC754B;}
	.st75{fill:#4AA5BA;}
	.st76{opacity:0.5;}
	.st77{fill:#A0B1B5;}
	.st78{opacity:0.7;}
	.st79{fill:#00ADEE;}
	.st80{fill:#F4D4B3;}
	.st81{fill:#F9D97A;}
	.st82{fill:#EDC96E;}
	.st83{fill:none;}
	.st84{fill:#AF6535;}
	.st85{fill:#F18BB4;}
	.st86{fill:#B3E4FF;}
	.st87{fill:#97DFFF;}
	.st88{fill:#D06E3C;}
	.st89{fill:#B55931;}
	.st90{fill:#DA4F4B;}
	.st91{fill:#EFCAA8;}
	.st92{fill:#EA7CB1;}
	.st93{fill:#EA7DAE;}
	.st94{fill:#BC7646;}
	.st95{fill:#00A1C6;}
	.st96{fill:#FCC230;}
	.st97{fill:#F2EBB1;}
	.st98{fill:#F9D6AF;}
	.st99{fill:#D34735;}
	.st100{fill:#E5A21A;}
	.st101{fill:#849E33;}
	.st102{fill:#EFBB14;}
	.st103{fill:#D8402B;}
	.st104{fill:#829B34;}
	.st105{fill:#F88916;}
	.st106{fill:#E27513;}
	.st107{fill:#FFB41F;}
	.st108{fill:#8AA538;}
	.st109{fill:#BE6BB2;}
	.st110{fill:#AA5BA3;}
	.st111{fill:#FFDF66;}
	.st112{fill:#F4BA00;}
	.st113{fill:#E28529;}
	.st114{fill:#FF9945;}
	.st115{fill:#BA6C45;}
	.st116{fill:#EDBA15;}
	.st117{fill:#E0452F;}
	.st118{fill:#F7F2D5;}
	.st119{fill:#4C4E51;}
	.st120{fill:#EA615D;}
	.st121{fill:#DD4A36;}
	.st122{fill:#F6AF72;}
	.st123{fill:#E8955D;}
	.st124{fill:#E4C074;}
	.st125{fill:#EAE4C3;}
	.st126{fill:#BF3522;}
	.st127{fill:#D13E33;}
	.st128{fill:#AA5EA3;}
	.st129{fill:#DD443C;}
	.st130{fill:#AA5FA3;}
	.st131{fill:#B7C536;}
	.st132{fill:#F2872F;}
	.st133{fill:#AF5FA7;}
	.st134{fill:#E29F17;}
	.st135{fill:#FFC86E;}
	.st136{fill:#A55937;}
	.st137{fill:#D8422E;}
	.st138{fill:#C3556D;}
	.st139{fill:#B24965;}
	.st140{fill:#D1A962;}
	.st141{fill:#A3961A;}
	.st142{fill:#AFA51D;}
	.st143{fill:#968A1C;}
</style>
<g>
	<g>
		<g>
			<g>
				<g>
					<path class="st37" d="M119.2,78.8c0,2.2-1.8,4-4,4c0,0,0,0,0,0H84.8c-1.9,0-3.5-1.3-3.9-3.1c-3.2-14.2-8.5-28-8.5-28.2
						c-0.5-1.2-0.3-2.6,0.4-3.7c0.7-1.1,2-1.7,3.3-1.7h29.3c1.7,0,3.2,1.1,3.8,2.7l9.6,28.4C119,77.7,119.2,78.2,119.2,78.8z"/>
				</g>
			</g>
		</g>
	</g>
	<g>
		<g>
			<g>
				<g>
					<path class="st37" d="M181.2,66.4c-1.4,4.7-2.6,9.2-3.5,13.2c-0.4,1.8-2,3.1-3.9,3.1h-45.9c-1.7,0-3.2-1.1-3.8-2.7L114,51.4
						c-0.4-1.2-0.2-2.6,0.5-3.6s2-1.7,3.3-1.7H156c0.9,0,1.9,0.3,2.6,0.9c6.6,5.6,13.9,10.7,20.9,14.8
						C181,62.8,181.8,64.7,181.2,66.4z"/>
				</g>
			</g>
		</g>
	</g>
	<g>
		<g>
			<g>
				<g>
					<path class="st16" d="M107.2,12.3l-8.7,9.3c-0.8,0.8-1.8,1.3-2.9,1.3c-0.1,0-0.2,0-0.3,0l-51.1-4.5c-1.1-0.1-2.1-0.6-2.8-1.5
						c-0.7-0.9-1-2-0.8-3.1l1.5-10.3c0.3-2.1,2.2-3.6,4.3-3.4l58.3,5.6c1.5,0.1,2.8,1.1,3.4,2.6C108.6,9.6,108.3,11.2,107.2,12.3z"
						/>
				</g>
			</g>
		</g>
	</g>
	<g>
		<g>
			<g>
				<g>
					<path class="st16" d="M131.9,78.8c0,2.2-1.8,4-4,4c0,0,0,0,0,0h-12.8c-1.7,0-3.2-1.1-3.8-2.7l-9.7-28.7l-6.1-18
						c-0.4-1.2-0.2-2.6,0.5-3.6l8.1-11.4c0.9-1.2,2.3-1.8,3.8-1.6c1.5,0.2,2.7,1.2,3.2,2.6l10.3,29.2c0,0,0,0.1,0,0.1l10,28.4
						C131.8,77.6,131.9,78.2,131.9,78.8z"/>
				</g>
			</g>
		</g>
	</g>
	<g>
		<g>
			<g>
				<g>
					<path class="st39" d="M110.7,23.1l-8.1,11.3c-0.8,1.1-2,1.7-3.3,1.7c-0.2,0-0.5,0-0.7-0.1c-1.5-0.3-2.8-1.4-3.2-2.9l-3.7-13.3
						c-0.4-1.3,0-2.8,0.9-3.8l8.7-9.3c1-1.1,2.5-1.5,3.9-1.2c1.4,0.4,2.5,1.4,2.9,2.8l3.1,11.2C111.6,20.9,111.4,22.1,110.7,23.1z"
						/>
				</g>
			</g>
		</g>
	</g>
	<g>
		<g>
			<g>
				<g>
					<path class="st37" d="M175.5,252c0,2.2-1.8,4-4,4H87.1c-2.2,0-4-1.8-4-4s1.8-4,4-4h38.2v-39.6c0-2.2,1.8-4,4-4c2.2,0,4,1.8,4,4
						V248h38.2C173.7,248,175.5,249.8,175.5,252z"/>
				</g>
			</g>
		</g>
	</g>
	<g>
		<g>
			<g>
				<g>
					<path class="st21" d="M188.4,153.7c0,29.2-20.3,58.7-59.1,58.7c-38.8,0-59.1-29.5-59.1-58.7c0-13.9,4-24.7,7.5-34.2
						c3-8,5.5-14.9,5.5-22.4c0-4.6-0.8-10.4-2.4-17.3c-0.3-1.2,0-2.4,0.8-3.4c0.8-0.9,1.9-1.5,3.1-1.5h89c1.2,0,2.4,0.6,3.1,1.5
						c0.8,1,1.1,2.2,0.8,3.4c-1.6,6.9-2.4,12.8-2.4,17.3c0,7.6,2.6,14.5,5.5,22.4C184.4,129,188.4,139.8,188.4,153.7z"/>
				</g>
			</g>
		</g>
	</g>
	<g>
		<g>
			<g>
				<g>
					<path class="st40" d="M214.6,73.7c-1.7,2.3-5.1,5-11.4,5c-9,0-20.1-5.4-27.8-9.9c-7.4-4.3-15-9.7-22-15.6
						c-8.1-6.9-33.8-30.4-23.3-44.1c1-1.3,2.7-1.9,4.2-1.4l52.2,14.3c1,0.3,1.9,1,2.4,1.9l26,45.6C215.7,70.7,215.6,72.4,214.6,73.7
						z"/>
				</g>
			</g>
		</g>
	</g>
</g>
</svg>
