<?xml version="1.0" encoding="utf-8"?>
<!-- Generator: Adobe Illustrator 22.1.0, SVG Export Plug-In . SVG Version: 6.00 Build 0)  -->
<svg version="1.1" id="Layer_1" xmlns="http://www.w3.org/2000/svg" xmlns:xlink="http://www.w3.org/1999/xlink" x="0px" y="0px"
	 viewBox="0 0 256 256" style="enable-background:new 0 0 256 256;" xml:space="preserve">
<style type="text/css">
	.st0{fill:#F6D67A;}
	.st1{fill:#E77CAE;}
	.st2{fill:#AC6535;}
	.st3{fill:#EB573B;}
	.st4{fill:#464646;}
	.st5{fill:#F5B31F;}
	.st6{fill:#9B592D;}
	.st7{fill:#9B5B2F;}
	.st8{fill:#E8A41A;}
	.st9{fill:#6D6E71;}
	.st10{fill:#E5A21C;}
	.st11{fill:#C66395;}
	.st12{fill:#E09F1E;}
	.st13{fill:#FFFFFF;}
	.st14{fill:#DDB95E;}
	.st15{fill:#EAC771;}
	.st16{fill:#F9F6CD;}
	.st17{fill:#009345;}
	.st18{fill:#008438;}
	.st19{fill:#EAA51B;}
	.st20{opacity:0.1;}
	.st21{fill:#FFD11D;}
	.st22{fill:#FFE37B;}
	.st23{fill:#FFA755;}
	.st24{fill:#FFEC97;}
	.st25{fill:#BC7532;}
	.st26{fill:#EFEFEF;}
	.st27{fill:#60ACF7;}
	.st28{fill:#876C6C;}
	.st29{fill:#1DDCFF;}
	.st30{fill:#BDF3FF;}
	.st31{fill:#EFCA70;}
	.st32{fill:#EFA91D;}
	.st33{fill:#8FAE3C;}
	.st34{fill:#92A5AC;}
	.st35{fill:#E8E3BA;}
	.st36{fill:#F79932;}
	.st37{fill:#F4F4F4;}
	.st38{fill:#FFDF8F;}
	.st39{fill:#EAE5B9;}
	.st40{fill:#7E9E6A;}
	.st41{fill:#94B57F;}
	.st42{fill:#9B5D8C;}
	.st43{fill:#96557A;}
	.st44{fill:#C3755A;}
	.st45{fill:#9BD7DD;}
	.st46{fill:#90CAD3;}
	.st47{fill:#F7F7F7;}
	.st48{fill:#AFE6EF;}
	.st49{fill:#FFFAEB;}
	.st50{fill:#F4EFC3;}
	.st51{fill:#F9F9F9;}
	.st52{fill:#FFE5C4;}
	.st53{fill:#FFB024;}
	.st54{fill:#FFC612;}
	.st55{fill:#FFCE31;}
	.st56{fill:#A05C2D;}
	.st57{fill:#1DCAF2;}
	.st58{fill:#00B0E0;}
	.st59{fill:#F2A355;}
	.st60{fill:#D68032;}
	.st61{fill:#66625D;}
	.st62{fill:#54504D;}
	.st63{fill:#B76955;}
	.st64{fill:#EFE8B4;}
	.st65{fill:#B93226;}
	.st66{fill:#EFEABF;}
	.st67{fill:#90C056;}
	.st68{opacity:0.15;}
	.st69{fill:#E8C56D;}
	.st70{fill:#F7BE4B;}
	.st71{fill:#E0A338;}
	.st72{fill:#F68455;}
	.st73{fill:#E26F47;}
	.st74{fill:#EC754B;}
	.st75{fill:#4AA5BA;}
	.st76{opacity:0.5;}
	.st77{fill:#A0B1B5;}
	.st78{opacity:0.7;}
	.st79{fill:#00ADEE;}
	.st80{fill:#F4D4B3;}
	.st81{fill:#F9D97A;}
	.st82{fill:#EDC96E;}
	.st83{fill:none;}
	.st84{fill:#AF6535;}
	.st85{fill:#F18BB4;}
	.st86{fill:#B3E4FF;}
	.st87{fill:#97DFFF;}
	.st88{fill:#D06E3C;}
	.st89{fill:#B55931;}
	.st90{fill:#DA4F4B;}
	.st91{fill:#EFCAA8;}
	.st92{fill:#EA7CB1;}
	.st93{fill:#EA7DAE;}
	.st94{fill:#BC7646;}
	.st95{fill:#00A1C6;}
	.st96{fill:#FCC230;}
	.st97{fill:#F2EBB1;}
	.st98{fill:#F9D6AF;}
	.st99{fill:#D34735;}
	.st100{fill:#E5A21A;}
	.st101{fill:#849E33;}
	.st102{fill:#EFBB14;}
	.st103{fill:#D8402B;}
	.st104{fill:#829B34;}
	.st105{fill:#F88916;}
	.st106{fill:#E27513;}
	.st107{fill:#FFB41F;}
	.st108{fill:#8AA538;}
	.st109{fill:#BE6BB2;}
	.st110{fill:#AA5BA3;}
	.st111{fill:#FFDF66;}
	.st112{fill:#F4BA00;}
	.st113{fill:#E28529;}
	.st114{fill:#FF9945;}
	.st115{fill:#BA6C45;}
	.st116{fill:#EDBA15;}
	.st117{fill:#E0452F;}
	.st118{fill:#F7F2D5;}
	.st119{fill:#4C4E51;}
	.st120{fill:#EA615D;}
	.st121{fill:#DD4A36;}
	.st122{fill:#F6AF72;}
	.st123{fill:#E8955D;}
	.st124{fill:#E4C074;}
	.st125{fill:#EAE4C3;}
	.st126{fill:#BF3522;}
	.st127{fill:#D13E33;}
	.st128{fill:#AA5EA3;}
	.st129{fill:#DD443C;}
	.st130{fill:#AA5FA3;}
	.st131{fill:#B7C536;}
	.st132{fill:#F2872F;}
	.st133{fill:#AF5FA7;}
	.st134{fill:#E29F17;}
	.st135{fill:#FFC86E;}
	.st136{fill:#A55937;}
	.st137{fill:#D8422E;}
	.st138{fill:#C3556D;}
	.st139{fill:#B24965;}
	.st140{fill:#D1A962;}
	.st141{fill:#A3961A;}
	.st142{fill:#AFA51D;}
	.st143{fill:#968A1C;}
</style>
<g>
	<g class="st68">
		<g>
			<g>
				<g>
					<path class="st4" d="M161,120.7c-0.6-0.3-1.2-0.6-1.8-0.9L161,120.7z"/>
				</g>
			</g>
		</g>
	</g>
	<g>
		<g>
			<g>
				<g>
					<path class="st81" d="M167.7,122.7l-38.2,130.4c-0.5,1.7-2.1,2.9-3.8,2.9h-0.1c-1.8,0-3.4-1.3-3.8-3L88.3,122.6
						c-0.3-1.1-0.1-2.2,0.5-3.1c0.6-0.9,1.5-1.6,2.5-1.8c1.7-0.4,3.4-1.1,4.8-2.1c0.9-0.6,1.6-1.3,2.3-2c0.8-0.8,1.8-1.3,2.9-1.3h0
						c1.1,0,2.2,0.5,2.9,1.3c0.4,0.4,0.8,0.8,1.3,1.2c2.6,2.2,5.7,3.3,9.1,3.3c4,0,7.7-1.6,10.4-4.5c0.8-0.8,1.8-1.3,2.9-1.3
						c0,0,0,0,0,0c1.1,0,2.2,0.5,2.9,1.3c2.7,2.9,6.4,4.5,10.4,4.5c3.3,0,6.5-1.2,9.1-3.3c0.5-0.4,0.9-0.8,1.3-1.2
						c0.8-0.8,1.8-1.3,2.9-1.3c1.1,0,2.2,0.5,2.9,1.3c0.8,0.8,1.6,1.5,2.5,2.1c1.4,1,3,1.6,4.7,2c1.1,0.2,2,0.9,2.6,1.9
						C167.8,120.6,168,121.7,167.7,122.7z"/>
				</g>
			</g>
		</g>
	</g>
	<g>
		<g>
			<g>
				<g>
					<path class="st84" d="M186.1,103.9c0,10-8.1,18.2-18.2,18.2c-1.4,0-2.8-0.2-4.1-0.5c-2.2-0.5-4.2-1.4-6-2.6
						c-1.2-0.8-2.3-1.7-3.2-2.8c-0.5,0.6-1.1,1.1-1.7,1.6c-3.1,2.6-7.2,4.2-11.6,4.2c-5.3,0-10-2.2-13.3-5.8
						c-3.3,3.6-8.1,5.8-13.3,5.8c-4.4,0-8.5-1.6-11.6-4.2c-0.6-0.5-1.1-1-1.7-1.6c-0.9,1-1.9,1.8-3,2.6c-1.8,1.3-3.9,2.2-6.2,2.8
						c-1.3,0.3-2.7,0.5-4.1,0.5c-10,0-18.1-8.1-18.1-18.2c0-7.7,4.7-14.2,11.5-16.9c-5-8.3-7.9-18-7.9-28.3C73.5,28.5,97.9,4,128,4
						s54.5,24.5,54.5,54.6c0,10.4-2.9,20.1-7.9,28.3C181.3,89.6,186.1,96.2,186.1,103.9z"/>
				</g>
			</g>
		</g>
	</g>
	<g>
		<g>
			<g>
				<g>
					<path class="st84" d="M190.1,103.9c0,12.2-9.9,22.2-22.2,22.2c-1.7,0-3.3-0.2-5-0.6c-2.6-0.6-5.1-1.7-7.3-3.2
						c-0.3-0.2-0.7-0.5-1-0.7c-3.8,2.9-8.5,4.4-13.3,4.4c-4.8,0-9.5-1.6-13.3-4.4c-3.8,2.9-8.5,4.4-13.3,4.4
						c-4.8,0-9.5-1.6-13.3-4.4c-0.2,0.2-0.5,0.4-0.7,0.5c-2.3,1.6-4.8,2.7-7.6,3.4c-1.6,0.4-3.3,0.6-5,0.6
						c-12.2,0-22.2-9.9-22.2-22.2c0-7.6,3.8-14.5,10-18.6c-4.2-8.2-6.4-17.4-6.4-26.7C69.5,26.3,95.7,0,128,0
						c32.3,0,58.5,26.3,58.5,58.6c0,9.3-2.2,18.5-6.4,26.7C186.3,89.4,190.1,96.3,190.1,103.9z"/>
				</g>
			</g>
		</g>
	</g>
</g>
</svg>
