<?xml version="1.0" encoding="utf-8"?>
<!-- Generator: Adobe Illustrator 22.1.0, SVG Export Plug-In . SVG Version: 6.00 Build 0)  -->
<svg version="1.1" id="Layer_1" xmlns="http://www.w3.org/2000/svg" xmlns:xlink="http://www.w3.org/1999/xlink" x="0px" y="0px"
	 viewBox="0 0 256 256" style="enable-background:new 0 0 256 256;" xml:space="preserve">
<style type="text/css">
	.st0{fill:#F6D67A;}
	.st1{fill:#E77CAE;}
	.st2{fill:#AC6535;}
	.st3{fill:#EB573B;}
	.st4{fill:#464646;}
	.st5{fill:#F5B31F;}
	.st6{fill:#9B592D;}
	.st7{fill:#9B5B2F;}
	.st8{fill:#E8A41A;}
	.st9{fill:#6D6E71;}
	.st10{fill:#E5A21C;}
	.st11{fill:#C66395;}
	.st12{fill:#E09F1E;}
	.st13{fill:#FFFFFF;}
	.st14{fill:#DDB95E;}
	.st15{fill:#EAC771;}
	.st16{fill:#F9F6CD;}
	.st17{fill:#009345;}
	.st18{fill:#008438;}
	.st19{fill:#EAA51B;}
	.st20{opacity:0.1;}
	.st21{fill:#FFD11D;}
	.st22{fill:#FFE37B;}
	.st23{fill:#FFA755;}
	.st24{fill:#FFEC97;}
	.st25{fill:#BC7532;}
	.st26{fill:#EFEFEF;}
	.st27{fill:#60ACF7;}
	.st28{fill:#876C6C;}
	.st29{fill:#1DDCFF;}
	.st30{fill:#BDF3FF;}
	.st31{fill:#EFCA70;}
	.st32{fill:#EFA91D;}
	.st33{fill:#8FAE3C;}
	.st34{fill:#92A5AC;}
	.st35{fill:#E8E3BA;}
	.st36{fill:#F79932;}
	.st37{fill:#F4F4F4;}
	.st38{fill:#FFDF8F;}
	.st39{fill:#EAE5B9;}
	.st40{fill:#7E9E6A;}
	.st41{fill:#94B57F;}
	.st42{fill:#9B5D8C;}
	.st43{fill:#96557A;}
	.st44{fill:#C3755A;}
	.st45{fill:#9BD7DD;}
	.st46{fill:#90CAD3;}
	.st47{fill:#F7F7F7;}
	.st48{fill:#AFE6EF;}
	.st49{fill:#FFFAEB;}
	.st50{fill:#F4EFC3;}
	.st51{fill:#F9F9F9;}
	.st52{fill:#FFE5C4;}
	.st53{fill:#FFB024;}
	.st54{fill:#FFC612;}
	.st55{fill:#FFCE31;}
	.st56{fill:#A05C2D;}
	.st57{fill:#1DCAF2;}
	.st58{fill:#00B0E0;}
	.st59{fill:#F2A355;}
	.st60{fill:#D68032;}
	.st61{fill:#66625D;}
	.st62{fill:#54504D;}
	.st63{fill:#B76955;}
	.st64{fill:#EFE8B4;}
	.st65{fill:#B93226;}
	.st66{fill:#EFEABF;}
	.st67{fill:#90C056;}
	.st68{opacity:0.15;}
	.st69{fill:#E8C56D;}
	.st70{fill:#F7BE4B;}
	.st71{fill:#E0A338;}
	.st72{fill:#F68455;}
	.st73{fill:#E26F47;}
	.st74{fill:#EC754B;}
	.st75{fill:#4AA5BA;}
	.st76{opacity:0.5;}
	.st77{fill:#A0B1B5;}
	.st78{opacity:0.7;}
	.st79{fill:#00ADEE;}
	.st80{fill:#F4D4B3;}
	.st81{fill:#F9D97A;}
	.st82{fill:#EDC96E;}
	.st83{fill:none;}
	.st84{fill:#AF6535;}
	.st85{fill:#F18BB4;}
	.st86{fill:#B3E4FF;}
	.st87{fill:#97DFFF;}
	.st88{fill:#D06E3C;}
	.st89{fill:#B55931;}
	.st90{fill:#DA4F4B;}
	.st91{fill:#EFCAA8;}
	.st92{fill:#EA7CB1;}
	.st93{fill:#EA7DAE;}
	.st94{fill:#BC7646;}
	.st95{fill:#00A1C6;}
	.st96{fill:#FCC230;}
	.st97{fill:#F2EBB1;}
	.st98{fill:#F9D6AF;}
	.st99{fill:#D34735;}
	.st100{fill:#E5A21A;}
	.st101{fill:#849E33;}
	.st102{fill:#EFBB14;}
	.st103{fill:#D8402B;}
	.st104{fill:#829B34;}
	.st105{fill:#F88916;}
	.st106{fill:#E27513;}
	.st107{fill:#FFB41F;}
	.st108{fill:#8AA538;}
	.st109{fill:#BE6BB2;}
	.st110{fill:#AA5BA3;}
	.st111{fill:#FFDF66;}
	.st112{fill:#F4BA00;}
	.st113{fill:#E28529;}
	.st114{fill:#FF9945;}
	.st115{fill:#BA6C45;}
	.st116{fill:#EDBA15;}
	.st117{fill:#E0452F;}
	.st118{fill:#F7F2D5;}
	.st119{fill:#4C4E51;}
	.st120{fill:#EA615D;}
	.st121{fill:#DD4A36;}
	.st122{fill:#F6AF72;}
	.st123{fill:#E8955D;}
	.st124{fill:#E4C074;}
	.st125{fill:#EAE4C3;}
	.st126{fill:#BF3522;}
	.st127{fill:#D13E33;}
	.st128{fill:#AA5EA3;}
	.st129{fill:#DD443C;}
	.st130{fill:#AA5FA3;}
	.st131{fill:#B7C536;}
	.st132{fill:#F2872F;}
	.st133{fill:#AF5FA7;}
	.st134{fill:#E29F17;}
	.st135{fill:#FFC86E;}
	.st136{fill:#A55937;}
	.st137{fill:#D8422E;}
	.st138{fill:#C3556D;}
	.st139{fill:#B24965;}
	.st140{fill:#D1A962;}
	.st141{fill:#A3961A;}
	.st142{fill:#AFA51D;}
	.st143{fill:#968A1C;}
</style>
<g>
	<g>
		<g>
			<g>
				<g>
					<path class="st5" d="M243.8,43.3c-0.1,0.5-0.3,0.9-0.4,1.4c-0.2,0.6-0.4,1.5-5.9,13c-0.9,1.9-3.1,2.8-5.1,2
						c-36.1-14.2-72-21.3-106.6-21.3c-34.6,0-69,7.2-102.2,21.3c-0.5,0.2-1,0.3-1.6,0.3c-1.5,0-2.9-0.8-3.6-2.3
						c-5.5-11.5-5.8-12.4-5.9-13c-0.1-0.5-0.3-1-0.4-1.4c-1.4-5-3.5-12.6,4.6-16.9c0.1,0,0.1-0.1,0.2-0.1C53.3,8.9,90.7,0.1,128,0
						c37.3,0.1,74.7,8.9,111.1,26.3c0.1,0,0.1,0.1,0.2,0.1C247.3,30.8,245.2,38.3,243.8,43.3z"/>
				</g>
			</g>
		</g>
	</g>
	<g>
		<g>
			<g>
				<g>
					<g>
						<path class="st0" d="M237.5,57.7c-10,20.7-31.7,64.1-49.4,99.7c-0.5,1-1.4,1.8-2.5,2.1c-1.1,0.3-2.3,0.1-3.2-0.5
							c-4.5-2.9-9.8-4.4-15.2-4.4c-15.7,0-28.4,12.8-28.4,28.5c0,11.7,7.4,22.4,18.3,26.6c1,0.4,1.9,1.2,2.3,2.3
							c0.4,1.1,0.4,2.2-0.2,3.2c-13.3,26.4-16.4,32.8-16.7,33.4C138.9,256,131,256,128,256c-3,0-10.9,0-14.4-7.4
							c-0.4-0.9-5.2-10.5-11.9-23.8c-6.2-12.4-14.4-28.8-23.3-46.5c-0.5-1-0.6-2.1-0.2-3.1c0.4-1,1.1-1.9,2.1-2.3
							c10.2-4.6,16.7-14.8,16.7-26c0-15.7-12.8-28.5-28.4-28.5c-4.8,0-9.6,1.2-13.7,3.5c-1,0.5-2.1,0.6-3.1,0.3
							c-1-0.3-1.9-1.1-2.4-2C33.7,88.7,24.2,69.4,18.5,57.7c-0.5-1-0.5-2.1-0.1-3.1c0.4-1,1.2-1.8,2.2-2.3
							c34.2-14.6,69.6-21.9,105.3-21.9c35.6,0,72.5,7.4,109.5,21.9c1,0.4,1.9,1.2,2.3,2.3C238,55.6,238,56.7,237.5,57.7z"/>
					</g>
				</g>
			</g>
		</g>
	</g>
	<g>
		<g>
			<g>
				<g>
					<ellipse class="st2" cx="141.7" cy="90.1" rx="32.4" ry="32.5"/>
				</g>
			</g>
		</g>
	</g>
	<g>
		<g>
			<g>
				<g>
					<path class="st2" d="M104.9,147c0,14.3-8.4,27.3-21.4,33.2c-0.5,0.2-1.1,0.4-1.6,0.4c-1.5,0-2.9-0.8-3.6-2.2
						c-9.4-18.7-19.6-39.1-29-58c-1-1.9-0.2-4.2,1.6-5.3c5.3-3,11.4-4.5,17.6-4.5C88.6,110.5,104.9,126.9,104.9,147z"/>
				</g>
			</g>
		</g>
	</g>
	<g>
		<g>
			<g>
				<g>
					<path class="st2" d="M188.1,157.4c-7.7,15.3-15.2,30.3-21.8,43.6l-7.1,14.2c-0.7,1.4-2.1,2.2-3.6,2.2c-0.5,0-1-0.1-1.4-0.3
						c-14-5.4-23.4-19.1-23.4-34.1c0-20.1,16.4-36.5,36.4-36.5c6.9,0,13.7,2,19.5,5.7C188.4,153.3,189,155.5,188.1,157.4z"/>
				</g>
			</g>
		</g>
	</g>
</g>
</svg>
