<?xml version="1.0" encoding="utf-8"?>
<!-- Generator: Adobe Illustrator 22.1.0, SVG Export Plug-In . SVG Version: 6.00 Build 0)  -->
<svg version="1.1" id="Layer_1" xmlns="http://www.w3.org/2000/svg" xmlns:xlink="http://www.w3.org/1999/xlink" x="0px" y="0px"
	 viewBox="0 0 256 256" style="enable-background:new 0 0 256 256;" xml:space="preserve">
<style type="text/css">
	.st0{fill:#F6D67A;}
	.st1{fill:#E77CAE;}
	.st2{fill:#AC6535;}
	.st3{fill:#EB573B;}
	.st4{fill:#464646;}
	.st5{fill:#F5B31F;}
	.st6{fill:#9B592D;}
	.st7{fill:#9B5B2F;}
	.st8{fill:#E8A41A;}
	.st9{fill:#6D6E71;}
	.st10{fill:#E5A21C;}
	.st11{fill:#C66395;}
	.st12{fill:#E09F1E;}
	.st13{fill:#FFFFFF;}
	.st14{fill:#DDB95E;}
	.st15{fill:#EAC771;}
	.st16{fill:#F9F6CD;}
	.st17{fill:#009345;}
	.st18{fill:#008438;}
	.st19{fill:#EAA51B;}
	.st20{opacity:0.1;}
	.st21{fill:#FFD11D;}
	.st22{fill:#FFE37B;}
	.st23{fill:#FFA755;}
	.st24{fill:#FFEC97;}
	.st25{fill:#BC7532;}
	.st26{fill:#EFEFEF;}
	.st27{fill:#60ACF7;}
	.st28{fill:#876C6C;}
	.st29{fill:#1DDCFF;}
	.st30{fill:#BDF3FF;}
	.st31{fill:#EFCA70;}
	.st32{fill:#EFA91D;}
	.st33{fill:#8FAE3C;}
	.st34{fill:#92A5AC;}
	.st35{fill:#E8E3BA;}
	.st36{fill:#F79932;}
	.st37{fill:#F4F4F4;}
	.st38{fill:#FFDF8F;}
	.st39{fill:#EAE5B9;}
	.st40{fill:#7E9E6A;}
	.st41{fill:#94B57F;}
	.st42{fill:#9B5D8C;}
	.st43{fill:#96557A;}
	.st44{fill:#C3755A;}
	.st45{fill:#9BD7DD;}
	.st46{fill:#90CAD3;}
	.st47{fill:#F7F7F7;}
	.st48{fill:#AFE6EF;}
	.st49{fill:#FFFAEB;}
	.st50{fill:#F4EFC3;}
	.st51{fill:#F9F9F9;}
	.st52{fill:#FFE5C4;}
	.st53{fill:#FFB024;}
	.st54{fill:#FFC612;}
	.st55{fill:#FFCE31;}
	.st56{fill:#A05C2D;}
	.st57{fill:#1DCAF2;}
	.st58{fill:#00B0E0;}
	.st59{fill:#F2A355;}
	.st60{fill:#D68032;}
	.st61{fill:#66625D;}
	.st62{fill:#54504D;}
	.st63{fill:#B76955;}
	.st64{fill:#EFE8B4;}
	.st65{fill:#B93226;}
	.st66{fill:#EFEABF;}
	.st67{fill:#90C056;}
	.st68{opacity:0.15;}
	.st69{fill:#E8C56D;}
	.st70{fill:#F7BE4B;}
	.st71{fill:#E0A338;}
	.st72{fill:#F68455;}
	.st73{fill:#E26F47;}
	.st74{fill:#EC754B;}
	.st75{fill:#4AA5BA;}
	.st76{opacity:0.5;}
	.st77{fill:#A0B1B5;}
	.st78{opacity:0.7;}
	.st79{fill:#00ADEE;}
	.st80{fill:#F4D4B3;}
	.st81{fill:#F9D97A;}
	.st82{fill:#EDC96E;}
	.st83{fill:none;}
	.st84{fill:#AF6535;}
	.st85{fill:#F18BB4;}
	.st86{fill:#B3E4FF;}
	.st87{fill:#97DFFF;}
	.st88{fill:#D06E3C;}
	.st89{fill:#B55931;}
	.st90{fill:#DA4F4B;}
	.st91{fill:#EFCAA8;}
	.st92{fill:#EA7CB1;}
	.st93{fill:#EA7DAE;}
	.st94{fill:#BC7646;}
	.st95{fill:#00A1C6;}
	.st96{fill:#FCC230;}
	.st97{fill:#F2EBB1;}
	.st98{fill:#F9D6AF;}
	.st99{fill:#D34735;}
	.st100{fill:#E5A21A;}
	.st101{fill:#849E33;}
	.st102{fill:#EFBB14;}
	.st103{fill:#D8402B;}
	.st104{fill:#829B34;}
	.st105{fill:#F88916;}
	.st106{fill:#E27513;}
	.st107{fill:#FFB41F;}
	.st108{fill:#8AA538;}
	.st109{fill:#BE6BB2;}
	.st110{fill:#AA5BA3;}
	.st111{fill:#FFDF66;}
	.st112{fill:#F4BA00;}
	.st113{fill:#E28529;}
	.st114{fill:#FF9945;}
	.st115{fill:#BA6C45;}
	.st116{fill:#EDBA15;}
	.st117{fill:#E0452F;}
	.st118{fill:#F7F2D5;}
	.st119{fill:#4C4E51;}
	.st120{fill:#EA615D;}
	.st121{fill:#DD4A36;}
	.st122{fill:#F6AF72;}
	.st123{fill:#E8955D;}
	.st124{fill:#E4C074;}
	.st125{fill:#EAE4C3;}
	.st126{fill:#BF3522;}
	.st127{fill:#D13E33;}
	.st128{fill:#AA5EA3;}
	.st129{fill:#DD443C;}
	.st130{fill:#AA5FA3;}
	.st131{fill:#B7C536;}
	.st132{fill:#F2872F;}
	.st133{fill:#AF5FA7;}
	.st134{fill:#E29F17;}
	.st135{fill:#FFC86E;}
	.st136{fill:#A55937;}
	.st137{fill:#D8422E;}
	.st138{fill:#C3556D;}
	.st139{fill:#B24965;}
	.st140{fill:#D1A962;}
	.st141{fill:#A3961A;}
	.st142{fill:#AFA51D;}
	.st143{fill:#968A1C;}
</style>
<g>
	<g>
		<g>
			<g>
				<g>
					<path class="st5" d="M245.5,145c-2.5,26.4-18.6,38.1-33.4,38.1H41.4c-2.2,0-4-1.8-4-4c0-2.2,1.8-4,4-4c9.4,0,21.5-7,24.9-26.6
						c0.2-1.2,0.9-2.2,2-2.8c1.3-0.7,2.9-1.8,4.4-2.8c3.6-2.5,6.8-4.6,9.7-4.6c2.9,0,5.8,2,9.1,4.4c2,1.4,5.5,3.9,6.8,3.9
						c1,0,3.2-1.8,4.8-3c2.8-2.3,5.9-4.8,9.8-4.8c3.9,0,7,2.6,9.7,4.9c1.5,1.3,3.5,3,4.5,3c1,0,3.3-1.8,4.8-3.1
						c2.8-2.2,5.9-4.8,9.7-4.8c3.5,0,6.7,2.1,10.2,4.3c2.5,1.6,5.6,3.6,7.5,3.6c1.3,0,2.6-1.1,4.5-2.9c2.2-2,4.9-4.6,8.8-4.6
						c3.5,0,7.4,2.2,11.2,4.4c2,1.2,5.4,3.1,6.6,3.1c0.8-0.1,2.8-2,4-3.1c2.8-2.6,5.9-5.5,9.9-5.5c3.8,0,7.2,2.6,10.6,5.2
						c1.7,1.3,4.6,3.5,5.7,3.5c0.9,0,3.4-2.2,4.7-3.3c2.9-2.5,6.2-5.4,10.1-5.4c2.3,0,5,1.1,8.4,3.4
						C245,142.1,245.6,143.5,245.5,145z"/>
				</g>
			</g>
		</g>
	</g>
	<g>
		<g>
			<g>
				<g>
					<path class="st0" d="M74.2,149.9c-3.9,23-19.3,33.2-32.8,33.2c-14.8,0-30.9-11.7-33.4-37.9c-0.1-1.5,0.6-2.9,1.8-3.7
						c3.7-2.4,6.8-3.6,9.5-3.6c4.6,0,8,3.1,10.7,5.7c1.2,1.1,3.3,3,4.1,3c1.3,0,4.4-2.2,6.5-3.6c3.5-2.4,6.7-4.7,10.1-4.7
						c3.5,0,6.9,2.4,10.5,5c1.6,1.1,4.2,3,5.2,3.3c0.2,0,0.8-0.2,1.9-0.8c1.3-0.8,3-0.7,4.3,0.2S74.5,148.3,74.2,149.9z"/>
				</g>
			</g>
		</g>
	</g>
	<g>
		<g>
			<g>
				<g>
					<path class="st67" d="M256,124.1c0,0.3,0,0.6,0,0.9l-1.3,27.4c-0.1,1.6-1.1,3-2.5,3.5c-0.5,0.2-1,0.3-1.5,0.3
						c-1,0-2-0.4-2.8-1.1c0,0-4.4-4.3-8.6-7.2c-2.9-1.9-3.9-2-4-2c-0.9,0-3.4,2.2-4.8,3.4c-3,2.6-6.1,5.3-9.9,5.3
						c-3.7,0-7.2-2.6-10.5-5.1c-1.6-1.2-4.7-3.6-5.8-3.6c-0.9,0-3.2,2.2-4.4,3.4c-2.7,2.5-5.7,5.3-9.5,5.3c-3.3,0-6.8-2-10.5-4.1
						c-2.3-1.3-5.8-3.3-7.2-3.3c-0.8,0-2.1,1.3-3.3,2.4c-2.3,2.1-5.4,5-10,5c-4.2,0-8.2-2.6-11.8-4.8c-1.9-1.2-4.8-3-5.9-3
						c-1,0-3.2,1.8-4.7,3c-2.8,2.3-6,4.8-9.9,4.8c-3.9,0-7-2.6-9.7-4.9c-1.5-1.3-3.5-3-4.5-3c-1,0-3.2,1.8-4.8,3
						c-2.8,2.3-5.9,4.8-9.8,4.8c-3.9,0-7.8-2.7-11.5-5.4c-1.4-1-3.5-2.5-4.5-2.9c-1.1,0.4-3.6,2.1-5.2,3.2c-1.6,1.1-3.3,2.3-5,3.2
						c-2.3,1.3-4.1,1.9-5.8,1.9c-3.3,0-6.5-2.3-9.9-4.8c-1.8-1.3-4.7-3.4-5.8-3.5c-1,0.1-3.8,2.1-5.5,3.2c-3.6,2.5-7.3,5.1-11.1,5.1
						c-3.9,0-6.9-2.7-9.5-5.2c-1.8-1.6-3.8-3.5-5.3-3.5c-0.4,0-2,0.2-5.2,2.2c-3.5,2.3-6.5,5.2-6.5,5.3c-1.1,1.1-2.8,1.5-4.3,0.9
						s-2.5-2-2.5-3.6l-0.9-26c0-0.2,0-0.4,0-0.6c0-2.2,1.8-4,3.9-4H4c2.2,0,3.9,1.7,4,3.9l0,0.3c0.3,3.4,8,8.1,20,8.1
						c5.6,0,11-1.1,14.9-3.1c1.1-0.6,2.5-0.6,3.6,0c3.9,2,9.2,3.1,14.9,3.1s10.9-1.1,14.9-3.1c1.1-0.6,2.4-0.6,3.6,0
						c3.9,2,9.2,3.1,14.9,3.1c5.7,0,10.9-1.1,14.9-3.1c1.1-0.6,2.4-0.6,3.6,0c3.9,2,9.2,3.1,14.9,3.1c5.7,0,10.9-1.1,14.9-3.1
						c1.1-0.6,2.5-0.6,3.6,0c3.9,2,9.2,3.1,14.9,3.1s11-1.1,14.9-3.1c1.1-0.6,2.4-0.6,3.6,0c3.9,2,9.2,3.1,14.9,3.1
						c5.6,0,11-1.1,14.9-3.1c1.1-0.6,2.5-0.6,3.6,0c3.9,2,9.2,3.1,14.9,3.1c11.8,0,19.5-4.7,19.9-8l0-0.5c0.1-2.2,1.9-3.8,4.1-3.8
						C254.3,120.1,256,121.9,256,124.1z"/>
				</g>
			</g>
		</g>
	</g>
	<g>
		<g>
			<g>
				<g>
					<path class="st2" d="M256,124.1c0,9.3-12,16.3-28,16.3c-6.9,0-13.4-1.4-18.5-3.9c-1.3-0.7-2.2-2.1-2.2-3.6
						c0-1.5,0.9-2.9,2.2-3.6c3.1-1.6,5.1-3.6,5.1-5.3c0-1.3-1-2.4-1.9-3.2c-1.2-1.1-1.7-2.9-1.1-4.4c0.6-1.6,2.1-2.6,3.7-2.6h22.3
						c0-1.2,0.6-2.4,1.6-3.1c1.1-0.8,2.5-1,3.7-0.6C251.2,113.1,256,118.3,256,124.1z"/>
				</g>
			</g>
		</g>
	</g>
	<g>
		<g>
			<g>
				<g>
					<path class="st3" d="M222.7,124.1c0,5-3.4,9.4-9.5,12.4c-5,2.5-11.6,3.9-18.5,3.9c-6.9,0-13.4-1.4-18.5-3.9l-7.1-3.6l7.1-3.6
						c3.1-1.6,5.1-3.6,5.1-5.3c0-1.3-1-2.4-1.9-3.2l-8-7h45.5l1.1,1C221.1,117.5,222.7,120.7,222.7,124.1z"/>
				</g>
			</g>
		</g>
	</g>
	<g>
		<g>
			<g>
				<g>
					<path class="st2" d="M189.3,124.1c0,5-3.4,9.4-9.5,12.4c-5,2.5-11.6,3.9-18.5,3.9s-13.4-1.4-18.5-3.9c-1.4-0.7-2.2-2.1-2.2-3.6
						c0-1.5,0.9-2.9,2.2-3.6c3.1-1.6,5.1-3.6,5.1-5.3c0-1.3-1-2.4-1.9-3.2c-1.2-1.1-1.7-2.9-1.1-4.4c0.6-1.6,2.1-2.6,3.7-2.6h33.3
						c1,0,1.9,0.4,2.6,1C187.7,117.5,189.3,120.7,189.3,124.1z"/>
				</g>
			</g>
		</g>
	</g>
	<g>
		<g>
			<g>
				<g>
					<path class="st3" d="M156,124.1c0,4.9-3.5,9.4-9.5,12.4c-5,2.5-11.6,3.9-18.4,3.9c-6.9,0-13.4-1.4-18.5-3.9l-7.2-3.6l7.2-3.6
						c3.1-1.5,5.1-3.6,5.1-5.3c0-1.3-1-2.4-1.9-3.2l-7.9-7h45.4l1.1,1C154.4,117.5,156,120.7,156,124.1z"/>
				</g>
			</g>
		</g>
	</g>
	<g>
		<g>
			<g>
				<g>
					<path class="st2" d="M122.6,124.1c0,4.9-3.5,9.4-9.5,12.4c-5,2.5-11.6,3.9-18.4,3.9c-6.9,0-13.4-1.4-18.5-3.9
						c-1.4-0.7-2.2-2.1-2.2-3.6c0-1.5,0.9-2.9,2.2-3.6c3.1-1.6,5.1-3.6,5.1-5.3c0-1.3-1-2.4-1.9-3.2c-1.2-1.1-1.7-2.9-1.1-4.4
						c0.6-1.6,2.1-2.6,3.7-2.6h33.3c1,0,1.9,0.4,2.7,1C121,117.5,122.6,120.7,122.6,124.1z"/>
				</g>
			</g>
		</g>
	</g>
	<g>
		<g>
			<g>
				<g>
					<path class="st3" d="M89.3,124.1c0,4.9-3.5,9.4-9.5,12.4c-5,2.5-11.6,3.9-18.4,3.9s-13.4-1.4-18.5-3.9l-7.2-3.6l7.2-3.6
						c3.1-1.6,5.1-3.6,5.1-5.3c0-1.3-1-2.4-1.9-3.2l-7.9-7h45.4l1.1,1C87.7,117.5,89.3,120.7,89.3,124.1z"/>
				</g>
			</g>
		</g>
	</g>
	<g class="st68">
		<g>
			<g>
				<g>
					<path class="st4" d="M252,133c0,2.2-1.1,4.3-3.1,6.1L252,133z"/>
				</g>
			</g>
		</g>
	</g>
	<g class="st68">
		<g>
			<g>
				<g>
					<path class="st4" d="M4,133l1.8,4.7C4.7,136.3,4,134.7,4,133z"/>
				</g>
			</g>
		</g>
	</g>
	<g>
		<g>
			<g>
				<g>
					<path class="st2" d="M56,124.1c0,5-3.4,9.4-9.5,12.4c-5,2.5-11.6,3.9-18.5,3.9c-15.9,0-28-7-28-16.3c0-5.1,3.7-9.7,10.1-12.7
						c1.3-0.6,2.8-0.5,3.9,0.3c0.8,0.5,1.4,1.3,1.6,2.2h33.1c1,0,1.9,0.4,2.6,1C54.4,117.5,56,120.7,56,124.1z"/>
				</g>
			</g>
		</g>
	</g>
	<g>
		<g>
			<g>
				<g>
					<path class="st5" d="M241.8,117.9H71.2c0-1.8-0.1-3.5-0.2-5.1c-1.7-23.9-15.6-35.9-29.5-35.9h170.7c14.1,0,28.3,12.4,29.6,37
						C241.8,115.2,241.8,116.5,241.8,117.9z"/>
				</g>
			</g>
		</g>
	</g>
	<g>
		<g>
			<g>
				<g>
					<path class="st10" d="M241.8,121.9C241.8,121.9,241.8,121.9,241.8,121.9H71.2c-2.2,0-4-1.8-4-4c0-1.6-0.1-3.2-0.2-4.8
						c-1.6-22.2-14-32.2-25.6-32.2c-2.2,0-4-1.8-4-4s1.8-4,4-4h170.7c15.1,0,32.1,12.8,33.6,40.8c0.1,1.2,0.1,2.5,0.1,3.7
						c0,0.1,0,0.3,0,0.4C245.8,120.1,244,121.9,241.8,121.9z M75.1,113.9h162.6c-1.4-22.8-13.8-33-25.6-33H61.4
						c7.1,6.4,12.5,16.8,13.6,31.6C75,112.9,75,113.4,75.1,113.9z"/>
				</g>
			</g>
		</g>
	</g>
	<g>
		<g>
			<g>
				<g>
					<path class="st10" d="M116.8,103.7c-1.8,0-3.5-1.2-3.9-3.1c-2.4-10.1-11.7-16.6-28.3-19.8c-2.2-0.4-3.6-2.5-3.2-4.7
						c0.4-2.2,2.5-3.6,4.7-3.2c19.9,3.7,31.5,12.4,34.7,25.8c0.5,2.2-0.8,4.3-3,4.8C117.4,103.6,117.1,103.7,116.8,103.7z"/>
				</g>
			</g>
		</g>
	</g>
	<g>
		<g>
			<g>
				<g>
					<path class="st10" d="M163.1,103.7c-1.8,0-3.5-1.2-3.9-3.1c-2.4-10.1-11.7-16.6-28.3-19.8c-2.2-0.4-3.6-2.5-3.2-4.7
						c0.4-2.2,2.5-3.6,4.7-3.2c19.9,3.7,31.5,12.4,34.7,25.8c0.5,2.2-0.8,4.3-3,4.8C163.8,103.6,163.5,103.7,163.1,103.7z"/>
				</g>
			</g>
		</g>
	</g>
	<g>
		<g>
			<g>
				<g>
					<path class="st10" d="M206.1,103.7c-1.8,0-3.5-1.2-3.9-3.1c-2.4-10.1-11.7-16.6-28.3-19.8c-2.2-0.4-3.6-2.5-3.2-4.7
						c0.4-2.2,2.5-3.6,4.7-3.2c19.9,3.7,31.5,12.4,34.7,25.8c0.5,2.2-0.8,4.3-3,4.8C206.7,103.6,206.4,103.7,206.1,103.7z"/>
				</g>
			</g>
		</g>
	</g>
	<g>
		<g>
			<g>
				<g>
					<path class="st0" d="M75.2,117.9c0,2.2-1.8,4-4,4c0,0,0,0,0,0H11.7c-1.1,0-2.1-0.4-2.8-1.2s-1.2-1.8-1.2-2.8c0-1.1,0-2.1,0.1-3
						c0,0,0,0,0,0C8.9,86,26,72.9,41.4,72.9c14.8,0,31.6,12.4,33.5,39.6c0.1,1.6,0.2,3.3,0.2,5C75.2,117.6,75.2,117.7,75.2,117.9z"
						/>
				</g>
			</g>
		</g>
	</g>
</g>
</svg>
