<?xml version="1.0" encoding="utf-8"?>
<!-- Generator: Adobe Illustrator 22.1.0, SVG Export Plug-In . SVG Version: 6.00 Build 0)  -->
<svg version="1.1" id="Layer_1" xmlns="http://www.w3.org/2000/svg" xmlns:xlink="http://www.w3.org/1999/xlink" x="0px" y="0px"
	 viewBox="0 0 256 256" style="enable-background:new 0 0 256 256;" xml:space="preserve">
<style type="text/css">
	.st0{fill:#F6D67A;}
	.st1{fill:#E77CAE;}
	.st2{fill:#AC6535;}
	.st3{fill:#EB573B;}
	.st4{fill:#464646;}
	.st5{fill:#F5B31F;}
	.st6{fill:#9B592D;}
	.st7{fill:#9B5B2F;}
	.st8{fill:#E8A41A;}
	.st9{fill:#6D6E71;}
	.st10{fill:#E5A21C;}
	.st11{fill:#C66395;}
	.st12{fill:#E09F1E;}
	.st13{fill:#FFFFFF;}
	.st14{fill:#DDB95E;}
	.st15{fill:#EAC771;}
	.st16{fill:#F9F6CD;}
	.st17{fill:#009345;}
	.st18{fill:#008438;}
	.st19{fill:#EAA51B;}
	.st20{opacity:0.1;}
	.st21{fill:#FFD11D;}
	.st22{fill:#FFE37B;}
	.st23{fill:#FFA755;}
	.st24{fill:#FFEC97;}
	.st25{fill:#BC7532;}
	.st26{fill:#EFEFEF;}
	.st27{fill:#60ACF7;}
	.st28{fill:#876C6C;}
	.st29{fill:#1DDCFF;}
	.st30{fill:#BDF3FF;}
	.st31{fill:#EFCA70;}
	.st32{fill:#EFA91D;}
	.st33{fill:#8FAE3C;}
	.st34{fill:#92A5AC;}
	.st35{fill:#E8E3BA;}
	.st36{fill:#F79932;}
	.st37{fill:#F4F4F4;}
	.st38{fill:#FFDF8F;}
	.st39{fill:#EAE5B9;}
	.st40{fill:#7E9E6A;}
	.st41{fill:#94B57F;}
	.st42{fill:#9B5D8C;}
	.st43{fill:#96557A;}
	.st44{fill:#C3755A;}
	.st45{fill:#9BD7DD;}
	.st46{fill:#90CAD3;}
	.st47{fill:#F7F7F7;}
	.st48{fill:#AFE6EF;}
	.st49{fill:#FFFAEB;}
	.st50{fill:#F4EFC3;}
	.st51{fill:#F9F9F9;}
	.st52{fill:#FFE5C4;}
	.st53{fill:#FFB024;}
	.st54{fill:#FFC612;}
	.st55{fill:#FFCE31;}
	.st56{fill:#A05C2D;}
	.st57{fill:#1DCAF2;}
	.st58{fill:#00B0E0;}
	.st59{fill:#F2A355;}
	.st60{fill:#D68032;}
	.st61{fill:#66625D;}
	.st62{fill:#54504D;}
	.st63{fill:#B76955;}
	.st64{fill:#EFE8B4;}
	.st65{fill:#B93226;}
	.st66{fill:#EFEABF;}
	.st67{fill:#90C056;}
	.st68{opacity:0.15;}
	.st69{fill:#E8C56D;}
	.st70{fill:#F7BE4B;}
	.st71{fill:#E0A338;}
	.st72{fill:#F68455;}
	.st73{fill:#E26F47;}
	.st74{fill:#EC754B;}
	.st75{fill:#4AA5BA;}
	.st76{opacity:0.5;}
	.st77{fill:#A0B1B5;}
	.st78{opacity:0.7;}
	.st79{fill:#00ADEE;}
	.st80{fill:#F4D4B3;}
	.st81{fill:#F9D97A;}
	.st82{fill:#EDC96E;}
	.st83{fill:none;}
	.st84{fill:#AF6535;}
	.st85{fill:#F18BB4;}
	.st86{fill:#B3E4FF;}
	.st87{fill:#97DFFF;}
	.st88{fill:#D06E3C;}
	.st89{fill:#B55931;}
	.st90{fill:#DA4F4B;}
	.st91{fill:#EFCAA8;}
	.st92{fill:#EA7CB1;}
	.st93{fill:#EA7DAE;}
	.st94{fill:#BC7646;}
	.st95{fill:#00A1C6;}
	.st96{fill:#FCC230;}
	.st97{fill:#F2EBB1;}
	.st98{fill:#F9D6AF;}
	.st99{fill:#D34735;}
	.st100{fill:#E5A21A;}
	.st101{fill:#849E33;}
	.st102{fill:#EFBB14;}
	.st103{fill:#D8402B;}
	.st104{fill:#829B34;}
	.st105{fill:#F88916;}
	.st106{fill:#E27513;}
	.st107{fill:#FFB41F;}
	.st108{fill:#8AA538;}
	.st109{fill:#BE6BB2;}
	.st110{fill:#AA5BA3;}
	.st111{fill:#FFDF66;}
	.st112{fill:#F4BA00;}
	.st113{fill:#E28529;}
	.st114{fill:#FF9945;}
	.st115{fill:#BA6C45;}
	.st116{fill:#EDBA15;}
	.st117{fill:#E0452F;}
	.st118{fill:#F7F2D5;}
	.st119{fill:#4C4E51;}
	.st120{fill:#EA615D;}
	.st121{fill:#DD4A36;}
	.st122{fill:#F6AF72;}
	.st123{fill:#E8955D;}
	.st124{fill:#E4C074;}
	.st125{fill:#EAE4C3;}
	.st126{fill:#BF3522;}
	.st127{fill:#D13E33;}
	.st128{fill:#AA5EA3;}
	.st129{fill:#DD443C;}
	.st130{fill:#AA5FA3;}
	.st131{fill:#B7C536;}
	.st132{fill:#F2872F;}
	.st133{fill:#AF5FA7;}
	.st134{fill:#E29F17;}
	.st135{fill:#FFC86E;}
	.st136{fill:#A55937;}
	.st137{fill:#D8422E;}
	.st138{fill:#C3556D;}
	.st139{fill:#B24965;}
	.st140{fill:#D1A962;}
	.st141{fill:#A3961A;}
	.st142{fill:#AFA51D;}
	.st143{fill:#968A1C;}
</style>
<g>
	<g>
		<g>
			<g>
				<g>
					<path class="st52" d="M251.1,127c-11.8,30.5-42.8,50.9-76.9,50.9c-2.2,0-4.4-0.1-6.7-0.2c-3-0.2-5.9-0.3-8.6-0.3
						c-30.1,0-35.6,13.1-42.6,29.6c-5.5,13.1-11.7,27.9-31.8,35.6c-7.6,2.9-15.2,4.4-22.6,4.4c-15.4,0-29.4-6.2-40.5-18
						C6.2,212.9-1.5,187.7,0.2,159.9C3.6,105,22,70.4,65.8,36.4c23.1-17.9,49.5-27.3,76.2-27.3c31,0,61.5,12.9,88.2,37.5
						C254.3,68.6,262.1,98.7,251.1,127z"/>
				</g>
			</g>
		</g>
	</g>
	<g>
		<g>
			<g>
				<g>
					<path class="st90" d="M132.4,160.9c-4.2,4.3-8.3,7.4-12.2,10.5c-6.2,4.8-11.6,8.9-15.4,16.3c-1.3,2.5-2.1,5.8-3,9.3
						c-3.4,13.7-8.2,32.4-44.6,32.4c-0.4,0-0.7,0-1.1,0c-18.4-0.2-31.1-17.3-34.9-46.9c-4.4-34.1,3.9-75.8,21.7-80.6
						c1.2-0.3,2.5-0.5,4-0.5c11.5,0,32.5,9.7,48.4,18.8c7.8,4.5,33.5,19.9,38.3,31.4C135.8,156.4,133.8,159.5,132.4,160.9z"/>
				</g>
			</g>
		</g>
	</g>
	<g>
		<g>
			<g>
				<g>
					<path class="st52" d="M62.3,216.3c-4.4,0-8.9-0.6-13.1-1.3c-2.2-0.4-3.6-2.5-3.2-4.6c0.4-2.2,2.5-3.6,4.6-3.2
						c20.7,3.7,27.8-1.6,32-10.6c0.9-2,3.3-2.9,5.3-1.9c2,0.9,2.9,3.3,1.9,5.3C83.8,212.9,73.2,216.3,62.3,216.3z"/>
				</g>
			</g>
		</g>
	</g>
	<g>
		<g>
			<g>
				<g>
					<path class="st90" d="M56.5,83.8c-4.1-6.6,43.6-53.7,88-53.7c34.4,0,76.3,33.7,88.8,60.9c9.4,20.4-12.9,30.5-28.4,27.1
						c-15.5-3.4-47.9-6.3-70.1-3.8C112.6,116.8,61,90.9,56.5,83.8z"/>
				</g>
			</g>
		</g>
	</g>
	<g>
		<g>
			<g>
				<g>
					<path class="st90" d="M140,130.2c4.5-7.4,68.1-2,68.1,5.1c0,7.1-16.6,24.8-36.6,20.4C151.4,151.5,135.5,137.7,140,130.2z"/>
				</g>
			</g>
		</g>
	</g>
	<g>
		<g>
			<g>
				<g>
					<path class="st90" d="M212.1,135.4c0,9.4-16,25.1-34.3,25.1c-2.4,0-4.8-0.3-7.2-0.8c-15.7-3.4-30.4-12.8-34.3-21.9
						c-1.9-4.4-0.9-7.7,0.3-9.7c1.6-2.7,5.7-5.5,23.5-5.5c10.2,0,22.5,1,32.2,2.6C206.6,127.7,212.1,130.5,212.1,135.4z"/>
				</g>
			</g>
		</g>
	</g>
	<g>
		<g>
			<g>
				<g>
					<path class="st90" d="M236.5,110.8c-4.7,7.3-14.6,12-25.4,12c-2.4,0-4.8-0.2-7-0.7c-10.3-2.2-30.4-4.6-50.3-4.6
						c-6.9,0-13.1,0.3-18.5,0.9c-1.1,0.1-2.4,0.2-3.6,0.2c-24.5,0-73.1-24-78.5-32.5c-2.1-3.3,0.2-7.4,0.9-8.7
						c8.2-14.8,50.1-51.1,90.5-51.1c35.7,0,79,34,92.4,63.2C241.6,99.3,239.3,106.5,236.5,110.8z"/>
				</g>
			</g>
		</g>
	</g>
</g>
</svg>
