<?xml version="1.0" encoding="utf-8"?>
<!-- Generator: Adobe Illustrator 22.1.0, SVG Export Plug-In . SVG Version: 6.00 Build 0)  -->
<svg version="1.1" id="Layer_1" xmlns="http://www.w3.org/2000/svg" xmlns:xlink="http://www.w3.org/1999/xlink" x="0px" y="0px"
	 viewBox="0 0 256 256" style="enable-background:new 0 0 256 256;" xml:space="preserve">
<style type="text/css">
	.st0{fill:#F6D67A;}
	.st1{fill:#E77CAE;}
	.st2{fill:#AC6535;}
	.st3{fill:#EB573B;}
	.st4{fill:#464646;}
	.st5{fill:#F5B31F;}
	.st6{fill:#9B592D;}
	.st7{fill:#9B5B2F;}
	.st8{fill:#E8A41A;}
	.st9{fill:#6D6E71;}
	.st10{fill:#E5A21C;}
	.st11{fill:#C66395;}
	.st12{fill:#E09F1E;}
	.st13{fill:#FFFFFF;}
	.st14{fill:#DDB95E;}
	.st15{fill:#EAC771;}
	.st16{fill:#F9F6CD;}
	.st17{fill:#009345;}
	.st18{fill:#008438;}
	.st19{fill:#EAA51B;}
	.st20{opacity:0.1;}
	.st21{fill:#FFD11D;}
	.st22{fill:#FFE37B;}
	.st23{fill:#FFA755;}
	.st24{fill:#FFEC97;}
	.st25{fill:#BC7532;}
	.st26{fill:#EFEFEF;}
	.st27{fill:#60ACF7;}
	.st28{fill:#876C6C;}
	.st29{fill:#1DDCFF;}
	.st30{fill:#BDF3FF;}
	.st31{fill:#EFCA70;}
	.st32{fill:#EFA91D;}
	.st33{fill:#8FAE3C;}
	.st34{fill:#92A5AC;}
	.st35{fill:#E8E3BA;}
	.st36{fill:#F79932;}
	.st37{fill:#F4F4F4;}
	.st38{fill:#FFDF8F;}
	.st39{fill:#EAE5B9;}
	.st40{fill:#7E9E6A;}
	.st41{fill:#94B57F;}
	.st42{fill:#9B5D8C;}
	.st43{fill:#96557A;}
	.st44{fill:#C3755A;}
	.st45{fill:#9BD7DD;}
	.st46{fill:#90CAD3;}
	.st47{fill:#F7F7F7;}
	.st48{fill:#AFE6EF;}
	.st49{fill:#FFFAEB;}
	.st50{fill:#F4EFC3;}
	.st51{fill:#F9F9F9;}
	.st52{fill:#FFE5C4;}
	.st53{fill:#FFB024;}
	.st54{fill:#FFC612;}
	.st55{fill:#FFCE31;}
	.st56{fill:#A05C2D;}
	.st57{fill:#1DCAF2;}
	.st58{fill:#00B0E0;}
	.st59{fill:#F2A355;}
	.st60{fill:#D68032;}
	.st61{fill:#66625D;}
	.st62{fill:#54504D;}
	.st63{fill:#B76955;}
	.st64{fill:#EFE8B4;}
	.st65{fill:#B93226;}
	.st66{fill:#EFEABF;}
	.st67{fill:#90C056;}
	.st68{opacity:0.15;}
	.st69{fill:#E8C56D;}
	.st70{fill:#F7BE4B;}
	.st71{fill:#E0A338;}
	.st72{fill:#F68455;}
	.st73{fill:#E26F47;}
	.st74{fill:#EC754B;}
	.st75{fill:#4AA5BA;}
	.st76{opacity:0.5;}
	.st77{fill:#A0B1B5;}
	.st78{opacity:0.7;}
	.st79{fill:#00ADEE;}
	.st80{fill:#F4D4B3;}
	.st81{fill:#F9D97A;}
	.st82{fill:#EDC96E;}
	.st83{fill:none;}
	.st84{fill:#AF6535;}
	.st85{fill:#F18BB4;}
	.st86{fill:#B3E4FF;}
	.st87{fill:#97DFFF;}
	.st88{fill:#D06E3C;}
	.st89{fill:#B55931;}
	.st90{fill:#DA4F4B;}
	.st91{fill:#EFCAA8;}
	.st92{fill:#EA7CB1;}
	.st93{fill:#EA7DAE;}
	.st94{fill:#BC7646;}
	.st95{fill:#00A1C6;}
	.st96{fill:#FCC230;}
	.st97{fill:#F2EBB1;}
	.st98{fill:#F9D6AF;}
	.st99{fill:#D34735;}
	.st100{fill:#E5A21A;}
	.st101{fill:#849E33;}
	.st102{fill:#EFBB14;}
	.st103{fill:#D8402B;}
	.st104{fill:#829B34;}
	.st105{fill:#F88916;}
	.st106{fill:#E27513;}
	.st107{fill:#FFB41F;}
	.st108{fill:#8AA538;}
	.st109{fill:#BE6BB2;}
	.st110{fill:#AA5BA3;}
	.st111{fill:#FFDF66;}
	.st112{fill:#F4BA00;}
	.st113{fill:#E28529;}
	.st114{fill:#FF9945;}
	.st115{fill:#BA6C45;}
	.st116{fill:#EDBA15;}
	.st117{fill:#E0452F;}
	.st118{fill:#F7F2D5;}
	.st119{fill:#4C4E51;}
	.st120{fill:#EA615D;}
	.st121{fill:#DD4A36;}
	.st122{fill:#F6AF72;}
	.st123{fill:#E8955D;}
	.st124{fill:#E4C074;}
	.st125{fill:#EAE4C3;}
	.st126{fill:#BF3522;}
	.st127{fill:#D13E33;}
	.st128{fill:#AA5EA3;}
	.st129{fill:#DD443C;}
	.st130{fill:#AA5FA3;}
	.st131{fill:#B7C536;}
	.st132{fill:#F2872F;}
	.st133{fill:#AF5FA7;}
	.st134{fill:#E29F17;}
	.st135{fill:#FFC86E;}
	.st136{fill:#A55937;}
	.st137{fill:#D8422E;}
	.st138{fill:#C3556D;}
	.st139{fill:#B24965;}
	.st140{fill:#D1A962;}
	.st141{fill:#A3961A;}
	.st142{fill:#AFA51D;}
	.st143{fill:#968A1C;}
</style>
<g>
	<g>
		<g>
			<g>
				<g>
					<path class="st141" d="M252.4,135.1c-6.2,20.1-27.2,32.6-54.9,32.6c-5.7,0-11.5-0.5-17.3-1.6c-1.2-0.2-2.2-1-2.8-2
						c-0.6-1.1-0.6-2.3-0.2-3.4c7.9-19.6,1.9-33.7-6.9-50c-11.5-17.4-28.3-26.3-49.9-26.3c-7,0-14.5,1-22.3,2.9
						c-1.2,0.3-2.4,0-3.3-0.7c-1-0.7-1.6-1.8-1.6-3c-0.6-11.6,1.6-23.9,6.4-35.5c1.2-2.8,2.5-5.6,4-8.4c0.4-0.7,0.8-1.5,1.2-2.2
						c0,0,0.1-0.1,0.1-0.1c0.2-0.5,0.5-0.9,0.8-1.3c0.3-0.4,0.6-0.9,0.9-1.3c0.4-0.6,0.8-1.2,1.2-1.8c9.8-13.4,26.8-20.8,47.7-20.8
						c18.9,0,39.6,5.9,57,16.2c0.1,0,0.1,0.1,0.1,0.1C257.1,57.6,260.8,108.2,252.4,135.1z"/>
				</g>
			</g>
		</g>
	</g>
	<g>
		<g>
			<g>
				<g>
					<g>
						<path class="st142" d="M184.8,163.6c-6.3,15.7-19.7,33-41.9,54.5c-0.1,0.1-0.1,0.1-0.2,0.2c-20.8,17.2-41.1,26-60.2,26
							c-26.2,0-49.8-16.7-64.8-45.9c-9.5-18.4-10.9-36.8-4.3-54.5c5.9-16,18.5-30.9,36.3-43.2c14.3-9.8,30.9-17.4,46.8-21.3
							c8.4-2,16.5-3.1,24.2-3.1c24.2,0,43.8,10.4,56.7,30c0.1,0.1,0.1,0.2,0.2,0.3C186.9,124.3,194,140.7,184.8,163.6z"/>
					</g>
				</g>
			</g>
		</g>
	</g>
	<g>
		<g>
			<g>
				<g>
					<g>
						<path class="st104" d="M79.6,37.6c-0.5,0-1-0.1-1.4-0.3c-15.4-5.9-24.7-6.2-30.2-6.4c-3.8-0.1-6.9-0.2-8.7-2.9
							c-0.9-1.2-1-2.8-0.3-4.1c3.9-7.8,15.5-12.3,31.8-12.3c18.6,0,40,5.8,57.2,15.6c1,0.6,1.7,1.5,1.9,2.6s0,2.3-0.7,3.2
							c-0.2,0.3-0.5,0.7-0.7,1c-0.8,1.2-2.2,1.9-3.7,1.8c-3.6-0.3-8.2-0.5-13.5-0.5c-2.8,0-5.8,0-8.8,0.1c-0.4,0-0.7,0-1,0
							c0,0-0.1,0-0.1,0c-0.4,0-0.9,0-1.3,0c-0.5,0-0.9,0-1.4,0.1c-0.6,0-1.3,0.1-1.9,0.1c-0.4,0-0.7,0-1,0.1c-0.5,0-0.9,0.1-1.3,0.1
							c-0.4,0-0.8,0.1-1.1,0.1l-3.7,0.3c-1.9,0.2-3.8,0.4-5.8,0.7c-1.2,0.2-2.3,0.3-3.4,0.5C80,37.6,79.8,37.6,79.6,37.6z
							 M51.3,23.1c5.9,0.3,15.2,1.4,28.7,6.4c0.8-0.1,1.7-0.3,2.6-0.4c2.1-0.3,4.2-0.5,6.1-0.7l3.9-0.3c0.4,0,0.8-0.1,1.2-0.1
							c0.4,0,0.8-0.1,1.3-0.1c0.4,0,0.8-0.1,1.2-0.1c0.6,0,1.3-0.1,1.9-0.1c0.5,0,0.9,0,1.4-0.1c0.5,0,1,0,1.5,0c0.4,0,0.7,0,1.1,0
							c2.5-0.1,5-0.1,7.4-0.1c-12.7-4.9-26.5-7.7-38.9-7.7C62.5,19.7,55.7,20.9,51.3,23.1z"/>
					</g>
				</g>
			</g>
		</g>
	</g>
	<g>
		<g>
			<g>
				<g>
					<path class="st143" d="M79.3,216.8c-18.9,15-58.2-36.4-39.3-51.4C62.1,147.9,101.4,199.3,79.3,216.8z"/>
				</g>
			</g>
		</g>
	</g>
	<g>
		<g>
			<g>
				<g>
					<g>
						<path class="st33" d="M126.6,30.7c-0.3,0.4-0.6,0.8-0.8,1.2c-6.9-0.6-15.9-0.6-22.8-0.4c-0.3,0-0.7,0-1,0c-0.5,0-1,0-1.5,0
							c-0.5,0-0.9,0-1.4,0.1c-0.6,0-1.3,0.1-1.9,0.1c-0.4,0-0.7,0-1.1,0.1c-0.4,0-0.9,0.1-1.3,0.1C94.2,32,93.6,32,93,32l-1.6,0.1
							c-0.5,0.1-1.1,0.1-1.6,0.2c-2,0.2-4,0.4-6,0.7c-1.2,0.2-2.4,0.3-3.5,0.5c-25.1-9.5-35.1-5-37.1-7.8
							C50.4,11.4,93.2,11.8,126.6,30.7z"/>
					</g>
				</g>
			</g>
		</g>
	</g>
	<g>
		<g>
			<g>
				<g>
					<path class="st104" d="M5,84.9c-1,0-1.9-0.2-2.7-0.6c-1.3-0.6-2.2-2-2.3-3.4c-1-20.6,35.2-44.1,78.9-51.2
						c1.2-0.2,2.4-0.4,3.6-0.5c1.9-0.3,3.9-0.5,6.1-0.7l3.9-0.4c0.4,0,0.8-0.1,1.2-0.1c0.4,0,0.8-0.1,1.3-0.1c0.4,0,0.8-0.1,1.2-0.1
						c0.6,0,1.3-0.1,1.9-0.1c0.5,0,0.9,0,1.4-0.1c0.5,0,1,0,1.5,0c0.4,0,0.7,0,1.1,0c3.1-0.1,6.1-0.1,9-0.1c5.6,0,10.4,0.2,14.2,0.5
						c1.4,0.1,2.7,1,3.3,2.3c0.6,1.3,0.5,2.8-0.3,4c-0.1,0.2-0.3,0.4-0.4,0.7c-0.2,0.2-0.3,0.5-0.4,0.7c0,0.1-0.1,0.1-0.1,0.2
						c-0.2,0.4-0.5,0.9-0.7,1.3c-0.4,0.7-1,1.3-1.7,1.7c-2.3,1.2-5.5,3-8.1,5l-0.6,0.4c-0.1,0-0.1,0.1-0.2,0.1
						C103.4,53.7,83,65.5,57.6,68.7c-25.1,3.2-37.6,9.7-44.4,13.2C9.7,83.7,7.4,84.9,5,84.9z M111.2,35.4c-2.8,0-5.8,0-8.8,0.1
						c-0.3,0-0.7,0-1,0c0,0-0.1,0-0.1,0c-0.4,0-0.9,0-1.3,0c-0.5,0-0.9,0-1.4,0.1c-0.6,0-1.3,0.1-1.9,0.1c-0.4,0-0.7,0-1,0.1
						c-0.5,0-0.9,0.1-1.3,0.1c-0.4,0-0.8,0.1-1.2,0.1l-3.7,0.3c-2.1,0.2-4,0.4-5.8,0.7c-1.2,0.2-2.3,0.3-3.4,0.5
						C43.8,43.5,15.1,61.1,9.1,75c0.1-0.1,0.2-0.1,0.3-0.2c7.2-3.7,20.6-10.7,47.1-14c23.8-3,43-14.2,55-23.1c0,0,0.1-0.1,0.1-0.1
						l0.4-0.3c0.9-0.6,1.8-1.3,2.7-1.9C113.6,35.4,112.4,35.4,111.2,35.4z"/>
				</g>
			</g>
		</g>
	</g>
	<g>
		<g>
			<g>
				<g>
					<path class="st33" d="M125.1,31.9c-0.2,0.3-0.4,0.6-0.5,0.8c-0.2,0.3-0.4,0.6-0.5,0.9c0,0,0,0,0,0c-0.3,0.5-0.6,1-0.8,1.5
						c-2.7,1.4-6,3.3-8.7,5.3c-0.2,0.1-0.4,0.3-0.6,0.4h0c-11.2,8.3-31.5,20.6-56.8,23.8c-39.4,5-48.7,18-53,15.9
						c-0.8-18,34-40.3,75.6-47.1c1.2-0.2,2.3-0.4,3.5-0.5c2-0.3,4-0.5,6-0.7c0.5-0.1,1.1-0.1,1.6-0.2l1.6-0.1c0.6,0,1.1-0.1,1.7-0.1
						c0.4,0,0.9-0.1,1.3-0.1c0.4,0,0.7,0,1.1-0.1c0.6,0,1.3-0.1,1.9-0.1c0.5,0,0.9,0,1.4-0.1c0.5,0,1,0,1.5,0c0.3,0,0.7,0,1,0
						C109.2,31.3,118.2,31.3,125.1,31.9z"/>
				</g>
			</g>
		</g>
	</g>
</g>
</svg>
