<?xml version="1.0" encoding="utf-8"?>
<!-- Generator: Adobe Illustrator 22.1.0, SVG Export Plug-In . SVG Version: 6.00 Build 0)  -->
<svg version="1.1" id="Layer_1" xmlns="http://www.w3.org/2000/svg" xmlns:xlink="http://www.w3.org/1999/xlink" x="0px" y="0px"
	 viewBox="0 0 256 256" style="enable-background:new 0 0 256 256;" xml:space="preserve">
<style type="text/css">
	.st0{fill:#F6D67A;}
	.st1{fill:#E77CAE;}
	.st2{fill:#AC6535;}
	.st3{fill:#EB573B;}
	.st4{fill:#464646;}
	.st5{fill:#F5B31F;}
	.st6{fill:#9B592D;}
	.st7{fill:#9B5B2F;}
	.st8{fill:#E8A41A;}
	.st9{fill:#6D6E71;}
	.st10{fill:#E5A21C;}
	.st11{fill:#C66395;}
	.st12{fill:#E09F1E;}
	.st13{fill:#FFFFFF;}
	.st14{fill:#DDB95E;}
	.st15{fill:#EAC771;}
	.st16{fill:#F9F6CD;}
	.st17{fill:#009345;}
	.st18{fill:#008438;}
	.st19{fill:#EAA51B;}
	.st20{opacity:0.1;}
	.st21{fill:#FFD11D;}
	.st22{fill:#FFE37B;}
	.st23{fill:#FFA755;}
	.st24{fill:#FFEC97;}
	.st25{fill:#BC7532;}
	.st26{fill:#EFEFEF;}
	.st27{fill:#60ACF7;}
	.st28{fill:#876C6C;}
	.st29{fill:#1DDCFF;}
	.st30{fill:#BDF3FF;}
	.st31{fill:#EFCA70;}
	.st32{fill:#EFA91D;}
	.st33{fill:#8FAE3C;}
	.st34{fill:#92A5AC;}
	.st35{fill:#E8E3BA;}
	.st36{fill:#F79932;}
	.st37{fill:#F4F4F4;}
	.st38{fill:#FFDF8F;}
	.st39{fill:#EAE5B9;}
	.st40{fill:#7E9E6A;}
	.st41{fill:#94B57F;}
	.st42{fill:#9B5D8C;}
	.st43{fill:#96557A;}
	.st44{fill:#C3755A;}
	.st45{fill:#9BD7DD;}
	.st46{fill:#90CAD3;}
	.st47{fill:#F7F7F7;}
	.st48{fill:#AFE6EF;}
	.st49{fill:#FFFAEB;}
	.st50{fill:#F4EFC3;}
	.st51{fill:#F9F9F9;}
	.st52{fill:#FFE5C4;}
	.st53{fill:#FFB024;}
	.st54{fill:#FFC612;}
	.st55{fill:#FFCE31;}
	.st56{fill:#A05C2D;}
	.st57{fill:#1DCAF2;}
	.st58{fill:#00B0E0;}
	.st59{fill:#F2A355;}
	.st60{fill:#D68032;}
	.st61{fill:#66625D;}
	.st62{fill:#54504D;}
	.st63{fill:#B76955;}
	.st64{fill:#EFE8B4;}
	.st65{fill:#B93226;}
	.st66{fill:#EFEABF;}
	.st67{fill:#90C056;}
	.st68{opacity:0.15;}
	.st69{fill:#E8C56D;}
	.st70{fill:#F7BE4B;}
	.st71{fill:#E0A338;}
	.st72{fill:#F68455;}
	.st73{fill:#E26F47;}
	.st74{fill:#EC754B;}
	.st75{fill:#4AA5BA;}
	.st76{opacity:0.5;}
	.st77{fill:#A0B1B5;}
	.st78{opacity:0.7;}
	.st79{fill:#00ADEE;}
	.st80{fill:#F4D4B3;}
	.st81{fill:#F9D97A;}
	.st82{fill:#EDC96E;}
	.st83{fill:none;}
	.st84{fill:#AF6535;}
	.st85{fill:#F18BB4;}
	.st86{fill:#B3E4FF;}
	.st87{fill:#97DFFF;}
	.st88{fill:#D06E3C;}
	.st89{fill:#B55931;}
	.st90{fill:#DA4F4B;}
	.st91{fill:#EFCAA8;}
	.st92{fill:#EA7CB1;}
	.st93{fill:#EA7DAE;}
	.st94{fill:#BC7646;}
	.st95{fill:#00A1C6;}
	.st96{fill:#FCC230;}
	.st97{fill:#F2EBB1;}
	.st98{fill:#F9D6AF;}
	.st99{fill:#D34735;}
	.st100{fill:#E5A21A;}
	.st101{fill:#849E33;}
	.st102{fill:#EFBB14;}
	.st103{fill:#D8402B;}
	.st104{fill:#829B34;}
	.st105{fill:#F88916;}
	.st106{fill:#E27513;}
	.st107{fill:#FFB41F;}
	.st108{fill:#8AA538;}
	.st109{fill:#BE6BB2;}
	.st110{fill:#AA5BA3;}
	.st111{fill:#FFDF66;}
	.st112{fill:#F4BA00;}
	.st113{fill:#E28529;}
	.st114{fill:#FF9945;}
	.st115{fill:#BA6C45;}
	.st116{fill:#EDBA15;}
	.st117{fill:#E0452F;}
	.st118{fill:#F7F2D5;}
	.st119{fill:#4C4E51;}
	.st120{fill:#EA615D;}
	.st121{fill:#DD4A36;}
	.st122{fill:#F6AF72;}
	.st123{fill:#E8955D;}
	.st124{fill:#E4C074;}
	.st125{fill:#EAE4C3;}
	.st126{fill:#BF3522;}
	.st127{fill:#D13E33;}
	.st128{fill:#AA5EA3;}
	.st129{fill:#DD443C;}
	.st130{fill:#AA5FA3;}
	.st131{fill:#B7C536;}
	.st132{fill:#F2872F;}
	.st133{fill:#AF5FA7;}
	.st134{fill:#E29F17;}
	.st135{fill:#FFC86E;}
	.st136{fill:#A55937;}
	.st137{fill:#D8422E;}
	.st138{fill:#C3556D;}
	.st139{fill:#B24965;}
	.st140{fill:#D1A962;}
	.st141{fill:#A3961A;}
	.st142{fill:#AFA51D;}
	.st143{fill:#968A1C;}
</style>
<g>
	<g>
		<g>
			<g>
				<g>
					<polygon class="st5" points="114.7,252 88.4,252 80.8,166.8 113.3,166.8 113.5,179.4 					"/>
				</g>
			</g>
		</g>
	</g>
	<g>
		<g>
			<g>
				<g>
					<polygon class="st5" points="88.4,252 61.3,252 46.9,166.8 80.8,166.8 					"/>
				</g>
			</g>
		</g>
	</g>
	<g>
		<g>
			<g>
				<g>
					<polygon class="st5" points="144.3,166.8 144.1,178.9 142.9,252 114.7,252 113.5,179.4 113.3,166.8 					"/>
				</g>
			</g>
		</g>
	</g>
	<g>
		<g>
			<g>
				<g>
					<polygon class="st5" points="175.1,166.8 170.3,252 142.9,252 144.1,178.9 144.3,166.8 					"/>
				</g>
			</g>
		</g>
	</g>
	<g>
		<g>
			<g>
				<g>
					<polygon class="st5" points="208.9,166.8 195.2,252 170.3,252 175.1,166.8 					"/>
				</g>
			</g>
		</g>
	</g>
	<g>
		<g>
			<g>
				<g>
					<path class="st12" d="M114.8,256C114.7,256,114.7,256,114.8,256H88.4c-2.1,0-3.8-1.6-4-3.6l-7.6-85.2c-0.1-1.1,0.3-2.2,1-3.1
						c0.8-0.8,1.8-1.3,3-1.3h32.5c2.2,0,4,1.8,4,3.9l1.4,84.8c0,0.2,0,0.3,0,0.5C118.8,254.2,117,256,114.8,256z M92,248h18.6
						l-1.3-77.2H85.2L92,248z"/>
				</g>
			</g>
		</g>
	</g>
	<g>
		<g>
			<g>
				<g>
					<path class="st12" d="M88.4,256C88.4,256,88.4,256,88.4,256H61.3c-2,0-3.6-1.4-3.9-3.3L43,167.5c-0.2-1.2,0.1-2.3,0.9-3.2
						c0.8-0.9,1.9-1.4,3.1-1.4h33.9c2.1,0,3.8,1.6,4,3.6l7.5,84.8c0,0.2,0.1,0.5,0.1,0.8C92.4,254.2,90.6,256,88.4,256z M64.7,248
						H84l-6.9-77.2H51.6L64.7,248z"/>
				</g>
			</g>
		</g>
	</g>
	<g>
		<g>
			<g>
				<g>
					<path class="st12" d="M142.9,256h-28.1c-2.2,0-4-1.8-4-3.9l-1.4-85.2c0-1.1,0.4-2.1,1.1-2.9c0.8-0.8,1.8-1.2,2.9-1.2h31
						c1.1,0,2.1,0.4,2.9,1.2c0.8,0.8,1.2,1.8,1.1,2.9l-1.4,85.2C146.8,254.2,145.1,256,142.9,256z M118.7,248h20.3l1.3-77.2h-22.8
						L118.7,248z"/>
				</g>
			</g>
		</g>
	</g>
	<g>
		<g>
			<g>
				<g>
					<path class="st12" d="M170.3,256h-27.4c-1.1,0-2.1-0.4-2.9-1.2c-0.8-0.8-1.2-1.8-1.1-2.9l1.4-85.2c0-2.2,1.8-3.9,4-3.9h30.8
						c1.1,0,2.2,0.5,2.9,1.3c0.8,0.8,1.1,1.9,1.1,3l-4.8,85.2C174.2,254.3,172.4,256,170.3,256z M146.9,248h19.6l4.3-77.2h-22.6
						L146.9,248z"/>
				</g>
			</g>
		</g>
	</g>
	<g>
		<g>
			<g>
				<g>
					<path class="st12" d="M195.2,256h-24.9c-1.1,0-2.2-0.5-2.9-1.3c-0.8-0.8-1.1-1.9-1.1-3l4.8-85.2c0.1-2.1,1.9-3.8,4-3.8h33.9
						c1.2,0,2.3,0.5,3,1.4c0.8,0.9,1.1,2.1,0.9,3.2l-13.7,85.2C198.9,254.6,197.2,256,195.2,256z M174.5,248h17.3l12.4-77.2h-25.4
						L174.5,248z"/>
				</g>
			</g>
		</g>
	</g>
	<g>
		<g>
			<g>
				<g>
					<path class="st1" d="M240.3,132.6c-0.6,17.5-12.5,32.5-30.1,38.1c-0.4,0.1-0.8,0.2-1.2,0.2h-162c-0.4,0-0.9-0.1-1.3-0.2
						c-17.6-5.8-29.3-20.9-30-38.6c-0.8-21.4,13.8-40.6,39.1-51.9c0.6-14.3,5.8-27.1,15.3-37.1c8.9-9.4,21.4-16.2,36-19.6
						c1.1-0.3,2.3,0,3.2,0.6c0.9,0.7,1.5,1.7,1.7,2.8c0.9,8.6,8.2,15.2,16.9,15.2c8.6,0,15.8-6.4,16.9-14.9c0.1-1.1,0.8-2.2,1.7-2.8
						c1-0.6,2.1-0.9,3.2-0.6c30.2,7.6,48.7,28.6,49.8,56.3C225.9,91.4,241.1,110.9,240.3,132.6z"/>
				</g>
			</g>
		</g>
	</g>
	<g>
		<g>
			<g>
				<g>
					<path class="st13" d="M50.3,121.1l18.5,16.8L50.3,121.1z"/>
				</g>
			</g>
		</g>
		<g>
			<g>
				<g>
					<path class="st11" d="M68.8,141.9c-1,0-1.9-0.3-2.7-1l-18.5-16.8c-1.6-1.5-1.8-4-0.3-5.7c1.5-1.6,4-1.8,5.6-0.3l18.5,16.8
						c1.6,1.5,1.8,4,0.3,5.6C71,141.5,69.9,141.9,68.8,141.9z"/>
				</g>
			</g>
		</g>
	</g>
	<g>
		<g>
			<g>
				<g>
					<path class="st11" d="M108,67.3L92.7,89L108,67.3z"/>
				</g>
			</g>
		</g>
		<g>
			<g>
				<g>
					<path class="st11" d="M92.7,93c-0.8,0-1.6-0.2-2.3-0.7c-1.8-1.3-2.2-3.8-1-5.6L104.7,65c1.3-1.8,3.8-2.2,5.6-1
						c1.8,1.3,2.2,3.8,1,5.6L95.9,91.3C95.1,92.5,93.9,93,92.7,93z"/>
				</g>
			</g>
		</g>
	</g>
	<g>
		<g>
			<g>
				<g>
					<path class="st11" d="M155.7,84.4l21,11.1L155.7,84.4z"/>
				</g>
			</g>
		</g>
		<g>
			<g>
				<g>
					<path class="st11" d="M176.7,99.5c-0.6,0-1.3-0.1-1.9-0.5l-21-11.1c-2-1-2.7-3.4-1.7-5.4c1-2,3.4-2.7,5.4-1.7l21,11.1
						c2,1,2.7,3.4,1.7,5.4C179.5,98.7,178.1,99.5,176.7,99.5z"/>
				</g>
			</g>
		</g>
	</g>
	<g>
		<g>
			<g>
				<g>
					<path class="st11" d="M138.6,121.1l-19.2,16.8L138.6,121.1z"/>
				</g>
			</g>
		</g>
		<g>
			<g>
				<g>
					<path class="st11" d="M119.4,141.9c-1.1,0-2.2-0.5-3-1.4c-1.5-1.7-1.3-4.2,0.4-5.6l19.2-16.8c1.7-1.5,4.2-1.3,5.6,0.4
						c1.5,1.7,1.3,4.2-0.4,5.6L122,140.9C121.2,141.6,120.3,141.9,119.4,141.9z"/>
				</g>
			</g>
		</g>
	</g>
	<g>
		<g>
			<g>
				<g>
					<path class="st11" d="M200.6,126.8l-16,12.8L200.6,126.8z"/>
				</g>
			</g>
		</g>
		<g>
			<g>
				<g>
					<path class="st11" d="M184.5,143.7c-1.2,0-2.3-0.5-3.1-1.5c-1.4-1.7-1.1-4.2,0.6-5.6l16-12.8c1.7-1.4,4.2-1.1,5.6,0.6
						c1.4,1.7,1.1,4.2-0.6,5.6l-16,12.8C186.3,143.4,185.4,143.7,184.5,143.7z"/>
				</g>
			</g>
		</g>
	</g>
	<g>
		<g>
			<g>
				<g>
					<path class="st3" d="M152.9,25c0,1.1-0.1,2.2-0.2,3.2c-1.5,12.4-12.2,21.9-24.8,21.9c-12.8,0-23.5-9.6-24.9-22.3
						c-0.1-0.9-0.2-1.8-0.2-2.7c0-13.8,11.2-25,25-25C141.7,0,152.9,11.2,152.9,25z"/>
				</g>
			</g>
		</g>
	</g>
</g>
</svg>
