<?xml version="1.0" encoding="utf-8"?>
<!-- Generator: Adobe Illustrator 22.1.0, SVG Export Plug-In . SVG Version: 6.00 Build 0)  -->
<svg version="1.1" id="Layer_1" xmlns="http://www.w3.org/2000/svg" xmlns:xlink="http://www.w3.org/1999/xlink" x="0px" y="0px"
	 viewBox="0 0 256 256" style="enable-background:new 0 0 256 256;" xml:space="preserve">
<style type="text/css">
	.st0{fill:#F6D67A;}
	.st1{fill:#E77CAE;}
	.st2{fill:#AC6535;}
	.st3{fill:#EB573B;}
	.st4{fill:#464646;}
	.st5{fill:#F5B31F;}
	.st6{fill:#9B592D;}
	.st7{fill:#9B5B2F;}
	.st8{fill:#E8A41A;}
	.st9{fill:#6D6E71;}
	.st10{fill:#E5A21C;}
	.st11{fill:#C66395;}
	.st12{fill:#E09F1E;}
	.st13{fill:#FFFFFF;}
	.st14{fill:#DDB95E;}
	.st15{fill:#EAC771;}
	.st16{fill:#F9F6CD;}
	.st17{fill:#009345;}
	.st18{fill:#008438;}
	.st19{fill:#EAA51B;}
	.st20{opacity:0.1;}
	.st21{fill:#FFD11D;}
	.st22{fill:#FFE37B;}
	.st23{fill:#FFA755;}
	.st24{fill:#FFEC97;}
	.st25{fill:#BC7532;}
	.st26{fill:#EFEFEF;}
	.st27{fill:#60ACF7;}
	.st28{fill:#876C6C;}
	.st29{fill:#1DDCFF;}
	.st30{fill:#BDF3FF;}
	.st31{fill:#EFCA70;}
	.st32{fill:#EFA91D;}
	.st33{fill:#8FAE3C;}
	.st34{fill:#92A5AC;}
	.st35{fill:#E8E3BA;}
	.st36{fill:#F79932;}
	.st37{fill:#F4F4F4;}
	.st38{fill:#FFDF8F;}
	.st39{fill:#EAE5B9;}
	.st40{fill:#7E9E6A;}
	.st41{fill:#94B57F;}
	.st42{fill:#9B5D8C;}
	.st43{fill:#96557A;}
	.st44{fill:#C3755A;}
	.st45{fill:#9BD7DD;}
	.st46{fill:#90CAD3;}
	.st47{fill:#F7F7F7;}
	.st48{fill:#AFE6EF;}
	.st49{fill:#FFFAEB;}
	.st50{fill:#F4EFC3;}
	.st51{fill:#F9F9F9;}
	.st52{fill:#FFE5C4;}
	.st53{fill:#FFB024;}
	.st54{fill:#FFC612;}
	.st55{fill:#FFCE31;}
	.st56{fill:#A05C2D;}
	.st57{fill:#1DCAF2;}
	.st58{fill:#00B0E0;}
	.st59{fill:#F2A355;}
	.st60{fill:#D68032;}
	.st61{fill:#66625D;}
	.st62{fill:#54504D;}
	.st63{fill:#B76955;}
	.st64{fill:#EFE8B4;}
	.st65{fill:#B93226;}
	.st66{fill:#EFEABF;}
	.st67{fill:#90C056;}
	.st68{opacity:0.15;}
	.st69{fill:#E8C56D;}
	.st70{fill:#F7BE4B;}
	.st71{fill:#E0A338;}
	.st72{fill:#F68455;}
	.st73{fill:#E26F47;}
	.st74{fill:#EC754B;}
	.st75{fill:#4AA5BA;}
	.st76{opacity:0.5;}
	.st77{fill:#A0B1B5;}
	.st78{opacity:0.7;}
	.st79{fill:#00ADEE;}
	.st80{fill:#F4D4B3;}
	.st81{fill:#F9D97A;}
	.st82{fill:#EDC96E;}
	.st83{fill:none;}
	.st84{fill:#AF6535;}
	.st85{fill:#F18BB4;}
	.st86{fill:#B3E4FF;}
	.st87{fill:#97DFFF;}
	.st88{fill:#D06E3C;}
	.st89{fill:#B55931;}
	.st90{fill:#DA4F4B;}
	.st91{fill:#EFCAA8;}
	.st92{fill:#EA7CB1;}
	.st93{fill:#EA7DAE;}
	.st94{fill:#BC7646;}
	.st95{fill:#00A1C6;}
	.st96{fill:#FCC230;}
	.st97{fill:#F2EBB1;}
	.st98{fill:#F9D6AF;}
	.st99{fill:#D34735;}
	.st100{fill:#E5A21A;}
	.st101{fill:#849E33;}
	.st102{fill:#EFBB14;}
	.st103{fill:#D8402B;}
	.st104{fill:#829B34;}
	.st105{fill:#F88916;}
	.st106{fill:#E27513;}
	.st107{fill:#FFB41F;}
	.st108{fill:#8AA538;}
	.st109{fill:#BE6BB2;}
	.st110{fill:#AA5BA3;}
	.st111{fill:#FFDF66;}
	.st112{fill:#F4BA00;}
	.st113{fill:#E28529;}
	.st114{fill:#FF9945;}
	.st115{fill:#BA6C45;}
	.st116{fill:#EDBA15;}
	.st117{fill:#E0452F;}
	.st118{fill:#F7F2D5;}
	.st119{fill:#4C4E51;}
	.st120{fill:#EA615D;}
	.st121{fill:#DD4A36;}
	.st122{fill:#F6AF72;}
	.st123{fill:#E8955D;}
	.st124{fill:#E4C074;}
	.st125{fill:#EAE4C3;}
	.st126{fill:#BF3522;}
	.st127{fill:#D13E33;}
	.st128{fill:#AA5EA3;}
	.st129{fill:#DD443C;}
	.st130{fill:#AA5FA3;}
	.st131{fill:#B7C536;}
	.st132{fill:#F2872F;}
	.st133{fill:#AF5FA7;}
	.st134{fill:#E29F17;}
	.st135{fill:#FFC86E;}
	.st136{fill:#A55937;}
	.st137{fill:#D8422E;}
	.st138{fill:#C3556D;}
	.st139{fill:#B24965;}
	.st140{fill:#D1A962;}
	.st141{fill:#A3961A;}
	.st142{fill:#AFA51D;}
	.st143{fill:#968A1C;}
</style>
<g>
	<g>
		<g>
			<g>
				<g>
					<g>
						<g>
							<path class="st37" d="M243.2,137.4c0,2.8-0.9,5.6-2.4,7.9c0.7,1.7,1,3.4,1,5.2c0,3.4-1.2,6.5-3.3,9.1
								c0.2,1.1,0.4,2.1,0.4,3.3c0,3.1-1.1,6.1-3,8.6c0.1,0.5,0.1,0.9,0.1,1.4c0,3.3-1.2,6.5-3.3,9c0.2,1.1,0.4,2.1,0.4,3.3
								c0,7.7-6.3,14-14.1,14c-1.8,0-3.6-0.4-5.3-1c-2.3,1.5-5.1,2.4-7.9,2.4c-2.4,0-4.7-0.6-6.8-1.7c-4.1,2.2-9.3,2.2-13.4,0
								c-4.1,2.2-9.4,2.2-13.4,0c-2.1,1.1-4.4,1.7-6.8,1.7c-2.2,0-4.4-0.5-6.4-1.5c-2,1-4.2,1.5-6.4,1.5c-2.5,0-5-0.7-7.1-1.9
								c-2.1,1.2-4.6,1.9-7.1,1.9c-2.4,0-4.7-0.6-6.8-1.7c-3.9,2.1-8.9,2.3-12.9,0.3c-3.8,1.9-8.7,1.8-12.5-0.1
								c-2,1-4.2,1.5-6.4,1.5c-2.5,0-5-0.7-7.1-1.9c-2.1,1.2-4.6,1.9-7.1,1.9c-2.4,0-4.7-0.6-6.8-1.7c-2.1,1.1-4.4,1.7-6.8,1.7
								c-6.8,0-12.4-4.7-13.8-11c-5-2-8.5-6.6-8.8-12.1c-0.1-1.3,0.5-2.5,1.5-3.4c0.6-0.5,1.2-1,1.8-1.5c1.8-1.4,3.7-2.9,5.6-4.3
								c45.6-34,106.6-55.2,163.3-56.7h0.2c0.9,0,1.8,0.1,2.7,0.1c3.6,0.1,7.3,0.4,10.9,0.7c0.7,0.1,1.4,0.3,2,0.7
								c3.7,2.6,5.9,6.9,5.9,11.4c0,2.3-0.6,4.5-1.6,6.5C242.6,132.9,243.2,135.1,243.2,137.4z"/>
						</g>
					</g>
				</g>
			</g>
		</g>
	</g>
	<g>
		<g>
			<g>
				<g>
					<g>
						<g>
							<path class="st73" d="M25.7,188.1c-4.5,0-11-0.3-16.2-1.9C1.2,183.6,0,178.7,0,176c0-0.1,0-0.3,0-0.4
								c0.8-7.6,11.8-17.3,31.7-22.8c-5,0.8-10.3,2-16,3.5c-1.5,0.4-3.2-0.2-4.2-1.4c-1-1.3-1.1-3-0.3-4.4L22,130.7
								c2.6-5.1,7.3-8.5,14.2-10.1c-1.6-0.1-2.9-1.1-3.5-2.6c-0.6-1.6-0.1-3.4,1.2-4.5l18.7-15.2C55.8,95.5,61,94,68.1,94
								c3,0,6.3,0.3,9.8,0.7c-3.3-0.8-6.8-1.5-10.5-2.2c-1.7-0.3-3-1.7-3.3-3.4c-0.2-1.7,0.7-3.4,2.2-4.2c0.1,0,7-3.4,21.4-10.7
								c3.1-1.6,6.6-2.4,10.5-2.4c8,0,17.1,3.4,26.3,8.4c-5-3-10.7-5.6-17.2-7.9c-1.6-0.6-2.7-2.1-2.7-3.9c0-1.7,1.2-3.3,2.9-3.7
								l14.9-4.2c2.7-0.8,5.5-1.2,8.2-1.2c5,0,10,1.2,14.9,3.5c-0.5-0.8-0.8-1.8-0.6-2.8c0.3-1.6,1.4-2.9,3-3.3
								c3.5-0.9,6.9-1.3,10.3-1.3c11.6,0,21.7,5.1,30.6,12.5c-0.2-0.2-0.3-0.5-0.5-0.7c-0.9-1.3-1-3.1-0.1-4.5
								c0.9-1.4,2.5-2.1,4.1-1.8c13,2.4,23.7,9.5,32.7,21.9c0.7-0.7,1.5-1.1,2.5-1.3c0.3-0.1,0.6-0.1,0.9-0.1c2.2,0,5.5,0,26.8,32.6
								c0.5,0.7,0.9,1.5,0.9,2.5c0,2.2-1.8,4-4,4c-0.2,0-0.3,0-0.5,0c-0.9-0.1-1.8-0.2-2.8-0.3l-0.2,0c-3.8-0.4-7.6-0.6-11.3-0.7
								c-5.1-0.2-10.3-0.2-15.5-0.1c-55.1,1.4-114.4,22-158.7,55.1c-1.8,1.4-3.7,2.8-5.4,4.2c-0.6,0.5-1.2,0.9-1.8,1.4
								c-1.4,1.2-2.9,2.3-4.2,3.5c-0.1,0.1-0.3,0.2-0.4,0.3C47,186.6,34.9,188.1,25.7,188.1z M8,176.2c0.2,0.7,1.7,1.7,3.9,2.4
								c3.3,1,8.1,1.6,13.8,1.6c10.5,0,19.1-1.8,21-2.8c1.4-1.1,2.7-2.3,4.1-3.4c0.6-0.5,1.2-1,1.8-1.5c1.8-1.4,3.7-2.9,5.6-4.3
								c45.6-34,106.6-55.2,163.3-56.7c5.4-0.1,10.8-0.1,16.1,0.1c2.1,0.1,4.3,0.2,6.4,0.3c-3.5-5.2-7.2-10.4-10.2-14.4
								c0.2,0.7,0.5,1.4,0.8,2.2c0.8,2-0.2,4.3-2.2,5.1c-2,0.8-4.3,0-5.2-2c-7.3-15.4-15.7-25.3-26-30.4c4.6,7.5,7.8,14.4,9.8,20.9
								c0.6,1.9-0.3,3.9-2,4.8c-1.7,0.9-3.9,0.4-5-1.2c-16.6-22.3-29.8-32.4-43.9-33.2c11.7,8.9,19.7,19.1,24.4,30.9
								c0.7,1.8,0.1,3.8-1.5,4.8c-1.6,1-3.7,0.9-5-0.5c-18.2-17.8-33.2-31.4-47.4-31.4c-2.1,0-4,0.3-6,0.9l-3.7,1
								c15.6,7.3,26.2,17.4,31.6,29.9c0.7,1.7,0.2,3.6-1.2,4.7c-1.4,1.1-3.4,1.2-4.8,0.1C129.1,91.6,111.1,80,98.3,80
								c-2.6,0-4.9,0.5-6.9,1.5c-4.4,2.2-8.1,4.1-11.2,5.6c18.6,4.6,32,11.6,42.6,22.1c1.4,1.4,1.6,3.6,0.4,5.2
								c-1.1,1.6-3.3,2.1-5,1.3C102.1,107.8,81,102,68.1,102c-6.7,0-9.3,1.4-10.2,2.3c-0.1,0-0.1,0.1-0.2,0.1l-10.1,8.2
								c19.7,0.8,36.8,5.9,52,15.5c1.7,1,2.3,3.1,1.6,4.9c-0.7,1.8-2.7,2.8-4.6,2.4l-2-0.5c-15.7-3.5-33.4-7.6-46.8-7.6
								c-10.3,0-16.4,2.3-18.8,7c0,0,0,0.1-0.1,0.1l-6.5,11.9c9.8-2.1,18.5-3.1,26.3-3.1c10.3,0,19.3,1.9,26.6,5.5
								c1.7,0.8,2.5,2.7,2.1,4.6c-0.5,1.8-2.1,3.1-4,3c-1.9-0.1-3.9-0.1-5.8-0.1C28.4,156.3,9.1,170.4,8,176.2z"/>
						</g>
					</g>
				</g>
			</g>
		</g>
	</g>
	<g>
		<g>
			<g>
				<g>
					<g>
						<g>
							<path class="st72" d="M4,176c0,11.7,39.2,8.3,45.1,4.6c1.4-1.2,2.9-2.4,4.3-3.6c0.6-0.5,1.2-1,1.8-1.4
								c1.8-1.4,3.6-2.9,5.5-4.3c44.9-33.5,104.8-54.4,161-55.9c5.3-0.1,10.6-0.1,15.8,0.1c3.9,0.1,7.7,0.4,11.5,0.8
								c1,0.1,2,0.2,3,0.3c0,0-20.7-31.7-23.8-31.1c-2.9,0.6,2.4,14.8,2.6,15.5c-8.8-18.6-20.7-32.6-39.3-36.1
								c7.3,10.3,12.7,20.1,15.7,29.4c-18.3-24.6-35.8-39.3-58.4-33.7c17.9,11.1,27.1,23,31.9,35.3c-21.4-20.9-39-36.7-57.3-31.5
								l-14.9,4.2c21.3,7.4,34.2,18.3,40.2,32.2c-20.9-15-44.7-30.4-59.3-23C75,85.3,68.1,88.7,68.1,88.7
								c27.7,4.9,42,13.5,51.9,23.4c-22-10.7-55.7-18.8-64.8-10.7l-18.8,15.3c25.1-0.9,44.9,4.7,61.1,14.9
								c-28.9-6.5-64.1-14.9-72.1,1l-10.9,19.8c23.9-6.2,44.3-7.4,59,0C28.5,150.9,4.9,167,4,176z"/>
						</g>
					</g>
				</g>
			</g>
		</g>
	</g>
</g>
</svg>
