<?xml version="1.0" encoding="utf-8"?>
<!-- Generator: Adobe Illustrator 22.1.0, SVG Export Plug-In . SVG Version: 6.00 Build 0)  -->
<svg version="1.1" id="Layer_1" xmlns="http://www.w3.org/2000/svg" xmlns:xlink="http://www.w3.org/1999/xlink" x="0px" y="0px"
	 viewBox="0 0 256 256" style="enable-background:new 0 0 256 256;" xml:space="preserve">
<style type="text/css">
	.st0{fill:#F6D67A;}
	.st1{fill:#E77CAE;}
	.st2{fill:#AC6535;}
	.st3{fill:#EB573B;}
	.st4{fill:#464646;}
	.st5{fill:#F5B31F;}
	.st6{fill:#9B592D;}
	.st7{fill:#9B5B2F;}
	.st8{fill:#E8A41A;}
	.st9{fill:#6D6E71;}
	.st10{fill:#E5A21C;}
	.st11{fill:#C66395;}
	.st12{fill:#E09F1E;}
	.st13{fill:#FFFFFF;}
	.st14{fill:#DDB95E;}
	.st15{fill:#EAC771;}
	.st16{fill:#F9F6CD;}
	.st17{fill:#009345;}
	.st18{fill:#008438;}
	.st19{fill:#EAA51B;}
	.st20{opacity:0.1;}
	.st21{fill:#FFD11D;}
	.st22{fill:#FFE37B;}
	.st23{fill:#FFA755;}
	.st24{fill:#FFEC97;}
	.st25{fill:#BC7532;}
	.st26{fill:#EFEFEF;}
	.st27{fill:#60ACF7;}
	.st28{fill:#876C6C;}
	.st29{fill:#1DDCFF;}
	.st30{fill:#BDF3FF;}
	.st31{fill:#EFCA70;}
	.st32{fill:#EFA91D;}
	.st33{fill:#8FAE3C;}
	.st34{fill:#92A5AC;}
	.st35{fill:#E8E3BA;}
	.st36{fill:#F79932;}
	.st37{fill:#F4F4F4;}
	.st38{fill:#FFDF8F;}
	.st39{fill:#EAE5B9;}
	.st40{fill:#7E9E6A;}
	.st41{fill:#94B57F;}
	.st42{fill:#9B5D8C;}
	.st43{fill:#96557A;}
	.st44{fill:#C3755A;}
	.st45{fill:#9BD7DD;}
	.st46{fill:#90CAD3;}
	.st47{fill:#F7F7F7;}
	.st48{fill:#AFE6EF;}
	.st49{fill:#FFFAEB;}
	.st50{fill:#F4EFC3;}
	.st51{fill:#F9F9F9;}
	.st52{fill:#FFE5C4;}
	.st53{fill:#FFB024;}
	.st54{fill:#FFC612;}
	.st55{fill:#FFCE31;}
	.st56{fill:#A05C2D;}
	.st57{fill:#1DCAF2;}
	.st58{fill:#00B0E0;}
	.st59{fill:#F2A355;}
	.st60{fill:#D68032;}
	.st61{fill:#66625D;}
	.st62{fill:#54504D;}
	.st63{fill:#B76955;}
	.st64{fill:#EFE8B4;}
	.st65{fill:#B93226;}
	.st66{fill:#EFEABF;}
	.st67{fill:#90C056;}
	.st68{opacity:0.15;}
	.st69{fill:#E8C56D;}
	.st70{fill:#F7BE4B;}
	.st71{fill:#E0A338;}
	.st72{fill:#F68455;}
	.st73{fill:#E26F47;}
	.st74{fill:#EC754B;}
	.st75{fill:#4AA5BA;}
	.st76{opacity:0.5;}
	.st77{fill:#A0B1B5;}
	.st78{opacity:0.7;}
	.st79{fill:#00ADEE;}
	.st80{fill:#F4D4B3;}
	.st81{fill:#F9D97A;}
	.st82{fill:#EDC96E;}
	.st83{fill:none;}
	.st84{fill:#AF6535;}
	.st85{fill:#F18BB4;}
	.st86{fill:#B3E4FF;}
	.st87{fill:#97DFFF;}
	.st88{fill:#D06E3C;}
	.st89{fill:#B55931;}
	.st90{fill:#DA4F4B;}
	.st91{fill:#EFCAA8;}
	.st92{fill:#EA7CB1;}
	.st93{fill:#EA7DAE;}
	.st94{fill:#BC7646;}
	.st95{fill:#00A1C6;}
	.st96{fill:#FCC230;}
	.st97{fill:#F2EBB1;}
	.st98{fill:#F9D6AF;}
	.st99{fill:#D34735;}
	.st100{fill:#E5A21A;}
	.st101{fill:#849E33;}
	.st102{fill:#EFBB14;}
	.st103{fill:#D8402B;}
	.st104{fill:#829B34;}
	.st105{fill:#F88916;}
	.st106{fill:#E27513;}
	.st107{fill:#FFB41F;}
	.st108{fill:#8AA538;}
	.st109{fill:#BE6BB2;}
	.st110{fill:#AA5BA3;}
	.st111{fill:#FFDF66;}
	.st112{fill:#F4BA00;}
	.st113{fill:#E28529;}
	.st114{fill:#FF9945;}
	.st115{fill:#BA6C45;}
	.st116{fill:#EDBA15;}
	.st117{fill:#E0452F;}
	.st118{fill:#F7F2D5;}
	.st119{fill:#4C4E51;}
	.st120{fill:#EA615D;}
	.st121{fill:#DD4A36;}
	.st122{fill:#F6AF72;}
	.st123{fill:#E8955D;}
	.st124{fill:#E4C074;}
	.st125{fill:#EAE4C3;}
	.st126{fill:#BF3522;}
	.st127{fill:#D13E33;}
	.st128{fill:#AA5EA3;}
	.st129{fill:#DD443C;}
	.st130{fill:#AA5FA3;}
	.st131{fill:#B7C536;}
	.st132{fill:#F2872F;}
	.st133{fill:#AF5FA7;}
	.st134{fill:#E29F17;}
	.st135{fill:#FFC86E;}
	.st136{fill:#A55937;}
	.st137{fill:#D8422E;}
	.st138{fill:#C3556D;}
	.st139{fill:#B24965;}
	.st140{fill:#D1A962;}
	.st141{fill:#A3961A;}
	.st142{fill:#AFA51D;}
	.st143{fill:#968A1C;}
</style>
<g>
	<g>
		<g>
			<g>
				<g>
					<g>
						<path class="st120" d="M89.8,154.9c-0.7,0.6-1.4,1.1-2.1,1.6C88.3,155.9,89,155.4,89.8,154.9z"/>
					</g>
				</g>
			</g>
		</g>
	</g>
	<g>
		<g>
			<g>
				<g>
					<g>
						<path class="st120" d="M89.8,154.9c-0.7,0.6-1.4,1.1-2.1,1.6C88.3,155.9,89,155.4,89.8,154.9z"/>
					</g>
				</g>
			</g>
		</g>
	</g>
	<g>
		<g>
			<g>
				<g>
					<g>
						<path class="st3" d="M145.6,100.9c0,8.7-4.9,16.3-12.1,20.2c-3.2,1.7-6.9,2.7-10.8,2.7c-6.3,0-12.1-2.6-16.2-6.8
							c-2.2-2.2-4-4.9-5.1-7.9c-1-2.6-1.5-5.4-1.5-8.3s0.5-5.7,1.5-8.3c0.6-1.7,1.5-3.3,2.5-4.7c0.7-1,1.4-1.9,2.2-2.7
							c0.7,0.1,1.4,0.1,2,0.2c8.3,0.8,16.8,1.1,25.2,1c2.4,0,4.7-0.1,7-0.2C143.6,90.2,145.6,95.3,145.6,100.9z"/>
					</g>
				</g>
			</g>
		</g>
	</g>
	<g>
		<g>
			<g>
				<g>
					<g>
						<path class="st120" d="M191.4,100.9c0,4.2-1.1,8.1-3.1,11.5c-2.7,4.7-7.1,8.4-12.3,10.2c-2.4,0.8-4.9,1.3-7.6,1.3
							c-7,0-13.3-3.2-17.5-8.2c-3.4-4-5.4-9.1-5.4-14.8c0-6,2.3-11.5,6.1-15.6c9.5-1,18.6-2.7,26.7-5.1c1,0.5,1.9,1,2.8,1.6
							c2.9,2,5.3,4.6,7.1,7.6C190.3,92.9,191.4,96.8,191.4,100.9z"/>
					</g>
				</g>
			</g>
		</g>
	</g>
	<g>
		<g>
			<g>
				<g>
					<g>
						<path class="st3" d="M191.4,100.9c0,4.2-1.1,8.1-3.1,11.5c-2.7,4.7-7.1,8.4-12.3,10.2c-2.4,0.8-4.9,1.3-7.6,1.3
							c-7,0-13.3-3.2-17.5-8.2c-3.4-4-5.4-9.1-5.4-14.8c0-6,2.3-11.5,6.1-15.6c9.5-1,18.6-2.7,26.7-5.1c1,0.5,1.9,1,2.8,1.6
							c2.9,2,5.3,4.6,7.1,7.6C190.3,92.9,191.4,96.8,191.4,100.9z"/>
					</g>
				</g>
			</g>
		</g>
	</g>
	<g>
		<g>
			<g>
				<g>
					<g>
						<path class="st3" d="M231.2,100.9c0,8.3-4.5,15.6-11.1,19.7c-3.5,2.1-7.5,3.3-11.8,3.3c-6.1,0-11.6-2.4-15.7-6.2
							c-1.6-1.5-3.1-3.3-4.2-5.3c1.9-3.4,3.1-7.3,3.1-11.5s-1.1-8.1-3.1-11.4c4-6.9,11.4-11.5,19.9-11.5
							C220.9,78,231.2,88.3,231.2,100.9z"/>
					</g>
				</g>
			</g>
		</g>
	</g>
	<g>
		<g>
			<g>
				<g>
					<g>
						<path class="st3" d="M99.8,100.9c0,2.9,0.5,5.7,1.5,8.3c-1.9,5-5.6,9.2-10.2,11.8c-3.3,1.8-7.1,2.9-11.1,2.9
							c-5.2,0-10.1-1.8-13.9-4.7c-0.8-0.6-1.5-1.2-2.1-1.9c-4.2-4.2-6.9-10-6.9-16.4c0-7.4,3.5-14,9-18.2c2.3-1.8,4.9-3.1,7.7-3.9
							c1.5,0.5,3.1,0.9,4.7,1.3h0c5.3,1.4,10.9,2.6,16.7,3.6c2,1.8,3.7,3.9,5,6.3c0.5,0.8,0.9,1.7,1.2,2.6
							C100.3,95.2,99.8,98,99.8,100.9z"/>
					</g>
				</g>
			</g>
		</g>
	</g>
	<g>
		<g>
			<g>
				<g>
					<g>
						<path class="st3" d="M63.9,117.3c0.7,0.7,1.4,1.3,2.1,1.9c-0.8,0.6-1.6,1.1-2.4,1.6c-2.1,1.2-4.4,2.1-6.8,2.6
							c-1.5,0.3-3.1,0.5-4.7,0.5c-6.1,0-11.7-2.4-15.8-6.4c-4.4-4.2-7.1-10.1-7.1-16.6C29.2,88.3,39.4,78,52.1,78
							c5.2,0,10.1,1.8,13.9,4.7c-5.5,4.2-9,10.8-9,18.2C57,107.3,59.6,113.1,63.9,117.3z"/>
					</g>
				</g>
			</g>
		</g>
	</g>
	<g>
		<g>
			<g>
				<g>
					<g>
						<path class="st3" d="M61.4,155.8c-3.8,2.8-8.5,4.5-13.6,4.5c-1.3,0-2.5-0.1-3.7-0.3c-10.9-1.8-19.2-11.2-19.2-22.7
							c0-8.5,4.6-15.9,11.4-19.8c4.1,3.9,9.7,6.4,15.8,6.4c1.6,0,3.2-0.2,4.7-0.5c-3,3.9-4.7,8.7-4.7,14c0,5.4,1.9,10.4,5,14.3
							C58.3,153.2,59.7,154.6,61.4,155.8z"/>
					</g>
				</g>
			</g>
		</g>
	</g>
	<g>
		<g>
			<g>
				<g>
					<g>
						<path class="st3" d="M80.7,181.2c0.4,1.3,1,2.6,1.6,3.8c-3.5,6.4-10,11-17.6,11.8c-0.8,0.1-1.7,0.1-2.5,0.1
							c-12.7,0-22.9-10.3-22.9-22.9c0-5.3,1.8-10.1,4.8-14c1.2,0.2,2.4,0.3,3.7,0.3c5.1,0,9.8-1.7,13.6-4.5h0
							c3.8,2.8,8.5,4.5,13.6,4.5c1.8,0,3.5-0.2,5.2-0.6c0.8,1,1.6,2.1,2.2,3.3c-1.8,3.3-2.8,7-2.8,11
							C79.5,176.5,79.9,178.9,80.7,181.2z"/>
					</g>
				</g>
			</g>
		</g>
	</g>
	<g>
		<g>
			<g>
				<g>
					<g>
						<path class="st3" d="M109.7,203.3c0,1-0.1,1.9-0.2,2.8c-1.4,11.3-10.9,20-22.6,20.1h-0.2c-12.7,0-22.9-10.3-22.9-23
							c0-2.3,0.3-4.4,0.9-6.5c7.6-0.8,14.1-5.4,17.6-11.8c3.9,7.1,11.4,12,20.1,12c2.1,0,4.1-0.3,6-0.8
							C109.3,198.4,109.7,200.8,109.7,203.3z"/>
					</g>
				</g>
			</g>
		</g>
	</g>
	<g>
		<g>
			<g>
				<g>
					<g>
						<path class="st3" d="M158.6,203.3c0,1.3-0.1,2.5-0.3,3.7c-0.2,1.5-0.6,3-1.2,4.4c-3.3,8.7-11.6,14.9-21.4,14.9
							c-1.1,0-2.2-0.1-3.3-0.2c-1-0.1-1.9-0.3-2.9-0.6c-8.7-2.4-15.3-9.9-16.6-19c-0.1-1-0.2-2-0.2-3.1c0-3.6,0.8-7.1,2.4-10.2
							c3.4-2.2,6.1-5.3,7.9-9v0c0.7-0.5,1.5-0.9,2.3-1.3c3.5,8.3,11.6,14.1,21.2,14.1c3.7,0,7.2-0.9,10.3-2.4
							c0.1,0.2,0.2,0.5,0.3,0.7C158,197.7,158.6,200.4,158.6,203.3z"/>
					</g>
				</g>
			</g>
		</g>
	</g>
	<g>
		<g>
			<g>
				<g>
					<g>
						<path class="st3" d="M201.5,203.3c0,12.7-10.3,23-22.9,23c-1.3,0-2.5-0.1-3.7-0.3c-8.2-1.3-14.9-7-17.7-14.5
							c0.5-1.4,0.9-2.9,1.2-4.4c0.2-1.2,0.3-2.4,0.3-3.7c0-2.9-0.5-5.6-1.5-8.1c0.1-0.4,0.3-0.7,0.5-1.1c4.4-2.4,7.9-6.3,10-10.9v0
							c0.8-0.4,1.6-0.8,2.5-1.2c3.2,8.7,11.6,14.9,21.5,14.9c3,0,5.9-0.6,8.6-1.7C200.9,197.8,201.5,200.5,201.5,203.3z"/>
					</g>
				</g>
			</g>
		</g>
	</g>
	<g>
		<g>
			<g>
				<g>
					<g>
						<path class="st3" d="M175,229.1c0,12.7-10.3,22.9-22.9,22.9c-9.6,0-17.8-5.9-21.2-14.3v0c1.1-2.7,1.7-5.6,1.7-8.6
							c0-1-0.1-2.1-0.2-3.1c1.1,0.2,2.2,0.2,3.3,0.2c9.8,0,18.2-6.2,21.4-14.9c2.8,7.6,9.6,13.2,17.7,14.5
							C175,227,175,228,175,229.1z"/>
					</g>
				</g>
			</g>
		</g>
	</g>
	<g>
		<g>
			<g>
				<g>
					<g>
						<path class="st120" d="M132.6,229.1c0,3.1-0.6,6-1.7,8.6v0c-3.4,8.4-11.6,14.3-21.2,14.3c-12.7,0-22.9-10.3-22.9-22.9
							c0-1,0.1-1.9,0.2-2.8c11.6-0.1,21.2-8.8,22.6-20.1h0.2c1.1,0,2.2,0.1,3.3,0.2c1.2,9.2,7.9,16.6,16.6,19
							c0.9,0.3,1.9,0.5,2.9,0.6C132.5,227,132.6,228,132.6,229.1z"/>
					</g>
				</g>
			</g>
		</g>
	</g>
	<g>
		<g>
			<g>
				<g>
					<g>
						<path class="st3" d="M132.6,230c0,3.1-0.6,6-1.7,8.6v0c-3.4,8.4-11.6,14.3-21.2,14.3C97,253,86.7,242.7,86.7,230
							c0-1,0.1-1.9,0.2-2.8c11.6-0.1,21.2-8.8,22.6-20.1h0.2c1.1,0,2.2,0.1,3.3,0.2c1.2,9.2,7.9,16.6,16.6,19
							c0.9,0.3,1.9,0.5,2.9,0.6C132.5,228,132.6,229,132.6,230z"/>
					</g>
				</g>
			</g>
		</g>
	</g>
	<g>
		<g>
			<g>
				<g>
					<g>
						<path class="st120" d="M123.6,174c0,2.2,0.3,4.4,0.9,6.4c-0.4,1.3-0.9,2.6-1.5,3.8v0c-1.8,3.7-4.5,6.8-7.9,9
							c-2,1.3-4.2,2.3-6.6,3c-1.9,0.5-4,0.8-6,0.8c-8.7,0-16.2-4.8-20.1-12c-0.7-1.2-1.2-2.5-1.6-3.8c-0.7-2.3-1.1-4.7-1.1-7.2
							c0-4,1-7.7,2.8-11c1.4-2.5,3.2-4.7,5.3-6.5h0c0.7-0.5,1.4-1,2.1-1.6l0,0c2.7-1.8,5.9-3.1,9.3-3.6c4.2,5.5,10.8,9,18.2,9
							c1.1,0,2.3-0.1,3.4-0.3c1.7,2.2,3,4.8,3.8,7.6C123.9,169.6,123.6,171.8,123.6,174z"/>
					</g>
				</g>
			</g>
		</g>
	</g>
	<g>
		<g>
			<g>
				<g>
					<g>
						<path class="st3" d="M124.6,174c0,2.2,0.3,4.4,0.9,6.4c-0.4,1.3-0.9,2.6-1.5,3.8v0c-1.8,3.7-4.5,6.8-7.9,9
							c-2,1.3-4.2,2.3-6.6,3c-1.9,0.5-4,0.8-6,0.8c-8.7,0-16.2-4.8-20.1-12c-0.7-1.2-1.2-2.5-1.6-3.8c-0.7-2.3-1.1-4.7-1.1-7.2
							c0-4,1-7.7,2.8-11c1.4-2.5,3.2-4.7,5.3-6.5h0c0.7-0.5,1.4-1,2.1-1.6l0,0c2.7-1.8,5.9-3.1,9.3-3.6c4.2,5.5,10.8,9,18.2,9
							c1.1,0,2.3-0.1,3.4-0.3c1.7,2.2,3,4.8,3.8,7.6C124.9,169.6,124.6,171.8,124.6,174z"/>
					</g>
				</g>
			</g>
		</g>
	</g>
	<g>
		<g>
			<g>
				<g>
					<g>
						<path class="st120" d="M89.8,154.9c-0.7,0.6-1.4,1.1-2.1,1.6C88.3,155.9,89,155.4,89.8,154.9z"/>
					</g>
				</g>
			</g>
		</g>
	</g>
	<g>
		<g>
			<g>
				<g>
					<g>
						<path class="st3" d="M169.4,174c0,1.6-0.2,3.1-0.5,4.5c-0.3,1.6-0.8,3.2-1.5,4.7v0c-2,4.6-5.5,8.5-10,10.9
							c-0.2,0.1-0.5,0.3-0.7,0.4c-3.1,1.6-6.6,2.4-10.3,2.4c-9.5,0-17.7-5.8-21.2-14.1c-0.3-0.8-0.6-1.6-0.8-2.4
							c-0.6-2-0.9-4.2-0.9-6.4c0-2.2,0.3-4.4,0.9-6.4c2.2-7.7,8.4-13.8,16.2-15.8c4.2,5.2,10.6,8.5,17.8,8.5c2,0,3.9-0.3,5.8-0.7
							c2.3,2.8,3.9,6.2,4.6,9.9C169.3,170.9,169.4,172.4,169.4,174z"/>
					</g>
				</g>
			</g>
		</g>
	</g>
	<g>
		<g>
			<g>
				<g>
					<g>
						<path class="st120" d="M214.4,174c0,9.6-5.9,17.9-14.3,21.3c-2.7,1.1-5.5,1.7-8.6,1.7c-9.8,0-18.2-6.2-21.5-14.9
							c-0.4-1.1-0.8-2.3-1-3.5c0.3-1.5,0.5-3,0.5-4.5c0-1.6-0.2-3.1-0.5-4.5c1.8-8.9,8.7-15.9,17.5-17.9c4.2,5.3,10.7,8.7,18,8.7
							c1.7,0,3.4-0.2,5-0.6C212.5,163.7,214.4,168.6,214.4,174z"/>
					</g>
				</g>
			</g>
		</g>
	</g>
	<g>
		<g>
			<g>
				<g>
					<g>
						<path class="st3" d="M214.4,174c0,9.6-5.9,17.9-14.3,21.3c-2.7,1.1-5.5,1.7-8.6,1.7c-9.8,0-18.2-6.2-21.5-14.9
							c-0.4-1.1-0.8-2.3-1-3.5c0.3-1.5,0.5-3,0.5-4.5c0-1.6-0.2-3.1-0.5-4.5c1.8-8.9,8.7-15.9,17.5-17.9c4.2,5.3,10.7,8.7,18,8.7
							c1.7,0,3.4-0.2,5-0.6C212.5,163.7,214.4,168.6,214.4,174z"/>
					</g>
				</g>
			</g>
		</g>
	</g>
	<g>
		<g>
			<g>
				<g>
					<g>
						<path class="st3" d="M94.4,137.4c0,3.1,0.6,6.1,1.8,8.8c-1.4,3.4-3.6,6.4-6.4,8.7l0,0c-0.7,0.5-1.4,1-2.1,1.6h0
							c-2.3,1.5-4.8,2.6-7.5,3.2c-1.7,0.4-3.4,0.6-5.2,0.6c-5.1,0-9.8-1.7-13.6-4.5h0c-1.6-1.2-3.1-2.6-4.3-4.2
							c-3.1-3.9-5-8.9-5-14.3c0-5.3,1.8-10.1,4.7-14c2.4-0.5,4.7-1.4,6.8-2.6c0.8-0.5,1.6-1,2.4-1.6c3.9,3,8.7,4.7,13.9,4.7
							c4,0,7.8-1,11.1-2.9c2.2,2.1,3.9,4.7,5.1,7.5C95,131.2,94.4,134.2,94.4,137.4z"/>
					</g>
				</g>
			</g>
		</g>
	</g>
	<g>
		<g>
			<g>
				<g>
					<g>
						<path class="st120" d="M89.8,154.9c-0.7,0.6-1.4,1.1-2.1,1.6C88.3,155.9,89,155.4,89.8,154.9z"/>
					</g>
				</g>
			</g>
		</g>
	</g>
	<g>
		<g>
			<g>
				<g>
					<g>
						<path class="st3" d="M140.2,137.4c0,3.6-0.8,7-2.3,10c-3.2,6.7-9.6,11.6-17.3,12.7c-1.1,0.2-2.2,0.3-3.4,0.3
							c-7.4,0-14-3.5-18.2-9c-1.2-1.6-2.2-3.3-2.9-5.1c-1.1-2.7-1.8-5.7-1.8-8.8c0-3.1,0.6-6.1,1.8-8.8c2-4.9,5.7-8.9,10.3-11.4
							c4.2,4.2,9.9,6.8,16.2,6.8c3.9,0,7.6-1,10.8-2.7c1.8,1.8,3.3,3.9,4.4,6.2C139.4,130.4,140.2,133.8,140.2,137.4z"/>
					</g>
				</g>
			</g>
		</g>
	</g>
	<g>
		<g>
			<g>
				<g>
					<g>
						<path class="st3" d="M181.5,137.4c0,10.7-7.3,19.7-17.2,22.2c-1.8,0.5-3.8,0.7-5.8,0.7c-7.2,0-13.6-3.3-17.8-8.5
							c-1.1-1.4-2-2.8-2.8-4.4c1.5-3,2.3-6.4,2.3-10c0-3.6-0.8-7-2.3-10c2.6-5.4,7.3-9.6,13.1-11.7c4.2,5,10.5,8.2,17.5,8.2
							c2.7,0,5.2-0.5,7.6-1.3C179.5,126.6,181.5,131.7,181.5,137.4z"/>
					</g>
				</g>
			</g>
		</g>
	</g>
	<g>
		<g>
			<g>
				<g>
					<g>
						<path class="st3" d="M227.3,137.4c0,11-7.7,20.1-17.9,22.4c-1.6,0.4-3.3,0.6-5,0.6c-7.3,0-13.8-3.4-18-8.7
							c-3.1-3.9-5-8.9-5-14.2c0-8.3,4.4-15.6,11.1-19.7c4.1,3.8,9.6,6.2,15.7,6.2c4.3,0,8.4-1.2,11.8-3.3
							C224.5,124.8,227.3,130.7,227.3,137.4z"/>
					</g>
				</g>
			</g>
		</g>
	</g>
	<g>
		<g>
			<g>
				<g>
					<g>
						<path class="st120" d="M106,85.2c-0.8,0.8-1.5,1.8-2.2,2.7c-1,1.5-1.8,3-2.5,4.7c-0.4-0.9-0.8-1.8-1.2-2.6
							c-1.3-2.4-3-4.5-5-6.3C98.7,84.4,102.3,84.8,106,85.2z"/>
					</g>
				</g>
			</g>
		</g>
	</g>
	<g>
		<g>
			<g>
				<g>
					<g>
						<path class="st120" d="M89.8,154.9c-0.7,0.6-1.4,1.1-2.1,1.6C88.3,155.9,89,155.4,89.8,154.9z"/>
					</g>
				</g>
			</g>
		</g>
	</g>
	<g>
		<g>
			<g>
				<g>
					<g>
						<path class="st120" d="M89.8,154.9c-0.7,0.6-1.4,1.1-2.1,1.6C88.3,155.9,89,155.4,89.8,154.9z"/>
					</g>
				</g>
			</g>
		</g>
	</g>
	<g>
		<g>
			<g>
				<g>
					<g>
						<path class="st129" d="M122.7,127.9c-7.2,0-14-2.8-19.1-7.9c-2.6-2.6-4.7-5.8-6-9.3c-1.2-3.1-1.8-6.3-1.8-9.7
							c0-3.4,0.6-6.6,1.8-9.7c0.7-1.9,1.7-3.8,2.9-5.5c0.8-1.2,1.7-2.2,2.6-3.2c0.9-0.9,2.1-1.4,3.3-1.2l2,0.2
							c8.1,0.8,16.4,1.1,24.7,1c2.2,0,4.5-0.1,6.9-0.2c1.3-0.1,2.5,0.5,3.3,1.4c4.1,4.8,6.3,11,6.3,17.3c0,9.9-5.4,19-14.2,23.7
							C131.5,126.8,127.1,127.9,122.7,127.9z M107.7,89.4c-0.2,0.3-0.4,0.5-0.6,0.8c-0.8,1.2-1.5,2.5-2.1,3.9
							c-0.8,2.2-1.3,4.5-1.3,6.8c0,2.4,0.4,4.7,1.3,6.8c0.9,2.4,2.4,4.7,4.3,6.6c3.6,3.6,8.3,5.6,13.4,5.6c3.1,0,6.2-0.8,8.9-2.3
							c6.2-3.3,10-9.7,10-16.7c0-3.8-1.2-7.5-3.3-10.6c-1.7,0.1-3.4,0.1-5.1,0.1C124.8,90.6,116.1,90.3,107.7,89.4z"/>
					</g>
				</g>
			</g>
		</g>
	</g>
	<g>
		<g>
			<g>
				<g>
					<g>
						<path class="st129" d="M168.5,127.9c-8,0-15.5-3.5-20.6-9.6c-4.1-4.8-6.3-11-6.3-17.3c0-6.8,2.6-13.3,7.2-18.3
							c0.7-0.7,1.5-1.2,2.5-1.3c9.5-1,18.3-2.7,26-4.9c0.9-0.3,2-0.2,2.9,0.2c1.2,0.6,2.3,1.2,3.4,1.9c3.4,2.3,6.2,5.4,8.3,8.9
							c2.4,4.1,3.6,8.7,3.6,13.4c0,4.7-1.2,9.4-3.6,13.4c-3.2,5.6-8.3,9.8-14.4,12C174.6,127.4,171.6,127.9,168.5,127.9z
							 M153.7,89.1c-2.7,3.4-4.1,7.5-4.1,11.8c0,4.5,1.6,8.8,4.4,12.2c3.6,4.3,8.9,6.8,14.5,6.8c2.2,0,4.3-0.4,6.3-1.1
							c4.3-1.5,7.9-4.5,10.1-8.4c1.6-2.9,2.5-6.1,2.5-9.5c0-3.3-0.9-6.6-2.5-9.4c-1.4-2.5-3.5-4.7-5.9-6.3c-0.3-0.2-0.7-0.5-1.1-0.7
							C170.7,86.6,162.5,88.1,153.7,89.1z"/>
					</g>
				</g>
			</g>
		</g>
	</g>
	<g>
		<g>
			<g>
				<g>
					<g>
						<path class="st129" d="M208.2,127.9c-6.9,0-13.4-2.6-18.4-7.3c-1.9-1.8-3.6-3.9-4.9-6.2c-0.7-1.2-0.7-2.8,0-4
							c1.7-2.9,2.5-6.1,2.5-9.5c0-3.3-0.9-6.6-2.5-9.4c-0.7-1.2-0.7-2.8,0-4c4.8-8.3,13.7-13.5,23.3-13.5
							c14.8,0,26.9,12.1,26.9,26.9c0,9.5-4.9,18.2-13,23.1C217.9,126.6,213.1,127.9,208.2,127.9z M193,112.2
							c0.7,0.9,1.5,1.8,2.3,2.6c3.5,3.3,8.1,5.1,12.9,5.1c3.4,0,6.8-0.9,9.8-2.7c5.7-3.5,9.2-9.5,9.2-16.2
							c0-10.4-8.5-18.9-18.9-18.9c-6,0-11.7,2.9-15.2,7.7c1.6,3.5,2.4,7.3,2.4,11.2C195.4,104.8,194.6,108.7,193,112.2z"/>
					</g>
				</g>
			</g>
		</g>
	</g>
	<g>
		<g>
			<g>
				<g>
					<g>
						<path class="st129" d="M79.9,127.9c-6,0-11.6-1.9-16.4-5.6c-0.8-0.6-1.7-1.3-2.5-2.2c-5.2-5.1-8-11.9-8-19.2
							c0-8.5,3.9-16.3,10.6-21.4c2.7-2.1,5.8-3.6,9.1-4.5c0.7-0.2,1.5-0.2,2.3,0c1.3,0.4,2.7,0.8,4.4,1.3c0,0,0.1,0,0.1,0
							c5.2,1.4,10.7,2.6,16.3,3.5c0.7,0.1,1.4,0.5,2,1c2.4,2.1,4.3,4.6,5.8,7.4c0.5,0.9,1,2,1.4,3.1c0.4,0.9,0.4,2,0,2.9
							c-0.8,2.2-1.3,4.4-1.3,6.8c0,2.4,0.4,4.7,1.3,6.8c0.4,0.9,0.4,2,0,2.9c-2.3,5.9-6.5,10.8-12,13.8
							C89,126.7,84.5,127.9,79.9,127.9z M73.7,83c-1.9,0.7-3.7,1.6-5.3,2.9c-4.7,3.6-7.4,9.1-7.4,15c0,5.1,2,9.9,5.7,13.5
							c0.6,0.6,1.2,1.1,1.7,1.5c3.4,2.6,7.3,3.9,11.5,3.9c3.2,0,6.4-0.8,9.2-2.4c3.5-1.9,6.2-4.9,7.9-8.4c-0.8-2.6-1.3-5.3-1.3-8.1
							c0-2.8,0.4-5.5,1.3-8.1c-0.1-0.3-0.3-0.6-0.4-0.9c-0.9-1.7-2-3.2-3.3-4.4c-5.5-0.9-10.8-2.1-15.8-3.4c-0.1,0-0.1,0-0.2,0
							C76,83.7,74.8,83.4,73.7,83z"/>
					</g>
				</g>
			</g>
		</g>
	</g>
	<g>
		<g>
			<g>
				<g>
					<g>
						<path class="st129" d="M52.1,127.9c-7,0-13.6-2.7-18.6-7.5c-5.3-5-8.3-12.1-8.3-19.5C25.2,86.1,37.2,74,52.1,74
							c6,0,11.6,1.9,16.4,5.6c1,0.8,1.6,1.9,1.6,3.2c0,1.2-0.6,2.4-1.6,3.2c-4.7,3.6-7.4,9.1-7.4,15c0,5.1,2,9.9,5.7,13.5
							c0.6,0.6,1.2,1.1,1.7,1.5c1,0.8,1.6,1.9,1.6,3.2c0,1.3-0.6,2.4-1.6,3.2c-0.9,0.7-1.9,1.3-2.8,1.9c-2.5,1.5-5.2,2.5-8,3.1
							C55.8,127.7,53.9,127.9,52.1,127.9z M52.1,82c-10.4,0-18.9,8.5-18.9,18.9c0,5.2,2.1,10.1,5.8,13.7c3.5,3.4,8.2,5.3,13.1,5.3
							c1.3,0,2.6-0.1,3.9-0.4c1.2-0.2,2.4-0.6,3.5-1.1c-4.2-4.9-6.4-11-6.4-17.5c0-6.5,2.3-12.6,6.4-17.5C57.1,82.5,54.6,82,52.1,82
							z"/>
					</g>
				</g>
			</g>
		</g>
	</g>
	<g>
		<g>
			<g>
				<g>
					<g>
						<path class="st129" d="M47.8,164.3c-1.5,0-2.9-0.1-4.4-0.4c-13.1-2.1-22.6-13.3-22.6-26.6c0-9.6,5.1-18.5,13.4-23.3
							c1.5-0.9,3.5-0.7,4.8,0.6c3.5,3.4,8.2,5.3,13.1,5.3c1.3,0,2.6-0.1,3.9-0.4c1.6-0.4,3.3,0.4,4.2,1.8c0.9,1.4,0.8,3.2-0.2,4.6
							c-2.6,3.3-3.9,7.3-3.9,11.5c0,4.3,1.4,8.4,4.1,11.8c1,1.3,2.2,2.5,3.6,3.5c1,0.8,1.6,1.9,1.6,3.2c0,1.3-0.6,2.5-1.6,3.2
							C59.1,162.5,53.6,164.3,47.8,164.3z M36,122.5c-4.5,3.6-7.1,9-7.1,14.8c0,9.3,6.7,17.2,15.9,18.7c1,0.2,2,0.2,3.1,0.2
							c2.4,0,4.7-0.4,6.9-1.3c-0.3-0.3-0.5-0.6-0.7-0.9c-3.8-4.8-5.8-10.6-5.8-16.8c0-3.3,0.6-6.5,1.7-9.6
							C44.8,127.4,40,125.6,36,122.5z"/>
					</g>
				</g>
			</g>
		</g>
	</g>
	<g>
		<g>
			<g>
				<g>
					<g>
						<path class="st129" d="M62.2,200.9c-14.8,0-26.9-12.1-26.9-26.9c0-6,1.9-11.7,5.6-16.4c0.9-1.2,2.4-1.7,3.8-1.5
							c1,0.2,2,0.2,3.1,0.2c4.1,0,8-1.3,11.2-3.7c1.4-1,3.4-1,4.8,0c3.3,2.4,7.1,3.7,11.2,3.7c1.5,0,2.9-0.2,4.2-0.5
							c1.5-0.4,3.1,0.2,4,1.4c1,1.2,1.8,2.5,2.6,3.9c0.6,1.2,0.6,2.6,0,3.8c-1.5,2.7-2.3,5.9-2.3,9.1c0,2,0.3,4,0.9,5.9
							c0.3,1.1,0.8,2.1,1.4,3.2c0.6,1.2,0.6,2.6,0,3.8c-4.2,7.7-11.9,12.9-20.7,13.9C64.3,200.9,63.3,200.9,62.2,200.9z M46,164.2
							c-1.8,2.9-2.7,6.3-2.7,9.7c0,10.4,8.5,18.9,18.9,18.9c0.7,0,1.4,0,2.1-0.1c5.5-0.6,10.4-3.6,13.5-8.1
							c-0.3-0.8-0.6-1.6-0.9-2.4c-0.9-2.7-1.3-5.5-1.3-8.4c0-3.4,0.6-6.7,1.8-9.8c-0.8,0.1-1.6,0.1-2.4,0.1c-4.9,0-9.5-1.3-13.6-3.7
							c-4.1,2.4-8.8,3.7-13.6,3.7C47.2,164.3,46.6,164.3,46,164.2z"/>
					</g>
				</g>
			</g>
		</g>
	</g>
	<g>
		<g>
			<g>
				<g>
					<g>
						<path class="st129" d="M86.9,230.2h-0.2c-14.8,0-26.9-12.1-26.9-27c0-2.6,0.4-5.2,1.1-7.6c0.5-1.5,1.8-2.7,3.4-2.8
							c6.1-0.7,11.5-4.3,14.5-9.8c0.7-1.3,2-2.1,3.5-2.1h0c1.5,0,2.8,0.8,3.5,2.1c3.3,6.1,9.7,9.9,16.6,9.9c1.7,0,3.4-0.2,5-0.7
							c2.1-0.6,4.2,0.6,4.9,2.6c0.9,2.7,1.3,5.6,1.3,8.4c0,1.1-0.1,2.2-0.2,3.3C111.8,220,100.4,230.1,86.9,230.2
							C86.9,230.2,86.9,230.2,86.9,230.2z M68.1,200.3c-0.2,1-0.2,2-0.2,3c0,10.4,8.5,19,18.9,19h0.2c9.5-0.1,17.5-7.2,18.6-16.6
							c0.1-0.8,0.2-1.6,0.2-2.3c0-0.8-0.1-1.7-0.2-2.5c-1,0.1-2,0.2-3,0.2c-7.8,0-15.1-3.4-20.1-9C78.6,196.1,73.6,199.1,68.1,200.3
							z"/>
					</g>
				</g>
			</g>
		</g>
	</g>
	<g>
		<g>
			<g>
				<g>
					<g>
						<path class="st129" d="M135.6,230.2c-1.3,0-2.6-0.1-3.8-0.3c-1.2-0.2-2.3-0.4-3.4-0.7c-10.4-2.9-18-11.7-19.4-22.4
							c-0.2-1.2-0.2-2.4-0.2-3.6c0-4.1,1-8.3,2.8-11.9c0.3-0.6,0.8-1.2,1.4-1.6c2.8-1.8,5-4.4,6.5-7.3c0.3-0.7,0.8-1.2,1.4-1.6
							c0.9-0.6,1.8-1.1,2.8-1.6c1-0.5,2.1-0.5,3.2-0.2c1,0.4,1.9,1.2,2.3,2.2c3,7.1,9.8,11.7,17.5,11.7c2.9,0,5.9-0.7,8.5-2
							c1-0.5,2.1-0.6,3.2-0.2c1,0.4,1.9,1.2,2.3,2.2c0.1,0.3,0.2,0.6,0.3,0.9c1.1,3,1.7,6.2,1.7,9.5c0,1.5-0.1,2.9-0.4,4.3
							c-0.3,1.7-0.7,3.5-1.4,5.2C156.9,223.2,146.8,230.2,135.6,230.2z M118.3,195.8c-1,2.3-1.5,4.9-1.5,7.5c0,0.8,0.1,1.7,0.2,2.5
							c1,7.5,6.4,13.7,13.7,15.7c0.8,0.2,1.5,0.4,2.4,0.5c0.9,0.1,1.8,0.2,2.7,0.2c7.8,0,14.9-4.9,17.7-12.3c0.4-1.2,0.8-2.4,1-3.6
							c0.2-1,0.2-2,0.2-3.1c0-1.2-0.1-2.4-0.3-3.5c-2.5,0.7-5.1,1.1-7.7,1.1c-8.9,0-17.1-4.3-22-11.4
							C122.8,191.9,120.7,194.1,118.3,195.8z"/>
					</g>
				</g>
			</g>
		</g>
	</g>
	<g>
		<g>
			<g>
				<g>
					<g>
						<path class="st129" d="M178.5,230.2c-1.5,0-3-0.1-4.4-0.4c-9.4-1.5-17.4-8.1-20.8-17.1c-0.3-0.9-0.3-1.9,0-2.8
							c0.4-1.2,0.8-2.4,1-3.6c0.2-1,0.2-2,0.2-3.1c0-2.3-0.4-4.6-1.2-6.7c-0.3-0.9-0.3-1.9,0-2.8c0.2-0.5,0.4-0.9,0.6-1.4
							c0.4-0.8,1-1.4,1.7-1.9c3.6-2,6.5-5.2,8.2-8.9c0.3-0.8,1-1.5,1.8-2c1-0.5,2-1,2.9-1.4c1-0.4,2.1-0.4,3.1,0.1
							c1,0.4,1.7,1.3,2.1,2.3c2.7,7.4,9.9,12.3,17.7,12.3c2.5,0,4.8-0.5,7.1-1.4c1-0.4,2.1-0.4,3.1,0c1,0.4,1.8,1.3,2.1,2.3
							c1.1,3,1.7,6.2,1.7,9.4C205.5,218.2,193.4,230.2,178.5,230.2z M161.4,211.2c2.6,5.7,7.9,9.7,14.1,10.7c1,0.2,2,0.3,3.1,0.3
							c10.4,0,18.9-8.5,18.9-19c0-1-0.1-2-0.2-3c-1.9,0.4-3.8,0.6-5.8,0.6c-9.1,0-17.6-4.7-22.5-12.1c-1.9,2.9-4.4,5.5-7.3,7.4
							c0.6,2.3,0.9,4.6,0.9,7c0,1.5-0.1,2.9-0.4,4.3C162,208.8,161.7,210.1,161.4,211.2z"/>
					</g>
				</g>
			</g>
		</g>
	</g>
	<g>
		<g>
			<g>
				<g>
					<g>
						<path class="st129" d="M152.1,256c-11,0-20.8-6.6-24.9-16.8c-0.2-0.5-0.3-1-0.3-1.5c0-0.5,0.1-1,0.3-1.5
							c0.9-2.3,1.4-4.7,1.4-7.1c0-0.8-0.1-1.7-0.2-2.5c-0.2-1.2,0.3-2.5,1.1-3.4c0.9-0.9,2.1-1.3,3.4-1.1c0.9,0.1,1.8,0.2,2.7,0.2
							c7.8,0,14.9-4.9,17.7-12.3c0.6-1.6,2.1-2.6,3.7-2.6h0c1.7,0,3.2,1,3.7,2.6c2.4,6.3,8,10.9,14.6,12c1.7,0.3,3.1,1.7,3.3,3.4
							c0.2,1.2,0.3,2.5,0.3,3.7C179,243.9,166.9,256,152.1,256z M135.2,237.6c3.2,6.4,9.7,10.4,16.9,10.4c10.4,0,18.9-8.4,18.9-18.8
							c-5.6-1.6-10.5-5-13.9-9.6c-4.8,6.4-12.4,10.4-20.5,10.7C136.4,232.7,136,235.2,135.2,237.6z"/>
					</g>
				</g>
			</g>
		</g>
	</g>
	<g>
		<g>
			<g>
				<g>
					<g>
						<path class="st129" d="M109.7,256c-14.8,0-26.9-12.1-26.9-26.9c0-1.1,0.1-2.2,0.2-3.3c0.3-2,1.9-3.5,3.9-3.5
							c9.5-0.1,17.5-7.2,18.6-16.6c0.2-2,1.9-3.5,4-3.5h0.2c1.3,0,2.6,0.1,3.8,0.3c1.8,0.3,3.2,1.7,3.4,3.4
							c1,7.5,6.4,13.7,13.7,15.7c0.8,0.2,1.5,0.4,2.4,0.5c1.8,0.3,3.1,1.7,3.4,3.4c0.2,1.2,0.2,2.4,0.2,3.6c0,3.5-0.6,6.8-1.9,10
							c0,0.1,0,0.1-0.1,0.2C130.4,249.4,120.6,256,109.7,256z M90.8,229.9c0.5,10,8.8,18.1,18.9,18.1c7.7,0,14.5-4.6,17.5-11.7
							c0,0,0-0.1,0.1-0.1c0.9-2.2,1.4-4.5,1.4-6.9c-0.1,0-0.1,0-0.2-0.1c-7.7-2.1-14-7.6-17.2-14.7
							C107.4,222.7,99.8,228.6,90.8,229.9z"/>
					</g>
				</g>
			</g>
		</g>
	</g>
	<g>
		<g>
			<g>
				<g>
					<g>
						<path class="st129" d="M102.5,200.9c-9.9,0-18.9-5.4-23.6-14c-0.8-1.5-1.5-3-1.9-4.5c-0.9-2.7-1.3-5.5-1.3-8.4
							c0-4.5,1.1-9,3.3-12.9c1.6-2.9,3.7-5.5,6.2-7.7c0.2-0.1,0.3-0.3,0.5-0.4c0.5-0.4,1-0.7,1.5-1.2c0.1-0.1,0.3-0.2,0.4-0.3
							c3.3-2.2,7-3.6,10.9-4.2c1.4-0.2,2.9,0.4,3.8,1.5c3.6,4.7,9.1,7.4,15,7.4c1,0,1.9-0.1,2.8-0.2c1.4-0.2,2.9,0.4,3.8,1.5
							c2.1,2.7,3.6,5.7,4.5,8.9c0.2,0.7,0.2,1.5,0,2.2c-0.5,1.7-0.7,3.5-0.7,5.3c0,1.8,0.2,3.6,0.7,5.3c0.2,0.7,0.2,1.5,0,2.2
							c-0.4,1.5-1,2.9-1.7,4.3c0,0,0,0.1-0.1,0.1c-2.1,4.3-5.3,7.9-9.3,10.5c-2.3,1.6-5,2.8-7.7,3.5
							C107.3,200.6,104.9,200.9,102.5,200.9z M90.1,159.7c-1.7,1.5-3.1,3.2-4.2,5.2c-1.5,2.8-2.3,5.9-2.3,9.1c0,2,0.3,4,0.9,5.9
							c0.3,1.1,0.8,2.1,1.4,3.2c3.3,6.1,9.7,9.9,16.6,9.9c1.7,0,3.4-0.2,5-0.7c2-0.5,3.8-1.4,5.4-2.5c2.8-1.8,5-4.3,6.5-7.3
							c0-0.1,0.1-0.1,0.1-0.2c0.3-0.7,0.6-1.4,0.9-2.1c-0.5-2-0.7-4.2-0.7-6.3c0-2.1,0.2-4.2,0.7-6.3c-0.4-1.2-1-2.4-1.6-3.4
							c-0.5,0-0.9,0-1.4,0c-7.6,0-14.7-3.1-19.7-8.6c-1.9,0.5-3.7,1.3-5.4,2.4C91.5,158.7,90.8,159.2,90.1,159.7z"/>
					</g>
				</g>
			</g>
		</g>
	</g>
	<g>
		<g>
			<g>
				<g>
					<g>
						<path class="st129" d="M87.7,160.5c-1.2,0-2.4-0.6-3.2-1.6c-1.3-1.7-1-4.1,0.6-5.5c0.8-0.7,1.6-1.3,2.5-1.9
							c1.8-1.2,4.1-0.8,5.4,0.9c1.3,1.7,1,4.1-0.6,5.5c-0.8,0.7-1.6,1.3-2.5,1.9C89.2,160.3,88.4,160.5,87.7,160.5z"/>
					</g>
				</g>
			</g>
		</g>
	</g>
	<g>
		<g>
			<g>
				<g>
					<g>
						<path class="st129" d="M146.5,200.9c-10.9,0-20.7-6.5-24.9-16.6c-0.4-0.9-0.7-1.9-1-2.9c-0.7-2.4-1.1-4.9-1.1-7.5
							c0-2.5,0.4-5.1,1.1-7.5c2.6-9.1,9.9-16.2,19.1-18.6c1.5-0.4,3.1,0.1,4.1,1.4c3.6,4.5,9,7,14.7,7c1.6,0,3.2-0.2,4.8-0.6
							c1.5-0.4,3.1,0.1,4.1,1.4c2.7,3.4,4.6,7.4,5.5,11.6c0.3,1.7,0.5,3.5,0.5,5.3c0,1.8-0.2,3.6-0.5,5.3c-0.4,1.9-0.9,3.7-1.7,5.3
							c0,0,0,0.1-0.1,0.1c-2.4,5.4-6.5,10-11.7,12.8c-0.2,0.1-0.5,0.3-0.9,0.5C154.9,199.9,150.7,200.9,146.5,200.9z M139.5,156.4
							c-5.4,2.2-9.5,6.7-11.2,12.3c-0.5,1.7-0.7,3.5-0.7,5.3c0,1.8,0.2,3.6,0.7,5.3c0.2,0.7,0.4,1.4,0.7,2c3,7.1,9.8,11.7,17.5,11.7
							c2.9,0,5.9-0.7,8.5-2c0.2-0.1,0.4-0.2,0.5-0.3c3.7-2,6.6-5.2,8.2-8.9c0-0.1,0-0.1,0.1-0.2c0.5-1.2,0.9-2.5,1.2-3.8
							c0.2-1.2,0.4-2.5,0.4-3.7c0-1.3-0.1-2.5-0.4-3.7c-0.4-2.2-1.3-4.3-2.5-6.3c-1.3,0.2-2.7,0.3-4,0.3
							C151.3,164.3,144.5,161.4,139.5,156.4z"/>
					</g>
				</g>
			</g>
		</g>
	</g>
	<g>
		<g>
			<g>
				<g>
					<g>
						<path class="st129" d="M191.4,200.9c-11.2,0-21.3-7-25.2-17.5c-0.5-1.3-0.9-2.7-1.2-4.1c-0.1-0.5-0.1-1,0-1.6
							c0.2-1.2,0.4-2.5,0.4-3.7c0-1.3-0.1-2.5-0.4-3.7c-0.1-0.5-0.1-1.1,0-1.6c2.1-10.5,10.1-18.7,20.5-21c1.5-0.3,3.1,0.2,4,1.4
							c3.6,4.6,9,7.2,14.8,7.2c1.4,0,2.8-0.2,4.1-0.5c1.5-0.3,3.1,0.2,4,1.4c3.8,4.8,5.8,10.6,5.8,16.7c0,11.1-6.6,20.9-16.8,25
							C198.3,200.3,194.9,200.9,191.4,200.9z M173,178.5c0.2,0.7,0.4,1.4,0.7,2.2c2.7,7.4,9.9,12.3,17.7,12.3c2.5,0,4.8-0.5,7.1-1.4
							c7.2-2.9,11.8-9.8,11.8-17.6c0-3.5-0.9-6.9-2.8-9.9c-1.1,0.1-2.1,0.2-3.2,0.2c-7.4,0-14.3-2.9-19.3-8.2
							c-6,2.1-10.5,7.1-12,13.4c0.2,1.5,0.4,3,0.4,4.5C173.4,175.5,173.3,177,173,178.5z"/>
					</g>
				</g>
			</g>
		</g>
	</g>
	<g>
		<g>
			<g>
				<g>
					<g>
						<path class="st129" d="M75,164.3c-5.7,0-11.2-1.8-15.8-5.1c-0.1,0-0.1-0.1-0.2-0.1c-1.9-1.4-3.6-3.1-5.1-4.9
							c-3.8-4.8-5.8-10.6-5.8-16.8c0-6,1.9-11.7,5.6-16.4c0.6-0.8,1.4-1.3,2.4-1.5c2-0.4,3.8-1.1,5.6-2.2c0.7-0.4,1.4-0.8,2-1.3
							c1.4-1.1,3.4-1.1,4.9,0c3.3,2.6,7.3,3.9,11.5,3.9c3.2,0,6.4-0.8,9.2-2.4c1.5-0.9,3.5-0.6,4.8,0.6c2.6,2.5,4.6,5.5,6,8.8
							c0.4,1,0.4,2.1,0,3.1c-1,2.3-1.5,4.7-1.5,7.3c0,2.5,0.5,5,1.5,7.3c0.4,1,0.4,2.1,0,3.1c-1.6,3.9-4.2,7.5-7.5,10.2
							c-0.1,0.1-0.3,0.2-0.4,0.3c-0.6,0.4-1.2,0.8-1.7,1.3c-0.2,0.1-0.4,0.3-0.6,0.4c-2.7,1.8-5.6,3-8.7,3.7
							C79.1,164.1,77.1,164.3,75,164.3z M63.6,152.5c0.1,0,0.1,0.1,0.2,0.1c3.3,2.4,7.1,3.7,11.2,3.7c1.5,0,2.9-0.2,4.2-0.5
							c2.2-0.5,4.2-1.4,6.1-2.6c0.7-0.5,1.3-1.1,2-1.5c1.8-1.6,3.4-3.5,4.5-5.7c-0.9-2.8-1.4-5.7-1.4-8.7c0-3,0.5-5.9,1.4-8.7
							c-0.5-1-1.1-1.9-1.7-2.8c-3.2,1.3-6.6,2-10.1,2c-5,0-9.7-1.3-13.9-3.9c-0.1,0.1-0.3,0.2-0.4,0.2c-2,1.2-4.2,2.1-6.4,2.7
							c-2,3.1-3.1,6.7-3.1,10.4c0,4.3,1.4,8.4,4.1,11.8C61.2,150.4,62.3,151.5,63.6,152.5z"/>
					</g>
				</g>
			</g>
		</g>
	</g>
	<g>
		<g>
			<g>
				<g>
					<g>
						<path class="st129" d="M87.7,160.5c-1.2,0-2.4-0.6-3.2-1.6c-1.3-1.7-1-4.1,0.6-5.5c0.8-0.7,1.6-1.3,2.5-1.9
							c1.8-1.2,4.1-0.8,5.4,0.9c1.3,1.7,1,4.1-0.6,5.5c-0.8,0.7-1.6,1.3-2.5,1.9C89.2,160.3,88.4,160.5,87.7,160.5z"/>
					</g>
				</g>
			</g>
		</g>
	</g>
	<g>
		<g>
			<g>
				<g>
					<g>
						<path class="st129" d="M117.3,164.3c-8.5,0-16.3-3.9-21.4-10.6c-1.4-1.8-2.6-3.9-3.5-6c-1.4-3.2-2.1-6.7-2.1-10.3
							c0-3.6,0.7-7.1,2.1-10.4c2.4-5.7,6.7-10.4,12.1-13.4c1.6-0.8,3.5-0.5,4.7,0.7c3.6,3.6,8.3,5.6,13.4,5.6c3.1,0,6.2-0.8,8.9-2.3
							c1.6-0.8,3.5-0.6,4.7,0.7c2.1,2.1,3.9,4.6,5.2,7.3c1.8,3.7,2.7,7.6,2.7,11.7c0,4.1-0.9,8.1-2.7,11.8
							c-3.9,8-11.5,13.6-20.3,14.9C120,164.2,118.7,164.3,117.3,164.3z M106,122.1c-2.7,2-4.9,4.8-6.2,7.9c-1,2.3-1.5,4.8-1.5,7.3
							c0,2.5,0.5,5,1.5,7.3c0.6,1.5,1.4,2.9,2.4,4.2c3.6,4.8,9.1,7.5,15,7.5c1,0,1.9-0.1,2.8-0.2c6.2-0.9,11.5-4.8,14.3-10.5
							c1.3-2.6,1.9-5.4,1.9-8.3c0-2.9-0.6-5.7-1.9-8.3c-0.5-1.1-1.1-2.1-1.9-3.1c-3.1,1.2-6.4,1.8-9.8,1.8
							C116.6,127.9,110.8,125.9,106,122.1z"/>
					</g>
				</g>
			</g>
		</g>
	</g>
	<g>
		<g>
			<g>
				<g>
					<g>
						<path class="st129" d="M158.6,164.3c-8.2,0-15.8-3.7-20.9-10c-1.3-1.6-2.4-3.3-3.3-5.2c-0.5-1.1-0.5-2.4,0-3.5
							c1.3-2.6,1.9-5.4,1.9-8.3c0-2.9-0.6-5.7-1.9-8.3c-0.5-1.1-0.5-2.4,0-3.5c3.1-6.4,8.7-11.4,15.3-13.7c1.6-0.5,3.3-0.1,4.4,1.2
							c3.6,4.3,8.9,6.8,14.5,6.8c2.2,0,4.3-0.4,6.3-1.1c1.6-0.6,3.3-0.1,4.4,1.2c4.1,4.8,6.3,11,6.3,17.3c0,12.3-8.3,23-20.1,26.1
							C163.1,164,160.9,164.3,158.6,164.3z M142.4,147.2c0.4,0.7,0.9,1.4,1.5,2.1c3.6,4.5,9,7.1,14.7,7.1c1.6,0,3.2-0.2,4.8-0.6
							c8.3-2.2,14.2-9.7,14.2-18.3c0-3.6-1-7.1-2.9-10.1c-2,0.4-4,0.7-6,0.7c-7,0-13.6-2.7-18.5-7.4c-3.1,1.6-5.8,4.1-7.6,7.1
							c1.2,3.1,1.8,6.4,1.8,9.8C144.2,140.8,143.6,144.1,142.4,147.2z"/>
					</g>
				</g>
			</g>
		</g>
	</g>
	<g>
		<g>
			<g>
				<g>
					<g>
						<path class="st129" d="M204.4,164.3c-8.3,0-16-3.7-21.1-10.2c-3.8-4.8-5.8-10.6-5.8-16.7c0-9.5,4.9-18.2,13-23.1
							c1.5-0.9,3.5-0.7,4.8,0.5c3.5,3.3,8.1,5.1,12.9,5.1c3.4,0,6.8-0.9,9.8-2.7c1.5-0.9,3.5-0.7,4.8,0.5c5.4,5.1,8.5,12.2,8.5,19.7
							c0,12.5-8.9,23.6-21,26.3C208.4,164.1,206.4,164.3,204.4,164.3z M192.4,122.7c-4.4,3.6-6.9,8.9-6.9,14.6
							c0,4.3,1.4,8.4,4.1,11.8c3.6,4.6,9,7.2,14.8,7.2c1.4,0,2.8-0.2,4.1-0.5c8.6-1.9,14.8-9.7,14.8-18.5c0-4.4-1.4-8.5-4.1-11.8
							c-3.4,1.5-7.2,2.3-11,2.3C202.5,127.9,197,126.1,192.4,122.7z"/>
					</g>
				</g>
			</g>
		</g>
	</g>
	<g>
		<g>
			<g>
				<g>
					<g>
						<path class="st129" d="M101.3,96.7L101.3,96.7c-1.7,0-3.1-1-3.7-2.6c-0.3-0.8-0.6-1.5-1-2.2c-1.1-2-2.5-3.7-4.1-5.2
							c-1.3-1.2-1.7-3.1-1-4.7c0.8-1.6,2.5-2.5,4.3-2.2c3.4,0.6,7,1,10.6,1.4c1.5,0.2,2.8,1.2,3.3,2.6c0.5,1.4,0.2,3-0.8,4.1
							c-0.6,0.7-1.2,1.4-1.8,2.2c-0.8,1.2-1.5,2.5-2.1,3.9C104.4,95.7,103,96.7,101.3,96.7z"/>
					</g>
				</g>
			</g>
		</g>
	</g>
	<g>
		<g>
			<g>
				<g>
					<g>
						<path class="st33" d="M181.2,83.6C181.2,83.6,181.2,83.6,181.2,83.6L181.2,83.6l-0.4,0.1c-0.4,0.1-0.8,0.2-1.2,0.4
							c-8.1,2.4-17.3,4.1-27.4,5.2c-3.9,0.4-7.8,0.7-11.7,0.9c-2.3,0.1-4.7,0.2-6.9,0.2c-0.1,0-0.2,0-0.3,0h-0.1c-1.3,0-2.5,0-3.8,0
							c-7.3,0-14.6-0.4-21.8-1.1l-2.1-0.2c-3.8-0.4-7.5-0.9-11.1-1.5c-5.9-1-11.6-2.2-17.1-3.6c0,0,0,0-0.1,0
							c-1.9-0.5-3.4-1-4.8-1.4C46.4,74.7,31,61.3,29.2,45c-0.2-1.4,0.4-2.8,1.6-3.7c1.1-0.8,2.6-1,3.9-0.5
							c11.4,4.8,21.6,8.7,31,11.9c-1-10.7,1.3-20.2,6.8-28.5c0.7-1,1.8-1.7,3-1.8c1.2-0.1,2.4,0.3,3.2,1.2l40.1,41.8
							c0,0,0.1,0.1,0.2,0.2l0.1,0.1c-0.8-28.7,9-50.6,28.9-65.1c1.8-1.3,4.3-0.9,5.6,0.9c1.3,1.8,0.9,4.3-0.9,5.6
							c-18,13.1-26.4,32.4-25.6,58.8c10.3-9.9,17.5-20.9,21.2-32.9c0.5-1.5,1.8-2.6,3.3-2.8c1.6-0.2,3.1,0.6,3.9,1.9l16.6,27.1
							c13.3-4,26.5-10,40.1-18.2c1.1-0.7,2.6-0.8,3.8-0.2c1.2,0.6,2.1,1.7,2.2,3.1C220.6,61.6,207.4,75.6,181.2,83.6z"/>
					</g>
				</g>
			</g>
		</g>
	</g>
</g>
</svg>
