<?xml version="1.0" encoding="utf-8"?>
<!-- Generator: Adobe Illustrator 22.1.0, SVG Export Plug-In . SVG Version: 6.00 Build 0)  -->
<svg version="1.1" id="Layer_1" xmlns="http://www.w3.org/2000/svg" xmlns:xlink="http://www.w3.org/1999/xlink" x="0px" y="0px"
	 viewBox="0 0 256 256" style="enable-background:new 0 0 256 256;" xml:space="preserve">
<style type="text/css">
	.st0{fill:#F6D67A;}
	.st1{fill:#E77CAE;}
	.st2{fill:#AC6535;}
	.st3{fill:#EB573B;}
	.st4{fill:#464646;}
	.st5{fill:#F5B31F;}
	.st6{fill:#9B592D;}
	.st7{fill:#9B5B2F;}
	.st8{fill:#E8A41A;}
	.st9{fill:#6D6E71;}
	.st10{fill:#E5A21C;}
	.st11{fill:#C66395;}
	.st12{fill:#E09F1E;}
	.st13{fill:#FFFFFF;}
	.st14{fill:#DDB95E;}
	.st15{fill:#EAC771;}
	.st16{fill:#F9F6CD;}
	.st17{fill:#009345;}
	.st18{fill:#008438;}
	.st19{fill:#EAA51B;}
	.st20{opacity:0.1;}
	.st21{fill:#FFD11D;}
	.st22{fill:#FFE37B;}
	.st23{fill:#FFA755;}
	.st24{fill:#FFEC97;}
	.st25{fill:#BC7532;}
	.st26{fill:#EFEFEF;}
	.st27{fill:#60ACF7;}
	.st28{fill:#876C6C;}
	.st29{fill:#1DDCFF;}
	.st30{fill:#BDF3FF;}
	.st31{fill:#EFCA70;}
	.st32{fill:#EFA91D;}
	.st33{fill:#8FAE3C;}
	.st34{fill:#92A5AC;}
	.st35{fill:#E8E3BA;}
	.st36{fill:#F79932;}
	.st37{fill:#F4F4F4;}
	.st38{fill:#FFDF8F;}
	.st39{fill:#EAE5B9;}
	.st40{fill:#7E9E6A;}
	.st41{fill:#94B57F;}
	.st42{fill:#9B5D8C;}
	.st43{fill:#96557A;}
	.st44{fill:#C3755A;}
	.st45{fill:#9BD7DD;}
	.st46{fill:#90CAD3;}
	.st47{fill:#F7F7F7;}
	.st48{fill:#AFE6EF;}
	.st49{fill:#FFFAEB;}
	.st50{fill:#F4EFC3;}
	.st51{fill:#F9F9F9;}
	.st52{fill:#FFE5C4;}
	.st53{fill:#FFB024;}
	.st54{fill:#FFC612;}
	.st55{fill:#FFCE31;}
	.st56{fill:#A05C2D;}
	.st57{fill:#1DCAF2;}
	.st58{fill:#00B0E0;}
	.st59{fill:#F2A355;}
	.st60{fill:#D68032;}
	.st61{fill:#66625D;}
	.st62{fill:#54504D;}
	.st63{fill:#B76955;}
	.st64{fill:#EFE8B4;}
	.st65{fill:#B93226;}
	.st66{fill:#EFEABF;}
	.st67{fill:#90C056;}
	.st68{opacity:0.15;}
	.st69{fill:#E8C56D;}
	.st70{fill:#F7BE4B;}
	.st71{fill:#E0A338;}
	.st72{fill:#F68455;}
	.st73{fill:#E26F47;}
	.st74{fill:#EC754B;}
	.st75{fill:#4AA5BA;}
	.st76{opacity:0.5;}
	.st77{fill:#A0B1B5;}
	.st78{opacity:0.7;}
	.st79{fill:#00ADEE;}
	.st80{fill:#F4D4B3;}
	.st81{fill:#F9D97A;}
	.st82{fill:#EDC96E;}
	.st83{fill:none;}
	.st84{fill:#AF6535;}
	.st85{fill:#F18BB4;}
	.st86{fill:#B3E4FF;}
	.st87{fill:#97DFFF;}
	.st88{fill:#D06E3C;}
	.st89{fill:#B55931;}
	.st90{fill:#DA4F4B;}
	.st91{fill:#EFCAA8;}
	.st92{fill:#EA7CB1;}
	.st93{fill:#EA7DAE;}
	.st94{fill:#BC7646;}
	.st95{fill:#00A1C6;}
	.st96{fill:#FCC230;}
	.st97{fill:#F2EBB1;}
	.st98{fill:#F9D6AF;}
	.st99{fill:#D34735;}
	.st100{fill:#E5A21A;}
	.st101{fill:#849E33;}
	.st102{fill:#EFBB14;}
	.st103{fill:#D8402B;}
	.st104{fill:#829B34;}
	.st105{fill:#F88916;}
	.st106{fill:#E27513;}
	.st107{fill:#FFB41F;}
	.st108{fill:#8AA538;}
	.st109{fill:#BE6BB2;}
	.st110{fill:#AA5BA3;}
	.st111{fill:#FFDF66;}
	.st112{fill:#F4BA00;}
	.st113{fill:#E28529;}
	.st114{fill:#FF9945;}
	.st115{fill:#BA6C45;}
	.st116{fill:#EDBA15;}
	.st117{fill:#E0452F;}
	.st118{fill:#F7F2D5;}
	.st119{fill:#4C4E51;}
	.st120{fill:#EA615D;}
	.st121{fill:#DD4A36;}
	.st122{fill:#F6AF72;}
	.st123{fill:#E8955D;}
	.st124{fill:#E4C074;}
	.st125{fill:#EAE4C3;}
	.st126{fill:#BF3522;}
	.st127{fill:#D13E33;}
	.st128{fill:#AA5EA3;}
	.st129{fill:#DD443C;}
	.st130{fill:#AA5FA3;}
	.st131{fill:#B7C536;}
	.st132{fill:#F2872F;}
	.st133{fill:#AF5FA7;}
	.st134{fill:#E29F17;}
	.st135{fill:#FFC86E;}
	.st136{fill:#A55937;}
	.st137{fill:#D8422E;}
	.st138{fill:#C3556D;}
	.st139{fill:#B24965;}
	.st140{fill:#D1A962;}
	.st141{fill:#A3961A;}
	.st142{fill:#AFA51D;}
	.st143{fill:#968A1C;}
</style>
<g>
	<g>
		<g>
			<g>
				<g>
					<path class="st6" d="M253.5,131.5c-0.1,0.3-0.3,0.5-0.4,0.8c-23,31.5-57,60.1-107,89.9c-0.6,0.4-1.4,0.6-2,0.6
						c-1.3,0-2.7-0.7-3.4-1.9c-1.1-1.9-0.6-4.3,1.2-5.5c13.6-8.7,21.7-18.8,22.4-27.8c0.4-5.5-2.1-10.5-7.4-15
						c-0.9-0.8-1.4-1.9-1.4-3.1c0-1.2,0.6-2.3,1.5-3.1l82.2-65.9c1.4-1.1,3.3-1.2,4.7-0.2C255.7,108.2,258.9,118.7,253.5,131.5z"/>
				</g>
			</g>
		</g>
	</g>
	<g>
		<g>
			<g>
				<g>
					<path class="st2" d="M244.1,106.6l-82.2,65.9c-0.7,0.6-1.6,0.9-2.5,0.9c-0.7,0-1.4-0.2-2.1-0.6c-1.4-0.9-2.2-2.6-1.8-4.2
						c5.8-28.4-5.4-49.6-15.8-62.4c-16.2-19.9-41.5-32.8-64.5-32.8c-8.7,0-16.5,1.9-23.1,5.6c-1.8,1-4.1,0.5-5.3-1.3
						c-1.2-1.8-0.8-4.1,0.9-5.4c0.3-0.2,31.6-24.1,65-46.4c11.4-7.3,23.9-11,37.5-11c21,0,43.3,9.4,61.3,25.7
						c18.4,16.8,30.5,38.9,34.1,62.3C245.7,104.3,245.2,105.7,244.1,106.6z"/>
				</g>
			</g>
		</g>
	</g>
	<g>
		<g>
			<g>
				<g>
					<path class="st6" d="M181.7,126.9c-1.8,0-3.4-1.2-3.9-3.1c-11.2-46.6-49.1-58-67.3-63.5c-7.4-2.2-10.8-3.2-11.9-6.4
						c-0.5-1.5-0.3-3.1,0.7-4.5c5.5-7.9,18.3-10.9,34.1-7.9c25.7,4.8,55.3,24.6,63.6,57.8c1.3,3,4.1,4.9,6.3,4.3
						c1-0.3,1.7-0.8,2.2-1.7c0.9-1.8,1.7-6.4-2.5-18c-6.2-16.7-25-33.7-54.4-49.1c-2-1-2.7-3.4-1.7-5.4c1-2,3.4-2.7,5.4-1.7
						c31.1,16.4,51.2,34.9,58.1,53.4c4.1,11.1,4.9,19.1,2.2,24.4c-1.5,2.9-3.9,4.9-7.1,5.8c-6.2,1.8-13.3-2.3-16-9.3
						c-0.1-0.2-0.1-0.3-0.2-0.5c-7.3-29.9-34.1-47.7-57.4-52.1c-9.8-1.9-18.4-1-23.2,2c1.3,0.4,2.7,0.8,4.1,1.3
						c18.1,5.4,60.5,18.2,72.7,69.3c0.5,2.1-0.8,4.3-3,4.8C182.3,126.9,182,126.9,181.7,126.9z"/>
				</g>
			</g>
		</g>
	</g>
	<g>
		<g>
			<g>
				<g>
					<path class="st0" d="M144,218.7c-1.9,1.2-3.9,2.3-5.8,3.4c-16.3,8.9-37.4,15-58.7,15C38.8,237.1,4,204.3,4,164
						s17.7-66.9,46.1-88.5c42.2-23.6,123.6,24.6,109.3,93.9C176.9,184.3,166.5,204.3,144,218.7z"/>
				</g>
			</g>
		</g>
	</g>
	<g>
		<g>
			<g>
				<g>
					<path class="st14" d="M88.5,218.1c-17.1,0-31.9-6.3-42.8-18.3c-8.6-9.5-14.6-22.5-16.3-35.8c-1.8-13.2,2.1-32.9,14.7-47.3
						c9.9-11.3,23.3-17.2,39-17.2c14.6,0,26.3,4.4,34.7,13.1c13.3,13.7,13.7,33.1,13.6,38.7c-0.5,16.7-15.1,34.9-35.1,34.4
						c-20.9-0.6-30.4-14.6-32.4-27.5c-1.5-9.5,5.7-17.9,13.4-20.5c7.7-2.6,15.1,0.3,19.1,7.6c1.1,1.9,0.4,4.4-1.6,5.4
						c-1.9,1.1-4.4,0.4-5.4-1.6c-2.8-5-6.7-4.9-9.5-3.9c-4.5,1.5-8.9,6.5-8.1,11.7c1.9,12.6,11.2,20.3,24.7,20.7
						c14.9,0.4,26.5-13.7,26.9-26.6c0.3-9.9-2.5-23.7-11.3-32.9c-6.9-7.1-16.6-10.7-29-10.7c-13.4,0-24.5,4.9-32.9,14.5
						c-11,12.5-14.3,29.6-12.8,41c2.3,17.5,15.7,47.2,51.2,47.2c38.7,0,67.3-42.5,67.5-42.9c1.2-1.8,3.7-2.3,5.5-1.1
						c1.8,1.2,2.3,3.7,1.1,5.5C161.4,173.5,131.5,218.1,88.5,218.1z"/>
				</g>
			</g>
		</g>
	</g>
	<g>
		<g>
			<g>
				<g>
					<path class="st14" d="M79.5,241.1c-20.8,0-40.6-8-55.8-22.5C8.4,203.9,0,184.5,0,164c0-37.8,15.2-66.9,47.7-91.7
						c0.1-0.1,0.3-0.2,0.5-0.3c7.8-4.4,16.9-6.6,27-6.6c25.3,0,53,14,70.7,35.7c15.8,19.4,22.1,43,17.9,66.8
						c6,5.8,8.9,12.7,8.4,20.1c-0.8,11.8-10,23.9-26,34c0,0-0.1,0-0.1,0.1l-0.2,0.1c-1.9,1.1-3.8,2.2-5.7,3.4
						C122.1,235.4,100,241.1,79.5,241.1z M52.3,78.8C21.6,102.3,8,128.6,8,164c0,37.5,32.7,69.1,71.5,69.1c19.3,0,40-5.3,56.8-14.5
						c1.8-1,3.7-2.1,5.5-3.3l0.1-0.1c13.6-8.7,21.7-18.8,22.3-27.8c0.4-5.5-2.1-10.5-7.4-15c-1.1-0.9-1.6-2.4-1.3-3.9
						c5.8-28.4-5.4-49.6-15.8-62.4c-16.2-19.9-41.5-32.8-64.5-32.8C66.5,73.4,58.8,75.3,52.3,78.8z"/>
				</g>
			</g>
		</g>
	</g>
</g>
</svg>
