<?xml version="1.0" encoding="utf-8"?>
<!-- Generator: Adobe Illustrator 22.1.0, SVG Export Plug-In . SVG Version: 6.00 Build 0)  -->
<svg version="1.1" id="Layer_1" xmlns="http://www.w3.org/2000/svg" xmlns:xlink="http://www.w3.org/1999/xlink" x="0px" y="0px"
	 viewBox="0 0 256 256" style="enable-background:new 0 0 256 256;" xml:space="preserve">
<style type="text/css">
	.st0{fill:#F6D67A;}
	.st1{fill:#E77CAE;}
	.st2{fill:#AC6535;}
	.st3{fill:#EB573B;}
	.st4{fill:#464646;}
	.st5{fill:#F5B31F;}
	.st6{fill:#9B592D;}
	.st7{fill:#9B5B2F;}
	.st8{fill:#E8A41A;}
	.st9{fill:#6D6E71;}
	.st10{fill:#E5A21C;}
	.st11{fill:#C66395;}
	.st12{fill:#E09F1E;}
	.st13{fill:#FFFFFF;}
	.st14{fill:#DDB95E;}
	.st15{fill:#EAC771;}
	.st16{fill:#F9F6CD;}
	.st17{fill:#009345;}
	.st18{fill:#008438;}
	.st19{fill:#EAA51B;}
	.st20{opacity:0.1;}
	.st21{fill:#FFD11D;}
	.st22{fill:#FFE37B;}
	.st23{fill:#FFA755;}
	.st24{fill:#FFEC97;}
	.st25{fill:#BC7532;}
	.st26{fill:#EFEFEF;}
	.st27{fill:#60ACF7;}
	.st28{fill:#876C6C;}
	.st29{fill:#1DDCFF;}
	.st30{fill:#BDF3FF;}
	.st31{fill:#EFCA70;}
	.st32{fill:#EFA91D;}
	.st33{fill:#8FAE3C;}
	.st34{fill:#92A5AC;}
	.st35{fill:#E8E3BA;}
	.st36{fill:#F79932;}
	.st37{fill:#F4F4F4;}
	.st38{fill:#FFDF8F;}
	.st39{fill:#EAE5B9;}
	.st40{fill:#7E9E6A;}
	.st41{fill:#94B57F;}
	.st42{fill:#9B5D8C;}
	.st43{fill:#96557A;}
	.st44{fill:#C3755A;}
	.st45{fill:#9BD7DD;}
	.st46{fill:#90CAD3;}
	.st47{fill:#F7F7F7;}
	.st48{fill:#AFE6EF;}
	.st49{fill:#FFFAEB;}
	.st50{fill:#F4EFC3;}
	.st51{fill:#F9F9F9;}
	.st52{fill:#FFE5C4;}
	.st53{fill:#FFB024;}
	.st54{fill:#FFC612;}
	.st55{fill:#FFCE31;}
	.st56{fill:#A05C2D;}
	.st57{fill:#1DCAF2;}
	.st58{fill:#00B0E0;}
	.st59{fill:#F2A355;}
	.st60{fill:#D68032;}
	.st61{fill:#66625D;}
	.st62{fill:#54504D;}
	.st63{fill:#B76955;}
	.st64{fill:#EFE8B4;}
	.st65{fill:#B93226;}
	.st66{fill:#EFEABF;}
	.st67{fill:#90C056;}
	.st68{opacity:0.15;}
	.st69{fill:#E8C56D;}
	.st70{fill:#F7BE4B;}
	.st71{fill:#E0A338;}
	.st72{fill:#F68455;}
	.st73{fill:#E26F47;}
	.st74{fill:#EC754B;}
	.st75{fill:#4AA5BA;}
	.st76{opacity:0.5;}
	.st77{fill:#A0B1B5;}
	.st78{opacity:0.7;}
	.st79{fill:#00ADEE;}
	.st80{fill:#F4D4B3;}
	.st81{fill:#F9D97A;}
	.st82{fill:#EDC96E;}
	.st83{fill:none;}
	.st84{fill:#AF6535;}
	.st85{fill:#F18BB4;}
	.st86{fill:#B3E4FF;}
	.st87{fill:#97DFFF;}
	.st88{fill:#D06E3C;}
	.st89{fill:#B55931;}
	.st90{fill:#DA4F4B;}
	.st91{fill:#EFCAA8;}
	.st92{fill:#EA7CB1;}
	.st93{fill:#EA7DAE;}
	.st94{fill:#BC7646;}
	.st95{fill:#00A1C6;}
	.st96{fill:#FCC230;}
	.st97{fill:#F2EBB1;}
	.st98{fill:#F9D6AF;}
	.st99{fill:#D34735;}
	.st100{fill:#E5A21A;}
	.st101{fill:#849E33;}
	.st102{fill:#EFBB14;}
	.st103{fill:#D8402B;}
	.st104{fill:#829B34;}
	.st105{fill:#F88916;}
	.st106{fill:#E27513;}
	.st107{fill:#FFB41F;}
	.st108{fill:#8AA538;}
	.st109{fill:#BE6BB2;}
	.st110{fill:#AA5BA3;}
	.st111{fill:#FFDF66;}
	.st112{fill:#F4BA00;}
	.st113{fill:#E28529;}
	.st114{fill:#FF9945;}
	.st115{fill:#BA6C45;}
	.st116{fill:#EDBA15;}
	.st117{fill:#E0452F;}
	.st118{fill:#F7F2D5;}
	.st119{fill:#4C4E51;}
	.st120{fill:#EA615D;}
	.st121{fill:#DD4A36;}
	.st122{fill:#F6AF72;}
	.st123{fill:#E8955D;}
	.st124{fill:#E4C074;}
	.st125{fill:#EAE4C3;}
	.st126{fill:#BF3522;}
	.st127{fill:#D13E33;}
	.st128{fill:#AA5EA3;}
	.st129{fill:#DD443C;}
	.st130{fill:#AA5FA3;}
	.st131{fill:#B7C536;}
	.st132{fill:#F2872F;}
	.st133{fill:#AF5FA7;}
	.st134{fill:#E29F17;}
	.st135{fill:#FFC86E;}
	.st136{fill:#A55937;}
	.st137{fill:#D8422E;}
	.st138{fill:#C3556D;}
	.st139{fill:#B24965;}
	.st140{fill:#D1A962;}
	.st141{fill:#A3961A;}
	.st142{fill:#AFA51D;}
	.st143{fill:#968A1C;}
</style>
<g>
	<g>
		<g>
			<g>
				<g>
					<g>
						<path class="st24" d="M196.5,59.4C178.2,41.1,153.9,31,128,31c-25.9,0-50.2,10.1-68.5,28.4C41.2,77.7,31.1,102.1,31.1,128
							s10.1,50.3,28.4,68.6C77.8,214.9,102.1,225,128,225c25.9,0,50.2-10.1,68.5-28.4c18.3-18.3,28.4-42.7,28.4-68.6
							S214.8,77.7,196.5,59.4z M128,217c-23.8,0-46.1-9.3-62.9-26.1c-16.8-16.8-26.1-39.1-26.1-62.9c0-23.8,9.2-46.1,26.1-62.9
							C81.9,48.3,104.2,39,128,39s46.1,9.3,62.9,26.1c16.8,16.8,26.1,39.1,26.1,62.9c0,23.8-9.2,46.1-26.1,62.9
							C174.1,207.7,151.7,217,128,217z M196.5,59.4C178.2,41.1,153.9,31,128,31c-25.9,0-50.2,10.1-68.5,28.4
							C41.2,77.7,31.1,102.1,31.1,128s10.1,50.3,28.4,68.6C77.8,214.9,102.1,225,128,225c25.9,0,50.2-10.1,68.5-28.4
							c18.3-18.3,28.4-42.7,28.4-68.6S214.8,77.7,196.5,59.4z M128,217c-23.8,0-46.1-9.3-62.9-26.1c-16.8-16.8-26.1-39.1-26.1-62.9
							c0-23.8,9.2-46.1,26.1-62.9C81.9,48.3,104.2,39,128,39s46.1,9.3,62.9,26.1c16.8,16.8,26.1,39.1,26.1,62.9
							c0,23.8-9.2,46.1-26.1,62.9C174.1,207.7,151.7,217,128,217z M196.5,59.4C178.2,41.1,153.9,31,128,31
							c-25.9,0-50.2,10.1-68.5,28.4C41.2,77.7,31.1,102.1,31.1,128s10.1,50.3,28.4,68.6C77.8,214.9,102.1,225,128,225
							c25.9,0,50.2-10.1,68.5-28.4c18.3-18.3,28.4-42.7,28.4-68.6S214.8,77.7,196.5,59.4z M128,217c-23.8,0-46.1-9.3-62.9-26.1
							c-16.8-16.8-26.1-39.1-26.1-62.9c0-23.8,9.2-46.1,26.1-62.9C81.9,48.3,104.2,39,128,39s46.1,9.3,62.9,26.1
							c16.8,16.8,26.1,39.1,26.1,62.9c0,23.8-9.2,46.1-26.1,62.9C174.1,207.7,151.7,217,128,217z"/>
					</g>
				</g>
			</g>
			<g>
				<g>
					<g>
						<path class="st24" d="M128,0C57.5,0,0.1,57.4,0.1,128S57.5,256,128,256s127.9-57.4,127.9-128S198.5,0,128,0z M128,225
							c-25.9,0-50.2-10.1-68.5-28.4c-18.3-18.3-28.4-42.7-28.4-68.6s10.1-50.3,28.4-68.6C77.8,41.1,102.1,31,128,31
							c25.9,0,50.2,10.1,68.5,28.4c18.3,18.3,28.4,42.7,28.4,68.6s-10.1,50.3-28.4,68.6C178.2,214.9,153.9,225,128,225z"/>
					</g>
				</g>
			</g>
		</g>
	</g>
	<g>
		<g>
			<g>
				<g>
					<g>
						<g>
							<path class="st24" d="M196.5,59.4C178.2,41.1,153.9,31,128,31c-25.9,0-50.2,10.1-68.5,28.4C41.2,77.7,31.1,102.1,31.1,128
								s10.1,50.3,28.4,68.6C77.8,214.9,102.1,225,128,225c25.9,0,50.2-10.1,68.5-28.4c18.3-18.3,28.4-42.7,28.4-68.6
								S214.8,77.7,196.5,59.4z M193.7,193.8c-16.8,16.8-40,27.2-65.7,27.2c-25.7,0-48.9-10.4-65.7-27.2
								c-16.8-16.8-27.2-40.1-27.2-65.8c0-25.7,10.4-48.9,27.2-65.8C79.1,45.4,102.3,35,128,35c25.7,0,48.9,10.4,65.7,27.2
								c16.8,16.8,27.2,40.1,27.2,65.8C220.9,153.7,210.5,176.9,193.7,193.8z"/>
						</g>
					</g>
				</g>
			</g>
		</g>
	</g>
	<g>
		<g>
			<g>
				<g>
					<g>
						<path class="st111" d="M220.9,128H128l65.7-65.8C210.5,79.1,220.9,102.3,220.9,128z"/>
					</g>
				</g>
			</g>
		</g>
	</g>
	<g>
		<g>
			<g>
				<g>
					<g>
						<path class="st111" d="M193.7,62.2L128,128V35C153.7,35,176.9,45.4,193.7,62.2z"/>
					</g>
				</g>
			</g>
		</g>
	</g>
	<g>
		<g>
			<g>
				<g>
					<g>
						<path class="st111" d="M128,35v93L62.3,62.2C79.1,45.4,102.3,35,128,35z"/>
					</g>
				</g>
			</g>
		</g>
	</g>
	<g>
		<g>
			<g>
				<g>
					<g>
						<path class="st111" d="M128,128H35.1c0-25.7,10.4-48.9,27.2-65.8L128,128z"/>
					</g>
				</g>
			</g>
		</g>
	</g>
	<g>
		<g>
			<g>
				<g>
					<g>
						<path class="st111" d="M128,128l-65.7,65.8c-16.8-16.8-27.2-40.1-27.2-65.8H128z"/>
					</g>
				</g>
			</g>
		</g>
	</g>
	<g>
		<g>
			<g>
				<g>
					<g>
						<path class="st111" d="M128,128v93c-25.7,0-48.9-10.4-65.7-27.2L128,128z"/>
					</g>
				</g>
			</g>
		</g>
	</g>
	<g>
		<g>
			<g>
				<g>
					<g>
						<path class="st111" d="M193.7,193.8c-16.8,16.8-40,27.2-65.7,27.2v-93L193.7,193.8z"/>
					</g>
				</g>
			</g>
		</g>
	</g>
	<g>
		<g>
			<g>
				<g>
					<g>
						<path class="st111" d="M220.9,128c0,25.7-10.4,48.9-27.2,65.8L128,128H220.9z"/>
					</g>
				</g>
			</g>
		</g>
	</g>
	<g>
		<g>
			<g>
				<g>
					<g>
						<path class="st112" d="M220.9,132C220.9,132,220.9,132,220.9,132H128c-1.6,0-3.1-1-3.7-2.5c-0.6-1.5-0.3-3.2,0.9-4.4
							l65.7-65.8c0.8-0.8,1.8-1.2,2.8-1.2c1.1,0,2.1,0.4,2.8,1.2c18.2,18.2,28.3,42.4,28.4,68.2c0,0.1,0,0.3,0,0.4
							C224.9,130.2,223.1,132,220.9,132z M137.6,124h79.2c-0.9-20.9-9-40.6-23.2-56L137.6,124z"/>
					</g>
				</g>
			</g>
		</g>
	</g>
	<g>
		<g>
			<g>
				<g>
					<g>
						<path class="st112" d="M128,132c-0.5,0-1-0.1-1.5-0.3c-1.5-0.6-2.5-2.1-2.5-3.7V35c0-2.2,1.8-4,4-4
							c25.9,0,50.2,10.1,68.5,28.4c1.6,1.6,1.6,4.1,0,5.7l-65.7,65.8C130.1,131.6,129,132,128,132z M132,39.1v79.2l56-56
							C172.5,48.1,152.9,40,132,39.1z"/>
					</g>
				</g>
			</g>
		</g>
	</g>
	<g>
		<g>
			<g>
				<g>
					<g>
						<path class="st112" d="M128,132c-1,0-2.1-0.4-2.8-1.2L59.5,65.1c-1.6-1.6-1.6-4.1,0-5.7C77.8,41.1,102.1,31,128,31
							c2.2,0,4,1.8,4,4v93c0,1.6-1,3.1-2.5,3.7C129,131.9,128.5,132,128,132z M68,62.3l56,56V39.1C103.1,40,83.5,48.1,68,62.3z"/>
					</g>
				</g>
			</g>
		</g>
	</g>
	<g>
		<g>
			<g>
				<g>
					<g>
						<path class="st112" d="M128,132C128,132,128,132,128,132H35.1c-2.2,0-4-1.8-4-4c0-25.9,10.1-50.3,28.4-68.6
							c0.8-0.8,1.8-1.2,2.8-1.2h0c1.1,0,2.1,0.4,2.8,1.2l65.5,65.5c0.9,0.7,1.4,1.8,1.4,3.1C132,130.2,130.2,132,128,132z M39.2,124
							h79.2l-56-56C48.2,83.4,40.1,103.1,39.2,124z"/>
					</g>
				</g>
			</g>
		</g>
	</g>
	<g>
		<g>
			<g>
				<g>
					<g>
						<path class="st112" d="M62.3,197.8c-1.1,0-2.1-0.4-2.8-1.2c-18.3-18.3-28.4-42.7-28.4-68.6c0-2.2,1.8-4,4-4H128
							c1.6,0,3.1,1,3.7,2.5c0.6,1.5,0.3,3.2-0.9,4.4l-65.7,65.8C64.4,197.3,63.4,197.8,62.3,197.8z M39.2,132
							c0.9,20.9,9,40.6,23.2,56l56-56H39.2z"/>
					</g>
				</g>
			</g>
		</g>
	</g>
	<g>
		<g>
			<g>
				<g>
					<g>
						<path class="st112" d="M128,225c-25.9,0-50.2-10.1-68.5-28.4c-1.6-1.6-1.6-4.1,0-5.7l65.7-65.8c1.1-1.1,2.9-1.5,4.4-0.9
							c1.5,0.6,2.5,2.1,2.5,3.7v93C132,223.2,130.2,225,128,225z M68,193.7c15.4,14.2,35.1,22.3,56,23.2v-79.2L68,193.7z"/>
					</g>
				</g>
			</g>
		</g>
	</g>
	<g>
		<g>
			<g>
				<g>
					<g>
						<path class="st112" d="M128,225c-2.2,0-4-1.8-4-4v-93c0-1.6,1-3.1,2.5-3.7c1.5-0.6,3.2-0.3,4.4,0.9l65.7,65.8
							c1.6,1.6,1.6,4.1,0,5.7C178.2,214.9,153.9,225,128,225z M132,137.7v79.2c20.9-0.9,40.5-9.1,56-23.2L132,137.7z"/>
					</g>
				</g>
			</g>
		</g>
	</g>
	<g>
		<g>
			<g>
				<g>
					<g>
						<path class="st112" d="M193.7,197.8L193.7,197.8c-1.1,0-2.1-0.4-2.8-1.2l-65.7-65.8c-1.1-1.1-1.5-2.9-0.9-4.4
							c0.6-1.5,2.1-2.5,3.7-2.5h92.9c2.2,0,4,1.8,4,4c0,25.9-10.1,50.3-28.4,68.6C195.8,197.3,194.7,197.8,193.7,197.8z M137.6,132
							l56,56c14.1-15.5,22.3-35.1,23.2-56H137.6z"/>
					</g>
				</g>
			</g>
		</g>
	</g>
</g>
</svg>
