<?xml version="1.0" encoding="utf-8"?>
<!-- Generator: Adobe Illustrator 22.1.0, SVG Export Plug-In . SVG Version: 6.00 Build 0)  -->
<svg version="1.1" id="Layer_1" xmlns="http://www.w3.org/2000/svg" xmlns:xlink="http://www.w3.org/1999/xlink" x="0px" y="0px"
	 viewBox="0 0 256 256" style="enable-background:new 0 0 256 256;" xml:space="preserve">
<style type="text/css">
	.st0{fill:#F6D67A;}
	.st1{fill:#E77CAE;}
	.st2{fill:#AC6535;}
	.st3{fill:#EB573B;}
	.st4{fill:#464646;}
	.st5{fill:#F5B31F;}
	.st6{fill:#9B592D;}
	.st7{fill:#9B5B2F;}
	.st8{fill:#E8A41A;}
	.st9{fill:#6D6E71;}
	.st10{fill:#E5A21C;}
	.st11{fill:#C66395;}
	.st12{fill:#E09F1E;}
	.st13{fill:#FFFFFF;}
	.st14{fill:#DDB95E;}
	.st15{fill:#EAC771;}
	.st16{fill:#F9F6CD;}
	.st17{fill:#009345;}
	.st18{fill:#008438;}
	.st19{fill:#EAA51B;}
	.st20{opacity:0.1;}
	.st21{fill:#FFD11D;}
	.st22{fill:#FFE37B;}
	.st23{fill:#FFA755;}
	.st24{fill:#FFEC97;}
	.st25{fill:#BC7532;}
	.st26{fill:#EFEFEF;}
	.st27{fill:#60ACF7;}
	.st28{fill:#876C6C;}
	.st29{fill:#1DDCFF;}
	.st30{fill:#BDF3FF;}
	.st31{fill:#EFCA70;}
	.st32{fill:#EFA91D;}
	.st33{fill:#8FAE3C;}
	.st34{fill:#92A5AC;}
	.st35{fill:#E8E3BA;}
	.st36{fill:#F79932;}
	.st37{fill:#F4F4F4;}
	.st38{fill:#FFDF8F;}
	.st39{fill:#EAE5B9;}
	.st40{fill:#7E9E6A;}
	.st41{fill:#94B57F;}
	.st42{fill:#9B5D8C;}
	.st43{fill:#96557A;}
	.st44{fill:#C3755A;}
	.st45{fill:#9BD7DD;}
	.st46{fill:#90CAD3;}
	.st47{fill:#F7F7F7;}
	.st48{fill:#AFE6EF;}
	.st49{fill:#FFFAEB;}
	.st50{fill:#F4EFC3;}
	.st51{fill:#F9F9F9;}
	.st52{fill:#FFE5C4;}
	.st53{fill:#FFB024;}
	.st54{fill:#FFC612;}
	.st55{fill:#FFCE31;}
	.st56{fill:#A05C2D;}
	.st57{fill:#1DCAF2;}
	.st58{fill:#00B0E0;}
	.st59{fill:#F2A355;}
	.st60{fill:#D68032;}
	.st61{fill:#66625D;}
	.st62{fill:#54504D;}
	.st63{fill:#B76955;}
	.st64{fill:#EFE8B4;}
	.st65{fill:#B93226;}
	.st66{fill:#EFEABF;}
	.st67{fill:#90C056;}
	.st68{opacity:0.15;}
	.st69{fill:#E8C56D;}
	.st70{fill:#F7BE4B;}
	.st71{fill:#E0A338;}
	.st72{fill:#F68455;}
	.st73{fill:#E26F47;}
	.st74{fill:#EC754B;}
	.st75{fill:#4AA5BA;}
	.st76{opacity:0.5;}
	.st77{fill:#A0B1B5;}
	.st78{opacity:0.7;}
	.st79{fill:#00ADEE;}
	.st80{fill:#F4D4B3;}
	.st81{fill:#F9D97A;}
	.st82{fill:#EDC96E;}
	.st83{fill:none;}
	.st84{fill:#AF6535;}
	.st85{fill:#F18BB4;}
	.st86{fill:#B3E4FF;}
	.st87{fill:#97DFFF;}
	.st88{fill:#D06E3C;}
	.st89{fill:#B55931;}
	.st90{fill:#DA4F4B;}
	.st91{fill:#EFCAA8;}
	.st92{fill:#EA7CB1;}
	.st93{fill:#EA7DAE;}
	.st94{fill:#BC7646;}
	.st95{fill:#00A1C6;}
	.st96{fill:#FCC230;}
	.st97{fill:#F2EBB1;}
	.st98{fill:#F9D6AF;}
	.st99{fill:#D34735;}
	.st100{fill:#E5A21A;}
	.st101{fill:#849E33;}
	.st102{fill:#EFBB14;}
	.st103{fill:#D8402B;}
	.st104{fill:#829B34;}
	.st105{fill:#F88916;}
	.st106{fill:#E27513;}
	.st107{fill:#FFB41F;}
	.st108{fill:#8AA538;}
	.st109{fill:#BE6BB2;}
	.st110{fill:#AA5BA3;}
	.st111{fill:#FFDF66;}
	.st112{fill:#F4BA00;}
	.st113{fill:#E28529;}
	.st114{fill:#FF9945;}
	.st115{fill:#BA6C45;}
	.st116{fill:#EDBA15;}
	.st117{fill:#E0452F;}
	.st118{fill:#F7F2D5;}
	.st119{fill:#4C4E51;}
	.st120{fill:#EA615D;}
	.st121{fill:#DD4A36;}
	.st122{fill:#F6AF72;}
	.st123{fill:#E8955D;}
	.st124{fill:#E4C074;}
	.st125{fill:#EAE4C3;}
	.st126{fill:#BF3522;}
	.st127{fill:#D13E33;}
	.st128{fill:#AA5EA3;}
	.st129{fill:#DD443C;}
	.st130{fill:#AA5FA3;}
	.st131{fill:#B7C536;}
	.st132{fill:#F2872F;}
	.st133{fill:#AF5FA7;}
	.st134{fill:#E29F17;}
	.st135{fill:#FFC86E;}
	.st136{fill:#A55937;}
	.st137{fill:#D8422E;}
	.st138{fill:#C3556D;}
	.st139{fill:#B24965;}
	.st140{fill:#D1A962;}
	.st141{fill:#A3961A;}
	.st142{fill:#AFA51D;}
	.st143{fill:#968A1C;}
</style>
<g>
	<g>
		<g>
			<g>
				<g>
					<path class="st8" d="M155.9,162c-0.6,0-1.2-0.1-1.8-0.4c-0.2-0.1-0.4-0.2-0.6-0.4c-0.9-0.6-1.5-1.6-1.7-2.6c-0.2-1,0-2.1,0.6-3
						c0.1-0.1,0.1-0.2,0.2-0.3c0.4-0.6,0.8-1.3,1.2-1.9c0.5-0.8,1-1.6,1.4-2.4l0.7-1.2c0.4-0.8,0.8-1.6,1.2-2.4l0.6-1.3
						c0.2-0.5,0.5-1,0.7-1.5c0.3-0.7,0.6-1.3,0.9-2c0,0,0-0.1,0.1-0.1l0.1-0.2c0.7-1.7,1.3-3.4,1.9-5.1c0.2-0.5,0.3-0.9,0.4-1.3
						c0.7-2.1,2.9-3.3,5-2.6c2.1,0.7,3.3,2.9,2.6,5c-2.4,7.7-5.8,15.1-10.3,21.9C158.5,161.3,157.2,162,155.9,162z M12.1,152.5
						c-1.5,0-2.9-0.8-3.6-2.3c-5.3-11-8.1-22.9-8.4-35.1c-0.1-2.2,1.7-4,3.9-4.1c2.2,0,4,1.7,4.1,3.9c0.3,10.1,3,21.1,7.7,32
						c0.9,2,0,4.3-2,5.2C13.2,152.4,12.6,152.5,12.1,152.5z"/>
				</g>
			</g>
		</g>
	</g>
	<g>
		<g>
			<g>
				<g>
					<path class="st8" d="M114.4,178.6c-0.9,0-1.9-0.3-2.7-1c-5.8-5.1-10.8-11-15-17.4c-0.6-1-0.8-2.1-0.5-3.2
						c0.3-1,0.9-1.8,1.8-2.4c0,0,0,0,0,0c0.9-0.6,2-0.8,3-0.6c1,0.2,2,0.8,2.6,1.7c3.7,5.6,8.3,11,13.6,16.1c1.6,1.5,1.6,4,0.2,5.6
						C116.6,178.2,115.5,178.6,114.4,178.6z"/>
				</g>
			</g>
		</g>
	</g>
	<g>
		<g>
			<g>
				<g>
					<path class="st5" d="M128,185.9c-17.2,12.4-36.9,21-53.4,26.6c-15,5.2-27.4,7.9-32.7,9.1c-19.1,4.1-33.7-28.4-12.5-33.9
						c2-0.5,4.7-1.3,7.7-2.2c16-3.5,29.9-8.7,41.6-15.6c0.7-0.3,1.3-0.6,2-0.9c0.7-0.3,1.3-0.6,1.9-1c0.7-0.3,1.3-0.6,1.9-1
						c0.8-0.4,1.6-0.8,2.4-1.2c0.8-0.4,1.6-0.8,2.4-1.3c1.6-0.9,3.3-1.8,4.9-2.8c0.5-0.3,1-0.6,1.5-0.9c0.7-0.4,1.4-0.8,2-1.3
						c0.8-0.5,1.6-1,2.4-1.5c4,6.2,8.9,11.8,14.3,16.6C118.6,178.7,123.2,182.4,128,185.9C128,185.9,128,185.9,128,185.9z"/>
				</g>
			</g>
		</g>
	</g>
	<g>
		<g>
			<g>
				<g>
					<path class="st5" d="M169.3,112.9c0,0.7,0,1.4,0,2.1c0,0.7,0,1.4-0.1,2.1v0.1c0,0.7-0.1,1.4-0.1,2c-0.1,0.8-0.1,1.6-0.2,2.4
						c-0.2,1.8-0.4,3.6-0.7,5.3c-0.1,0.6-0.2,1.2-0.3,1.7c-0.1,0.4-0.2,0.9-0.3,1.3c-0.1,0.5-0.2,1-0.3,1.5c-0.2,0.7-0.3,1.3-0.5,2
						c-0.3,1.2-0.7,2.4-1,3.6c-0.1,0.5-0.3,0.9-0.5,1.4c-0.6,1.8-1.3,3.6-2,5.3c-0.1,0.1-0.1,0.3-0.2,0.4c-0.3,0.7-0.6,1.4-0.9,2.1
						c-0.3,0.6-0.5,1.1-0.8,1.7c-0.2,0.4-0.4,0.9-0.6,1.3c-0.4,0.9-0.9,1.7-1.3,2.5c-0.2,0.4-0.5,0.8-0.7,1.2
						c-0.5,0.8-1,1.6-1.5,2.5c-0.4,0.7-0.9,1.4-1.3,2.1c-0.1,0.1-0.1,0.2-0.2,0.3c-0.5-0.3-1-0.6-1.4-1c-0.5-0.3-0.9-0.6-1.4-1
						c-0.5-0.4-1-0.7-1.6-1.1c-1.2-0.9-2.4-1.8-3.5-2.7c-0.7-0.5-1.3-1-1.9-1.5c-0.4-0.4-0.9-0.7-1.3-1.1c-1.6-1.3-3.1-2.7-4.5-4.1
						c-0.9-0.9-1.7-1.7-2.5-2.6c-0.1-0.1-0.2-0.2-0.3-0.4c-0.4-0.4-0.8-0.9-1.1-1.3c0,0-0.1-0.1-0.1-0.1c-0.3-0.4-0.7-0.8-1-1.2
						c-0.5-0.6-0.9-1.2-1.4-1.7c-0.4-0.5-0.7-1-1.1-1.5c0-0.1-0.1-0.1-0.1-0.2c-0.3-0.5-0.7-1-1-1.5c-0.6-0.9-1.2-1.9-1.7-2.8
						c-0.2-0.3-0.3-0.6-0.5-0.9c-0.2-0.4-0.4-0.8-0.6-1.2c-0.2-0.5-0.5-1-0.7-1.4c0,0,0-0.1,0-0.1c0.1-0.3,0.3-0.6,0.4-0.9
						c0.1-0.3,0.2-0.5,0.3-0.8c0.3-0.6,0.5-1.2,0.7-1.9c0.1-0.3,0.2-0.5,0.3-0.8c0.4-1.2,0.7-2.3,1-3.5c0.1-0.4,0.2-0.7,0.2-1.1
						c0,0,0-0.1,0-0.1c0.1-0.4,0.2-0.9,0.2-1.4c0.1-0.5,0.1-1,0.2-1.6c0.1-0.4,0.1-0.8,0.1-1.2c0-0.5,0.1-0.9,0.1-1.4
						c0-0.4,0-0.8,0-1.2c0-1.3-0.1-2.5-0.2-3.8c0-0.3,0-0.5-0.1-0.8c0-0.5-0.1-1-0.2-1.4c-0.1-0.6-0.2-1.2-0.3-1.8
						c-0.6-3.3-1.5-6.4-2.8-9.4c-0.4-0.8-0.7-1.6-1.1-2.4c-0.2-0.3-0.3-0.7-0.5-1c-0.2-0.4-0.4-0.7-0.6-1.1
						c-0.2-0.3-0.3-0.6-0.5-0.9c-0.7-1.2-1.4-2.3-2.2-3.3c-0.2-0.3-0.5-0.7-0.7-1c-2.3-3-5-5.8-8-8.1c-0.5-0.4-1.1-0.8-1.6-1.2
						c-0.6-0.4-1.2-0.9-1.9-1.3c-0.3-0.2-0.5-0.4-0.8-0.5c-0.2-0.1-0.5-0.3-0.7-0.4c-0.4-0.2-0.7-0.4-1.1-0.6
						c-2.9-1.6-6.1-2.9-9.4-3.8c-1-0.3-1.9-0.5-2.9-0.7c-0.4-0.1-0.7-0.1-1.1-0.2c-0.2,0-0.5-0.1-0.7-0.1c-0.4-0.1-0.7-0.1-1.1-0.2
						c-0.3,0-0.5-0.1-0.8-0.1c-0.5-0.1-1.1-0.1-1.6-0.2c-0.3,0-0.5,0-0.8-0.1c-1-0.1-2.1-0.1-3.1-0.1c-24.7,0-44.8,20-44.8,44.7
						c0,0.4,0,0.8,0,1.2c0.4,19.8,10.1,43,36.8,55.8C67,176.8,53.1,182,37.1,185.5c-11-11.4-19.4-24.2-25-37c-5-11.5-7.7-23-8-33.5
						c0-0.7,0-1.4,0-2.1c0-45.6,37-82.6,82.7-82.6c15.1,0,29.2,4,41.3,11.1c11.9,6.9,22,16.7,29.2,28.4
						C164.9,82.4,169.3,97.1,169.3,112.9z"/>
				</g>
			</g>
		</g>
	</g>
	<g>
		<g>
			<g>
				<g>
					<path class="st8" d="M169.2,121.1c-0.1,0-0.2,0-0.3,0c-2.2-0.1-3.9-2-3.7-4.2c0-0.6,0.1-1.3,0.1-1.9c0-2.2,1.8-3.9,4-3.9
						c0,0,0,0,0.1,0c2.2,0,4,1.9,3.9,4.1c0,0.8,0,1.5-0.1,2.3C173.1,119.5,171.3,121.1,169.2,121.1z"/>
				</g>
			</g>
		</g>
	</g>
	<g>
		<g>
			<g>
				<g>
					<path class="st8" d="M169.1,123.3c-0.1,0-0.3,0-0.4,0c-2.2-0.2-3.8-2.2-3.6-4.4c0.1-0.6,0.1-1.2,0.1-1.9c0.1-2.2,2-3.9,4.2-3.8
						c2.2,0.1,3.9,2,3.8,4.2c0,0.7-0.1,1.5-0.2,2.2C172.9,121.7,171.1,123.3,169.1,123.3z"/>
				</g>
			</g>
		</g>
	</g>
	<g>
		<g>
			<g>
				<g>
					<path class="st8" d="M168.1,131c-0.2,0-0.5,0-0.7-0.1c-2.2-0.4-3.6-2.5-3.2-4.6c0.3-1.6,0.5-3.3,0.7-5c0.2-2.2,2.2-3.8,4.4-3.6
						c2.2,0.2,3.8,2.2,3.6,4.4c-0.2,1.9-0.5,3.8-0.8,5.6C171.7,129.6,170,131,168.1,131z"/>
				</g>
			</g>
		</g>
	</g>
	<g>
		<g>
			<g>
				<g>
					<path class="st8" d="M166.7,137.5c-0.4,0-0.7,0-1.1-0.1c-2.1-0.6-3.4-2.8-2.8-4.9c0.2-0.6,0.3-1.2,0.4-1.8
						c0.5-2.2,2.6-3.5,4.8-3c2.2,0.5,3.5,2.6,3,4.8c-0.2,0.7-0.3,1.5-0.5,2.2C170.1,136.4,168.5,137.5,166.7,137.5z"/>
				</g>
			</g>
		</g>
	</g>
	<g>
		<g>
			<g>
				<g>
					<path class="st5" d="M181.4,212.5c-15.5,7.4-33.3,12.2-53.4,13.2h0c-20.1-1-37.9-5.8-53.4-13.2c16.5-5.7,36.2-14.2,53.4-26.6
						C145.2,198.3,164.9,206.8,181.4,212.5z"/>
				</g>
			</g>
		</g>
	</g>
	<g>
		<g>
			<g>
				<g>
					<path class="st8" d="M114.4,178.6c-0.9,0-1.9-0.3-2.7-1c-5.8-5.1-10.8-11-15-17.4c-4.4-6.8-7.9-14.1-10.3-21.9
						c-0.6-2.1,0.5-4.3,2.6-5c2.1-0.7,4.3,0.5,5,2.6c0.1,0.4,0.3,0.9,0.4,1.3c0.6,1.7,1.2,3.4,1.9,5.1l0.1,0.2c0,0,0,0.1,0,0.1
						c0.3,0.7,0.6,1.3,0.9,2c0.3,0.6,0.5,1.1,0.7,1.6l0.6,1.3c0.4,0.8,0.8,1.6,1.3,2.4l0.7,1.2c0.4,0.8,0.9,1.5,1.4,2.3
						c0.4,0.7,0.8,1.3,1.2,1.9c0,0.1,0.1,0.1,0.1,0.2c0,0,0.1,0.1,0.1,0.1c3.7,5.6,8.3,11,13.6,16.1c1.6,1.5,1.6,4,0.2,5.6
						C116.6,178.2,115.5,178.6,114.4,178.6z M243.9,152.5c-0.6,0-1.1-0.1-1.7-0.4c-2-0.9-2.9-3.2-2-5.2c4.7-10.9,7.4-22,7.7-32
						c0.1-2.2,1.9-3.9,4.1-3.9c2.2,0.1,3.9,1.9,3.9,4.1c-0.3,12.3-3.1,24.1-8.4,35.1C246.9,151.7,245.4,152.5,243.9,152.5z"/>
				</g>
			</g>
		</g>
	</g>
	<g>
		<g>
			<g>
				<g>
					<path class="st5" d="M252,112.9c0,0.7,0,1.4,0,2.1c-0.3,10.5-3.1,22-8,33.5c-5.6,12.8-14,25.6-25,37
						c-16-3.5-29.9-8.7-41.6-15.6c26.7-12.8,36.4-36,36.8-55.8c0-0.4,0-0.8,0-1.2c0-24.7-20.1-44.7-44.8-44.7c-1,0-2.1,0-3.1,0.1
						c-0.3,0-0.5,0-0.8,0.1c-0.5,0-1.1,0.1-1.6,0.2c-0.3,0-0.5,0.1-0.8,0.1c-0.4,0.1-0.7,0.1-1.1,0.2c-0.2,0-0.5,0.1-0.7,0.1
						c-0.4,0.1-0.7,0.1-1.1,0.2c-1,0.2-2,0.4-2.9,0.7C150,58.1,139.9,48.3,128,41.4c12.2-7,26.3-11.1,41.3-11.1
						C215,30.3,252,67.3,252,112.9z"/>
				</g>
			</g>
		</g>
	</g>
	<g>
		<g>
			<g>
				<g>
					<path class="st5" d="M214.1,221.6c-5.4-1.2-17.7-3.9-32.7-9.1c-16.5-5.7-36.2-14.2-53.4-26.6c0,0,0,0,0,0
						c-4.8-3.5-9.3-7.2-13.6-11.3c-5.3-5.1-10.1-10.6-14.1-16.7c-0.1-0.1-0.1-0.2-0.2-0.3c-0.4-0.7-0.9-1.4-1.3-2.1
						c-0.5-0.8-1-1.6-1.5-2.5c-0.2-0.4-0.5-0.8-0.7-1.2c-0.5-0.8-0.9-1.7-1.3-2.5c-0.2-0.4-0.4-0.9-0.6-1.3
						c-0.3-0.5-0.5-1.1-0.8-1.7c-0.3-0.7-0.6-1.4-0.9-2.1c-0.1-0.1-0.1-0.2-0.2-0.4c-0.7-1.7-1.4-3.5-2-5.3
						c-0.2-0.5-0.3-0.9-0.5-1.4c-0.4-1.2-0.7-2.4-1-3.6c-0.2-0.7-0.3-1.3-0.5-2c-0.1-0.5-0.2-1-0.3-1.5c-0.1-0.4-0.2-0.9-0.3-1.3
						c-0.1-0.6-0.2-1.2-0.3-1.7c-0.3-1.7-0.5-3.5-0.7-5.3c-0.1-0.8-0.1-1.6-0.2-2.4c-0.1-0.7-0.1-1.4-0.1-2v-0.1
						c0-0.7-0.1-1.4-0.1-2.1c0-0.7,0-1.4,0-2.1c0-15.8,4.4-30.5,12.1-43.1c3.3,0.9,6.5,2.2,9.4,3.8c0.4,0.2,0.7,0.4,1.1,0.6
						c0.2,0.1,0.5,0.3,0.7,0.4c0.3,0.2,0.6,0.3,0.8,0.5c0.6,0.4,1.3,0.8,1.9,1.3c0.6,0.4,1.1,0.8,1.6,1.2c3,2.4,5.7,5.1,8,8.1
						c0.3,0.3,0.5,0.7,0.7,1c0.8,1.1,1.5,2.2,2.2,3.3c0.2,0.3,0.3,0.6,0.5,0.9c0.2,0.4,0.4,0.7,0.6,1.1c0.2,0.3,0.3,0.7,0.5,1
						c0.4,0.8,0.8,1.6,1.1,2.4c-1.3,3-2.2,6.1-2.8,9.4c-0.1,0.6-0.2,1.2-0.3,1.8c-0.1,0.5-0.1,1-0.2,1.4c0,0.3-0.1,0.5-0.1,0.8
						c-0.1,1.2-0.2,2.5-0.2,3.8c0,0.4,0,0.8,0,1.2c0,0.5,0,0.9,0.1,1.4c0,0.4,0.1,0.8,0.1,1.2c0,0.5,0.1,1.1,0.2,1.6
						c0.1,0.5,0.1,0.9,0.2,1.4c0,0,0,0.1,0,0.1c0.1,0.4,0.1,0.7,0.2,1.1c0.3,1.2,0.6,2.4,1,3.5c0.1,0.3,0.2,0.5,0.3,0.8
						c0.2,0.6,0.4,1.2,0.7,1.9c0.1,0.3,0.2,0.5,0.3,0.8c0.1,0.3,0.2,0.6,0.4,0.9c0,0,0,0.1,0,0.1c0.2,0.5,0.4,1,0.7,1.4
						c0.2,0.4,0.4,0.8,0.6,1.2c0.1,0.3,0.3,0.6,0.5,0.9c0.5,0.9,1.1,1.9,1.7,2.8c0.3,0.5,0.7,1,1,1.5c0,0.1,0.1,0.1,0.1,0.2
						c0.3,0.5,0.7,1,1.1,1.5c0.4,0.6,0.9,1.2,1.4,1.7c0.3,0.4,0.6,0.8,1,1.2c0,0,0.1,0.1,0.1,0.1c0.4,0.4,0.7,0.9,1.1,1.3
						c0.1,0.1,0.2,0.3,0.3,0.4c0.8,0.9,1.7,1.8,2.5,2.6c1.4,1.4,2.9,2.8,4.5,4.1c0.4,0.4,0.8,0.7,1.3,1.1c0.6,0.5,1.3,1,1.9,1.5
						c1.2,0.9,2.3,1.8,3.5,2.7c0.5,0.4,1,0.7,1.6,1.1c0.5,0.3,0.9,0.6,1.4,1c0.5,0.3,0.9,0.6,1.4,1c0.1,0,0.1,0.1,0.2,0.1
						c0.8,0.5,1.6,1,2.4,1.5c0.7,0.4,1.4,0.9,2,1.3c0.5,0.3,1,0.6,1.5,0.9c1.6,1,3.2,1.9,4.9,2.8c0.8,0.4,1.6,0.9,2.4,1.3
						c0.8,0.4,1.6,0.8,2.4,1.2c0.6,0.3,1.3,0.7,1.9,1c0.6,0.3,1.3,0.6,1.9,1c0.7,0.3,1.3,0.6,2,0.9c11.7,6.9,25.6,12.1,41.6,15.6
						c3.1,0.9,5.7,1.6,7.7,2.2C247.8,193.2,233.2,225.7,214.1,221.6z"/>
				</g>
			</g>
		</g>
	</g>
	<g>
		<g>
			<g>
				<g>
					<path class="st8" d="M38.5,225.9c-12.3,0-22-11.6-23.5-22.5c-1.2-9.6,3.8-17.1,13.2-19.6c2.6-0.7,5.1-1.4,7.6-2.1
						c0.1,0,0.2,0,0.3-0.1c15.6-3.4,29.1-8.5,40.4-15.2c0.1-0.1,0.2-0.1,0.3-0.2c0.6-0.3,1.3-0.6,1.9-0.9c0.7-0.3,1.3-0.6,1.9-0.9
						c0.7-0.3,1.3-0.7,1.9-1c0.8-0.4,1.6-0.8,2.3-1.2c0.8-0.4,1.6-0.8,2.3-1.3c1.7-0.9,3.3-1.8,4.7-2.7c0.6-0.3,1-0.6,1.5-0.9
						c0.7-0.4,1.4-0.8,2-1.3c0.8-0.5,1.6-1,2.3-1.5c0.9-0.6,2-0.8,3-0.6c1,0.2,2,0.8,2.5,1.7c3.8,5.8,8.4,11.1,13.6,15.8
						c0,0,0.1,0.1,0.1,0.1c3.9,3.7,8.3,7.4,13,10.8c0.7,0.5,1.3,1.2,1.6,2.1c0.5,1.7-0.1,3.5-1.5,4.5
						c-14.8,10.7-33.1,19.9-54.5,27.2c-10.7,3.7-21.9,6.8-33.2,9.2C41.3,225.8,39.9,225.9,38.5,225.9z M38.1,189.4
						c-2.5,0.7-5,1.4-7.7,2.1c-7,1.8-7.9,6.9-7.3,10.8c0.9,7.4,7.6,15.5,15.5,15.5c0.8,0,1.7-0.1,2.5-0.3c11-2.4,21.9-5.4,32.3-9
						c18.5-6.3,34.5-14,47.9-23c-3.4-2.7-6.6-5.4-9.5-8.2c-4.8-4.2-9-9-12.7-14.1c-0.4,0.3-0.8,0.5-1.2,0.8c-0.5,0.3-1.1,0.6-1.6,1
						c-1.5,0.9-3.1,1.8-4.9,2.8c-0.8,0.5-1.6,0.9-2.5,1.3c-0.8,0.4-1.6,0.8-2.4,1.3c-0.6,0.3-1.3,0.7-2,1c-0.6,0.3-1.3,0.7-2,1
						c-0.6,0.3-1.2,0.6-1.8,0.9C68.6,180.4,54.3,185.8,38.1,189.4z"/>
				</g>
			</g>
		</g>
	</g>
	<g>
		<g>
			<g>
				<g>
					<path class="st8" d="M37.1,189.5c-1.1,0-2.1-0.4-2.9-1.2c-10.9-11.2-19.8-24.4-25.8-38.2c-5.1-11.8-8-23.9-8.4-35
						c0-0.8,0-1.5,0-2.3c0-47.7,38.9-86.6,86.7-86.6c15.2,0,30.2,4,43.3,11.6c12.5,7.2,23.1,17.5,30.6,29.8
						c8.3,13.6,12.7,29.2,12.7,45.2c0,0.8,0,1.5,0,2.3c0,0.7,0,1.4-0.1,2.1c0,0.1,0,0.2,0,0.2c0,0.7-0.1,1.4-0.1,2.1
						c-0.1,0.8-0.1,1.7-0.2,2.5c-0.2,1.9-0.5,3.7-0.8,5.6c-0.1,0.6-0.2,1.2-0.3,1.9c-0.1,0.4-0.2,0.9-0.3,1.3
						c-0.1,0.5-0.2,1.1-0.4,1.6c-0.2,0.7-0.3,1.4-0.5,2.1c-0.3,1.1-0.6,2.3-1.1,3.8c-0.2,0.6-0.3,1.1-0.5,1.5
						c-0.6,1.8-1.3,3.6-2.1,5.5c-0.1,0.2-0.2,0.4-0.2,0.5c-0.3,0.7-0.6,1.4-0.9,2.1c-0.3,0.6-0.5,1.2-0.8,1.7l-0.7,1.3
						c-0.5,0.9-0.9,1.8-1.4,2.7l-0.7,1.3c-0.5,0.9-1,1.7-1.5,2.6c-0.4,0.7-0.9,1.4-1.4,2.2c0,0,0,0.1-0.1,0.1
						c-0.1,0.1-0.1,0.2-0.2,0.3c-1.2,1.8-3.6,2.2-5.5,1.1c-0.5-0.3-1.1-0.7-1.6-1.1l-0.1-0.1c-0.4-0.3-0.9-0.6-1.3-0.9
						c-0.4-0.2-0.8-0.5-1.2-0.8l-0.4-0.3c-1.4-1-2.6-1.9-3.7-2.8c-0.7-0.5-1.3-1.1-2-1.6c-0.4-0.3-0.9-0.7-1.3-1.1
						c-1.7-1.4-3.2-2.9-4.7-4.3c-0.9-0.9-1.8-1.8-2.6-2.7c-0.1-0.1-0.3-0.3-0.4-0.5c-0.4-0.4-0.7-0.8-1.1-1.2
						c-0.1-0.1-0.2-0.2-0.2-0.3c-0.3-0.4-0.7-0.8-1-1.2c-0.5-0.6-1-1.2-1.5-1.9c-0.4-0.5-0.7-1-1.1-1.5c-0.1-0.1-0.1-0.2-0.2-0.3
						c-0.4-0.5-0.7-1-1-1.5c-0.6-1-1.3-2-1.9-3c-0.2-0.3-0.4-0.7-0.6-1l-0.1-0.2c-0.2-0.3-0.4-0.7-0.5-1c-0.2-0.5-0.5-1-0.7-1.5
						c-0.1-0.3-0.2-0.5-0.2-0.6c-0.3-0.9-0.3-2,0.1-2.9c0.1-0.3,0.2-0.5,0.3-0.8c0-0.1,0-0.1,0.1-0.2c0.1-0.2,0.1-0.3,0.2-0.5
						c0,0,0-0.1,0-0.1c0.2-0.5,0.4-1.1,0.6-1.6c0.1-0.3,0.2-0.5,0.2-0.7c0.4-1.1,0.6-2.1,0.9-3.2l0.1-0.3c0-0.2,0.1-0.4,0.1-0.6
						c0,0,0,0,0,0c0,0,0-0.1,0-0.1c0.1-0.4,0.1-0.8,0.2-1.2c0.1-0.5,0.1-0.9,0.2-1.3c0-0.1,0-0.1,0-0.2c0-0.3,0.1-0.6,0.1-0.9
						c0-0.5,0.1-0.9,0.1-1.3l0-1.1c0-1.2,0-2.3-0.1-3.4c0-0.3,0-0.5-0.1-0.7c0,0,0-0.1,0-0.1c0-0.4-0.1-0.8-0.2-1.3
						c-0.1-0.6-0.2-1.1-0.3-1.6c-0.5-3-1.4-5.9-2.5-8.6c-0.4-0.8-0.7-1.6-1-2.2l-0.1-0.3c-0.1-0.2-0.2-0.4-0.3-0.5c0,0,0-0.1,0-0.1
						c-0.2-0.3-0.4-0.7-0.5-1c-0.1-0.3-0.3-0.5-0.4-0.8l-0.1-0.1c-0.6-1-1.3-2-2-3c-0.2-0.3-0.4-0.6-0.7-0.9
						c-2.1-2.8-4.6-5.3-7.3-7.4c-0.5-0.4-1-0.7-1.5-1.1c-0.6-0.4-1.1-0.8-1.7-1.2c0,0-0.1,0-0.1-0.1c-0.2-0.1-0.4-0.2-0.6-0.4
						c-0.1,0-0.1-0.1-0.2-0.1c-0.2-0.1-0.4-0.2-0.5-0.3c-0.4-0.2-0.7-0.4-1-0.6c-2.7-1.5-5.6-2.7-8.6-3.5c-1-0.3-1.8-0.5-2.7-0.6
						c0,0-0.1,0-0.1,0c-0.3-0.1-0.6-0.1-0.8-0.2l-0.7-0.1c-0.3-0.1-0.6-0.1-0.8-0.1l-0.9-0.1c-0.5-0.1-1-0.1-1.4-0.2l-0.8-0.1
						c-0.9-0.1-1.8-0.1-2.8-0.1c-22.5,0-40.8,18.3-40.8,40.7c0,0.3,0,0.7,0,1c0.2,10.9,4,37.7,34.5,52.3c1.3,0.6,2.2,2,2.3,3.4
						c0.1,1.5-0.7,2.9-2,3.6c-12,7.1-26.4,12.5-42.8,16.1C37.6,189.5,37.4,189.5,37.1,189.5z M86.7,34.3C43.3,34.3,8,69.6,8,112.9
						c0,0.7,0,1.3,0,2c0.3,10.1,3,21.1,7.7,32c5.3,12.2,13.1,24,22.7,34.2c11.8-2.8,22.5-6.5,31.9-11.2
						c-28.5-17.1-32.2-44.3-32.4-55.8c0-0.4,0-0.8,0-1.2c0-26.9,21.9-48.7,48.8-48.7c1.2,0,2.3,0,3.4,0.1l0.8,0.1
						c0.6,0,1.2,0.1,1.9,0.2l1,0.1c0.3,0.1,0.7,0.1,1,0.2l0.7,0.1c0.4,0.1,0.8,0.2,1.3,0.2c1,0.2,2,0.5,3.2,0.8
						c3.6,1,7,2.4,10.3,4.2c0.4,0.2,0.7,0.4,1.1,0.6c0.2,0.1,0.5,0.3,0.8,0.5c0.3,0.2,0.6,0.4,0.9,0.6c0.7,0.4,1.4,0.9,2,1.4
						c0.6,0.4,1.2,0.8,1.7,1.3c3.3,2.6,6.2,5.6,8.7,8.9c0.3,0.3,0.5,0.7,0.8,1.1c0.8,1.2,1.6,2.4,2.4,3.6l0.1,0.2
						c0.2,0.3,0.3,0.5,0.5,0.8c0.2,0.4,0.4,0.8,0.6,1.2c0.1,0.2,0.3,0.5,0.4,0.7l0.2,0.3c0.4,0.9,0.8,1.7,1.2,2.7
						c1.4,3.3,2.4,6.8,3,10.3c0.1,0.6,0.2,1.3,0.3,2.1c0.1,0.5,0.1,1,0.2,1.5c0,0.3,0.1,0.6,0.1,0.9c0.1,1.3,0.2,2.7,0.2,4.1l0,1.2
						c0,0.6,0,1.2-0.1,1.7c0,0.4-0.1,0.9-0.1,1.3c-0.1,0.6-0.1,1.1-0.2,1.7c-0.1,0.5-0.1,0.9-0.2,1.4c0,0.1,0,0.2-0.1,0.3
						c-0.1,0.3-0.1,0.6-0.2,0.8l-0.1,0.3c-0.3,1.4-0.7,2.7-1.1,3.9c-0.1,0.3-0.2,0.6-0.3,0.9c-0.2,0.7-0.5,1.3-0.7,2
						c0,0,0,0.1,0,0.1c0.1,0.2,0.2,0.4,0.4,0.7l0.2,0.3c0.1,0.3,0.3,0.5,0.4,0.7c0.5,1,1.1,1.8,1.6,2.7c0.3,0.5,0.6,0.9,0.9,1.3
						c0,0,0.1,0.1,0.1,0.1c0,0,0,0,0,0.1c0.3,0.4,0.6,0.9,1,1.3c0.4,0.6,0.8,1.1,1.3,1.6c0.3,0.4,0.6,0.8,0.9,1.1
						c0,0,0.1,0.1,0.1,0.1c0.3,0.4,0.6,0.8,1,1.1c0.1,0.1,0.1,0.1,0.2,0.2l0.1,0.1c0,0,0.1,0.1,0.1,0.1c0.8,0.8,1.6,1.7,2.4,2.5
						c1.3,1.3,2.7,2.6,4.3,3.9c0.4,0.3,0.8,0.7,1.2,1c0.6,0.5,1.3,1,1.9,1.5c1.1,0.8,2.2,1.7,3.4,2.6l0.3,0.2
						c0.2,0.1,0.4,0.3,0.5,0.4c0.2-0.4,0.5-0.8,0.7-1.2l0.7-1.2c0.4-0.8,0.8-1.6,1.3-2.4l0.6-1.2c0.2-0.5,0.5-1,0.7-1.5
						c0.3-0.7,0.6-1.3,0.9-2c0,0,0-0.1,0.1-0.1l0.1-0.2c0.7-1.7,1.3-3.4,1.9-5.1c0.2-0.5,0.3-0.9,0.4-1.3c0.4-1.3,0.7-2.4,1-3.4
						c0.2-0.6,0.3-1.3,0.5-1.9c0.1-0.4,0.2-0.9,0.3-1.3c0,0,0-0.1,0-0.1c0.1-0.4,0.2-0.8,0.2-1.2c0.1-0.6,0.2-1.1,0.3-1.6
						c0.3-1.7,0.5-3.4,0.7-5.1c0.1-0.8,0.1-1.5,0.2-2.3c0-0.6,0.1-1.2,0.1-1.9c0,0,0-0.1,0-0.1c0-0.7,0.1-1.3,0.1-2
						c0-0.7,0-1.4,0-2.1c0-14.5-4-28.7-11.5-41c-6.8-11.2-16.5-20.5-27.8-27.1C114.1,38,100.5,34.3,86.7,34.3z"/>
				</g>
			</g>
		</g>
	</g>
	<g>
		<g>
			<g>
				<g>
					<path class="st8" d="M128,229.7L128,229.7c-0.1,0-0.2,0-0.2,0c-19.6-0.9-38.1-5.5-54.9-13.6c-1.5-0.7-2.4-2.2-2.3-3.8
						c0.1-1.6,1.2-3,2.7-3.6c20.6-7,38.2-15.8,52.4-26.1c1.4-1,3.3-1,4.7,0c14.2,10.3,31.8,19,52.4,26.1c1.5,0.5,2.6,1.9,2.7,3.6
						c0.1,1.6-0.8,3.1-2.3,3.8c-16.8,8.1-35.3,12.6-54.9,13.6C128.1,229.7,128.1,229.7,128,229.7z M85.4,212.8
						c13.3,5.1,27.6,8.1,42.6,8.8c15-0.7,29.3-3.7,42.6-8.8c-16.2-6.3-30.5-13.6-42.6-22C115.9,199.2,101.6,206.6,85.4,212.8z"/>
				</g>
			</g>
		</g>
	</g>
	<g>
		<g>
			<g>
				<g>
					<path class="st8" d="M218.9,189.5c-0.3,0-0.6,0-0.9-0.1c-16.4-3.6-30.8-9-42.8-16.1c-1.3-0.8-2-2.1-2-3.6
						c0.1-1.5,0.9-2.8,2.3-3.4c30.5-14.6,34.3-41.4,34.5-52.3c0-0.4,0-0.7,0-1.1c0-22.5-18.3-40.7-40.8-40.7c-1,0-1.9,0-2.8,0.1
						l-0.8,0.1c-0.5,0-0.9,0.1-1.4,0.1l-0.9,0.1c-0.3,0-0.5,0.1-0.8,0.1l-0.7,0.1c-0.4,0.1-0.7,0.1-0.9,0.2c0,0-0.1,0-0.1,0
						c-0.8,0.2-1.7,0.4-2.7,0.6c-1.7,0.5-3.5-0.2-4.5-1.8c-6.8-11.2-16.5-20.5-27.8-27c-1.2-0.7-2-2-2-3.5c0-1.4,0.8-2.7,2-3.5
						c13.1-7.6,28.1-11.6,43.3-11.6c47.8,0,86.7,38.8,86.7,86.6c0,0.7,0,1.5,0,2.2c-0.3,11.1-3.2,23.2-8.4,35
						c-6,13.7-14.9,26.9-25.8,38.2C221,189.1,220,189.5,218.9,189.5z M185.8,169.9c9.3,4.7,20,8.4,31.9,11.2
						c9.5-10.2,17.4-22,22.7-34.2c4.7-10.9,7.4-22,7.7-32c0-0.7,0-1.3,0-2c0-43.3-35.3-78.6-78.7-78.6c-11.6,0-23,2.5-33.3,7.4
						c9.1,6.3,16.9,14.3,23,23.5c0.1,0,0.2,0,0.3-0.1c0.4-0.1,0.8-0.2,1.2-0.2l0.8-0.1c0.3-0.1,0.7-0.1,1-0.2l1-0.1
						c0.6-0.1,1.2-0.1,1.8-0.2l0.8-0.1c1.1-0.1,2.2-0.1,3.4-0.1c26.9,0,48.8,21.9,48.8,48.7c0,0.4,0,0.8,0,1.3
						C217.9,125.6,214.2,152.9,185.8,169.9z"/>
				</g>
			</g>
		</g>
	</g>
	<g>
		<g>
			<g>
				<g>
					<path class="st8" d="M217.5,225.9c-1.4,0-2.8-0.1-4.2-0.4c-11.3-2.4-22.5-5.5-33.2-9.2c-21.3-7.3-39.5-16.4-54.3-27.1
						c0,0-0.1-0.1-0.1-0.1c-5.1-3.7-9.8-7.6-14-11.6c-5.7-5.5-10.7-11.3-14.7-17.4c0,0-0.1-0.1-0.1-0.2c0,0-0.1-0.1-0.1-0.1
						c-0.5-0.7-0.9-1.5-1.4-2.2c-0.5-0.8-1-1.7-1.5-2.5l-0.7-1.3c-0.5-0.9-1-1.8-1.4-2.7l-0.7-1.3c-0.3-0.6-0.6-1.2-0.8-1.8
						c-0.3-0.7-0.6-1.4-1-2.2c0-0.1-0.1-0.2-0.2-0.4c-0.8-1.9-1.5-3.8-2.1-5.6c-0.2-0.4-0.3-0.9-0.5-1.4c-0.5-1.5-0.8-2.7-1.1-3.8
						c-0.2-0.7-0.3-1.4-0.5-2.1c-0.1-0.6-0.3-1.1-0.4-1.6c-0.1-0.5-0.2-0.9-0.3-1.4c-0.1-0.6-0.2-1.2-0.3-1.9
						c-0.3-1.8-0.6-3.7-0.8-5.5c-0.1-0.8-0.2-1.7-0.2-2.5c-0.1-0.7-0.1-1.4-0.1-2.1c0-0.1,0-0.2,0-0.2c0-0.7-0.1-1.4-0.1-2.1
						c0-0.7,0-1.4,0-2.2c0-16,4.4-31.6,12.7-45.2c0.9-1.5,2.8-2.2,4.5-1.8c3.5,1,7,2.4,10.2,4.2c0.4,0.2,0.7,0.4,1.1,0.6
						c0.2,0.1,0.5,0.3,0.8,0.5c0.3,0.2,0.6,0.4,0.9,0.6c0.7,0.4,1.4,0.9,2,1.4c0.6,0.4,1.2,0.8,1.7,1.3c3.3,2.6,6.2,5.6,8.7,8.9
						c0.3,0.3,0.5,0.7,0.8,1.1c0.8,1.2,1.6,2.4,2.4,3.6l0.1,0.2c0.2,0.3,0.3,0.5,0.5,0.8c0.2,0.4,0.4,0.8,0.6,1.2
						c0.1,0.2,0.3,0.5,0.4,0.7l0.2,0.3c0.4,0.9,0.8,1.7,1.2,2.7c0.4,1,0.4,2.1,0,3.1c-1.2,2.7-2,5.6-2.5,8.6
						c-0.1,0.6-0.2,1.1-0.3,1.6c-0.1,0.5-0.1,0.9-0.2,1.3c0,0,0,0.1,0,0.1c0,0.2,0,0.4-0.1,0.6c-0.1,1.2-0.1,2.3-0.1,3.5l0,1.2
						c0,0.3,0,0.7,0.1,1.1c0,0.4,0,0.6,0.1,0.9c0,0.1,0,0.1,0,0.2c0,0.4,0.1,0.9,0.2,1.3c0.1,0.4,0.1,0.8,0.2,1.2c0,0,0,0.1,0,0.1
						c0,0,0,0,0,0c0,0.2,0.1,0.4,0.1,0.6l0.1,0.3c0.2,1,0.5,2.1,0.8,3.1c0.1,0.2,0.1,0.5,0.2,0.7c0.2,0.6,0.4,1.1,0.6,1.7
						c0,0,0,0.1,0,0.1c0.1,0.2,0.1,0.3,0.2,0.5c0,0.1,0,0.1,0.1,0.2c0.1,0.2,0.2,0.5,0.3,0.7c0,0,0,0,0,0.1c0,0,0,0.1,0,0.1
						c0.2,0.4,0.4,0.9,0.6,1.3c0.1,0.2,0.3,0.5,0.4,0.8l0.2,0.3c0.1,0.3,0.3,0.5,0.4,0.7c0.5,1,1.1,1.8,1.6,2.7
						c0.3,0.5,0.6,0.9,0.9,1.3c0,0,0.1,0.1,0.1,0.1c0,0,0,0,0,0.1c0.3,0.4,0.6,0.9,1,1.3c0.4,0.6,0.8,1.1,1.3,1.6
						c0.3,0.4,0.6,0.7,0.9,1.1c0,0,0,0,0,0c0,0,0.1,0.1,0.1,0.1c0.3,0.4,0.6,0.8,1,1.1c0.1,0.1,0.1,0.1,0.2,0.2l0.1,0.1
						c0,0,0.1,0.1,0.1,0.1c0.8,0.8,1.6,1.7,2.4,2.5c1.3,1.3,2.7,2.6,4.3,3.9c0.4,0.3,0.8,0.7,1.2,1c0.6,0.5,1.3,1,1.9,1.5
						c1.1,0.8,2.2,1.7,3.4,2.6l0.3,0.2c0.4,0.3,0.8,0.5,1.2,0.8c0.4,0.3,0.8,0.6,1.2,0.8l0.2,0.1c0.5,0.3,0.9,0.6,1.4,0.9
						c0,0,0,0,0.1,0.1c0,0,0.1,0,0.1,0.1c0.8,0.5,1.5,1,2.3,1.5c0.7,0.4,1.3,0.8,2,1.2c0.5,0.3,1,0.6,1.5,0.9
						c1.6,0.9,3.1,1.8,4.8,2.8c0.8,0.4,1.5,0.8,2.3,1.2c0.8,0.4,1.6,0.8,2.4,1.2c0.6,0.3,1.3,0.6,1.9,1c0.7,0.3,1.3,0.6,1.9,0.9
						c0.7,0.3,1.3,0.6,2,0.9c0.1,0.1,0.2,0.1,0.3,0.2c11.3,6.6,24.9,11.7,40.4,15.2c0.1,0,0.2,0,0.3,0.1c2.5,0.7,5,1.4,7.6,2.1
						c9.4,2.5,14.5,10,13.2,19.6C239.5,214.3,229.7,225.9,217.5,225.9z M130.2,182.5c0,0,0.1,0.1,0.1,0.1
						c14.2,10.3,31.8,19,52.4,26.1c10.4,3.6,21.3,6.6,32.3,9c0.8,0.2,1.7,0.3,2.5,0.3c8,0,14.6-8.2,15.5-15.6
						c0.5-3.9-0.4-9-7.3-10.8c-2.7-0.7-5.2-1.4-7.7-2.1c-16.3-3.6-30.5-9-42.5-16c-0.6-0.3-1.2-0.6-1.8-0.9c-0.6-0.3-1.3-0.6-2-1
						c-0.6-0.3-1.3-0.6-1.9-1c-0.8-0.4-1.6-0.8-2.5-1.3c-0.8-0.4-1.6-0.8-2.4-1.3c-1.8-1-3.4-1.9-5-2.9c-0.5-0.3-1.1-0.6-1.6-1
						c-0.7-0.4-1.4-0.8-2.1-1.3c-0.8-0.5-1.5-1-2.3-1.5c-0.1-0.1-0.2-0.1-0.3-0.2c-0.5-0.3-1-0.7-1.5-1l-0.1-0.1
						c-0.4-0.3-0.9-0.6-1.3-0.9c-0.4-0.2-0.8-0.5-1.2-0.8l-0.4-0.3c-1.4-1-2.6-1.9-3.7-2.8c-0.7-0.5-1.3-1.1-2-1.6
						c-0.4-0.3-0.9-0.7-1.3-1.1c-1.7-1.4-3.2-2.9-4.7-4.3c-0.9-0.9-1.8-1.8-2.6-2.7c-0.1-0.1-0.3-0.3-0.4-0.5
						c-0.4-0.4-0.7-0.8-1.1-1.2c-0.1-0.1-0.1-0.2-0.2-0.2c-0.4-0.4-0.7-0.8-1-1.2c-0.5-0.6-1-1.2-1.5-1.9c-0.4-0.5-0.7-1-1.1-1.5
						c-0.1-0.1-0.1-0.2-0.2-0.3c-0.4-0.5-0.7-1-1-1.5c-0.6-1-1.3-2-1.9-3c-0.2-0.3-0.4-0.7-0.6-1l-0.1-0.2c-0.2-0.3-0.4-0.7-0.5-1
						c-0.3-0.5-0.5-1-0.7-1.5c-0.1-0.1-0.1-0.2-0.1-0.3c-0.1-0.3-0.2-0.5-0.3-0.8c-0.1-0.3-0.3-0.6-0.4-0.9c-0.3-0.6-0.5-1.3-0.8-2
						c-0.1-0.2-0.2-0.5-0.3-0.8c-0.4-1.3-0.8-2.6-1.1-3.9l-0.1-0.3c-0.1-0.3-0.1-0.6-0.2-0.8c0-0.1,0-0.2-0.1-0.3
						c-0.1-0.5-0.2-0.9-0.2-1.4c-0.1-0.6-0.2-1.1-0.2-1.7c-0.1-0.5-0.1-0.9-0.1-1.4c0-0.5-0.1-1-0.1-1.5l0-1.2
						c0-1.4,0.1-2.8,0.2-4.1c0-0.3,0-0.6,0.1-0.9c0-0.5,0.1-1,0.2-1.6c0.1-0.7,0.2-1.4,0.3-2.1c0.5-2.9,1.3-5.8,2.4-8.6
						c-0.1-0.3-0.2-0.5-0.4-0.7l-0.1-0.3c-0.1-0.2-0.2-0.4-0.3-0.5c0,0,0-0.1,0-0.1c-0.2-0.3-0.4-0.7-0.5-1
						c-0.1-0.3-0.3-0.5-0.4-0.8l-0.1-0.1c-0.6-1-1.3-2-2-3c-0.2-0.3-0.4-0.6-0.7-0.9c-2.1-2.8-4.6-5.3-7.3-7.4
						c-0.5-0.4-1-0.7-1.5-1.1c-0.6-0.4-1.1-0.8-1.7-1.2c0,0-0.1,0-0.1-0.1c-0.2-0.1-0.4-0.2-0.6-0.4c-0.1,0-0.1-0.1-0.2-0.1
						c-0.2-0.1-0.4-0.2-0.5-0.3c-0.4-0.2-0.7-0.4-1-0.6c-1.8-1-3.7-1.9-5.7-2.6c-6.5,11.7-10,24.8-10,38.3c0,0.7,0,1.3,0,2
						c0,0.7,0,1.4,0.1,2c0,0,0,0.1,0,0.1c0,0.6,0.1,1.2,0.1,1.9c0.1,0.8,0.1,1.5,0.2,2.3c0.2,1.7,0.4,3.4,0.7,5.1
						c0.1,0.6,0.2,1.1,0.3,1.6c0.1,0.5,0.2,0.9,0.3,1.3c0,0,0,0.1,0,0.1c0.1,0.4,0.2,0.9,0.3,1.3c0.2,0.7,0.3,1.3,0.5,1.9
						c0.3,1,0.6,2.1,1,3.4c0.1,0.4,0.3,0.8,0.4,1.3c0.6,1.7,1.2,3.4,1.9,5.1l0.1,0.2c0,0,0,0.1,0,0.1c0.3,0.7,0.6,1.3,0.9,2
						c0.3,0.6,0.5,1.1,0.7,1.6l0.6,1.3c0.4,0.8,0.8,1.6,1.3,2.4l0.7,1.2c0.4,0.8,0.9,1.5,1.4,2.3c0.4,0.7,0.8,1.3,1.2,1.9
						c0,0.1,0.1,0.1,0.1,0.2c0,0,0.1,0.1,0.1,0.1c3.7,5.6,8.3,11,13.6,16.1C121,175.4,125.4,179.1,130.2,182.5z"/>
				</g>
			</g>
		</g>
	</g>
	<g>
		<g>
			<g>
				<g>
					<path class="st8" d="M86.8,121.1c-2.1,0-3.9-1.6-4-3.8c0-0.8-0.1-1.5-0.1-2.3c0-2.2,1.7-4,3.9-4.1c0,0,0,0,0.1,0
						c2.2,0,4,1.8,4,3.9c0,0.6,0,1.3,0.1,1.9c0.1,2.2-1.5,4.1-3.7,4.2C86.9,121.1,86.9,121.1,86.8,121.1z"/>
				</g>
			</g>
		</g>
	</g>
	<g>
		<g>
			<g>
				<g>
					<path class="st8" d="M86.9,123.3c-2,0-3.8-1.6-4-3.6c-0.1-0.7-0.1-1.5-0.2-2.2c-0.1-2.2,1.6-4.1,3.8-4.2
						c2.2-0.1,4.1,1.6,4.2,3.8c0,0.6,0.1,1.2,0.1,1.9c0.2,2.2-1.4,4.2-3.6,4.4C87.2,123.2,87,123.3,86.9,123.3z"/>
				</g>
			</g>
		</g>
	</g>
	<g>
		<g>
			<g>
				<g>
					<path class="st8" d="M87.9,131c-1.9,0-3.6-1.4-3.9-3.3c-0.3-1.8-0.6-3.7-0.8-5.6c-0.2-2.2,1.4-4.2,3.6-4.4
						c2.2-0.2,4.2,1.4,4.4,3.6c0.2,1.7,0.4,3.4,0.7,5c0.4,2.2-1.1,4.3-3.2,4.6C88.3,131,88.1,131,87.9,131z"/>
				</g>
			</g>
		</g>
	</g>
	<g>
		<g>
			<g>
				<g>
					<path class="st8" d="M89.3,137.5c-1.8,0-3.4-1.2-3.9-2.9c-0.2-0.7-0.4-1.4-0.5-2.2c-0.5-2.2,0.9-4.3,3-4.8
						c2.2-0.5,4.3,0.9,4.8,3c0.1,0.6,0.3,1.2,0.4,1.8c0.6,2.1-0.7,4.3-2.8,4.9C90,137.5,89.6,137.5,89.3,137.5z"/>
				</g>
			</g>
		</g>
	</g>
</g>
</svg>
