<?xml version="1.0" encoding="utf-8"?>
<!-- Generator: Adobe Illustrator 22.1.0, SVG Export Plug-In . SVG Version: 6.00 Build 0)  -->
<svg version="1.1" id="Layer_1" xmlns="http://www.w3.org/2000/svg" xmlns:xlink="http://www.w3.org/1999/xlink" x="0px" y="0px"
	 viewBox="0 0 256 256" style="enable-background:new 0 0 256 256;" xml:space="preserve">
<style type="text/css">
	.st0{fill:#F6D67A;}
	.st1{fill:#E77CAE;}
	.st2{fill:#AC6535;}
	.st3{fill:#EB573B;}
	.st4{fill:#464646;}
	.st5{fill:#F5B31F;}
	.st6{fill:#9B592D;}
	.st7{fill:#9B5B2F;}
	.st8{fill:#E8A41A;}
	.st9{fill:#6D6E71;}
	.st10{fill:#E5A21C;}
	.st11{fill:#C66395;}
	.st12{fill:#E09F1E;}
	.st13{fill:#FFFFFF;}
	.st14{fill:#DDB95E;}
	.st15{fill:#EAC771;}
	.st16{fill:#F9F6CD;}
	.st17{fill:#009345;}
	.st18{fill:#008438;}
	.st19{fill:#EAA51B;}
	.st20{opacity:0.1;}
	.st21{fill:#FFD11D;}
	.st22{fill:#FFE37B;}
	.st23{fill:#FFA755;}
	.st24{fill:#FFEC97;}
	.st25{fill:#BC7532;}
	.st26{fill:#EFEFEF;}
	.st27{fill:#60ACF7;}
	.st28{fill:#876C6C;}
	.st29{fill:#1DDCFF;}
	.st30{fill:#BDF3FF;}
	.st31{fill:#EFCA70;}
	.st32{fill:#EFA91D;}
	.st33{fill:#8FAE3C;}
	.st34{fill:#92A5AC;}
	.st35{fill:#E8E3BA;}
	.st36{fill:#F79932;}
	.st37{fill:#F4F4F4;}
	.st38{fill:#FFDF8F;}
	.st39{fill:#EAE5B9;}
	.st40{fill:#7E9E6A;}
	.st41{fill:#94B57F;}
	.st42{fill:#9B5D8C;}
	.st43{fill:#96557A;}
	.st44{fill:#C3755A;}
	.st45{fill:#9BD7DD;}
	.st46{fill:#90CAD3;}
	.st47{fill:#F7F7F7;}
	.st48{fill:#AFE6EF;}
	.st49{fill:#FFFAEB;}
	.st50{fill:#F4EFC3;}
	.st51{fill:#F9F9F9;}
	.st52{fill:#FFE5C4;}
	.st53{fill:#FFB024;}
	.st54{fill:#FFC612;}
	.st55{fill:#FFCE31;}
	.st56{fill:#A05C2D;}
	.st57{fill:#1DCAF2;}
	.st58{fill:#00B0E0;}
	.st59{fill:#F2A355;}
	.st60{fill:#D68032;}
	.st61{fill:#66625D;}
	.st62{fill:#54504D;}
	.st63{fill:#B76955;}
	.st64{fill:#EFE8B4;}
	.st65{fill:#B93226;}
	.st66{fill:#EFEABF;}
	.st67{fill:#90C056;}
	.st68{opacity:0.15;}
	.st69{fill:#E8C56D;}
	.st70{fill:#F7BE4B;}
	.st71{fill:#E0A338;}
	.st72{fill:#F68455;}
	.st73{fill:#E26F47;}
	.st74{fill:#EC754B;}
	.st75{fill:#4AA5BA;}
	.st76{opacity:0.5;}
	.st77{fill:#A0B1B5;}
	.st78{opacity:0.7;}
	.st79{fill:#00ADEE;}
	.st80{fill:#F4D4B3;}
	.st81{fill:#F9D97A;}
	.st82{fill:#EDC96E;}
	.st83{fill:none;}
	.st84{fill:#AF6535;}
	.st85{fill:#F18BB4;}
	.st86{fill:#B3E4FF;}
	.st87{fill:#97DFFF;}
	.st88{fill:#D06E3C;}
	.st89{fill:#B55931;}
	.st90{fill:#DA4F4B;}
	.st91{fill:#EFCAA8;}
	.st92{fill:#EA7CB1;}
	.st93{fill:#EA7DAE;}
	.st94{fill:#BC7646;}
	.st95{fill:#00A1C6;}
	.st96{fill:#FCC230;}
	.st97{fill:#F2EBB1;}
	.st98{fill:#F9D6AF;}
	.st99{fill:#D34735;}
	.st100{fill:#E5A21A;}
	.st101{fill:#849E33;}
	.st102{fill:#EFBB14;}
	.st103{fill:#D8402B;}
	.st104{fill:#829B34;}
	.st105{fill:#F88916;}
	.st106{fill:#E27513;}
	.st107{fill:#FFB41F;}
	.st108{fill:#8AA538;}
	.st109{fill:#BE6BB2;}
	.st110{fill:#AA5BA3;}
	.st111{fill:#FFDF66;}
	.st112{fill:#F4BA00;}
	.st113{fill:#E28529;}
	.st114{fill:#FF9945;}
	.st115{fill:#BA6C45;}
	.st116{fill:#EDBA15;}
	.st117{fill:#E0452F;}
	.st118{fill:#F7F2D5;}
	.st119{fill:#4C4E51;}
	.st120{fill:#EA615D;}
	.st121{fill:#DD4A36;}
	.st122{fill:#F6AF72;}
	.st123{fill:#E8955D;}
	.st124{fill:#E4C074;}
	.st125{fill:#EAE4C3;}
	.st126{fill:#BF3522;}
	.st127{fill:#D13E33;}
	.st128{fill:#AA5EA3;}
	.st129{fill:#DD443C;}
	.st130{fill:#AA5FA3;}
	.st131{fill:#B7C536;}
	.st132{fill:#F2872F;}
	.st133{fill:#AF5FA7;}
	.st134{fill:#E29F17;}
	.st135{fill:#FFC86E;}
	.st136{fill:#A55937;}
	.st137{fill:#D8422E;}
	.st138{fill:#C3556D;}
	.st139{fill:#B24965;}
	.st140{fill:#D1A962;}
	.st141{fill:#A3961A;}
	.st142{fill:#AFA51D;}
	.st143{fill:#968A1C;}
</style>
<g>
	<g>
		<g>
			<g>
				<g>
					<path class="st90" d="M237.3,204.3l-1.2,20.4c-0.1,1.4-0.9,2.7-2.2,3.3c-0.6,0.3-1.2,0.4-1.8,0.4c-0.8,0-1.5-0.2-2.2-0.7
						l-13.1-8.5c-1.5-1-2.2-2.9-1.6-4.6c0.4-1.3,0.3-2.6-0.4-4c-0.5-1-0.6-2.3-0.1-3.4c0.4-1.1,1.3-1.9,2.5-2.3
						c6.4-2.1,14.8-4.9,14.8-4.9c1.2-0.4,2.6-0.2,3.7,0.6C236.8,201.7,237.4,203,237.3,204.3z"/>
				</g>
			</g>
		</g>
	</g>
	<g>
		<g>
			<g>
				<g>
					<path class="st90" d="M23.3,36.7c-0.7,1.3-1.2,2.8-1.5,4.5c-0.2,1.1-0.2,2.1-0.2,3.1c0.1,1.9-1.2,3.7-3.1,4.1L4.9,51.5
						c-0.3,0.1-0.6,0.1-0.9,0.1c-1,0-2-0.4-2.8-1.1c-1-0.9-1.4-2.3-1.1-3.6l4.5-23.2c0.3-1.4,1.3-2.6,2.7-3c1.4-0.5,2.9-0.1,4,0.8
						l11.4,10.4C24,33.1,24.3,35.1,23.3,36.7z"/>
				</g>
			</g>
		</g>
	</g>
	<g>
		<g>
			<g>
				<g>
					<path class="st3" d="M159.7,222.8c-3.5-3-7.5-7.7-11.3-13.5c7.9-1,15.4-3.1,20.2-5c3.3-1.3,7.1-3.5,11.3-6.2
						c9.8,3.8,20.3-0.2,27.8,2.6c4.3,1.3,8.8,4.3,10.9,8.3c1.1,2.1,1.5,4.5,0.7,7c-0.3,1.1-0.9,2.2-1.7,3.3
						C209.7,231,176.8,238.3,159.7,222.8z"/>
				</g>
			</g>
		</g>
	</g>
	<g>
		<g>
			<g>
				<g>
					<path class="st3" d="M162.9,161.9c-3.6,2.1-7.6,3.9-12.9,5.8c-6.2,2.2-12.9,2.9-18.8,4.7c-1.3-4.3-2.3-8.6-3.1-13
						c-4.8-26.8,17.2-39.4,29-31.3C164.1,132.9,162.5,147.2,162.9,161.9z"/>
				</g>
			</g>
		</g>
	</g>
	<g>
		<g>
			<g>
				<g>
					<path class="st3" d="M234.3,124.1c-1.4-3.8-4.1-6.9-8.5-9.1c-4.9-2.5-9.5-1.7-13.9,1c-0.8-6.2-2.8-16.4-8.1-16.9
						c-7.7-0.7-10.1,9.7-16,15.6c-5.9,5.9-16.3,16.9-25.6,8.7c-9.3-8.2-14.1-25.8,8.6-45c22.7-19.2,50.1-16.6,65.3-7.8
						c15.1,8.7,16.8,27.3,15.6,34.2C250.7,110.6,246.2,125.6,234.3,124.1z"/>
				</g>
			</g>
		</g>
	</g>
	<g>
		<g>
			<g>
				<g>
					<path class="st3" d="M179.8,198.1c-4.2,2.7-8,4.8-11.3,6.2c-4.8,1.9-12.3,4-20.2,5c-16.2,2.1-34.1,0-33.3-15.9
						c0.8-14,7.5-18.6,16.1-21.1c5.9-1.7,12.6-2.5,18.8-4.7c5.2-1.8,9.3-3.7,12.9-5.8c6.8-3.9,11.9-8.6,20.2-15.2
						c9-7.1,18.3-24.3,28.9-30.8c4.4-2.6,9-3.5,13.9-1c4.3,2.2,7,5.4,8.5,9.1c4.1,10.9-2.6,26.7-12,37.4
						C212.5,172.8,194.2,188.7,179.8,198.1z"/>
				</g>
			</g>
		</g>
	</g>
	<g>
		<g>
			<g>
				<g>
					<path class="st3" d="M65.5,222.5c-17.7-6.7-36.6-37.6-36.4-59.5c0.2-22,18.7-40.4,31.9-34.4c13.2,6,8.7,19.3,7.6,34.7
						c-1.2,15.4,8.9,19.4,20.2,14.3c11.3-5,19.4,0.9,23,6.4c3.6,5.5,2.5,21.5-7.1,29.7C95.1,221.9,83.2,229.2,65.5,222.5z"/>
				</g>
			</g>
		</g>
	</g>
	<g>
		<g>
			<g>
				<g>
					<path class="st3" d="M71,131.3c-7.4-3.2-11.6-12.4-9-23.3c2.6-10.9,4.2-15.8-1.2-23.4c-5.1-7.2-42.3-18.4-43.2-40
						c-0.1-1.3,0-2.6,0.2-3.9c0.4-2.3,1-4.2,2-5.9c9.2-16.2,44.4-4.5,66,23.3c23.8,30.7,17.4,55.8,9.4,65.7
						C87.3,133.6,78.5,134.5,71,131.3z"/>
				</g>
			</g>
		</g>
	</g>
	<g>
		<g>
			<g>
				<g>
					<path class="st3" d="M78.7,136.9c-3.1,0-6.2-0.7-9.2-2c-9.6-4.1-14.3-15.6-11.3-27.9l0.4-1.6c2.3-9.6,3.1-12.8-1-18.6
						c-1.1-1.5-6.2-4.4-10.7-6.9c-13.7-7.7-32.5-18.1-33.2-35.3c-0.1-1.6,0-3.1,0.3-4.7c0.4-2.7,1.2-5.1,2.5-7.2
						c3.4-6,10-9.4,18.4-9.4c17.2,0,39.5,13.3,54.2,32.2c25.7,33.1,18,60,9.4,70.6C91.3,135.1,83.7,136.9,78.7,136.9z M34.8,31.4
						c-5.6,0-9.4,1.8-11.5,5.3c-0.7,1.3-1.2,2.8-1.5,4.5c-0.2,1.1-0.2,2.1-0.2,3.1C22.2,57,38.7,66.3,50.7,73
						c6.5,3.7,11.3,6.3,13.4,9.3c6.2,8.7,4.7,14.9,2.2,25.1l-0.4,1.6c-2,8.5,0.7,16.2,6.6,18.7c7,3,13.8,0.8,19.6-6.4
						c6.6-8.2,13.2-31.5-9.5-60.7C67.9,41.4,47.4,31.4,34.8,31.4z"/>
				</g>
			</g>
		</g>
	</g>
	<g>
		<g>
			<g>
				<g>
					<path class="st3" d="M78.9,229.1c-4.7,0-9.7-1-14.8-2.9c-19.1-7.3-39.2-39.8-39-63.3c0.1-20.3,15-39.5,30.6-39.5
						c2.5,0,4.8,0.5,7,1.5c13.6,6.1,12.1,18.8,10.7,31c-0.3,2.5-0.6,5.1-0.8,7.7c-0.4,4.6,0.4,8.1,2.3,10.1c1.2,1.3,3,2,5.3,2
						c2.1,0,4.5-0.6,7-1.7c3.4-1.5,6.7-2.2,10-2.2c7.1,0,13.9,3.8,18.1,10.1c4.7,7.1,3.4,25.3-7.8,34.9
						C100.6,222.5,91.2,229.1,78.9,229.1z M55.6,131.5c-10.1,0-22.5,14.6-22.6,31.5c-0.1,20.4,17.6,49.5,33.9,55.8
						c4.1,1.6,8.1,2.4,11.9,2.4c9.7,0,17.2-5.3,23.2-10.5c8.3-7.1,8.8-20.8,6.4-24.4c-1-1.5-4.8-6.5-11.4-6.5
						c-2.1,0-4.4,0.5-6.7,1.6c-3.6,1.6-7,2.4-10.3,2.4c-4.5,0-8.4-1.6-11.1-4.6c-2.4-2.5-5-7.4-4.4-16.1c0.2-2.8,0.5-5.4,0.8-8
						c1.5-12.5,1.8-19.2-6-22.8C58.2,131.7,57,131.5,55.6,131.5z"/>
				</g>
			</g>
		</g>
	</g>
	<g>
		<g>
			<g>
				<g>
					<path class="st3" d="M138.3,214c-10.5,0-18.1-2.4-22.7-7.3c-3.3-3.5-4.8-8-4.5-13.5c0.9-17.3,10.6-22.3,19-24.8
						c2.7-0.8,5.5-1.4,8.3-2c3.5-0.7,7.1-1.5,10.3-2.6c4.7-1.7,8.6-3.4,12.2-5.4c4.8-2.8,8.8-6,13.8-10.1c1.8-1.5,3.8-3,5.9-4.8
						c3.6-2.8,7.4-7.7,11.5-12.8c5.5-7,11.3-14.3,17.9-18.3c6-3.6,12.1-4,17.8-1.1c5,2.5,8.5,6.3,10.4,11.3
						c4.9,13-2.8,30.2-12.7,41.5c-10.7,12.1-29.3,28.2-43.4,37.3c-4.6,2.9-8.6,5.1-11.9,6.5c-5.6,2.3-13.5,4.3-21.1,5.3
						C145.2,213.7,141.6,214,138.3,214z M219.9,117.5c-1.8,0-3.8,0.6-5.9,1.9c-5.3,3.2-10.6,9.9-15.7,16.4
						c-4.3,5.5-8.5,10.7-12.8,14.1c-2.1,1.7-4,3.2-5.8,4.7c-5.3,4.3-9.5,7.7-14.8,10.8c-4,2.3-8.3,4.2-13.6,6.1
						c-3.8,1.3-7.6,2.1-11.3,2.9c-2.7,0.6-5.3,1.1-7.7,1.8c-7.7,2.3-12.6,6-13.3,17.5c-0.2,3.2,0.6,5.7,2.4,7.6
						c3,3.1,8.8,4.8,16.9,4.8c2.9,0,6.1-0.2,9.5-0.7c8.2-1.1,15.3-3.2,19.2-4.8c2.9-1.2,6.5-3.1,10.6-5.8
						c13.6-8.8,31.5-24.2,41.7-35.8c8.3-9.4,14.8-24,11.3-33.4c-1.2-3.1-3.3-5.3-6.5-7C222.6,117.8,221.3,117.5,219.9,117.5z"/>
				</g>
			</g>
		</g>
	</g>
	<g>
		<g>
			<g>
				<g>
					<path class="st3" d="M169.5,130.3c-3.6,0-6.9-1.3-9.8-3.9c-5.9-5.1-9.2-12.5-9.1-20.2c0.1-7.3,3.2-18.5,17.7-30.9
						c15.1-12.8,30.8-15.5,41.3-15.5c10.4,0,20.5,2.6,28.5,7.2c17.8,10.3,18.7,31.7,17.6,38.3c-1.8,10.6-8,22.9-19.7,22.9
						c-0.7,0-1.4,0-2.2-0.1c-1.5-0.2-2.7-1.2-3.2-2.6c-1.2-3.1-3.3-5.3-6.5-7c-3.3-1.7-6.3-1.4-10,0.8c-1.2,0.7-2.6,0.8-3.8,0.2
						c-1.2-0.6-2.1-1.8-2.2-3.1c-1.2-10-3.7-13.3-4.5-13.4c-0.1,0-0.2,0-0.4,0c-2.3,0-4.1,2.6-6.7,6.8c-1.6,2.5-3.4,5.3-5.7,7.6
						l-0.5,0.5C185.3,122.9,178,130.3,169.5,130.3C169.5,130.3,169.5,130.3,169.5,130.3z M209.6,67.8c-9.2,0-23,2.4-36.2,13.6
						c-9.7,8.2-14.8,16.8-14.9,24.8c0,5.4,2.3,10.5,6.4,14.2c1.5,1.3,3,1.9,4.6,1.9c5.2,0,11.4-6.2,15.1-9.9l0.5-0.5
						c1.7-1.7,3.2-4,4.6-6.2c3.1-4.9,6.7-10.5,13.5-10.5c0.4,0,0.7,0,1.1,0c5.3,0.5,9,5.6,10.9,15.1c4.3-1.3,8.5-0.8,12.6,1.2
						c4.1,2.1,7.2,5,9.3,8.7c8.2-1.1,10.8-16,10.9-16.2c0.7-4.3,0.5-21.9-13.7-30.1C227.3,70,218.5,67.8,209.6,67.8z"/>
				</g>
			</g>
		</g>
	</g>
	<g>
		<g>
			<g>
				<g>
					<path class="st3" d="M131.2,176.3c-1.7,0-3.3-1.1-3.8-2.9c-1.4-4.5-2.4-9-3.2-13.4c-2.1-11.4,0.2-21.8,6.4-29.2
						c4.8-5.7,11.7-9.2,18.4-9.2c3.8,0,7.3,1.1,10.3,3.1c7.6,5.2,7.5,16.4,7.5,29.3c0,2.5,0,5.2,0,7.7c0,1.5-0.7,2.8-2,3.5
						c-4,2.3-8.3,4.2-13.5,6.1c-3.8,1.3-7.6,2.1-11.3,2.9c-2.7,0.6-5.3,1.1-7.7,1.8C132,176.2,131.6,176.3,131.2,176.3z M149,129.6
						c-4.4,0-9,2.4-12.3,6.3c-4.7,5.6-6.3,13.6-4.7,22.7c0.5,2.9,1.2,5.8,2,8.8c1.5-0.3,2.9-0.6,4.4-1c3.5-0.7,7.1-1.5,10.3-2.6
						c3.9-1.3,7.1-2.7,10.1-4.3c0-1.9,0-3.7,0-5.5c0-10.3,0-19.9-4-22.7C153.2,130.2,151.2,129.6,149,129.6z"/>
				</g>
			</g>
		</g>
	</g>
	<g>
		<g>
			<g>
				<g>
					<path class="st3" d="M185.6,235.6c-8.1,0-19.6-1.7-28.6-9.8c-3.8-3.2-8-8.2-12-14.3c-0.8-1.1-0.9-2.6-0.3-3.9
						c0.6-1.3,1.7-2.1,3.1-2.3c8.2-1.1,15.3-3.2,19.2-4.8c2.9-1.2,6.5-3.1,10.6-5.8c1.1-0.7,2.4-0.8,3.6-0.4c3.4,1.3,7,1.5,9.8,1.5
						c1.5,0,3-0.1,4.4-0.1c1.4-0.1,2.9-0.1,4.3-0.1c2.6,0,5.9,0.1,9.1,1.3c4.5,1.4,10.3,4.8,13.2,10.2c1.7,3.3,2,6.8,0.9,10.1
						c-0.5,1.5-1.2,3-2.3,4.3C215.2,229.7,200.5,235.6,185.6,235.6z M155.3,212.2c2.4,3.2,4.8,5.7,7,7.6c0,0,0.1,0,0.1,0.1
						c5.6,5,13.8,7.8,23.3,7.8c13.4,0,25-5.3,28.4-10.5c0-0.1,0.1-0.1,0.1-0.2c0.5-0.7,0.9-1.4,1.1-2.1c0.4-1.3,0.3-2.6-0.4-4
						c-1.4-2.7-4.8-5.2-8.4-6.3c-0.1,0-0.2-0.1-0.3-0.1c-1.6-0.6-3.6-0.8-6.4-0.8c-1.3,0-2.6,0-4,0.1c-1.5,0.1-3.1,0.1-4.7,0.1
						c-3,0-6.7-0.2-10.7-1.3c-3.9,2.4-7.4,4.3-10.3,5.5C166,209.6,160.7,211.1,155.3,212.2z"/>
				</g>
			</g>
		</g>
	</g>
</g>
</svg>
