<?xml version="1.0" encoding="utf-8"?>
<!-- Generator: Adobe Illustrator 22.1.0, SVG Export Plug-In . SVG Version: 6.00 Build 0)  -->
<svg version="1.1" id="Layer_1" xmlns="http://www.w3.org/2000/svg" xmlns:xlink="http://www.w3.org/1999/xlink" x="0px" y="0px"
	 viewBox="0 0 256 256" style="enable-background:new 0 0 256 256;" xml:space="preserve">
<style type="text/css">
	.st0{fill:#F6D67A;}
	.st1{fill:#E77CAE;}
	.st2{fill:#AC6535;}
	.st3{fill:#EB573B;}
	.st4{fill:#464646;}
	.st5{fill:#F5B31F;}
	.st6{fill:#9B592D;}
	.st7{fill:#9B5B2F;}
	.st8{fill:#E8A41A;}
	.st9{fill:#6D6E71;}
	.st10{fill:#E5A21C;}
	.st11{fill:#C66395;}
	.st12{fill:#E09F1E;}
	.st13{fill:#FFFFFF;}
	.st14{fill:#DDB95E;}
	.st15{fill:#EAC771;}
	.st16{fill:#F9F6CD;}
	.st17{fill:#009345;}
	.st18{fill:#008438;}
	.st19{fill:#EAA51B;}
	.st20{opacity:0.1;}
	.st21{fill:#FFD11D;}
	.st22{fill:#FFE37B;}
	.st23{fill:#FFA755;}
	.st24{fill:#FFEC97;}
	.st25{fill:#BC7532;}
	.st26{fill:#EFEFEF;}
	.st27{fill:#60ACF7;}
	.st28{fill:#876C6C;}
	.st29{fill:#1DDCFF;}
	.st30{fill:#BDF3FF;}
	.st31{fill:#EFCA70;}
	.st32{fill:#EFA91D;}
	.st33{fill:#8FAE3C;}
	.st34{fill:#92A5AC;}
	.st35{fill:#E8E3BA;}
	.st36{fill:#F79932;}
	.st37{fill:#F4F4F4;}
	.st38{fill:#FFDF8F;}
	.st39{fill:#EAE5B9;}
	.st40{fill:#7E9E6A;}
	.st41{fill:#94B57F;}
	.st42{fill:#9B5D8C;}
	.st43{fill:#96557A;}
	.st44{fill:#C3755A;}
	.st45{fill:#9BD7DD;}
	.st46{fill:#90CAD3;}
	.st47{fill:#F7F7F7;}
	.st48{fill:#AFE6EF;}
	.st49{fill:#FFFAEB;}
	.st50{fill:#F4EFC3;}
	.st51{fill:#F9F9F9;}
	.st52{fill:#FFE5C4;}
	.st53{fill:#FFB024;}
	.st54{fill:#FFC612;}
	.st55{fill:#FFCE31;}
	.st56{fill:#A05C2D;}
	.st57{fill:#1DCAF2;}
	.st58{fill:#00B0E0;}
	.st59{fill:#F2A355;}
	.st60{fill:#D68032;}
	.st61{fill:#66625D;}
	.st62{fill:#54504D;}
	.st63{fill:#B76955;}
	.st64{fill:#EFE8B4;}
	.st65{fill:#B93226;}
	.st66{fill:#EFEABF;}
	.st67{fill:#90C056;}
	.st68{opacity:0.15;}
	.st69{fill:#E8C56D;}
	.st70{fill:#F7BE4B;}
	.st71{fill:#E0A338;}
	.st72{fill:#F68455;}
	.st73{fill:#E26F47;}
	.st74{fill:#EC754B;}
	.st75{fill:#4AA5BA;}
	.st76{opacity:0.5;}
	.st77{fill:#A0B1B5;}
	.st78{opacity:0.7;}
	.st79{fill:#00ADEE;}
	.st80{fill:#F4D4B3;}
	.st81{fill:#F9D97A;}
	.st82{fill:#EDC96E;}
	.st83{fill:none;}
	.st84{fill:#AF6535;}
	.st85{fill:#F18BB4;}
	.st86{fill:#B3E4FF;}
	.st87{fill:#97DFFF;}
	.st88{fill:#D06E3C;}
	.st89{fill:#B55931;}
	.st90{fill:#DA4F4B;}
	.st91{fill:#EFCAA8;}
	.st92{fill:#EA7CB1;}
	.st93{fill:#EA7DAE;}
	.st94{fill:#BC7646;}
	.st95{fill:#00A1C6;}
	.st96{fill:#FCC230;}
	.st97{fill:#F2EBB1;}
	.st98{fill:#F9D6AF;}
	.st99{fill:#D34735;}
	.st100{fill:#E5A21A;}
	.st101{fill:#849E33;}
	.st102{fill:#EFBB14;}
	.st103{fill:#D8402B;}
	.st104{fill:#829B34;}
	.st105{fill:#F88916;}
	.st106{fill:#E27513;}
	.st107{fill:#FFB41F;}
	.st108{fill:#8AA538;}
	.st109{fill:#BE6BB2;}
	.st110{fill:#AA5BA3;}
	.st111{fill:#FFDF66;}
	.st112{fill:#F4BA00;}
	.st113{fill:#E28529;}
	.st114{fill:#FF9945;}
	.st115{fill:#BA6C45;}
	.st116{fill:#EDBA15;}
	.st117{fill:#E0452F;}
	.st118{fill:#F7F2D5;}
	.st119{fill:#4C4E51;}
	.st120{fill:#EA615D;}
	.st121{fill:#DD4A36;}
	.st122{fill:#F6AF72;}
	.st123{fill:#E8955D;}
	.st124{fill:#E4C074;}
	.st125{fill:#EAE4C3;}
	.st126{fill:#BF3522;}
	.st127{fill:#D13E33;}
	.st128{fill:#AA5EA3;}
	.st129{fill:#DD443C;}
	.st130{fill:#AA5FA3;}
	.st131{fill:#B7C536;}
	.st132{fill:#F2872F;}
	.st133{fill:#AF5FA7;}
	.st134{fill:#E29F17;}
	.st135{fill:#FFC86E;}
	.st136{fill:#A55937;}
	.st137{fill:#D8422E;}
	.st138{fill:#C3556D;}
	.st139{fill:#B24965;}
	.st140{fill:#D1A962;}
	.st141{fill:#A3961A;}
	.st142{fill:#AFA51D;}
	.st143{fill:#968A1C;}
</style>
<g>
	<g>
		<g>
			<g>
				<g>
					<path class="st0" d="M139.5,133.3v112c0,7.1-5.8,10.8-11.5,10.8c-5.7,0-11.5-3.7-11.5-10.8V133.3c0-1.1,0.5-2.2,1.3-3
						c0.8-0.8,2-1.1,3.1-1c4.7,0.5,9.5,0.5,14.1,0c1.1-0.1,2.3,0.2,3.1,1C139,131.1,139.5,132.1,139.5,133.3z"/>
				</g>
			</g>
		</g>
	</g>
	<g>
		<g>
			<g>
				<g>
					<path class="st47" d="M171.8,19.1c-0.5,1.6-1.9,2.7-3.6,2.8c-17.1,0.9-28.8,6-34.6,15c-8.1,12.5-2.8,29.2-2,31.6
						c0.2,0.5,0.4,1.1,0.4,1.7c0,2.2-1.8,4-4,4c0,0,0,0,0,0c-0.7,0-1.4-0.2-2-0.5c-15.7-9-24.4-20-25.7-32.6
						c-2.2-21.3,17.5-38.9,18.3-39.7c0.6-0.5,1.4-0.9,2.2-1c2.4-0.2,4.8-0.4,7.1-0.4c15.6,0,30.3,5.1,42.5,14.7
						C171.8,15.7,172.3,17.5,171.8,19.1z"/>
				</g>
			</g>
		</g>
	</g>
	<g>
		<g>
			<g>
				<g>
					<path class="st47" d="M193.1,90.3c0,0.5-0.1,0.9-0.2,1.3c-7.1,20.4-23.7,36.5-44.3,42.9c-0.4,0.1-0.8,0.2-1.2,0.2
						c-1.2,0-2.4-0.6-3.2-1.6c-1-1.4-1.1-3.2-0.1-4.6c10.7-15.9,13.9-28.8,9.6-38.2c-6.1-13.5-26-16.2-26.2-16.2
						c-1.6-0.2-3-1.4-3.4-3c-0.4-1.6,0.3-3.3,1.6-4.2c8.3-5.7,16.7-8.5,24.9-8.5c26.3,0,41.4,28.9,42,30.2
						C192.9,89.1,193.1,89.7,193.1,90.3z"/>
				</g>
			</g>
		</g>
	</g>
	<g>
		<g>
			<g>
				<g>
					<path class="st3" d="M150.7,133c-0.5,0.8-1.3,1.3-2.1,1.6c-4.1,1.3-8.4,2.2-12.6,2.7c-2.6,0.3-5.3,0.5-8,0.5
						c-2.7,0-5.3-0.2-8-0.5c-17.4-2-33.2-10.5-44.6-24c-1.1-1.3-1.2-3.2-0.4-4.7c0.9-1.5,2.6-2.2,4.3-1.8c4.1,0.9,8,1.4,11.5,1.4
						c31.5,0,33-36.5,33.1-38.1c0-1.1,0.6-2.2,1.4-2.9c0.8-0.7,2-1.1,3.1-0.9c1,0.1,24.4,3.3,32.4,20.8
						C166.4,99.1,163,114.6,150.7,133z"/>
				</g>
			</g>
		</g>
	</g>
	<g>
		<g>
			<g>
				<g>
					<path class="st47" d="M132,70.3c0,0.5-0.4,11.4-5.5,22.5c-7,15.3-19.3,23.3-35.6,23.3h0c-4.1,0-8.6-0.5-13.2-1.6
						c-0.8-0.2-1.6-0.7-2.2-1.3C65,100.9,59.3,85.1,59.3,68.9c0-6.1,0.8-12.1,2.4-18c0.5-1.7,2.1-3,3.9-3h0c1.8,0,3.4,1.2,3.9,3
						C74.7,71,83.7,81.2,95.9,81.2c0,0,0,0,0,0c14.5,0,29.2-13.8,29.3-13.9c1.2-1.1,2.9-1.4,4.4-0.8C131.1,67.2,132.1,68.7,132,70.3
						z"/>
				</g>
			</g>
		</g>
	</g>
	<g>
		<g>
			<g>
				<g>
					<path class="st13" d="M189.1,90.4C189.1,90.4,189.1,90.4,189.1,90.4L189.1,90.4z"/>
				</g>
			</g>
		</g>
		<g>
			<g>
				<g>
					<path class="st4" d="M189.1,94.4c-1,0-2-0.4-2.8-1.2l0,0c-1.6-1.6-1.6-4.1,0-5.7c1.6-1.6,4.1-1.6,5.7,0c1.6,1.6,1.6,4.1,0,5.7
						C191.1,94,190.1,94.4,189.1,94.4z"/>
				</g>
			</g>
		</g>
	</g>
	<g>
		<g>
			<g>
				<g>
					<path class="st3" d="M130.8,73.1c-0.7,0.6-17.1,16.1-34.9,16.1c-11.2,0-26.2-6.3-34.3-36.2c-0.1-0.3-0.1-0.7-0.1-1
						c0-0.4,0.1-0.7,0.1-1.1C69,23.6,92.8,3.3,120.9,0.4c1.7-0.2,3.4,0.8,4.1,2.4c0.7,1.6,0.3,3.4-1,4.6
						c-0.2,0.2-17.4,15.7-15.6,32.9c1,9.9,8.3,18.8,21.7,26.5c1.1,0.6,1.8,1.7,2,3C132.1,70.9,131.7,72.2,130.8,73.1z"/>
				</g>
			</g>
		</g>
	</g>
	<g>
		<g>
			<g>
				<g>
					<path class="st3" d="M196.7,68.9c0,7.8-1.3,15.5-3.9,22.8c-0.5,1.5-1.9,2.6-3.5,2.7c-0.1,0-0.2,0-0.3,0c-1.5,0-2.9-0.8-3.6-2.2
						c-0.1-0.3-13.5-25.8-34.9-25.8c-6.6,0-13.4,2.4-20.4,7.1c-1,0.7-2.3,0.9-3.4,0.5c-1.2-0.4-2.1-1.2-2.5-2.4
						c-0.3-0.9-8.3-22.3,2.6-39.1c7.3-11.3,21.1-17.5,40.9-18.6c1,0,1.9,0.3,2.7,0.9C187.2,27.9,196.7,47.6,196.7,68.9z"/>
				</g>
			</g>
		</g>
	</g>
</g>
</svg>
