<?xml version="1.0" encoding="utf-8"?>
<!-- Generator: Adobe Illustrator 22.1.0, SVG Export Plug-In . SVG Version: 6.00 Build 0)  -->
<svg version="1.1" id="Layer_1" xmlns="http://www.w3.org/2000/svg" xmlns:xlink="http://www.w3.org/1999/xlink" x="0px" y="0px"
	 viewBox="0 0 256 256" style="enable-background:new 0 0 256 256;" xml:space="preserve">
<style type="text/css">
	.st0{fill:#F6D67A;}
	.st1{fill:#E77CAE;}
	.st2{fill:#AC6535;}
	.st3{fill:#EB573B;}
	.st4{fill:#464646;}
	.st5{fill:#F5B31F;}
	.st6{fill:#9B592D;}
	.st7{fill:#9B5B2F;}
	.st8{fill:#E8A41A;}
	.st9{fill:#6D6E71;}
	.st10{fill:#E5A21C;}
	.st11{fill:#C66395;}
	.st12{fill:#E09F1E;}
	.st13{fill:#FFFFFF;}
	.st14{fill:#DDB95E;}
	.st15{fill:#EAC771;}
	.st16{fill:#F9F6CD;}
	.st17{fill:#009345;}
	.st18{fill:#008438;}
	.st19{fill:#EAA51B;}
	.st20{opacity:0.1;}
	.st21{fill:#FFD11D;}
	.st22{fill:#FFE37B;}
	.st23{fill:#FFA755;}
	.st24{fill:#FFEC97;}
	.st25{fill:#BC7532;}
	.st26{fill:#EFEFEF;}
	.st27{fill:#60ACF7;}
	.st28{fill:#876C6C;}
	.st29{fill:#1DDCFF;}
	.st30{fill:#BDF3FF;}
	.st31{fill:#EFCA70;}
	.st32{fill:#EFA91D;}
	.st33{fill:#8FAE3C;}
	.st34{fill:#92A5AC;}
	.st35{fill:#E8E3BA;}
	.st36{fill:#F79932;}
	.st37{fill:#F4F4F4;}
	.st38{fill:#FFDF8F;}
	.st39{fill:#EAE5B9;}
	.st40{fill:#7E9E6A;}
	.st41{fill:#94B57F;}
	.st42{fill:#9B5D8C;}
	.st43{fill:#96557A;}
	.st44{fill:#C3755A;}
	.st45{fill:#9BD7DD;}
	.st46{fill:#90CAD3;}
	.st47{fill:#F7F7F7;}
	.st48{fill:#AFE6EF;}
	.st49{fill:#FFFAEB;}
	.st50{fill:#F4EFC3;}
	.st51{fill:#F9F9F9;}
	.st52{fill:#FFE5C4;}
	.st53{fill:#FFB024;}
	.st54{fill:#FFC612;}
	.st55{fill:#FFCE31;}
	.st56{fill:#A05C2D;}
	.st57{fill:#1DCAF2;}
	.st58{fill:#00B0E0;}
	.st59{fill:#F2A355;}
	.st60{fill:#D68032;}
	.st61{fill:#66625D;}
	.st62{fill:#54504D;}
	.st63{fill:#B76955;}
	.st64{fill:#EFE8B4;}
	.st65{fill:#B93226;}
	.st66{fill:#EFEABF;}
	.st67{fill:#90C056;}
	.st68{opacity:0.15;}
	.st69{fill:#E8C56D;}
	.st70{fill:#F7BE4B;}
	.st71{fill:#E0A338;}
	.st72{fill:#F68455;}
	.st73{fill:#E26F47;}
	.st74{fill:#EC754B;}
	.st75{fill:#4AA5BA;}
	.st76{opacity:0.5;}
	.st77{fill:#A0B1B5;}
	.st78{opacity:0.7;}
	.st79{fill:#00ADEE;}
	.st80{fill:#F4D4B3;}
	.st81{fill:#F9D97A;}
	.st82{fill:#EDC96E;}
	.st83{fill:none;}
	.st84{fill:#AF6535;}
	.st85{fill:#F18BB4;}
	.st86{fill:#B3E4FF;}
	.st87{fill:#97DFFF;}
	.st88{fill:#D06E3C;}
	.st89{fill:#B55931;}
	.st90{fill:#DA4F4B;}
	.st91{fill:#EFCAA8;}
	.st92{fill:#EA7CB1;}
	.st93{fill:#EA7DAE;}
	.st94{fill:#BC7646;}
	.st95{fill:#00A1C6;}
	.st96{fill:#FCC230;}
	.st97{fill:#F2EBB1;}
	.st98{fill:#F9D6AF;}
	.st99{fill:#D34735;}
	.st100{fill:#E5A21A;}
	.st101{fill:#849E33;}
	.st102{fill:#EFBB14;}
	.st103{fill:#D8402B;}
	.st104{fill:#829B34;}
	.st105{fill:#F88916;}
	.st106{fill:#E27513;}
	.st107{fill:#FFB41F;}
	.st108{fill:#8AA538;}
	.st109{fill:#BE6BB2;}
	.st110{fill:#AA5BA3;}
	.st111{fill:#FFDF66;}
	.st112{fill:#F4BA00;}
	.st113{fill:#E28529;}
	.st114{fill:#FF9945;}
	.st115{fill:#BA6C45;}
	.st116{fill:#EDBA15;}
	.st117{fill:#E0452F;}
	.st118{fill:#F7F2D5;}
	.st119{fill:#4C4E51;}
	.st120{fill:#EA615D;}
	.st121{fill:#DD4A36;}
	.st122{fill:#F6AF72;}
	.st123{fill:#E8955D;}
	.st124{fill:#E4C074;}
	.st125{fill:#EAE4C3;}
	.st126{fill:#BF3522;}
	.st127{fill:#D13E33;}
	.st128{fill:#AA5EA3;}
	.st129{fill:#DD443C;}
	.st130{fill:#AA5FA3;}
	.st131{fill:#B7C536;}
	.st132{fill:#F2872F;}
	.st133{fill:#AF5FA7;}
	.st134{fill:#E29F17;}
	.st135{fill:#FFC86E;}
	.st136{fill:#A55937;}
	.st137{fill:#D8422E;}
	.st138{fill:#C3556D;}
	.st139{fill:#B24965;}
	.st140{fill:#D1A962;}
	.st141{fill:#A3961A;}
	.st142{fill:#AFA51D;}
	.st143{fill:#968A1C;}
</style>
<g>
	<g>
		<g>
			<g>
				<g>
					<path class="st33" d="M252.7,169.4c-5.4,10.9-16.7,16.5-31.7,15.4c-9.9,17.9-22,26.9-36.2,26.9c-6.8,0-14.1-2.2-21.6-6.4
						c-1.4-0.8-2.2-2.4-2-4c1.9-13.9,5.2-25.7,10.1-35.8c-7.1-2.9-12-9.1-14.7-18.6c-8.5,1.8-16.7,2.7-24.6,2.7
						c-7.6,0-15-0.8-22.2-2.5c-2.3,10.2-8.3,18.7-17.8,25.3c1.6,2,3.1,4.1,4.5,6.3c0.2,0.4,0.4,0.8,0.5,1.3
						c0.1,0.4,1.5,8.6-4.5,15.8C87,202.5,77,205.9,63,205.9c-7.9,0-15-3-20.6-8.7c-6.1-6.2-9.8-15-10.5-24.5
						c-18.8-0.2-29.5-13.4-31.5-25.6c-2-12.3,4-23.1,15.6-28.3c-1-14.8,2.4-27.1,10-35.6c7.1-7.9,17.4-12,29.6-11.5
						c-1.2-8.7,0.7-16.9,5.6-23.4c7-9.2,19.4-14.5,34.1-14.5c2.5,0,5,0.1,7.6,0.4c9.7-10.2,22.9-16.3,35.6-16.3
						c15.8,0,27.8,9,32.8,24.4c2.9-0.5,5.7-0.8,8.5-0.8c20.3,0,35,13.8,37.8,34.8c2.8-0.5,5.5-0.7,8.1-0.7
						c10.8,0,19.1,4.4,23.3,12.3c5.1,9.6,3.6,22.9-3.9,35.4C256.1,139.3,259.1,156.7,252.7,169.4z"/>
				</g>
			</g>
		</g>
	</g>
	<g>
		<g>
			<g>
				<g>
					<path class="st131" d="M177.2,163c-6.4,11.5-10,24.7-12,38.9c-1.4,10.2-1.9,21-1.9,32.2h-62.1c1.9-21.3,0.1-39.8-8.1-53.4
						c-2-3.4-4.4-6.4-7.2-9.1c12.3-7.1,19.4-16.8,20.8-29.4c16.9,4.7,34.6,4.4,52.9,0C162.1,154.9,168.2,161.5,177.2,163z"/>
				</g>
			</g>
		</g>
	</g>
	<g>
		<g>
			<g>
				<g>
					<path class="st104" d="M163.3,238.1h-62.1c-1.1,0-2.2-0.5-3-1.3c-0.8-0.8-1.1-1.9-1-3.1c2-22.5-0.5-39.2-7.6-51
						c-1.8-3.1-4.1-5.9-6.6-8.3c-0.9-0.9-1.3-2.1-1.2-3.4c0.2-1.2,0.9-2.3,2-3c11.4-6.5,17.6-15.2,18.8-26.4
						c0.1-1.2,0.8-2.2,1.7-2.9c1-0.7,2.2-0.8,3.3-0.5c7.7,2.2,15.9,3.3,24.3,3.3c8.5,0,17.4-1.1,26.6-3.3c1.1-0.2,2.2-0.1,3.1,0.5
						c0.9,0.6,1.6,1.5,1.8,2.6c2.1,10.7,6.7,16.5,14.2,17.7c1.3,0.2,2.4,1,3,2.2c0.6,1.2,0.5,2.5-0.1,3.7
						c-5.7,10.3-9.5,22.6-11.5,37.5c-1.3,9.2-1.9,19.6-1.9,31.6C167.3,236.3,165.5,238.1,163.3,238.1z M105.6,230.1h53.7
						c0.1-10.7,0.8-20.2,1.9-28.7c1.9-13.9,5.2-25.7,10.1-35.9c-7.1-2.8-12-9.1-14.7-18.6c-8.5,1.8-16.7,2.6-24.6,2.6
						c-7.6,0-15-0.8-22.2-2.5c-2.3,10.2-8.3,18.7-17.8,25.3c1.6,2,3.1,4.1,4.5,6.3C104.1,191.1,107,208,105.6,230.1z"/>
				</g>
			</g>
		</g>
	</g>
	<g>
		<g>
			<g>
				<g>
					<path class="st104" d="M106.7,146.1c-0.5,0-0.9-0.1-1.4-0.2c-0.8-0.3-18.6-7-26.1-17.3c-1.3-1.8-0.9-4.3,0.9-5.6
						c1.8-1.3,4.3-0.9,5.6,0.9c6,8.3,22.2,14.4,22.3,14.5c2.1,0.8,3.1,3.1,2.4,5.1C109.8,145.1,108.3,146.1,106.7,146.1z"/>
				</g>
			</g>
		</g>
	</g>
	<g>
		<g>
			<g>
				<g>
					<path class="st104" d="M159.6,146.1c-1.9,0-3.6-1.4-3.9-3.4c-0.3-2.2,1.1-4.2,3.3-4.6c0.5-0.1,10.6-2,14.4-13.2
						c0.7-2.1,3-3.2,5.1-2.5c2.1,0.7,3.2,3,2.5,5.1c-5.3,15.9-20.1,18.5-20.7,18.6C160,146.1,159.8,146.1,159.6,146.1z"/>
				</g>
			</g>
		</g>
	</g>
	<g>
		<g>
			<g>
				<g>
					<path class="st104" d="M85.9,175.5c-0.8,0-1.5-0.2-2.2-0.7c-0.1-0.1-11.4-7.3-22.2-4.9c-2.2,0.5-4.3-0.9-4.8-3
						c-0.5-2.2,0.9-4.3,3-4.8c14.2-3.2,27.8,5.6,28.4,6c1.8,1.2,2.4,3.7,1.1,5.5C88.4,174.9,87.2,175.5,85.9,175.5z"/>
				</g>
			</g>
		</g>
	</g>
	<g>
		<g>
			<g>
				<g>
					<path class="st104" d="M177.2,167c-1.6,0-3.2-1-3.8-2.7c-0.7-2.1,0.3-4.4,2.4-5.1c3.6-1.3,22-7.4,30.6-1.7
						c1.8,1.2,2.3,3.7,1.1,5.5c-1.2,1.8-3.7,2.3-5.5,1.1c-3.8-2.5-16.3,0.1-23.5,2.6C178,166.9,177.6,167,177.2,167z"/>
				</g>
			</g>
		</g>
	</g>
	<g>
		<g>
			<g>
				<g>
					<path class="st104" d="M120.8,191c-2.2,0-4-1.8-4-4v-42.1c0-2.2,1.8-4,4-4c2.2,0,4,1.8,4,4V187C124.8,189.2,123,191,120.8,191z
						"/>
				</g>
			</g>
		</g>
	</g>
	<g>
		<g>
			<g>
				<g>
					<path class="st104" d="M148.9,174.9C148.9,174.9,148.9,174.9,148.9,174.9c-2.2,0-4-1.8-4-4l0.1-26.7c0-2.2,1.8-4,4-4
						c0,0,0,0,0,0c2.2,0,4,1.8,4,4l-0.1,26.7C152.9,173.2,151.1,174.9,148.9,174.9z"/>
				</g>
			</g>
		</g>
	</g>
</g>
</svg>
