<?xml version="1.0" encoding="utf-8"?>
<!-- Generator: Adobe Illustrator 22.1.0, SVG Export Plug-In . SVG Version: 6.00 Build 0)  -->
<svg version="1.1" id="Layer_1" xmlns="http://www.w3.org/2000/svg" xmlns:xlink="http://www.w3.org/1999/xlink" x="0px" y="0px"
	 viewBox="0 0 256 256" style="enable-background:new 0 0 256 256;" xml:space="preserve">
<style type="text/css">
	.st0{fill:#F6D67A;}
	.st1{fill:#E77CAE;}
	.st2{fill:#AC6535;}
	.st3{fill:#EB573B;}
	.st4{fill:#464646;}
	.st5{fill:#F5B31F;}
	.st6{fill:#9B592D;}
	.st7{fill:#9B5B2F;}
	.st8{fill:#E8A41A;}
	.st9{fill:#6D6E71;}
	.st10{fill:#E5A21C;}
	.st11{fill:#C66395;}
	.st12{fill:#E09F1E;}
	.st13{fill:#FFFFFF;}
	.st14{fill:#DDB95E;}
	.st15{fill:#EAC771;}
	.st16{fill:#F9F6CD;}
	.st17{fill:#009345;}
	.st18{fill:#008438;}
	.st19{fill:#EAA51B;}
	.st20{opacity:0.1;}
	.st21{fill:#FFD11D;}
	.st22{fill:#FFE37B;}
	.st23{fill:#FFA755;}
	.st24{fill:#FFEC97;}
	.st25{fill:#BC7532;}
	.st26{fill:#EFEFEF;}
	.st27{fill:#60ACF7;}
	.st28{fill:#876C6C;}
	.st29{fill:#1DDCFF;}
	.st30{fill:#BDF3FF;}
	.st31{fill:#EFCA70;}
	.st32{fill:#EFA91D;}
	.st33{fill:#8FAE3C;}
	.st34{fill:#92A5AC;}
	.st35{fill:#E8E3BA;}
	.st36{fill:#F79932;}
	.st37{fill:#F4F4F4;}
	.st38{fill:#FFDF8F;}
	.st39{fill:#EAE5B9;}
	.st40{fill:#7E9E6A;}
	.st41{fill:#94B57F;}
	.st42{fill:#9B5D8C;}
	.st43{fill:#96557A;}
	.st44{fill:#C3755A;}
	.st45{fill:#9BD7DD;}
	.st46{fill:#90CAD3;}
	.st47{fill:#F7F7F7;}
	.st48{fill:#AFE6EF;}
	.st49{fill:#FFFAEB;}
	.st50{fill:#F4EFC3;}
	.st51{fill:#F9F9F9;}
	.st52{fill:#FFE5C4;}
	.st53{fill:#FFB024;}
	.st54{fill:#FFC612;}
	.st55{fill:#FFCE31;}
	.st56{fill:#A05C2D;}
	.st57{fill:#1DCAF2;}
	.st58{fill:#00B0E0;}
	.st59{fill:#F2A355;}
	.st60{fill:#D68032;}
	.st61{fill:#66625D;}
	.st62{fill:#54504D;}
	.st63{fill:#B76955;}
	.st64{fill:#EFE8B4;}
	.st65{fill:#B93226;}
	.st66{fill:#EFEABF;}
	.st67{fill:#90C056;}
	.st68{opacity:0.15;}
	.st69{fill:#E8C56D;}
	.st70{fill:#F7BE4B;}
	.st71{fill:#E0A338;}
	.st72{fill:#F68455;}
	.st73{fill:#E26F47;}
	.st74{fill:#EC754B;}
	.st75{fill:#4AA5BA;}
	.st76{opacity:0.5;}
	.st77{fill:#A0B1B5;}
	.st78{opacity:0.7;}
	.st79{fill:#00ADEE;}
	.st80{fill:#F4D4B3;}
	.st81{fill:#F9D97A;}
	.st82{fill:#EDC96E;}
	.st83{fill:none;}
	.st84{fill:#AF6535;}
	.st85{fill:#F18BB4;}
	.st86{fill:#B3E4FF;}
	.st87{fill:#97DFFF;}
	.st88{fill:#D06E3C;}
	.st89{fill:#B55931;}
	.st90{fill:#DA4F4B;}
	.st91{fill:#EFCAA8;}
	.st92{fill:#EA7CB1;}
	.st93{fill:#EA7DAE;}
	.st94{fill:#BC7646;}
	.st95{fill:#00A1C6;}
	.st96{fill:#FCC230;}
	.st97{fill:#F2EBB1;}
	.st98{fill:#F9D6AF;}
	.st99{fill:#D34735;}
	.st100{fill:#E5A21A;}
	.st101{fill:#849E33;}
	.st102{fill:#EFBB14;}
	.st103{fill:#D8402B;}
	.st104{fill:#829B34;}
	.st105{fill:#F88916;}
	.st106{fill:#E27513;}
	.st107{fill:#FFB41F;}
	.st108{fill:#8AA538;}
	.st109{fill:#BE6BB2;}
	.st110{fill:#AA5BA3;}
	.st111{fill:#FFDF66;}
	.st112{fill:#F4BA00;}
	.st113{fill:#E28529;}
	.st114{fill:#FF9945;}
	.st115{fill:#BA6C45;}
	.st116{fill:#EDBA15;}
	.st117{fill:#E0452F;}
	.st118{fill:#F7F2D5;}
	.st119{fill:#4C4E51;}
	.st120{fill:#EA615D;}
	.st121{fill:#DD4A36;}
	.st122{fill:#F6AF72;}
	.st123{fill:#E8955D;}
	.st124{fill:#E4C074;}
	.st125{fill:#EAE4C3;}
	.st126{fill:#BF3522;}
	.st127{fill:#D13E33;}
	.st128{fill:#AA5EA3;}
	.st129{fill:#DD443C;}
	.st130{fill:#AA5FA3;}
	.st131{fill:#B7C536;}
	.st132{fill:#F2872F;}
	.st133{fill:#AF5FA7;}
	.st134{fill:#E29F17;}
	.st135{fill:#FFC86E;}
	.st136{fill:#A55937;}
	.st137{fill:#D8422E;}
	.st138{fill:#C3556D;}
	.st139{fill:#B24965;}
	.st140{fill:#D1A962;}
	.st141{fill:#A3961A;}
	.st142{fill:#AFA51D;}
	.st143{fill:#968A1C;}
</style>
<g>
	<g>
		<g>
			<g>
				<g>
					<g>
						<g>
							<path class="st79" d="M95.2,123.9v21.8c0,2.2-1.8,4-4,4c-10.8,0-16.4-7.5-16.4-14.9c0-3.9,1.5-7.6,4.3-10.4
								c2.1-2.1,5.9-4.6,12.1-4.6C93.4,119.9,95.2,121.7,95.2,123.9z"/>
						</g>
					</g>
				</g>
			</g>
		</g>
	</g>
	<g>
		<g>
			<g>
				<g>
					<g>
						<g>
							<path class="st52" d="M128,4L128,4c-0.9,1-1.8,2-2.7,3c0-0.1-0.1-0.1-0.1-0.2c-0.2-0.2-0.3-0.3-0.4-0.5
								C126.6,5,127.8,4.1,128,4L128,4z"/>
						</g>
					</g>
				</g>
			</g>
		</g>
	</g>
	<g>
		<g>
			<g>
				<g>
					<g>
						<g>
							<path class="st52" d="M131.2,6.4c-0.1,0.1-0.2,0.2-0.3,0.4c-0.1,0.1-0.2,0.2-0.2,0.2c-0.8-1-1.7-1.9-2.6-2.9
								C128.5,4.4,129.6,5.2,131.2,6.4z"/>
						</g>
					</g>
				</g>
			</g>
		</g>
	</g>
	<g>
		<g>
			<g>
				<g>
					<g>
						<g>
							<path class="st79" d="M181.1,134.8c0,3.9-1.5,7.6-4.3,10.3c-2.1,2.1-5.9,4.6-12.1,4.6c-2.2,0-4-1.8-4-4v-21.8
								c0-2.2,1.8-4,4-4C175.5,119.9,181.1,127.4,181.1,134.8z"/>
						</g>
					</g>
				</g>
			</g>
		</g>
	</g>
	<g>
		<g>
			<g>
				<g>
					<g>
						<g>
							<path class="st52" d="M130.6,0.9c-0.1-0.1-0.1-0.1-0.1-0.1c-1.7-1.2-4-1-5.3,0.6c-1.2,1.4-1.3,3.4-0.3,4.9
								c0.1,0.2,0.2,0.3,0.4,0.5c0,0,0.1,0.1,0.1,0.2c0.9,1,1.8,2,2.7,3c0.9-1,1.8-2,2.7-3c0.1-0.1,0.1-0.2,0.2-0.2
								c0.1-0.1,0.2-0.2,0.3-0.4c0.5-0.7,0.8-1.5,0.8-2.4C132,2.8,131.4,1.7,130.6,0.9z"/>
						</g>
					</g>
				</g>
			</g>
		</g>
	</g>
	<g>
		<g>
			<g>
				<g>
					<g>
						<g>
							<path class="st80" d="M130.6,0.9c-0.1-0.1-0.1-0.1-0.1-0.1c-1.7-1.2-4-1-5.3,0.6c-1.2,1.4-1.3,3.4-0.3,4.9
								c0.1,0.2,0.2,0.3,0.4,0.5c0,0,0.1,0.1,0.1,0.2c0.9,1,1.8,2,2.7,3c0.9-1,1.8-2,2.7-3c0.1-0.1,0.1-0.2,0.2-0.2
								c0.1-0.1,0.2-0.2,0.3-0.4c0.5-0.7,0.8-1.5,0.8-2.4C132,2.8,131.4,1.7,130.6,0.9z"/>
						</g>
					</g>
				</g>
				<g>
					<g>
						<g>
							<path class="st80" d="M125.1,1.4c-1.2,1.4-1.3,3.4-0.3,4.9c0.1,0.2,0.2,0.3,0.4,0.5c0,0,0.1,0.1,0.1,0.2c0.9,1,1.8,2,2.7,3
								c-10.3,12.1-17.9,27-23.1,45.3c-0.4,1.4-1.5,2.5-2.9,2.8c-1,0.2-2,0.4-3,0.4c-7.5,0-15.9-6.2-18.4-13.5
								c-1.8-5.4-0.3-10.4,4.2-13.9c9.5-7.3,31.4-23.4,40.4-29.9l0.5-0.3c0.7-0.5,1.5-0.8,2.4-0.8c0.9,0,1.8,0.3,2.5,0.9
								C128.8-0.4,126.5-0.1,125.1,1.4z"/>
						</g>
					</g>
				</g>
				<g>
					<g>
						<g>
							<path class="st80" d="M175.4,44.9c-2.5,7.3-10.9,13.5-18.4,13.5c-1,0-2-0.1-3-0.3c-1.4-0.3-2.6-1.4-2.9-2.8
								C145.9,36.9,138.3,22.1,128,10c0.9-1,1.8-2,2.7-3c0.1-0.1,0.1-0.2,0.2-0.2c0.1-0.1,0.2-0.2,0.3-0.4c0.5-0.7,0.8-1.5,0.8-2.4
								c0-1.2-0.5-2.3-1.4-3.1c2,1.4,29.6,21.6,40.6,30.1C175.7,34.5,177.3,39.5,175.4,44.9z"/>
						</g>
					</g>
				</g>
			</g>
		</g>
	</g>
	<g>
		<g>
			<g>
				<g>
					<g>
						<g>
							<path class="st52" d="M248.4,184c-4.6,9.7-15.9,16.8-26.9,16.8c-2.2,0-4.3-0.3-6.3-0.8c-6.8-1.7-9-6.2-8.7-10
								c0.4-4.9,4.5-9.2,9.3-9.6c0.6-0.1,1.3-0.1,2-0.2c2.9-0.2,9-0.6,10.6-2.7c0.2-0.2,0.6-0.7,0.3-2.2c-1.3-7.2-7-12-14.6-12.2
								h-0.2c-3.4,0-8,1.8-12.8,3.8c-6.6,2.7-14.2,5.6-21.9,5.3c7.9,2.7,14.1,7.8,18,14.9c5.2,9.4,6,21.8,2.3,34.9
								c-1.7,11.1,0.1,12.1,2.2,13.2c0.7,0.3,1.4,0.7,2.1,1.2c7.8,5.1,7.2,10.5,6.6,12.5c-1.3,4.5-6.1,7.1-12.8,7.1
								c-11.7,0-19-13.1-19.9-25.4c-0.3-4.3,0.4-8.6,1.1-12.9c1-5.7,1.9-11.6,0.4-17.2c-1.8-6.6-5.1-7.7-10.2-9.5
								c-1.4-0.5-2.9-1-4.5-1.7c-2.7-1.2-6.9-4.9-11.2-9.2c2,2.7,4.2,5.5,6.7,8.5l1.4,1.7c6.6,8.2,9.5,27,6.4,41.8
								c-2,9.6-6.3,16.3-12.4,19.4c-3.9,2-7.2,3-10,3c-3.5,0-6.3-1.7-7.6-4.6c-1.8-4.1-0.2-9.7,2.5-12.7c2.3-2.7,10.9-28.2,0-39.1
								c-6-6-9.8-11.6-12.3-16c-2.4,4.4-6.3,10.1-12.3,16c-11,10.9-2.4,36.4,0,39.1c2.7,3,4.3,8.6,2.5,12.7
								c-1.3,2.9-4.1,4.6-7.6,4.6c-2.8,0-6-1-10-3c-6.1-3.1-10.3-9.8-12.4-19.4c-3.1-14.8-0.3-33.6,6.4-41.8l1.4-1.7
								c2.5-3,4.7-5.8,6.7-8.5c-4.3,4.3-8.5,8-11.2,9.2c-1.5,0.7-3,1.2-4.5,1.7c-5.1,1.8-8.5,2.9-10.2,9.5
								c-1.5,5.6-0.5,11.5,0.4,17.2c0.7,4.2,1.4,8.6,1.1,12.9c-0.9,12.3-8.2,25.4-19.9,25.4c-6.7,0-11.5-2.7-12.8-7.1
								c-0.6-2.1-1.2-7.4,6.6-12.5c0.8-0.5,1.5-0.9,2.1-1.2c2.1-1.1,4-2.1,2.2-13.2c-3.7-13.1-2.9-25.5,2.3-34.9
								c3.9-7,10.1-12.1,18-14.9c-7.7,0.4-15.3-2.6-21.9-5.3c-4.8-1.9-9.3-3.8-12.8-3.8H42c-7.6,0.2-13.4,5-14.6,12.2
								c-0.3,1.5,0.1,2.1,0.3,2.2c1.6,2,7.7,2.5,10.6,2.7c0.7,0.1,1.4,0.1,2,0.2c4.8,0.4,9,4.8,9.3,9.6c0.3,3.7-1.9,8.3-8.7,10
								c-2,0.5-4.1,0.8-6.3,0.8c-11,0-22.4-7-26.9-16.8c-2.5-5.3-5.1-15.9,5-28.1c8.1-9.8,17.8-14.7,28.8-14.7
								c8.1,0,15.2,2.7,19.9,4.5c1,0.4,1.9,0.7,2.6,1l1.3,0.5c4.4,1.5,11,3.8,16.2,3.8c4.8,0,5.7-1.8,5.7-5.2v-22
								c1.6-30.2,4.6-51.9,10-70.6c6.1-21.3,15.2-38.3,27.8-51.8c1.3-1.4,3.5-1.7,5.1-0.6c0,0,0.2,0.1,0.3,0.2
								c0.1,0.1,0.2,0.2,0.3,0.3c0.1,0.1,0.1,0.1,0.2,0.2c12.6,13.5,21.7,30.5,27.8,51.7c5.3,18.7,8.4,40.5,10,70.6
								c0,0.1,0,0.1,0,0.2v21.8c0,3.4,0.9,5.2,5.7,5.2c5.1,0,11.8-2.3,16.2-3.8l1.3-0.5c0.8-0.2,1.6-0.6,2.6-1
								c4.7-1.8,11.8-4.5,19.9-4.5c11,0,20.7,4.9,28.8,14.7C253.5,168.1,250.8,178.8,248.4,184z"/>
						</g>
					</g>
				</g>
			</g>
		</g>
	</g>
	<g>
		<g>
			<g>
				<g>
					<g>
						<path class="st80" d="M147.9,137.3c-0.2,0-0.3,0-0.5,0c-2.2-0.3-3.8-2.2-3.5-4.4c3.1-27.4,0.1-53.4-9.1-77.2
							c-0.8-2.1,0.2-4.4,2.3-5.2c2.1-0.8,4.4,0.2,5.2,2.3c9.7,25.1,12.9,52.3,9.6,81C151.6,135.8,149.9,137.3,147.9,137.3z"/>
					</g>
				</g>
			</g>
		</g>
	</g>
</g>
</svg>
