<?xml version="1.0" encoding="utf-8"?>
<!-- Generator: Adobe Illustrator 22.1.0, SVG Export Plug-In . SVG Version: 6.00 Build 0)  -->
<svg version="1.1" id="Layer_1" xmlns="http://www.w3.org/2000/svg" xmlns:xlink="http://www.w3.org/1999/xlink" x="0px" y="0px"
	 viewBox="0 0 256 256" style="enable-background:new 0 0 256 256;" xml:space="preserve">
<style type="text/css">
	.st0{fill:#F6D67A;}
	.st1{fill:#E77CAE;}
	.st2{fill:#AC6535;}
	.st3{fill:#EB573B;}
	.st4{fill:#464646;}
	.st5{fill:#F5B31F;}
	.st6{fill:#9B592D;}
	.st7{fill:#9B5B2F;}
	.st8{fill:#E8A41A;}
	.st9{fill:#6D6E71;}
	.st10{fill:#E5A21C;}
	.st11{fill:#C66395;}
	.st12{fill:#E09F1E;}
	.st13{fill:#FFFFFF;}
	.st14{fill:#DDB95E;}
	.st15{fill:#EAC771;}
	.st16{fill:#F9F6CD;}
	.st17{fill:#009345;}
	.st18{fill:#008438;}
	.st19{fill:#EAA51B;}
	.st20{opacity:0.1;}
	.st21{fill:#FFD11D;}
	.st22{fill:#FFE37B;}
	.st23{fill:#FFA755;}
	.st24{fill:#FFEC97;}
	.st25{fill:#BC7532;}
	.st26{fill:#EFEFEF;}
	.st27{fill:#60ACF7;}
	.st28{fill:#876C6C;}
	.st29{fill:#1DDCFF;}
	.st30{fill:#BDF3FF;}
	.st31{fill:#EFCA70;}
	.st32{fill:#EFA91D;}
	.st33{fill:#8FAE3C;}
	.st34{fill:#92A5AC;}
	.st35{fill:#E8E3BA;}
	.st36{fill:#F79932;}
	.st37{fill:#F4F4F4;}
	.st38{fill:#FFDF8F;}
	.st39{fill:#EAE5B9;}
	.st40{fill:#7E9E6A;}
	.st41{fill:#94B57F;}
	.st42{fill:#9B5D8C;}
	.st43{fill:#96557A;}
	.st44{fill:#C3755A;}
	.st45{fill:#9BD7DD;}
	.st46{fill:#90CAD3;}
	.st47{fill:#F7F7F7;}
	.st48{fill:#AFE6EF;}
	.st49{fill:#FFFAEB;}
	.st50{fill:#F4EFC3;}
	.st51{fill:#F9F9F9;}
	.st52{fill:#FFE5C4;}
	.st53{fill:#FFB024;}
	.st54{fill:#FFC612;}
	.st55{fill:#FFCE31;}
	.st56{fill:#A05C2D;}
	.st57{fill:#1DCAF2;}
	.st58{fill:#00B0E0;}
	.st59{fill:#F2A355;}
	.st60{fill:#D68032;}
	.st61{fill:#66625D;}
	.st62{fill:#54504D;}
	.st63{fill:#B76955;}
	.st64{fill:#EFE8B4;}
	.st65{fill:#B93226;}
	.st66{fill:#EFEABF;}
	.st67{fill:#90C056;}
	.st68{opacity:0.15;}
	.st69{fill:#E8C56D;}
	.st70{fill:#F7BE4B;}
	.st71{fill:#E0A338;}
	.st72{fill:#F68455;}
	.st73{fill:#E26F47;}
	.st74{fill:#EC754B;}
	.st75{fill:#4AA5BA;}
	.st76{opacity:0.5;}
	.st77{fill:#A0B1B5;}
	.st78{opacity:0.7;}
	.st79{fill:#00ADEE;}
	.st80{fill:#F4D4B3;}
	.st81{fill:#F9D97A;}
	.st82{fill:#EDC96E;}
	.st83{fill:none;}
	.st84{fill:#AF6535;}
	.st85{fill:#F18BB4;}
	.st86{fill:#B3E4FF;}
	.st87{fill:#97DFFF;}
	.st88{fill:#D06E3C;}
	.st89{fill:#B55931;}
	.st90{fill:#DA4F4B;}
	.st91{fill:#EFCAA8;}
	.st92{fill:#EA7CB1;}
	.st93{fill:#EA7DAE;}
	.st94{fill:#BC7646;}
	.st95{fill:#00A1C6;}
	.st96{fill:#FCC230;}
	.st97{fill:#F2EBB1;}
	.st98{fill:#F9D6AF;}
	.st99{fill:#D34735;}
	.st100{fill:#E5A21A;}
	.st101{fill:#849E33;}
	.st102{fill:#EFBB14;}
	.st103{fill:#D8402B;}
	.st104{fill:#829B34;}
	.st105{fill:#F88916;}
	.st106{fill:#E27513;}
	.st107{fill:#FFB41F;}
	.st108{fill:#8AA538;}
	.st109{fill:#BE6BB2;}
	.st110{fill:#AA5BA3;}
	.st111{fill:#FFDF66;}
	.st112{fill:#F4BA00;}
	.st113{fill:#E28529;}
	.st114{fill:#FF9945;}
	.st115{fill:#BA6C45;}
	.st116{fill:#EDBA15;}
	.st117{fill:#E0452F;}
	.st118{fill:#F7F2D5;}
	.st119{fill:#4C4E51;}
	.st120{fill:#EA615D;}
	.st121{fill:#DD4A36;}
	.st122{fill:#F6AF72;}
	.st123{fill:#E8955D;}
	.st124{fill:#E4C074;}
	.st125{fill:#EAE4C3;}
	.st126{fill:#BF3522;}
	.st127{fill:#D13E33;}
	.st128{fill:#AA5EA3;}
	.st129{fill:#DD443C;}
	.st130{fill:#AA5FA3;}
	.st131{fill:#B7C536;}
	.st132{fill:#F2872F;}
	.st133{fill:#AF5FA7;}
	.st134{fill:#E29F17;}
	.st135{fill:#FFC86E;}
	.st136{fill:#A55937;}
	.st137{fill:#D8422E;}
	.st138{fill:#C3556D;}
	.st139{fill:#B24965;}
	.st140{fill:#D1A962;}
	.st141{fill:#A3961A;}
	.st142{fill:#AFA51D;}
	.st143{fill:#968A1C;}
</style>
<g>
	<g>
		<g>
			<g>
				<g>
					<g>
						<path class="st109" d="M252,130.8c0,37.8-30.7,68.5-68.6,68.5c-16.2,0-31.1-5.6-42.8-15c2.3-19.5-3.7-39.6-17.7-54.7
							c10.2-9.6,17.5-22.5,20.2-37.4c1.1-5.9,1.4-11.8,0.9-17.6c11.1-7.8,24.7-12.4,39.4-12.4C221.3,62.3,252,92.9,252,130.8z"/>
					</g>
				</g>
			</g>
		</g>
	</g>
	<g>
		<g>
			<g>
				<path class="st109" d="M143.2,92.2c-2.7,14.8-10,27.7-20.2,37.4c-2-2.2-4.1-4.2-6.5-6.1c-0.4-0.3-0.7-0.6-1.1-0.9
					c-27-21.6-65.5-19.5-90,3.8c-8.3-9-14.2-20.2-16.7-32.3c-1.8-8.5-2-17.4-0.3-26.4C15,30.5,50.7,5.8,88,12.6
					c11.1,2,21.1,6.6,29.5,13.1c8.9,6.8,15.9,15.7,20.5,25.8c3.3,7.2,5.4,15.1,6,23.2C144.5,80.4,144.2,86.3,143.2,92.2z"/>
			</g>
		</g>
	</g>
	<g>
		<g>
			<g>
				<g>
					<g>
						<path class="st109" d="M54.5,66.8c4.3,0.8,8.4-2.1,9.2-6.4c0.8-4.3-2.1-8.4-6.4-9.2c-4.3-0.8-8.4,2.1-9.2,6.4
							C47.3,61.9,50.2,66,54.5,66.8z"/>
					</g>
				</g>
			</g>
		</g>
	</g>
	<g>
		<g>
			<g>
				<g>
					<g>
						<path class="st109" d="M54.5,66.8c4.3,0.8,8.4-2.1,9.2-6.4c0.8-4.3-2.1-8.4-6.4-9.2c-4.3-0.8-8.4,2.1-9.2,6.4
							C47.3,61.9,50.2,66,54.5,66.8z"/>
					</g>
				</g>
			</g>
		</g>
	</g>
	<g>
		<g>
			<g>
				<path class="st128" d="M122.9,133.6c0,0-0.1,0-0.1,0c-1.1,0-2.1-0.5-2.8-1.3c-1.9-2.1-4-4-6.1-5.8l-0.1-0.1
					c-0.3-0.2-0.6-0.5-0.9-0.7c-11.4-9.1-25.7-14.1-40.3-14.1c-16.7,0-32.5,6.3-44.5,17.7c-0.8,0.7-1.8,1.1-2.9,1.1
					c-1.1,0-2.1-0.5-2.8-1.3c-8.9-9.6-15-21.5-17.7-34.2c-1.9-9.2-2.1-18.6-0.4-28C10.6,32.5,40.6,7.4,75.6,7.4
					c4.4,0,8.8,0.4,13.1,1.2c11.5,2.1,22,6.8,31.2,13.9c9.3,7.2,16.8,16.6,21.7,27.3c3.6,7.8,5.7,16,6.4,24.6
					c0.5,6.2,0.1,12.4-1,18.6c-2.8,15.3-10.2,28.9-21.4,39.5C124.9,133.2,124,133.6,122.9,133.6z M72.6,103.6
					c16.4,0,32.5,5.6,45.3,15.9c0.3,0.3,0.7,0.6,1.1,0.9l0.1,0.1c1.3,1.1,2.7,2.3,3.9,3.5c8.4-9,14-20.1,16.3-32.4
					c1-5.5,1.3-11.1,0.9-16.5c-0.6-7.6-2.5-14.9-5.7-21.8c-4.4-9.5-11.1-17.9-19.4-24.3c-8.2-6.3-17.5-10.5-27.8-12.3
					c-3.9-0.7-7.8-1.1-11.7-1.1c-31.2,0-57.8,22.3-63.4,52.9c-1.5,8.3-1.4,16.7,0.3,24.9c2.1,10.1,6.7,19.5,13.2,27.5
					C38.7,109.6,55.3,103.6,72.6,103.6z"/>
			</g>
		</g>
	</g>
	<g>
		<g>
			<g>
				<g>
					<g>
						<g>
							<path class="st128" d="M62,91.1c-1.2,0-2.4-0.6-3.2-1.6C54,83.1,48,79.8,41.5,79.8c-2.1,0-4.4,0.4-6.6,1
								c-1.5,0.5-3,0-4.1-1.1c-1-1.1-1.4-2.7-0.9-4.1c3.5-9.6,1.9-16.7-4.7-21.3c-1.5-1-2.1-2.8-1.6-4.5c0.5-1.7,2.1-2.8,3.9-2.8
								l0.4,0c9.9,0,15.2-4.7,17-15.1c0.3-1.5,1.3-2.7,2.8-3.1c1.4-0.4,3,0,4.1,1c4,4.1,8,6.2,12.3,6.2c2.6,0,5.4-0.8,8.4-2.3
								c1.4-0.7,3.1-0.6,4.3,0.4c1.2,1,1.8,2.6,1.4,4.1c-2.7,10.7-0.4,18.2,7.1,23.6c1.3,0.9,1.9,2.6,1.6,4.2
								c-0.4,1.6-1.7,2.8-3.3,3c-8.6,1.4-14.3,7.7-17.6,19.2c-0.4,1.5-1.6,2.5-3.1,2.8C62.5,91.1,62.2,91.1,62,91.1z M41.5,71.8
								c7,0,13.5,2.6,19,7.7c3.4-7.8,8.2-13.2,14.5-16.2c-4.5-5.4-6.5-12-5.9-19.9c-6.4,1.5-12.5,0.2-18.1-3.6
								c-2.8,7.5-7.9,12.3-15,14.2c3.3,4.9,4.4,11.1,3.2,17.9C40,71.8,40.7,71.8,41.5,71.8z"/>
						</g>
					</g>
				</g>
			</g>
		</g>
	</g>
	<g>
		<g>
			<g>
				<g>
					<g>
						<path class="st128" d="M54.9,70.6L54.9,70.6c-0.7,0-1.4-0.1-2.1-0.2c-3.1-0.6-5.9-2.3-7.7-4.9c-1.8-2.6-2.5-5.8-1.9-8.9
							c1-5.7,6-9.8,11.7-9.8c0.7,0,1.5,0.1,2.2,0.2c6.5,1.2,10.8,7.4,9.6,13.9C65.6,66.5,60.6,70.6,54.9,70.6z M54.8,54.8
							c-1.9,0-3.5,1.4-3.8,3.2c-0.2,1,0,2.1,0.6,2.9c0.6,0.9,1.5,1.4,2.5,1.6c2.1,0.4,4.2-1.1,4.6-3.2c0.4-2.1-1-4.2-3.2-4.6
							C55.3,54.8,55.1,54.8,54.8,54.8z"/>
					</g>
				</g>
			</g>
		</g>
	</g>
	<g>
		<g>
			<g>
				<g>
					<path class="st109" d="M140.6,184.3c-1.5,12.7-6.6,25.1-15.4,35.6c-24.2,29.1-67.5,33-96.6,8.8C9.2,212.5,1,187.9,5,164.6
						c1.5-8.9,4.8-17.6,9.9-25.6c1.5-2.4,3.2-4.6,5-6.8c1.7-2.1,3.5-4,5.4-5.8c24.5-23.4,63.1-25.4,90-3.8c0.4,0.3,0.7,0.6,1.1,0.9
						c2.3,1.9,4.5,4,6.5,6.1C136.9,144.7,143,164.8,140.6,184.3z"/>
				</g>
			</g>
		</g>
	</g>
	<g>
		<g>
			<g>
				<g>
					<g>
						<g>
							<path class="st128" d="M183.4,203.3c-16.4,0-32.5-5.6-45.3-15.9c-1.1-0.9-1.6-2.2-1.5-3.6c2.3-18.9-3.8-37.6-16.7-51.5
								c-1.5-1.6-1.4-4.1,0.2-5.6c10-9.4,16.5-21.6,19-35.2c1-5.5,1.3-11.1,0.9-16.5c-0.1-1.4,0.5-2.8,1.7-3.6
								c12.2-8.6,26.6-13.1,41.6-13.1c40,0,72.6,32.5,72.6,72.5C256,170.7,223.4,203.3,183.4,203.3z M144.8,182.5
								c11.2,8.4,24.5,12.8,38.6,12.8c35.6,0,64.6-28.9,64.6-64.5s-29-64.5-64.6-64.5c-12.6,0-24.7,3.6-35.2,10.4
								c0.2,5.4-0.1,10.8-1.1,16.2c-2.6,14-9,26.6-18.7,36.8C140.6,144.4,146.5,163.3,144.8,182.5z"/>
						</g>
					</g>
				</g>
			</g>
		</g>
	</g>
	<g>
		<g>
			<g>
				<g>
					<g>
						<g>
							<path class="st128" d="M199.4,139.1c-0.1,0-0.1,0-0.2,0c-1.6-0.1-3-1.1-3.6-2.7c-2.9-8.2-10.1-12.7-22.1-13.9
								c-1.5-0.2-2.8-1.1-3.3-2.6c-0.5-1.4-0.2-3,0.8-4.1c7.2-7.9,8.7-16.5,4.2-25.1c-0.7-1.3-0.6-3,0.3-4.2
								c0.9-1.2,2.4-1.8,3.9-1.6c1.8,0.3,3.6,0.5,5.2,0.5c7.2,0,12.2-3,14.9-9c0.7-1.6,2.4-2.6,4.2-2.3c1.7,0.2,3.1,1.6,3.4,3.3
								c1.6,9.8,7.3,14.4,17.7,14.4l0.3,0c1.5,0,2.9,0.8,3.6,2.2c0.7,1.3,0.6,3-0.3,4.2c-5.3,7.4-5.4,14-0.3,20.7
								c0.7,0.7,1.1,1.7,1.1,2.7c0,2.2-1.8,4-4,4c0,0,0,0,0,0c-0.1,0-0.2,0-0.3,0c-10.9-0.7-18.1,2.9-21.9,11.2
								C202.4,138.2,200.9,139.1,199.4,139.1z M181.2,115.7c8.3,1.9,14.5,5.7,18.6,11.4c4.5-5.4,10.7-8.5,18.5-9.3
								c-2.6-6-2.5-12.2,0.3-18.4c-7.9-1.4-13.5-5.5-16.7-12.2c-4.3,4.1-10.1,6.3-17,6.4C186.8,101,185.6,108.7,181.2,115.7z"/>
						</g>
					</g>
				</g>
			</g>
		</g>
	</g>
	<g>
		<g>
			<g>
				<g>
					<g>
						<path class="st128" d="M200.5,119.5c-6.6,0-11.9-5.3-11.9-11.9c0-6.6,5.4-11.9,11.9-11.9c6.6,0,11.9,5.3,11.9,11.9
							C212.5,114.1,207.1,119.5,200.5,119.5z M200.5,103.6c-2.2,0-3.9,1.8-3.9,3.9c0,2.2,1.8,3.9,3.9,3.9c2.2,0,3.9-1.8,3.9-3.9
							C204.5,105.4,202.7,103.6,200.5,103.6z"/>
					</g>
				</g>
			</g>
		</g>
	</g>
	<g>
		<g>
			<g>
				<g>
					<g>
						<g>
							<path class="st128" d="M72.5,248.6c-16.9,0-33.4-6-46.4-16.8C6.3,215.3-3.3,189.3,1,163.9c1.6-9.7,5.2-18.8,10.5-27.1
								c1.6-2.5,3.4-5,5.3-7.2c1.8-2.2,3.7-4.2,5.7-6.1c13.5-12.9,31.3-19.9,50-19.9c16.4,0,32.5,5.6,45.3,15.9
								c0.3,0.3,0.7,0.6,1.1,0.9l0.1,0.1c2.4,2,4.7,4.2,6.9,6.5c14.5,15.6,21.3,36.7,18.7,57.9c-1.7,13.9-7.3,26.9-16.3,37.7
								C114.5,239,94.1,248.6,72.5,248.6z M72.6,111.6c-16.7,0-32.5,6.3-44.5,17.7c-1.8,1.7-3.5,3.5-5.1,5.5c-1.7,2-3.3,4.2-4.8,6.5
								c-4.7,7.3-7.9,15.4-9.3,24.1c-3.8,22.6,4.7,45.7,22.3,60.3c11.6,9.6,26.3,15,41.3,15c19.2,0,37.3-8.5,49.6-23.2
								c8-9.6,13-21.2,14.5-33.6c2.3-18.9-3.8-37.6-16.7-51.5c-1.9-2.1-4-4-6.1-5.8l-0.1-0.1c-0.3-0.2-0.6-0.5-0.9-0.7
								C101.5,116.6,87.2,111.6,72.6,111.6z"/>
						</g>
					</g>
				</g>
			</g>
		</g>
	</g>
	<g>
		<g>
			<g>
				<g>
					<g>
						<g>
							<path class="st128" d="M72.6,234.5c-0.3,0-0.6,0-0.9-0.1c-1.5-0.3-2.6-1.4-3-2.9c-2.3-8.9-7.4-13.2-16.1-13.5
								c-1.6-0.1-3-1-3.6-2.5c-0.6-1.5-0.3-3.1,0.8-4.3c7.5-7.9,9.3-15.7,5.5-24c-0.7-1.5-0.4-3.2,0.7-4.4c1.1-1.2,2.8-1.6,4.3-1
								c2.2,0.8,4.4,1.2,6.5,1.2c5.9,0,12.1-3.1,18.3-9.2c1.1-1.1,2.7-1.4,4.1-0.9c1.4,0.5,2.5,1.8,2.7,3.2
								c1.4,10.6,7.2,17.3,16.6,19.3c1.5,0.3,2.7,1.5,3,2.9c0.4,1.5-0.1,3-1.3,4c-5.3,4.5-10.7,11.7-6.5,20.6
								c0.4,0.6,0.6,1.3,0.6,2.1c0,2.2-1.8,4-4,4c0,0,0,0,0,0c-0.7,0-1.4-0.2-2-0.5c-3.4-2-6.6-3-9.5-3c-4.6,0-8.9,2.5-13.1,7.6
								C74.9,233.9,73.8,234.5,72.6,234.5z M60.2,211.1c6.2,1.9,11,5.9,14,12.1c6.1-5.1,12.9-6.8,20.1-5c-0.4-5.9,1.6-11.8,6-17.1
								c-7.1-3.3-12.2-9.2-14.8-17c-6.8,5.1-13.7,7.5-20.7,6.9C65.9,196.7,65.2,203.7,60.2,211.1z"/>
						</g>
					</g>
				</g>
			</g>
		</g>
	</g>
	<g>
		<g>
			<g>
				<g>
					<g>
						<path class="st128" d="M79.4,216L79.4,216c-2.8,0-5.5-1-7.6-2.8c-5.1-4.2-5.7-11.8-1.5-16.8c2.3-2.7,5.6-4.3,9.2-4.3
							c2.8,0,5.5,1,7.6,2.8c2.5,2,4,4.9,4.2,8.1c0.3,3.2-0.7,6.3-2.7,8.7C86.3,214.4,83,216,79.4,216z M79.5,200.1
							c-1.2,0-2.3,0.5-3,1.4c-1.4,1.7-1.2,4.1,0.5,5.5c0.9,0.7,1.9,0.9,2.5,0.9h0c1.2,0,2.3-0.5,3-1.4c0.7-0.8,1-1.8,0.9-2.9
							c-0.1-1-0.6-2-1.4-2.7C81.1,200.3,80.1,200.1,79.5,200.1z"/>
					</g>
				</g>
			</g>
		</g>
	</g>
</g>
</svg>
