<?xml version="1.0" encoding="utf-8"?>
<!-- Generator: Adobe Illustrator 22.1.0, SVG Export Plug-In . SVG Version: 6.00 Build 0)  -->
<svg version="1.1" id="Layer_1" xmlns="http://www.w3.org/2000/svg" xmlns:xlink="http://www.w3.org/1999/xlink" x="0px" y="0px"
	 viewBox="0 0 256 256" style="enable-background:new 0 0 256 256;" xml:space="preserve">
<style type="text/css">
	.st0{fill:#F6D67A;}
	.st1{fill:#E77CAE;}
	.st2{fill:#AC6535;}
	.st3{fill:#EB573B;}
	.st4{fill:#464646;}
	.st5{fill:#F5B31F;}
	.st6{fill:#9B592D;}
	.st7{fill:#9B5B2F;}
	.st8{fill:#E8A41A;}
	.st9{fill:#6D6E71;}
	.st10{fill:#E5A21C;}
	.st11{fill:#C66395;}
	.st12{fill:#E09F1E;}
	.st13{fill:#FFFFFF;}
	.st14{fill:#DDB95E;}
	.st15{fill:#EAC771;}
	.st16{fill:#F9F6CD;}
	.st17{fill:#009345;}
	.st18{fill:#008438;}
	.st19{fill:#EAA51B;}
	.st20{opacity:0.1;}
	.st21{fill:#FFD11D;}
	.st22{fill:#FFE37B;}
	.st23{fill:#FFA755;}
	.st24{fill:#FFEC97;}
	.st25{fill:#BC7532;}
	.st26{fill:#EFEFEF;}
	.st27{fill:#60ACF7;}
	.st28{fill:#876C6C;}
	.st29{fill:#1DDCFF;}
	.st30{fill:#BDF3FF;}
	.st31{fill:#EFCA70;}
	.st32{fill:#EFA91D;}
	.st33{fill:#8FAE3C;}
	.st34{fill:#92A5AC;}
	.st35{fill:#E8E3BA;}
	.st36{fill:#F79932;}
	.st37{fill:#F4F4F4;}
	.st38{fill:#FFDF8F;}
	.st39{fill:#EAE5B9;}
	.st40{fill:#7E9E6A;}
	.st41{fill:#94B57F;}
	.st42{fill:#9B5D8C;}
	.st43{fill:#96557A;}
	.st44{fill:#C3755A;}
	.st45{fill:#9BD7DD;}
	.st46{fill:#90CAD3;}
	.st47{fill:#F7F7F7;}
	.st48{fill:#AFE6EF;}
	.st49{fill:#FFFAEB;}
	.st50{fill:#F4EFC3;}
	.st51{fill:#F9F9F9;}
	.st52{fill:#FFE5C4;}
	.st53{fill:#FFB024;}
	.st54{fill:#FFC612;}
	.st55{fill:#FFCE31;}
	.st56{fill:#A05C2D;}
	.st57{fill:#1DCAF2;}
	.st58{fill:#00B0E0;}
	.st59{fill:#F2A355;}
	.st60{fill:#D68032;}
	.st61{fill:#66625D;}
	.st62{fill:#54504D;}
	.st63{fill:#B76955;}
	.st64{fill:#EFE8B4;}
	.st65{fill:#B93226;}
	.st66{fill:#EFEABF;}
	.st67{fill:#90C056;}
	.st68{opacity:0.15;}
	.st69{fill:#E8C56D;}
	.st70{fill:#F7BE4B;}
	.st71{fill:#E0A338;}
	.st72{fill:#F68455;}
	.st73{fill:#E26F47;}
	.st74{fill:#EC754B;}
	.st75{fill:#4AA5BA;}
	.st76{opacity:0.5;}
	.st77{fill:#A0B1B5;}
	.st78{opacity:0.7;}
	.st79{fill:#00ADEE;}
	.st80{fill:#F4D4B3;}
	.st81{fill:#F9D97A;}
	.st82{fill:#EDC96E;}
	.st83{fill:none;}
	.st84{fill:#AF6535;}
	.st85{fill:#F18BB4;}
	.st86{fill:#B3E4FF;}
	.st87{fill:#97DFFF;}
	.st88{fill:#D06E3C;}
	.st89{fill:#B55931;}
	.st90{fill:#DA4F4B;}
	.st91{fill:#EFCAA8;}
	.st92{fill:#EA7CB1;}
	.st93{fill:#EA7DAE;}
	.st94{fill:#BC7646;}
	.st95{fill:#00A1C6;}
	.st96{fill:#FCC230;}
	.st97{fill:#F2EBB1;}
	.st98{fill:#F9D6AF;}
	.st99{fill:#D34735;}
	.st100{fill:#E5A21A;}
	.st101{fill:#849E33;}
	.st102{fill:#EFBB14;}
	.st103{fill:#D8402B;}
	.st104{fill:#829B34;}
	.st105{fill:#F88916;}
	.st106{fill:#E27513;}
	.st107{fill:#FFB41F;}
	.st108{fill:#8AA538;}
	.st109{fill:#BE6BB2;}
	.st110{fill:#AA5BA3;}
	.st111{fill:#FFDF66;}
	.st112{fill:#F4BA00;}
	.st113{fill:#E28529;}
	.st114{fill:#FF9945;}
	.st115{fill:#BA6C45;}
	.st116{fill:#EDBA15;}
	.st117{fill:#E0452F;}
	.st118{fill:#F7F2D5;}
	.st119{fill:#4C4E51;}
	.st120{fill:#EA615D;}
	.st121{fill:#DD4A36;}
	.st122{fill:#F6AF72;}
	.st123{fill:#E8955D;}
	.st124{fill:#E4C074;}
	.st125{fill:#EAE4C3;}
	.st126{fill:#BF3522;}
	.st127{fill:#D13E33;}
	.st128{fill:#AA5EA3;}
	.st129{fill:#DD443C;}
	.st130{fill:#AA5FA3;}
	.st131{fill:#B7C536;}
	.st132{fill:#F2872F;}
	.st133{fill:#AF5FA7;}
	.st134{fill:#E29F17;}
	.st135{fill:#FFC86E;}
	.st136{fill:#A55937;}
	.st137{fill:#D8422E;}
	.st138{fill:#C3556D;}
	.st139{fill:#B24965;}
	.st140{fill:#D1A962;}
	.st141{fill:#A3961A;}
	.st142{fill:#AFA51D;}
	.st143{fill:#968A1C;}
</style>
<g>
	<g>
		<g>
			<g>
				<g>
					<g>
						<g>
							<path class="st52" d="M254.2,128.1c2.1,4.4-0.9,10.2-2.8,13.3c-1.6,2.5-5.9,8.4-10.9,8.4c-0.3,0-0.5,0-0.8,0
								c-1.7-0.2-3.2-0.6-4.4-0.9c-1.6-0.4-2.8-0.7-3.7-0.5c-1.1,0.6-3.6,4-5.5,7.8c0.2,0.5,0.7,1.2,1.1,1.8c0.8,1.2,1.8,2.8,3.1,5
								c2.2,3.7,1.7,8.9-1.3,14.1c-3.2,5.6-9.4,11.2-15.9,11.2c-1.2,0-2.4-0.2-3.6-0.6c-5.5-2-7.5-4.3-8.9-5.9
								c-0.5-0.6-0.7-0.7-0.8-0.8c-1.6,0.1-6.8,2.5-12.1,5.3c0.8,3.7,1.4,9.7-1.6,14.3c-4.1,6.7-12.7,11-21.7,11
								c-6.6,0-12.3-2.4-15.7-6.6c-2.5-3.2-2.2-6.7-2-8.9c0.1-1,0.2-2.2-0.1-2.4c-1.5-1.4-7.9-3.7-12.4-3.7c-1.1,0-1.5,0.2-1.5,0.2
								c-0.9,0.6-2.1,1.9-3.3,3.4c-2,2.3-4.4,5.3-8.1,7.4c-1.6,0.9-3.4,1.4-5.4,1.4c-6.6,0-13.4-4.9-17.2-9.2
								c-3.9-4.4-5.8-9.1-5.3-13.3c0-0.1,0-0.2,0-0.2c0.6-3.5,3-5.6,4.8-7.2c0.4-0.4,1-0.9,1.3-1.2c-1.8-3.2-8.8-9.3-11.4-10.2
								c-0.1,0-0.3,0-0.5,0c-1.6,0-2.9,0.4-3.4,1c-0.4,0.6-0.5,1.9-0.1,3.5c1,4.8,0,9.3-3.1,13.2c-4.2,5.2-11.8,8.6-19.3,8.6
								c-4.9,0-9-1.4-11.9-4c-2.9-2.5-4.7-6.2-4.9-10.6c-0.3-6.4-1.4-8.5-1.8-9.1c-0.5,0.2-1.7,1-2.7,2.4c-0.6,0.8-1.1,2-1.5,3.4
								c-1.1,3-2.8,8.1-9,8.1c-0.3,0-0.5,0-0.8,0c-7.8-0.6-28.4-18.6-28.8-26.8c-0.1-2.3,1.1-4.7,4.1-7.9
								c9.7-10.3,34.2-25.5,56-25.5c4.7,0,9.1,0.7,13.1,2.1c26.4,9.2,38.1,17.1,59.4,31.3l5.1,3.4c8.2,5.5,16.5,8.3,24.7,8.3
								c13.6,0,27.2-7.6,40.3-22.7c19.4-22.1,17.8-42,7.6-51.9C206.1,83.6,195,74,182.7,74c-6.6,0-12.6,2.8-17.9,8.3
								c-4.4,4.5-6.4,9.6-6.1,15.5c0.6,12.4,11.3,23.9,13.4,25.6c1.5,1.2,4.9,2.8,7.6,4.1c5.6,2.6,9,4.2,9.4,7.6
								c0.2,1.6-0.4,3.2-1.7,4.2c-1.9,1.6-5.9,2.6-10.5,2.6c-5.6,0-16.8-1.4-28.7-11.1c-18.6-15.1-20.9-43.7-5.4-66.4
								c8.7-12.8,22.9-20.1,38.9-20.1c14.1,0,28.2,5.6,40.8,16.1c1.3,1.1,1.8,2.9,1.2,4.5c0,0-0.6,2,0.6,3.7c2.1,3,7.1,7.7,10.7,9.7
								c0.9-0.6,2.3-1.5,4.4-1.5c1,0,2,0.2,3,0.6c6.7,2.6,13.2,22.1,13.5,24c0.6,4-2.7,6.4-4.7,7.8c-0.5,0.4-1.4,1-1.7,1.4
								c-0.2,1-0.6,2.2-1.1,3.7c-0.6,1.9-1.8,5.6-1.9,7.3c0.3,0.1,0.6,0.3,0.9,0.4C249.4,122.9,252.5,124.3,254.2,128.1z"/>
						</g>
					</g>
				</g>
			</g>
		</g>
	</g>
</g>
</svg>
