<?xml version="1.0" encoding="utf-8"?>
<!-- Generator: Adobe Illustrator 22.1.0, SVG Export Plug-In . SVG Version: 6.00 Build 0)  -->
<svg version="1.1" id="Layer_1" xmlns="http://www.w3.org/2000/svg" xmlns:xlink="http://www.w3.org/1999/xlink" x="0px" y="0px"
	 viewBox="0 0 256 256" style="enable-background:new 0 0 256 256;" xml:space="preserve">
<style type="text/css">
	.st0{fill:#F6D67A;}
	.st1{fill:#E77CAE;}
	.st2{fill:#AC6535;}
	.st3{fill:#EB573B;}
	.st4{fill:#464646;}
	.st5{fill:#F5B31F;}
	.st6{fill:#9B592D;}
	.st7{fill:#9B5B2F;}
	.st8{fill:#E8A41A;}
	.st9{fill:#6D6E71;}
	.st10{fill:#E5A21C;}
	.st11{fill:#C66395;}
	.st12{fill:#E09F1E;}
	.st13{fill:#FFFFFF;}
	.st14{fill:#DDB95E;}
	.st15{fill:#EAC771;}
	.st16{fill:#F9F6CD;}
	.st17{fill:#009345;}
	.st18{fill:#008438;}
	.st19{fill:#EAA51B;}
	.st20{opacity:0.1;}
	.st21{fill:#FFD11D;}
	.st22{fill:#FFE37B;}
	.st23{fill:#FFA755;}
	.st24{fill:#FFEC97;}
	.st25{fill:#BC7532;}
	.st26{fill:#EFEFEF;}
	.st27{fill:#60ACF7;}
	.st28{fill:#876C6C;}
	.st29{fill:#1DDCFF;}
	.st30{fill:#BDF3FF;}
	.st31{fill:#EFCA70;}
	.st32{fill:#EFA91D;}
	.st33{fill:#8FAE3C;}
	.st34{fill:#92A5AC;}
	.st35{fill:#E8E3BA;}
	.st36{fill:#F79932;}
	.st37{fill:#F4F4F4;}
	.st38{fill:#FFDF8F;}
	.st39{fill:#EAE5B9;}
	.st40{fill:#7E9E6A;}
	.st41{fill:#94B57F;}
	.st42{fill:#9B5D8C;}
	.st43{fill:#96557A;}
	.st44{fill:#C3755A;}
	.st45{fill:#9BD7DD;}
	.st46{fill:#90CAD3;}
	.st47{fill:#F7F7F7;}
	.st48{fill:#AFE6EF;}
	.st49{fill:#FFFAEB;}
	.st50{fill:#F4EFC3;}
	.st51{fill:#F9F9F9;}
	.st52{fill:#FFE5C4;}
	.st53{fill:#FFB024;}
	.st54{fill:#FFC612;}
	.st55{fill:#FFCE31;}
	.st56{fill:#A05C2D;}
	.st57{fill:#1DCAF2;}
	.st58{fill:#00B0E0;}
	.st59{fill:#F2A355;}
	.st60{fill:#D68032;}
	.st61{fill:#66625D;}
	.st62{fill:#54504D;}
	.st63{fill:#B76955;}
	.st64{fill:#EFE8B4;}
	.st65{fill:#B93226;}
	.st66{fill:#EFEABF;}
	.st67{fill:#90C056;}
	.st68{opacity:0.15;}
	.st69{fill:#E8C56D;}
	.st70{fill:#F7BE4B;}
	.st71{fill:#E0A338;}
	.st72{fill:#F68455;}
	.st73{fill:#E26F47;}
	.st74{fill:#EC754B;}
	.st75{fill:#4AA5BA;}
	.st76{opacity:0.5;}
	.st77{fill:#A0B1B5;}
	.st78{opacity:0.7;}
	.st79{fill:#00ADEE;}
	.st80{fill:#F4D4B3;}
	.st81{fill:#F9D97A;}
	.st82{fill:#EDC96E;}
	.st83{fill:none;}
	.st84{fill:#AF6535;}
	.st85{fill:#F18BB4;}
	.st86{fill:#B3E4FF;}
	.st87{fill:#97DFFF;}
	.st88{fill:#D06E3C;}
	.st89{fill:#B55931;}
	.st90{fill:#DA4F4B;}
	.st91{fill:#EFCAA8;}
	.st92{fill:#EA7CB1;}
	.st93{fill:#EA7DAE;}
	.st94{fill:#BC7646;}
	.st95{fill:#00A1C6;}
	.st96{fill:#FCC230;}
	.st97{fill:#F2EBB1;}
	.st98{fill:#F9D6AF;}
	.st99{fill:#D34735;}
	.st100{fill:#E5A21A;}
	.st101{fill:#849E33;}
	.st102{fill:#EFBB14;}
	.st103{fill:#D8402B;}
	.st104{fill:#829B34;}
	.st105{fill:#F88916;}
	.st106{fill:#E27513;}
	.st107{fill:#FFB41F;}
	.st108{fill:#8AA538;}
	.st109{fill:#BE6BB2;}
	.st110{fill:#AA5BA3;}
	.st111{fill:#FFDF66;}
	.st112{fill:#F4BA00;}
	.st113{fill:#E28529;}
	.st114{fill:#FF9945;}
	.st115{fill:#BA6C45;}
	.st116{fill:#EDBA15;}
	.st117{fill:#E0452F;}
	.st118{fill:#F7F2D5;}
	.st119{fill:#4C4E51;}
	.st120{fill:#EA615D;}
	.st121{fill:#DD4A36;}
	.st122{fill:#F6AF72;}
	.st123{fill:#E8955D;}
	.st124{fill:#E4C074;}
	.st125{fill:#EAE4C3;}
	.st126{fill:#BF3522;}
	.st127{fill:#D13E33;}
	.st128{fill:#AA5EA3;}
	.st129{fill:#DD443C;}
	.st130{fill:#AA5FA3;}
	.st131{fill:#B7C536;}
	.st132{fill:#F2872F;}
	.st133{fill:#AF5FA7;}
	.st134{fill:#E29F17;}
	.st135{fill:#FFC86E;}
	.st136{fill:#A55937;}
	.st137{fill:#D8422E;}
	.st138{fill:#C3556D;}
	.st139{fill:#B24965;}
	.st140{fill:#D1A962;}
	.st141{fill:#A3961A;}
	.st142{fill:#AFA51D;}
	.st143{fill:#968A1C;}
</style>
<g>
	<g>
		<g>
			<g>
				<g>
					<path class="st5" d="M78.1,247.5c-0.5,1.5-1.9,2.5-3.5,2.6c-0.3,0-27.9,2-44.8,2c-9.4,0-12.2-0.6-13.7-1.2
						C7,247.4-1.8,227.6,4.6,209.8c6.3-17.4,42.1-40.8,43.6-41.8c1-0.7,2.3-0.8,3.5-0.4c1.2,0.4,2.1,1.3,2.5,2.5l0,0.1
						c0.1,0.2,0.1,0.4,0.2,0.6c3.7,20.6,20.2,68,23.1,72.7C78.3,244.6,78.6,246.1,78.1,247.5z"/>
				</g>
			</g>
		</g>
	</g>
	<g>
		<g>
			<g>
				<g>
					<path class="st5" d="M246.6,70.7c0,1.6-1,3-2.4,3.6c-0.5,0.2-1.1,0.3-1.6,0.3c-0.8,0-1.7-0.3-2.4-0.8
						c-4.8-2.6-53.1-16.4-73.8-18.8c-0.3,0-0.6-0.1-0.8-0.2l-0.2,0c-1.1-0.4-2-1.2-2.5-2.4c-0.4-1.1-0.3-2.4,0.3-3.4
						c0.9-1.6,22.1-38.6,39.1-45.9c4.7-2,9.7-3,15-3c11.9,0,23.6,5.4,26.7,12.3C247.2,19,246.8,58.7,246.6,70.7z"/>
				</g>
			</g>
		</g>
	</g>
	<g>
		<g>
			<g>
				<g>
					<path class="st10" d="M139,230.8c-0.8,0.8-18.5,18.8-35.4,23.4c-4.3,1.2-8.4,1.8-12.3,1.8c-11.8,0-18.2-5.4-19.8-7.1
						c-3.8-3.8-21.4-56.3-25.1-76.7c-1.4-7.6-0.8-10.3,0.4-12.1c4.5-6.5,36.1-30,42.4-34.7c1-0.7,2.2-1,3.4-0.7
						c1.2,0.3,2.2,1.1,2.6,2.2l44.5,99.4C140.5,227.8,140.1,229.6,139,230.8z"/>
				</g>
			</g>
		</g>
	</g>
	<g>
		<g>
			<g>
				<g>
					<path class="st10" d="M252.5,99.4c-3.2,15.1-16.7,31.4-20.8,36.1c-0.8,0.9-1.9,1.4-3,1.4c-0.5,0-1-0.1-1.5-0.3L126.3,96.4
						c-1.1-0.5-2-1.4-2.3-2.5c-0.4-1.1-0.2-2.4,0.5-3.4c9.3-14,25.6-38.2,30.8-42.3c1.4-1.1,3.3-1.6,6.2-1.6c1.6,0,3.6,0.1,5.9,0.4
						c20.5,2.4,73.9,17,77.9,20.6C247.3,69.4,256.8,79.1,252.5,99.4z"/>
				</g>
			</g>
		</g>
	</g>
	<g>
		<g>
			<g>
				<g>
					<path class="st5" d="M236,166.5c-13,31.4-55.7,71.1-85.2,71.1c-7.1,0-13-2.3-17.5-6.8c-0.3-0.4-0.6-0.8-0.8-1.2L88,130.2
						c-0.1-0.2-0.2-0.5-0.2-0.7c-2.3-10.3,0.2-21.1,7.1-29.7c6.4-8.1,15.6-12.9,24.7-12.9c3.3,0,6.6,0.7,9.6,1.9l0.1,0.1
						c0,0,0.1,0,0.1,0L232,129.8c0.5,0.2,1,0.5,1.4,0.9C239,136.3,244,147.1,236,166.5z"/>
				</g>
			</g>
		</g>
	</g>
</g>
</svg>
