<?xml version="1.0" encoding="utf-8"?>
<!-- Generator: Adobe Illustrator 22.1.0, SVG Export Plug-In . SVG Version: 6.00 Build 0)  -->
<svg version="1.1" id="Layer_1" xmlns="http://www.w3.org/2000/svg" xmlns:xlink="http://www.w3.org/1999/xlink" x="0px" y="0px"
	 viewBox="0 0 256 256" style="enable-background:new 0 0 256 256;" xml:space="preserve">
<style type="text/css">
	.st0{fill:#F6D67A;}
	.st1{fill:#E77CAE;}
	.st2{fill:#AC6535;}
	.st3{fill:#EB573B;}
	.st4{fill:#464646;}
	.st5{fill:#F5B31F;}
	.st6{fill:#9B592D;}
	.st7{fill:#9B5B2F;}
	.st8{fill:#E8A41A;}
	.st9{fill:#6D6E71;}
	.st10{fill:#E5A21C;}
	.st11{fill:#C66395;}
	.st12{fill:#E09F1E;}
	.st13{fill:#FFFFFF;}
	.st14{fill:#DDB95E;}
	.st15{fill:#EAC771;}
	.st16{fill:#F9F6CD;}
	.st17{fill:#009345;}
	.st18{fill:#008438;}
	.st19{fill:#EAA51B;}
	.st20{opacity:0.1;}
	.st21{fill:#FFD11D;}
	.st22{fill:#FFE37B;}
	.st23{fill:#FFA755;}
	.st24{fill:#FFEC97;}
	.st25{fill:#BC7532;}
	.st26{fill:#EFEFEF;}
	.st27{fill:#60ACF7;}
	.st28{fill:#876C6C;}
	.st29{fill:#1DDCFF;}
	.st30{fill:#BDF3FF;}
	.st31{fill:#EFCA70;}
	.st32{fill:#EFA91D;}
	.st33{fill:#8FAE3C;}
	.st34{fill:#92A5AC;}
	.st35{fill:#E8E3BA;}
	.st36{fill:#F79932;}
	.st37{fill:#F4F4F4;}
	.st38{fill:#FFDF8F;}
	.st39{fill:#EAE5B9;}
	.st40{fill:#7E9E6A;}
	.st41{fill:#94B57F;}
	.st42{fill:#9B5D8C;}
	.st43{fill:#96557A;}
	.st44{fill:#C3755A;}
	.st45{fill:#9BD7DD;}
	.st46{fill:#90CAD3;}
	.st47{fill:#F7F7F7;}
	.st48{fill:#AFE6EF;}
	.st49{fill:#FFFAEB;}
	.st50{fill:#F4EFC3;}
	.st51{fill:#F9F9F9;}
	.st52{fill:#FFE5C4;}
	.st53{fill:#FFB024;}
	.st54{fill:#FFC612;}
	.st55{fill:#FFCE31;}
	.st56{fill:#A05C2D;}
	.st57{fill:#1DCAF2;}
	.st58{fill:#00B0E0;}
	.st59{fill:#F2A355;}
	.st60{fill:#D68032;}
	.st61{fill:#66625D;}
	.st62{fill:#54504D;}
	.st63{fill:#B76955;}
	.st64{fill:#EFE8B4;}
	.st65{fill:#B93226;}
	.st66{fill:#EFEABF;}
	.st67{fill:#90C056;}
	.st68{opacity:0.15;}
	.st69{fill:#E8C56D;}
	.st70{fill:#F7BE4B;}
	.st71{fill:#E0A338;}
	.st72{fill:#F68455;}
	.st73{fill:#E26F47;}
	.st74{fill:#EC754B;}
	.st75{fill:#4AA5BA;}
	.st76{opacity:0.5;}
	.st77{fill:#A0B1B5;}
	.st78{opacity:0.7;}
	.st79{fill:#00ADEE;}
	.st80{fill:#F4D4B3;}
	.st81{fill:#F9D97A;}
	.st82{fill:#EDC96E;}
	.st83{fill:none;}
	.st84{fill:#AF6535;}
	.st85{fill:#F18BB4;}
	.st86{fill:#B3E4FF;}
	.st87{fill:#97DFFF;}
	.st88{fill:#D06E3C;}
	.st89{fill:#B55931;}
	.st90{fill:#DA4F4B;}
	.st91{fill:#EFCAA8;}
	.st92{fill:#EA7CB1;}
	.st93{fill:#EA7DAE;}
	.st94{fill:#BC7646;}
	.st95{fill:#00A1C6;}
	.st96{fill:#FCC230;}
	.st97{fill:#F2EBB1;}
	.st98{fill:#F9D6AF;}
	.st99{fill:#D34735;}
	.st100{fill:#E5A21A;}
	.st101{fill:#849E33;}
	.st102{fill:#EFBB14;}
	.st103{fill:#D8402B;}
	.st104{fill:#829B34;}
	.st105{fill:#F88916;}
	.st106{fill:#E27513;}
	.st107{fill:#FFB41F;}
	.st108{fill:#8AA538;}
	.st109{fill:#BE6BB2;}
	.st110{fill:#AA5BA3;}
	.st111{fill:#FFDF66;}
	.st112{fill:#F4BA00;}
	.st113{fill:#E28529;}
	.st114{fill:#FF9945;}
	.st115{fill:#BA6C45;}
	.st116{fill:#EDBA15;}
	.st117{fill:#E0452F;}
	.st118{fill:#F7F2D5;}
	.st119{fill:#4C4E51;}
	.st120{fill:#EA615D;}
	.st121{fill:#DD4A36;}
	.st122{fill:#F6AF72;}
	.st123{fill:#E8955D;}
	.st124{fill:#E4C074;}
	.st125{fill:#EAE4C3;}
	.st126{fill:#BF3522;}
	.st127{fill:#D13E33;}
	.st128{fill:#AA5EA3;}
	.st129{fill:#DD443C;}
	.st130{fill:#AA5FA3;}
	.st131{fill:#B7C536;}
	.st132{fill:#F2872F;}
	.st133{fill:#AF5FA7;}
	.st134{fill:#E29F17;}
	.st135{fill:#FFC86E;}
	.st136{fill:#A55937;}
	.st137{fill:#D8422E;}
	.st138{fill:#C3556D;}
	.st139{fill:#B24965;}
	.st140{fill:#D1A962;}
	.st141{fill:#A3961A;}
	.st142{fill:#AFA51D;}
	.st143{fill:#968A1C;}
</style>
<g>
	<g>
		<g>
			<g>
				<g>
					<g>
						<g>
							<g>
								<path class="st34" d="M146.1,82.7c-2.2,6.4-5.4,18.5-9.2,32.8c7.5-36.1-23.5-64.4-32.8-69.3c-9.3-4.8-19.8-4-27.4-2.5
									c-7.5,1.4-12.8,12.3-21.3,15s-14.8,4.8-20.6,7.5c-10.4,4.8-21.5,35.7-17.1,58.3c-10.5-29-14.6-56.2-9-65
									c5.5-8.7,10.9-19,20.7-29.8S58.8,3.3,82.4,4c23.6,0.7,31.8,2.4,45.4,16.2C141.5,34,153.9,59.4,146.1,82.7z"/>
							</g>
						</g>
					</g>
				</g>
			</g>
		</g>
		<g class="st76">
			<g>
				<g>
					<g>
						<g>
							<g>
								<path class="st13" d="M127.9,20.2C114.2,6.5,106.1,4.8,82.4,4c-23.6-0.7-43.3,14.7-53,25.5S14.2,50.7,8.7,59.4
									c-5.5,8.8-9.5,8.9,0.9,37.9c0,0,3-58,54.8-78.2C116.3-1.1,127.9,20.2,127.9,20.2L127.9,20.2z"/>
							</g>
						</g>
					</g>
				</g>
			</g>
		</g>
		<g>
			<g>
				<g>
					<g>
						<g>
							<g>
								<path class="st34" d="M136.9,115.5c-3.1,11.6-6.5,24.6-10.1,37.3c1.4-24.8-6.1-65.7-38.7-62.6c-9.4,1.2-11,6.4-20.4,9.1
									c-9.4,2.7-15.9,3.1-20.3,7.6c-9.3,12-19.6,35.8-9.3,60.7c-5.7-9.5-10.9-19.8-15.2-30.2c-1.8-4.3-3.5-8.7-5.1-13
									c-4.4-22.6,6.6-53.5,17.1-58.3c5.7-2.7,12.1-4.8,20.6-7.5s13.8-13.6,21.3-15c7.5-1.4,18.1-2.3,27.4,2.5
									C113.4,51.1,144.4,79.4,136.9,115.5z"/>
							</g>
						</g>
					</g>
				</g>
			</g>
		</g>
		<g class="st76">
			<g>
				<g>
					<g>
						<g>
							<g>
								<path class="st13" d="M129,72.7c-8.2-14.1-19.8-23.8-24.9-26.5c-9.3-4.8-19.8-4-27.4-2.5c-7.5,1.4-12.8,12.3-21.3,15
									s-14.8,4.8-20.6,7.5c-10.4,4.8-21.5,35.7-17.1,58.3c1.6,4.3,3.3,8.7,5.1,13c0,0,4.5-46.9,13.6-58.8
									c2.7-3.5,12.5-10.5,23.9-11.6c7.4-0.7,15.9-17.5,24.1-17.2C107,50.7,129,72.7,129,72.7z"/>
							</g>
						</g>
					</g>
				</g>
			</g>
		</g>
		<g>
			<g>
				<g>
					<g>
						<g>
							<g>
								<path class="st34" d="M126.7,152.8c-3.6,12.6-7.3,24.7-10.9,34.6c13.9-42.7-22.9-50.5-30.2-48.8c-7.8,1.8-17.5,7-22.9,28.4
									c-5.4,21.4,31.3,44.9,31.3,44.9c-21.1,0.4-40.7-19-56-44.2c0,0,0,0,0,0c-10.3-25,0-48.7,9.3-60.8c4.4-4.5,10.9-4.9,20.3-7.6
									c9.4-2.7,11-7.9,20.4-9.1C120.7,87,128.2,128,126.7,152.8z"/>
							</g>
						</g>
					</g>
				</g>
			</g>
		</g>
		<g class="st76">
			<g>
				<g>
					<g>
						<g>
							<g>
								<path class="st13" d="M120.2,111c-5.8-12.9-15.8-22.4-32.1-20.8c-9.4,1.2-11,6.4-20.4,9.1c-9.4,2.7-15.9,3.1-20.3,7.6
									c-9.3,12-19.6,35.8-9.3,60.7c0,0,0,0,0,0c0,0,8-48.3,17-53.5c9-5.2,10.2-3.6,18.7-6.8c8.7-3.3,8.8-7.6,18.3-7.7
									C101.7,99.5,120.2,111,120.2,111z"/>
							</g>
						</g>
					</g>
				</g>
			</g>
		</g>
		<g>
			<g>
				<g>
					<g>
						<g>
							<g>
								<path class="st34" d="M115.9,187.4C115.9,187.4,115.9,187.4,115.9,187.4c-1.3,3.5-2.5,6.8-3.8,9.6c0,0.1-0.1,0.1-0.1,0.2
									c-3.1,7.1-6,12-8.5,13.2c-3.2,1-6.3,1.5-9.4,1.5c0,0-36.7-23.4-31.3-44.9c5.4-21.4,15-26.6,22.9-28.4
									C92.9,136.9,129.8,144.7,115.9,187.4z"/>
							</g>
						</g>
					</g>
				</g>
			</g>
		</g>
		<g class="st76">
			<g>
				<g>
					<g>
						<g>
							<g>
								<path class="st13" d="M115.8,155.2c-7.4-14.7-25.3-17.8-30.1-16.6c-7.8,1.8-17.5,7-22.9,28.4c-1.8,7,1,14.3,5.5,20.8
									c0,0-1.9-23.2,12.8-36.3S115.8,155.2,115.8,155.2z"/>
							</g>
						</g>
					</g>
				</g>
			</g>
		</g>
		<g>
			<g>
				<g>
					<g>
						<g>
							<g>
								<path class="st34" d="M22.9,137.4c-2.5-3.7-4.1-8.2-5.1-13L22.9,137.4z"/>
							</g>
						</g>
					</g>
				</g>
			</g>
		</g>
		<g>
			<g>
				<g>
					<g>
						<g>
							<g>
								<g>
									<path class="st34" d="M17.8,128.4c-1.6,0-3.2-1-3.8-2.6C5.3,101.7-2.2,69.3,5.4,57.3c1.1-1.7,2.1-3.5,3.2-5.3
										c4.6-7.6,9.7-16.1,17.8-25.1C32.1,20.6,52.8,0,80.8,0c0.6,0,1.2,0,1.8,0c23.7,0.8,33.3,2.4,48.2,17.4
										C146.1,32.9,158,59.6,149.8,84c-2.1,6.2-5.3,18.2-9,32.1l-0.1,0.4c-0.6,2.1-2.7,3.4-4.8,2.9c-2.1-0.5-3.4-2.6-3-4.7
										c7-33.5-21.9-60.3-30.7-64.9c-4.1-2.1-9-3.2-14.5-3.2c-3.2,0-6.5,0.3-10.3,1c-2.6,0.5-5.4,3.2-8.4,6.1
										c-3.5,3.4-7.4,7.2-12.5,8.8c-8.7,2.7-14.7,4.8-20.1,7.3c-8.3,3.9-19,32.5-14.8,53.9c0.4,2.1-0.8,4.1-2.9,4.6
										C18.5,128.4,18.1,128.4,17.8,128.4z M80.8,8C56.1,8,37.5,26.5,32.4,32.2c-7.6,8.4-12.5,16.6-16.9,23.9
										c-1.1,1.9-2.2,3.7-3.3,5.4c-2.9,4.6-2.6,18.2,2,37.4c2.9-16.7,10.4-32.4,19-36.4c5.7-2.7,12.1-4.8,21-7.6
										c3.3-1,6.3-4,9.3-6.9c3.7-3.6,7.5-7.3,12.5-8.2c4.3-0.8,8.1-1.2,11.8-1.2c6.8,0,13,1.4,18.2,4.1c8.6,4.5,27.8,22,34.1,46
										c0.8-2.9,1.6-5.3,2.2-7.3c7.1-21.1-4-45.1-17.2-58.4C112.4,10.3,105.2,8.8,82.3,8C81.8,8,81.3,8,80.8,8z"/>
								</g>
							</g>
						</g>
					</g>
				</g>
			</g>
			<g>
				<g>
					<g>
						<g>
							<g>
								<g>
									<path class="st34" d="M38.1,171.6c-1.4,0-2.7-0.7-3.4-1.9c-5.6-9.3-10.8-19.6-15.5-30.7c-1.8-4.3-3.6-8.8-5.2-13.2
										c-0.1-0.2-0.1-0.4-0.2-0.6c-4.4-22.6,6-56.5,19.3-62.7c5.7-2.7,12.1-4.8,21-7.6c3.3-1,6.3-4,9.3-6.9
										c3.7-3.6,7.5-7.3,12.5-8.2c4.3-0.8,8.1-1.2,11.8-1.2c6.8,0,13,1.4,18.2,4.1c11.6,6.1,42.7,36,34.9,73.7
										c0,0.1,0,0.1-0.1,0.2l-0.3,1.1c-3,11.2-6.4,23.9-9.9,36.2c-0.6,2-2.5,3.2-4.5,2.8c-2-0.3-3.4-2.1-3.3-4.2
										c0.9-16-2-38.9-13.2-50.8c-5.6-5.9-12.5-8.4-21-7.6c-4.2,0.5-6.4,2-9.2,3.8c-2.7,1.8-5.7,3.7-10.5,5.1
										c-2.5,0.7-4.7,1.3-6.8,1.8c-5.5,1.3-9.2,2.2-11.6,4.6c-3.8,5-20.1,28.8-8.6,56.6c0.8,1.9,0,4.2-1.9,5.1
										C39.3,171.5,38.7,171.6,38.1,171.6z M21.6,123.4c1.5,4.2,3.2,8.4,4.9,12.5c1.1,2.5,2.2,5,3.3,7.5
										c0.6-15.4,6.9-29.3,14.4-38.9c0.1-0.1,0.2-0.2,0.3-0.3c4.1-4.1,9.4-5.5,15.6-7c2-0.5,4.1-1,6.5-1.7
										c3.7-1.1,5.9-2.5,8.3-4.1c3.2-2.1,6.6-4.3,12.7-5.1c0,0,0.1,0,0.1,0c11-1.1,20.4,2.3,27.6,10c7.6,8.1,12,19.8,14,31.9
										c1.2-4.3,2.3-8.5,3.3-12.5l0.3-1c6.9-33.5-22-60.2-30.8-64.8c-4.1-2.1-9-3.2-14.5-3.2c-3.2,0-6.5,0.3-10.3,1
										c-2.6,0.5-5.4,3.2-8.4,6.1c-3.5,3.4-7.4,7.2-12.5,8.8c-8.7,2.7-14.7,4.8-20.1,7.3C28.2,73.6,17.6,102,21.6,123.4z"/>
								</g>
							</g>
						</g>
					</g>
				</g>
			</g>
			<g>
				<g>
					<g>
						<g>
							<g>
								<g>
									<path class="st34" d="M93.3,215.9c-25.4,0-45.9-25.1-58.7-46.2c0-0.1-0.1-0.1-0.1-0.2c-0.1-0.1-0.1-0.2-0.2-0.3h0
										c-10.3-25-1.7-49.8,9.8-64.7c0.1-0.1,0.2-0.2,0.3-0.3c4.1-4.1,9.4-5.5,15.6-7c2-0.5,4.1-1,6.5-1.7c3.7-1.1,5.9-2.5,8.3-4.1
										c3.2-2.1,6.6-4.3,12.7-5.1c0,0,0.1,0,0.1,0c11-1.1,20.4,2.3,27.7,10c13,13.8,16.5,38.3,15.4,56.8c0,0.3-0.1,0.6-0.1,0.9
										c-4.1,14.5-7.7,25.9-11,34.9c-0.7,2.1-3,3.1-5.1,2.4c-2.1-0.7-3.2-2.9-2.5-5c4.5-13.6,3.8-24.5-1.9-32.4
										c-6.8-9.4-18.4-11.4-22.3-11.4c-0.9,0-1.3,0.1-1.4,0.1c-6.7,1.6-14.9,5.9-19.9,25.5c-3.9,15.3,20,34.4,29.6,40.5
										c1.5,0.9,2.2,2.8,1.7,4.5c-0.5,1.7-2,2.9-3.8,2.9C93.9,215.9,93.6,215.9,93.3,215.9z M41.7,165.8
										c11.2,18.4,23.2,31.2,35,37.5c-10.3-9.5-21.3-23.5-17.8-37.3c6.1-24.1,17.7-29.4,25.8-31.3c0.9-0.2,2-0.3,3.2-0.3
										c6.3,0,20.3,3.1,28.7,14.7c1.9,2.7,3.4,5.5,4.5,8.7c0.5-1.8,1.1-3.7,1.6-5.6c0.9-16-2.1-38.5-13.3-50.4
										c-5.6-5.9-12.4-8.4-21-7.6c-4.2,0.5-6.4,2-9.2,3.8c-2.7,1.8-5.7,3.7-10.5,5.1c-2.5,0.7-4.7,1.3-6.8,1.8
										c-5.5,1.3-9.2,2.2-11.6,4.6C46.6,114.5,30.4,138.1,41.7,165.8z"/>
								</g>
							</g>
						</g>
					</g>
				</g>
			</g>
			<g>
				<g>
					<g>
						<g>
							<g>
								<g>
									<path class="st34" d="M94.1,215.8c-0.8,0-1.5-0.2-2.2-0.6c-1.6-1-39.1-25.3-33-49.2c6.1-24.1,17.7-29.4,25.8-31.3
										c0.9-0.2,2-0.3,3.2-0.3c6.3,0,20.3,3.1,28.7,14.7c7.3,10,8.3,23.3,3,39.6c0,0.1-0.1,0.2-0.1,0.3c0,0,0,0,0,0
										c-1.4,3.7-2.6,6.9-3.8,9.7h0c0,0.1-0.1,0.1-0.1,0.2c-3.8,8.9-7.1,13.6-10.5,15.2c-0.2,0.1-0.3,0.1-0.5,0.2
										C101.2,215.2,97.7,215.8,94.1,215.8C94.1,215.8,94.1,215.8,94.1,215.8z M88,142.4c-0.9,0-1.3,0.1-1.4,0.1
										c-6.7,1.6-14.9,5.9-19.9,25.5c-3.7,14.7,18.4,33.1,28.5,39.8c2.3-0.1,4.5-0.5,6.8-1.2c0.5-0.4,2.7-2.4,6.4-11l0,0
										c0-0.1,0.1-0.1,0.1-0.2c1.1-2.7,2.3-5.7,3.7-9.4c0,0,0,0,0-0.1c4.4-13.6,3.8-24.4-1.9-32.2
										C103.4,144.4,91.8,142.4,88,142.4z"/>
								</g>
							</g>
						</g>
					</g>
				</g>
			</g>
		</g>
	</g>
	<g>
		<g>
			<g>
				<g>
					<g>
						<g>
							<g>
								<path class="st77" d="M203.5,224.9C178.4,244.7,148,256,120.3,256c-15.5,0-29.2-3.6-39.6-10.4c-0.6-0.4-1-0.9-1.3-1.5
									c-7.8-14.7,16.3-92.8,31.9-127.8c0.9-2,3.2-2.9,5.2-2.1c2,0.9,3,3.2,2.1,5.2c-1.4,3.4-33.5,82.6-12.6,109.9
									c4.9,6.4,13.2,9.6,24.8,9.6c0,0,0,0,0,0c29.4,0,68-20.5,68.4-20.7c1.8-1,4.1-0.4,5.2,1.3
									C205.6,221.3,205.2,223.6,203.5,224.9z"/>
							</g>
						</g>
					</g>
				</g>
			</g>
		</g>
		<g>
			<g>
				<g>
					<g>
						<g>
							<g>
								<path class="st34" d="M201.1,221.7C201.1,221.7,201.1,221.7,201.1,221.7c19.1-15,36.1-35.7,48-62.3
									c3.4-13.8-6.9-17.2-7.4-40c-0.2-15.9-23.3-41-46.8-50c-23.6-9-53.6,0-72.6,33.8c-2.3,4-4.7,8.9-7.1,14.3c0,0,0,0.1-0.1,0.2
									c0,0,0,0.1-0.1,0.1c-2.5,6.1-34.2,84.9-12.1,113.8C125.8,261.6,200,222.3,201.1,221.7z M120.8,215c-3.2-4.8,6.4-32,6.4-32
									s7.6-34.2,12.4-40.8c4.8-6.6,22.2-30.1,47.7-23.7c25.5,6.4,28.8,25.8,28.9,34.5c0.1,8.7,1.4,23.1-10.8,39.9
									C193.3,209.7,138,239,120.8,215z"/>
							</g>
						</g>
					</g>
				</g>
			</g>
		</g>
		<g>
			<g>
				<g>
					<g>
						<g>
							<g>
								<path class="st52" d="M205.5,192.9c12.2-16.8,10.9-31.2,10.8-39.9c-0.1-8.7-3.3-28-28.9-34.5c-25.5-6.4-42.9,17.1-47.7,23.7
									c-4.8,6.6-12.4,40.8-12.4,40.8s-9.6,27.2-6.4,32C138,239,193.3,209.7,205.5,192.9z"/>
							</g>
						</g>
					</g>
				</g>
			</g>
		</g>
		<g class="st78">
			<g>
				<g>
					<g>
						<g>
							<g>
								<path class="st13" d="M187.4,118.5c-25.5-6.4-42.9,17.1-47.7,23.7c-4.8,6.6-12.4,40.8-12.4,40.8s-9.6,27.2-6.4,32
									c7.1,9.9,20.8,10.7,35.2,7.1c0,0-14.2-12.4-13.1-39.7C146,138.7,187.4,118.5,187.4,118.5z"/>
							</g>
						</g>
					</g>
				</g>
			</g>
		</g>
		<g>
			<g>
				<g>
					<g>
						<g>
							<g>
								<g>
									<path class="st34" d="M130.8,246.9c-14.1,0-24.6-4.3-31.1-12.8c-10-13.1-11.4-36.2-3.9-68.8c5.4-23.9,13.8-45,15.5-49
										c0-0.1,0.1-0.1,0.1-0.2c0.1-0.1,0.1-0.3,0.1-0.3c2.5-5.6,4.9-10.5,7.2-14.6c14-24.9,35.3-39.1,58.4-39.1
										c6.6,0,13.1,1.2,19.2,3.6c25.2,9.6,49.2,35.7,49.4,53.7c0.2,10.5,2.7,16.5,4.8,21.8c2.3,5.7,4.5,11,2.5,19.2
										c-0.1,0.2-0.1,0.4-0.2,0.7c-11.2,25.3-28.2,47.4-49.2,63.8c-0.2,0.2-0.5,0.3-0.8,0.5C199.7,227,161.2,246.9,130.8,246.9z
										 M118.6,119.6c-12.5,30.6-29.2,88-12.5,109.7c4.9,6.4,13.2,9.6,24.8,9.6c28.1,0,64.7-18.8,68.1-20.6
										c20-15.8,35.5-36,46.3-60.2c1.3-5.5-0.1-8.8-2.2-13.9c-2.3-5.6-5.2-12.7-5.4-24.7c-0.2-13-21.1-37.4-44.3-46.3
										c-5.2-2-10.7-3-16.3-3c-20.1,0-38.8,12.8-51.4,35.1c-2.2,3.9-4.5,8.6-6.9,14c0,0.1,0,0.1-0.1,0.1c0,0,0,0,0,0
										C118.7,119.4,118.6,119.5,118.6,119.6z"/>
								</g>
							</g>
						</g>
					</g>
				</g>
			</g>
		</g>
		<g>
			<g>
				<g>
					<g>
						<g>
							<path class="st13" d="M158.3,208.2c-1.6,0-3.2-1-3.8-2.6c-0.8-2.1,0.3-4.4,2.4-5.1c17.7-6.5,28.5-14,35.1-24.2
								c1.2-1.9,3.7-2.4,5.5-1.2c1.9,1.2,2.4,3.7,1.2,5.5c-9.7,15.2-26,22.6-39,27.4C159.2,208.1,158.8,208.2,158.3,208.2z"/>
						</g>
					</g>
				</g>
			</g>
		</g>
		<g>
			<g>
				<g>
					<g>
						<g>
							<path class="st13" d="M197.8,167.7c-1.1,0-2.1-0.4-2.9-1.2c-6.4-6.6-12.8-8.7-20.2-6.5c-2.1,0.6-4.3-0.6-5-2.7
								c-0.6-2.1,0.6-4.3,2.7-5c7.1-2.1,13.8-1.4,20,2c-2-9.9-5.4-16.6-10.6-20.7c-1.7-1.4-2-3.9-0.6-5.6c1.4-1.7,3.9-2,5.6-0.6
								c8.4,6.8,13.2,18.2,14.9,35.9c0.2,1.7-0.8,3.3-2.3,4C198.9,167.5,198.4,167.7,197.8,167.7z"/>
						</g>
					</g>
				</g>
			</g>
		</g>
	</g>
</g>
</svg>
