<?xml version="1.0" encoding="iso-8859-1"?>
<!-- Generator: Adobe Illustrator 19.0.0, SVG Export Plug-In . SVG Version: 6.00 Build 0)  -->
<svg version="1.1" id="Capa_1" xmlns="http://www.w3.org/2000/svg" xmlns:xlink="http://www.w3.org/1999/xlink" x="0px" y="0px"
	 viewBox="0 0 512 512" style="enable-background:new 0 0 512 512;" xml:space="preserve">
<g>
	<g>
		<path style="fill:#545454;" d="M312.299,242.128l64.644,64.645c45.366-48.834,42.435-122.822-3.148-168.567C321.637,85.86,229.62,89.661,185.259,158.218
			l-16.392,25.333l58.579,58.577c5.863,5.863,5.863,15.352,0,21.215c-5.863,5.861-15.352,5.861-21.213,0L152.2,209.31
			L85.533,312.349l35.847,35.847c5.861,5.861,5.861,15.35,0,21.213c-5.864,5.862-15.352,5.862-21.215-0.001l-31.298-31.3
			L8.304,431.644c-13.279,20.488-10.378,47.895,6.888,65.162c17.267,17.267,44.674,20.167,65.151,6.898L225.411,409.8
			l-40.393-40.391c-5.861-5.863-5.861-15.352,0-21.213c5.863-5.863,15.352-5.863,21.215,0l44.938,44.938l102.621-66.4
			c0.141-0.092,0.242-0.212,0.381-0.304l-63.087-63.087c-5.863-5.863-5.863-15.352,0-21.215
			C296.947,236.267,306.436,236.267,312.299,242.128z"/>
	</g>
</g>
<g>
	<g>
		<path style="fill:#545454;" d="M503.205,136.073C497.528,130.397,490,128,482.004,128h-54.857l54.857-55.576c11.693-11.695,11.693-30.732,0-42.427
			c-11.695-11.693-30.732-11.693-42.427,0L385,84.853V29.996c0-7.996-3.397-15.526-9.073-21.202C370.251,3.118,362.72,0,354.723,0
			C338.193,0,325,13.466,325,29.996v47.741c25.961,6.678,48.358,17.692,69.964,39.298c21.46,21.458,32.587,43.921,39.293,69.964
			h47.747C498.534,187,512,173.808,512,157.275C512,149.279,508.882,141.749,503.205,136.073z"/>
	</g>
</g>
<g>
</g>
<g>
</g>
<g>
</g>
<g>
</g>
<g>
</g>
<g>
</g>
<g>
</g>
<g>
</g>
<g>
</g>
<g>
</g>
<g>
</g>
<g>
</g>
<g>
</g>
<g>
</g>
<g>
</g>
</svg>
